<svg width="149" height="149" viewBox="0 0 149 149" fill="none" xmlns="http://www.w3.org/2000/svg">
<g filter="url(#filter0_d_4826_2062)">
<path d="M39.6249 0.53125C20.2962 0.53125 4.625 16.2001 4.625 35.5308V105.533C4.625 124.862 20.2962 140.531 39.6249 140.531H109.627C128.956 140.531 144.627 124.862 144.627 105.533V0.53125H39.6249Z" fill="#202020"/>
<path d="M42.8888 56.4352C41.7438 51.4283 46.7394 46.9979 53.2013 46.9979C59.022 46.9979 64.8563 48.303 67.0764 56.4185H74.5379V68.8034C65.2351 61.1564 45.0668 65.9544 42.8888 56.4352ZM120.311 53.0066H103.502L87.5122 70.5193V35.5305H74.5379V44.0082C74.1145 43.4618 73.6682 42.9187 73.1683 42.3887C68.4502 37.3943 61.6531 34.8621 52.9625 34.8621C42.9121 34.8621 37.1981 39.3601 34.1737 43.1328C30.4174 47.8165 28.7403 54.2095 29.901 59.4184C32.9075 72.9028 45.4199 75.0562 54.6118 76.2513C61.8687 77.1952 68.8113 78.5125 68.6271 84.9809C68.4349 91.6935 60.8681 93.344 55.9012 93.344C42.9656 93.344 42.5292 83.7825 42.5292 83.7825H28.6171C28.8203 87.3732 29.9054 93.1376 34.3258 98.0843C39.1659 103.504 46.4253 106.251 55.9012 106.251C63.1703 106.251 69.7919 103.883 74.5379 99.6779V105.457H87.5122V88.9404L92.1026 83.9192L105.207 105.457H120.306L101.237 73.9121L120.311 53.0066Z" fill="white"/>
</g>
<defs>
<filter id="filter0_d_4826_2062" x="0.625" y="0.53125" width="148.002" height="148" filterUnits="userSpaceOnUse" color-interpolation-filters="sRGB">
<feFlood flood-opacity="0" result="BackgroundImageFix"/>
<feColorMatrix in="SourceAlpha" type="matrix" values="0 0 0 0 0 0 0 0 0 0 0 0 0 0 0 0 0 0 127 0" result="hardAlpha"/>
<feOffset dy="4"/>
<feGaussianBlur stdDeviation="2"/>
<feComposite in2="hardAlpha" operator="out"/>
<feColorMatrix type="matrix" values="0 0 0 0 0 0 0 0 0 0 0 0 0 0 0 0 0 0 0.25 0"/>
<feBlend mode="normal" in2="BackgroundImageFix" result="effect1_dropShadow_4826_2062"/>
<feBlend mode="normal" in="SourceGraphic" in2="effect1_dropShadow_4826_2062" result="shape"/>
</filter>
</defs>
</svg>
