<svg width="344" height="149" viewBox="0 0 344 149" fill="none" xmlns="http://www.w3.org/2000/svg">
<g filter="url(#filter0_d_4826_1972)">
<path d="M108.838 67.3783L107.577 63.2518H107.462L106.201 67.1491L104.367 73.1096H110.786L108.838 67.3783ZM113.423 79.8726C113.079 79.8726 112.849 79.8725 112.735 79.414L111.359 75.2875H103.565L102.189 79.414C102.075 79.6433 101.96 79.8726 101.616 79.8726H99.7821C99.4382 79.8726 99.3236 79.6433 99.4382 79.2994L105.743 61.4177C106.087 60.5007 106.316 60.3861 107.118 60.2715H107.921C108.952 60.2715 109.181 60.5007 109.411 61.4177L115.601 79.2994C115.715 79.5287 115.601 79.8726 115.257 79.8726H113.423Z" fill="#202020"/>
<path d="M120.071 79.4143C120.071 79.8728 119.956 79.9874 119.498 79.9874H118.237C117.893 79.9874 117.664 79.8728 117.664 79.4143V65.3153C117.664 62.7935 118.81 60.501 122.363 60.501H129.814C130.273 60.501 130.387 60.7302 130.387 61.0741V62.2204C130.387 62.6789 130.273 62.7935 129.814 62.7935H122.363C120.873 62.7935 120.186 63.4813 120.186 64.8568V79.4143H120.071Z" fill="#202020"/>
<path d="M145.059 79.8727H137.379C133.826 79.8727 132.68 77.6948 132.68 75.173V65.2005C132.68 62.6787 133.941 60.3862 137.379 60.3862H144.945C145.403 60.3862 145.403 60.6155 145.403 60.9594V62.1056C145.403 62.5641 145.289 62.6788 144.945 62.6788H137.379C135.889 62.6788 135.202 63.3665 135.202 64.742V68.2954H144.028C144.486 68.2954 144.486 68.4101 144.486 68.8686V69.9002C144.486 70.2441 144.372 70.4733 144.028 70.4733H135.202V75.2876C135.202 76.5485 135.775 77.3509 137.379 77.3509H145.059C145.518 77.3509 145.633 77.4655 145.633 77.924V79.0703C145.518 79.758 145.518 79.8727 145.059 79.8727Z" fill="#202020"/>
<path d="M161.107 60.9595C161.107 60.6156 161.222 60.501 161.68 60.501H163.17C163.514 60.501 163.743 60.6156 163.743 60.9595V79.4143C163.743 79.7582 163.629 79.8728 163.17 79.8728H161.68C161.336 79.8728 161.107 79.7582 161.107 79.4143V70.8173H151.364V79.4143C151.364 79.7582 151.249 79.8728 150.791 79.8728H149.186C148.842 79.8728 148.613 79.7582 148.613 79.4143V60.9595C148.613 60.6156 148.842 60.501 149.186 60.501H150.676C151.02 60.501 151.249 60.6156 151.249 60.9595V68.5248H160.992V60.9595H161.107Z" fill="#202020"/>
<path d="M171.882 62.7935H166.494C166.151 62.7935 166.151 62.6789 166.151 62.335V60.9595C166.151 60.6156 166.151 60.501 166.494 60.501H180.135C180.479 60.501 180.479 60.6156 180.479 60.9595V62.335C180.479 62.6789 180.479 62.7935 180.135 62.7935H174.518V79.5289C174.518 79.8728 174.404 79.9874 174.06 79.9874H172.455C172.111 79.9874 171.882 79.8728 171.882 79.5289V62.7935Z" fill="#202020"/>
<path d="M194.119 76.7784C194.578 76.6638 194.693 76.7784 194.807 77.0077L195.38 78.1539C195.61 78.6124 195.495 78.727 195.266 78.8417C193.432 79.8733 191.139 80.1025 189.42 80.1025C184.262 80.1025 181.167 77.1223 181.167 70.3593C181.167 64.1695 184.605 60.043 189.649 60.043C191.254 60.043 192.973 60.2722 194.807 61.1892C195.036 61.3039 195.151 61.4185 194.922 61.877L194.234 63.1379C194.119 63.3671 194.005 63.4817 193.776 63.3671C192.515 62.794 191.139 62.4501 189.764 62.4501C185.522 62.4501 183.803 66.3474 183.803 70.3593C183.803 74.3712 185.293 77.6954 189.878 77.6954C191.254 77.81 192.859 77.4662 194.119 76.7784Z" fill="#202020"/>
<path d="M202.831 62.7935H197.444C197.1 62.7935 197.1 62.6789 197.1 62.335V60.9595C197.1 60.6156 197.1 60.501 197.444 60.501H211.084C211.428 60.501 211.428 60.6156 211.428 60.9595V62.335C211.428 62.6789 211.428 62.7935 211.084 62.7935H205.467V79.5289C205.467 79.8728 205.353 79.9874 205.009 79.9874H203.404C203.06 79.9874 202.831 79.8728 202.831 79.5289V62.7935Z" fill="#202020"/>
<path d="M221.515 70.4735H216.357V77.5803H221.515C224.725 77.5803 225.527 75.4024 225.527 73.9123C225.527 71.849 224.151 70.4735 221.515 70.4735ZM216.357 68.2956H221.515C222.776 68.2956 224.725 67.7224 224.725 65.4299C224.725 63.8252 223.578 62.7935 221.744 62.7935H216.471V68.2956H216.357ZM224.954 69.2126C227.246 70.015 228.163 72.0782 228.163 74.1415C228.163 77.5803 225.412 79.8728 221.859 79.8728H215.325C214.294 79.8728 213.95 79.4143 213.95 78.4973V61.8765C213.95 60.9595 214.294 60.501 215.325 60.501H221.515C224.954 60.501 227.361 61.8765 227.361 65.3153C227.361 67.0347 226.444 68.5248 224.954 69.2126Z" fill="#202020"/>
<path d="M238.365 62.4497C234.353 62.4497 232.634 66.0032 232.634 70.1297C232.634 74.7148 234.009 77.9243 238.25 77.9243C242.606 77.9243 243.982 74.2562 243.982 70.2443C243.982 66.2324 242.95 62.4497 238.365 62.4497ZM238.25 80.2168C232.863 80.2168 230.112 76.6634 230.112 70.2443C230.112 63.8253 233.551 60.1572 238.365 60.1572C243.752 60.1572 246.618 63.9399 246.618 70.1297C246.618 76.5488 243.753 80.2168 238.25 80.2168Z" fill="#202020"/>
<path d="M112.735 103.257C113.308 103.028 113.423 103.142 113.537 103.601L114.454 105.549C114.683 106.122 114.569 106.237 114.34 106.466C112.391 107.727 110.098 107.956 108.035 107.956C102.075 107.956 99.4381 104.288 99.4381 98.2132C99.4381 92.2527 102.992 88.2407 108.264 88.2407C110.098 88.2407 111.932 88.47 113.652 89.387C114.11 89.6162 114.11 89.7308 113.881 90.304L113.079 92.2526C112.849 92.7111 112.735 92.8258 112.276 92.7111C111.015 92.2526 109.869 92.0234 108.494 92.0234C105.513 92.0234 103.909 94.6598 103.909 98.3278C103.909 101.881 105.055 104.288 108.608 104.288C110.213 104.288 111.474 103.715 112.735 103.257Z" fill="#202020"/>
<path d="M130.387 92.1379H125.458V107.154C125.458 107.612 125.344 107.727 124.771 107.727H121.79C121.332 107.727 121.102 107.612 121.102 107.154V92.1379H116.288C115.944 92.1379 115.715 92.0233 115.715 91.5648V89.1576C115.715 88.6991 115.83 88.5845 116.288 88.5845H130.387C130.846 88.5845 130.96 88.6991 130.96 89.1576V91.5648C130.96 91.9086 130.731 92.1379 130.387 92.1379Z" fill="#202020"/>
<path d="M141.047 92.2524H137.494V97.4106H141.047C142.881 97.4106 143.798 96.2643 143.798 94.7742C143.798 93.7425 143.225 92.2524 141.047 92.2524ZM137.494 107.154C137.494 107.612 137.379 107.727 136.806 107.727H133.941C133.482 107.727 133.368 107.612 133.368 107.154V90.1891C133.368 89.1575 133.711 88.4697 134.972 88.4697H141.735C145.747 88.4697 148.154 90.9915 148.154 94.4303C148.154 96.2643 147.352 100.735 141.162 100.735H137.494V107.154Z" fill="#202020"/>
<path d="M153.198 100.391H157.554L156.522 96.9521L155.49 93.0548H155.376L154.344 96.9521L153.198 100.391ZM158.471 103.715H152.166L151.135 107.154C151.02 107.498 150.905 107.727 150.332 107.727H147.123C146.779 107.727 146.664 107.498 146.779 107.154L152.51 89.9599C152.854 88.699 153.427 88.4697 154.459 88.4697H156.063C157.324 88.4697 157.783 88.5843 158.241 89.9599L163.973 107.154C164.087 107.383 163.973 107.727 163.629 107.727H160.419C159.961 107.727 159.732 107.727 159.617 107.268L158.471 103.715Z" fill="#202020"/>
<path d="M177.842 92.1379H172.914V107.154C172.914 107.612 172.799 107.727 172.226 107.727H169.245C168.787 107.727 168.558 107.612 168.558 107.154V92.1379H163.743C163.4 92.1379 163.17 92.0233 163.17 91.5648V89.1576C163.17 88.6991 163.285 88.5845 163.743 88.5845H177.842C178.301 88.5845 178.416 88.6991 178.416 89.1576V91.5648C178.416 91.9086 178.301 92.1379 177.842 92.1379Z" fill="#202020"/>
<path d="M194.005 107.727H185.866C181.854 107.727 180.823 105.205 180.823 102.684V93.6281C180.823 90.9917 182.198 88.5845 185.866 88.5845H193.776C194.234 88.5845 194.349 88.6991 194.349 89.2722V91.5648C194.349 92.0233 194.234 92.1379 193.776 92.1379H186.783C185.408 92.1379 184.949 92.8256 184.949 93.8573V95.9206H192.859C193.317 95.9206 193.432 96.0352 193.432 96.6083V98.7862C193.432 99.2447 193.317 99.3594 192.859 99.3594H184.949V102.454C184.949 103.715 185.522 104.059 186.783 104.059H194.005C194.463 104.059 194.578 104.174 194.578 104.747V107.039C194.578 107.612 194.463 107.727 194.005 107.727Z" fill="#202020"/>
<path d="M201.799 107.154C201.799 107.612 201.685 107.727 201.112 107.727H198.246C197.787 107.727 197.558 107.612 197.558 107.154V93.6281C197.558 90.9917 198.819 88.5845 202.602 88.5845H210.511C210.969 88.5845 211.084 88.6991 211.084 89.2722V91.5648C211.084 92.0233 210.969 92.1379 210.511 92.1379H203.519C202.143 92.1379 201.685 92.8256 201.685 93.8573V107.154H201.799Z" fill="#202020"/>
<path d="M225.412 94.8888L223.005 99.0153L218.42 106.581C217.847 107.612 217.503 107.842 216.357 107.842H215.211C213.835 107.842 213.377 107.154 213.377 105.893V89.0429C213.377 88.699 213.491 88.4697 213.95 88.4697H216.93C217.389 88.4697 217.503 88.5844 217.503 89.0429V101.422H217.618L219.91 97.6398L224.61 89.8452C225.298 88.8136 225.527 88.5843 226.673 88.5843H227.82C229.195 88.5843 229.654 89.0428 229.654 90.533V107.268C229.654 107.612 229.539 107.842 229.08 107.842H226.1C225.642 107.842 225.527 107.727 225.527 107.268V95.0034H225.412V94.8888Z" fill="#202020"/>
<path d="M247.421 107.727H244.44C243.982 107.727 243.867 107.612 243.867 107.154V100.964C242.836 101.078 241.689 101.193 240.658 101.193C234.926 101.193 232.978 98.5567 232.978 94.3155V88.9281C232.978 88.5842 233.092 88.355 233.551 88.355H236.531C236.99 88.355 237.104 88.4696 237.104 88.9281V93.857C237.104 96.3788 238.365 97.4104 241.231 97.4104C242.148 97.4104 243.065 97.2958 243.982 97.1812V88.9281C243.982 88.5842 244.096 88.355 244.555 88.355H247.535C247.994 88.355 248.108 88.4696 248.108 88.9281V107.154C247.994 107.612 247.879 107.727 247.421 107.727Z" fill="#202020"/>
<path d="M265.302 107.727H257.164C253.152 107.727 252.12 105.205 252.12 102.684V93.6281C252.12 90.9917 253.496 88.5845 257.164 88.5845H265.073C265.532 88.5845 265.646 88.6991 265.646 89.2722V91.5648C265.646 92.0233 265.532 92.1379 265.073 92.1379H258.081C256.705 92.1379 256.247 92.8256 256.247 93.8573V95.9206H264.156C264.615 95.9206 264.729 96.0352 264.729 96.6083V98.7862C264.729 99.2447 264.615 99.3594 264.156 99.3594H256.247V102.454C256.247 103.715 256.82 104.059 258.081 104.059H265.302C265.761 104.059 265.875 104.174 265.875 104.747V107.039C265.875 107.612 265.761 107.727 265.302 107.727Z" fill="#202020"/>
<path d="M281.235 103.257C281.809 103.028 281.923 103.142 282.038 103.601L282.955 105.549C283.184 106.122 283.069 106.237 282.84 106.466C280.892 107.727 278.599 107.956 276.536 107.956C270.575 107.956 267.939 104.288 267.939 98.2132C267.939 92.2527 271.492 88.2407 276.765 88.2407C278.599 88.2407 280.433 88.47 282.152 89.387C282.611 89.6162 282.611 89.7308 282.382 90.304L281.579 92.2526C281.35 92.7111 281.235 92.8258 280.777 92.7111C279.516 92.2526 278.37 92.0234 276.994 92.0234C274.014 92.0234 272.409 94.6598 272.409 98.3278C272.409 101.881 273.555 104.288 277.109 104.288C278.714 104.288 279.975 103.715 281.235 103.257Z" fill="#202020"/>
<path d="M297.168 97.5254C299.117 98.0986 299.575 99.2448 299.919 100.85L301.639 107.269C301.639 107.498 301.753 107.842 301.295 107.842H298.085C297.856 107.842 297.627 107.842 297.512 107.498L295.793 101.652C295.22 99.7034 294.303 99.3595 292.354 99.3595H290.061V107.498C290.061 107.842 289.947 107.956 289.603 107.956H286.393C286.05 107.956 285.935 107.956 285.935 107.498V89.1577C285.935 88.8138 286.05 88.6992 286.393 88.6992H289.603C289.947 88.6992 290.061 88.6992 290.061 89.1577V96.1499H292.239C293.386 96.1499 294.761 95.9207 295.449 93.6282L296.71 89.0431C296.824 88.6992 297.054 88.6992 297.283 88.6992H300.378C300.836 88.6992 300.836 89.0431 300.722 89.2723L299.461 94.2013C299.117 95.6914 298.315 96.9523 297.168 97.6401V97.5254Z" fill="#202020"/>
<path d="M316.54 94.8888L314.133 99.0153L309.548 106.581C308.86 107.612 308.631 107.842 307.485 107.842H306.338C304.963 107.842 304.504 107.154 304.504 105.893V89.0429C304.504 88.699 304.619 88.4697 305.077 88.4697H308.058C308.516 88.4697 308.631 88.5844 308.631 89.0429V101.422H308.746L311.038 97.6398L315.738 89.8452C316.425 88.8136 316.655 88.5843 317.801 88.5843H318.947C320.323 88.5843 320.781 89.0428 320.781 90.533V107.268C320.781 107.612 320.667 107.842 320.208 107.842H317.228C316.769 107.842 316.655 107.727 316.655 107.268V95.0034H316.54V94.8888Z" fill="#202020"/>
<path d="M331.327 101.193L328.003 107.154C327.659 107.612 327.43 107.842 326.742 107.842H323.418C323.074 107.842 322.959 107.498 323.188 107.269L329.034 97.8692L323.647 89.1576C323.532 88.9284 323.532 88.5845 323.991 88.5845H327.2C327.888 88.5845 328.117 88.6991 328.347 89.1576L331.327 94.545L334.307 89.1576C334.536 88.6991 334.766 88.5845 335.453 88.5845H338.663C339.121 88.5845 339.121 88.9284 339.007 89.1576L333.734 97.8692L339.58 107.383C339.695 107.612 339.58 107.956 339.351 107.956H335.912C335.224 107.956 334.995 107.842 334.766 107.269L331.327 101.193Z" fill="#202020"/>
<path d="M112.964 122.743L110.557 126.869L105.972 134.435C105.284 135.466 105.055 135.696 103.909 135.696H102.762C101.387 135.696 100.928 135.008 100.928 133.862V117.012C100.928 116.668 101.043 116.438 101.501 116.438H104.482C104.94 116.438 105.055 116.553 105.055 117.012V129.391H105.169L107.462 125.609L112.162 117.814C112.849 116.782 113.079 116.553 114.225 116.553H115.371C116.747 116.553 117.205 117.012 117.205 118.502V135.237C117.205 135.581 117.091 135.81 116.632 135.81H113.652C113.193 135.81 113.079 135.696 113.079 135.237V122.972H112.964V122.743Z" fill="#202020"/>
<path d="M136.462 135.581H133.597C133.138 135.581 132.909 135.466 132.909 135.008V127.328H125.458V135.008C125.458 135.466 125.344 135.581 124.771 135.581H121.905C121.446 135.581 121.332 135.466 121.332 135.008V117.012C121.332 116.553 121.561 116.438 121.905 116.438H124.771C125.344 116.438 125.458 116.553 125.458 117.012V123.889H132.909V117.012C132.909 116.553 133.024 116.438 133.597 116.438H136.462C137.036 116.438 137.15 116.553 137.15 117.012V135.008C137.15 135.466 137.036 135.581 136.462 135.581Z" fill="#202020"/>
<path d="M153.313 122.743L150.905 126.869L146.32 134.435C145.747 135.466 145.403 135.696 144.257 135.696H143.111C141.735 135.696 141.277 135.008 141.277 133.862V117.012C141.277 116.668 141.391 116.438 141.85 116.438H144.83C145.289 116.438 145.403 116.553 145.403 117.012V129.391H145.518L147.81 125.609L152.51 117.814C153.198 116.782 153.427 116.553 154.573 116.553H155.72C157.095 116.553 157.554 117.012 157.554 118.502V135.237C157.554 135.581 157.439 135.81 156.981 135.81H154C153.542 135.81 153.427 135.696 153.427 135.237V122.972H153.313V122.743Z" fill="#202020"/>
<path d="M177.384 131.913L178.76 132.028C179.791 132.143 179.791 132.601 179.791 133.289L179.447 139.593C179.447 139.937 179.333 140.166 178.874 140.166H176.582C176.238 140.166 176.009 140.052 176.009 139.593L175.894 135.581H163.285C162.024 135.581 161.566 135.008 161.566 133.747V116.897C161.566 116.553 161.68 116.324 162.139 116.324H165.119C165.578 116.324 165.692 116.439 165.692 116.897V132.028H173.143V116.897C173.143 116.553 173.257 116.324 173.716 116.324H176.696C177.269 116.324 177.269 116.439 177.269 116.897V131.913H177.384Z" fill="#202020"/>
<path d="M194.119 122.743L191.712 126.869L187.127 134.435C186.439 135.466 186.21 135.696 185.064 135.696H183.918C182.542 135.696 182.084 135.008 182.084 133.862V117.012C182.084 116.668 182.198 116.438 182.657 116.438H185.637C186.095 116.438 186.21 116.553 186.21 117.012V129.391H186.325L188.617 125.609L193.317 117.814C194.005 116.782 194.234 116.553 195.38 116.553H196.526C197.902 116.553 198.36 117.012 198.36 118.502V135.237C198.36 135.581 198.246 135.81 197.787 135.81H194.807C194.349 135.81 194.234 135.696 194.234 135.237V122.972H194.119V122.743Z" fill="#202020"/>
<path d="M206.614 128.245H210.969L209.938 124.807L208.906 120.909H208.792L207.76 124.807L206.614 128.245ZM211.886 131.569H205.582L204.55 135.008C204.436 135.352 204.321 135.581 203.748 135.581H200.538C200.195 135.581 200.08 135.352 200.195 135.008L205.926 117.814C206.27 116.553 206.843 116.324 207.875 116.324H209.479C210.74 116.324 211.199 116.439 211.657 117.814L217.389 135.008C217.503 135.238 217.389 135.581 217.045 135.581H213.835C213.377 135.581 213.147 135.581 213.033 135.123L211.886 131.569Z" fill="#202020"/>
<path d="M231.373 119.992H226.444V135.008C226.444 135.466 226.329 135.581 225.756 135.581H222.776C222.317 135.581 222.088 135.466 222.088 135.008V119.992H217.274C216.93 119.992 216.701 119.877 216.701 119.419V117.012C216.701 116.553 216.815 116.438 217.274 116.438H231.258C231.717 116.438 231.831 116.553 231.831 117.012V119.419C231.831 119.763 231.717 119.992 231.373 119.992Z" fill="#202020"/>
<path d="M246.274 122.743L243.867 126.869L239.282 134.435C238.594 135.466 238.365 135.696 237.219 135.696H236.072C234.697 135.696 234.238 135.008 234.238 133.862V117.012C234.238 116.668 234.353 116.438 234.812 116.438H237.792C238.25 116.438 238.365 116.553 238.365 117.012V129.391H238.48L240.772 125.609L245.472 117.814C246.16 116.782 246.389 116.553 247.535 116.553H248.681C250.057 116.553 250.515 117.012 250.515 118.502V135.237C250.515 135.581 250.401 135.81 249.942 135.81H246.962C246.503 135.81 246.389 135.696 246.389 135.237V122.972H246.274V122.743Z" fill="#202020"/>
<path d="M262.666 126.984H258.769V131.913H262.666C264.729 131.913 265.302 130.537 265.302 129.506C265.417 128.016 264.5 126.984 262.666 126.984ZM258.769 123.66H262.551C263.468 123.66 264.614 123.316 264.614 121.711C264.614 120.565 263.927 119.992 262.666 119.992H258.769V123.66ZM266.792 125.15C268.856 125.952 269.773 127.901 269.773 129.85C269.773 133.288 266.907 135.696 263.239 135.696H256.361C255.1 135.696 254.757 135.237 254.757 133.976V118.158C254.757 117.012 255.1 116.438 256.361 116.438H263.124C266.448 116.438 268.97 117.814 268.97 121.253C268.97 122.743 268.053 124.233 266.907 124.921V125.15H266.792Z" fill="#202020"/>
<mask id="mask0_4826_1972" style="mask-type:luminance" maskUnits="userSpaceOnUse" x="55" y="10" width="53" height="21">
<path d="M55.8802 10.7534L90.2681 30.5838L107.347 20.6113L55.8802 10.7534Z" fill="white"/>
</mask>
<g mask="url(#mask0_4826_1972)">
<path d="M107.347 10.7534H55.8802V30.4691H107.347V10.7534Z" fill="#202020"/>
</g>
<mask id="mask1_4826_1972" style="mask-type:luminance" maskUnits="userSpaceOnUse" x="4" y="0" width="52" height="21">
<path d="M4.41309 0.895508L38.6863 20.7259L55.8802 10.7534L4.41309 0.895508Z" fill="white"/>
</mask>
<g mask="url(#mask1_4826_1972)">
<path d="M55.8802 0.895508H4.41309V20.6112H55.8802V0.895508Z" fill="#202020"/>
</g>
<mask id="mask2_4826_1972" style="mask-type:luminance" maskUnits="userSpaceOnUse" x="38" y="40" width="53" height="21">
<path d="M38.801 40.5562L73.0742 60.2719L90.2681 50.414L38.801 40.5562Z" fill="white"/>
</mask>
<g mask="url(#mask2_4826_1972)">
<path d="M90.2681 40.5562H38.801V60.2719H90.2681V40.5562Z" fill="#202020"/>
</g>
<path d="M107.347 20.6113L90.2681 50.4141V30.5838L107.347 20.6113Z" fill="#202020"/>
<path d="M90.2682 50.4141L73.0742 80.1022V60.2719L90.2682 50.4141Z" fill="#202020"/>
<path d="M55.8803 10.7534L38.801 40.5562L38.6864 20.7259L55.8803 10.7534Z" fill="#202020"/>
</g>
<defs>
<filter id="filter0_d_4826_1972" x="0.413086" y="0.895508" width="343.212" height="147.271" filterUnits="userSpaceOnUse" color-interpolation-filters="sRGB">
<feFlood flood-opacity="0" result="BackgroundImageFix"/>
<feColorMatrix in="SourceAlpha" type="matrix" values="0 0 0 0 0 0 0 0 0 0 0 0 0 0 0 0 0 0 127 0" result="hardAlpha"/>
<feOffset dy="4"/>
<feGaussianBlur stdDeviation="2"/>
<feComposite in2="hardAlpha" operator="out"/>
<feColorMatrix type="matrix" values="0 0 0 0 0 0 0 0 0 0 0 0 0 0 0 0 0 0 0.25 0"/>
<feBlend mode="normal" in2="BackgroundImageFix" result="effect1_dropShadow_4826_1972"/>
<feBlend mode="normal" in="SourceGraphic" in2="effect1_dropShadow_4826_1972" result="shape"/>
</filter>
</defs>
</svg>
