<svg width="199" height="157" viewBox="0 0 199 157" fill="none" xmlns="http://www.w3.org/2000/svg">
<g filter="url(#filter0_d_4826_2065)">
<path d="M38.4751 71.0509L44.3813 68.9805L44.3993 76.3507L42.8886 76.9069V70.7459L39.9786 71.7291L40.018 78.0228L38.5002 78.4247L38.4787 71.0509H38.4751Z" fill="#202020"/>
<path d="M45.5044 74.6821V76.0707C45.5044 76.0707 46.4051 76.0097 47.0259 75.4894C47.6502 74.9655 47.948 74.3053 48.0557 73.5841C48.0987 73.2827 48.2423 68.8225 48.2423 68.8225L50.4239 68.1443L50.3988 74.2874L51.9094 73.7312L51.9417 66.2964L46.7926 68.112C46.7926 68.112 46.8034 73.1858 46.7137 73.6917C46.5343 74.7215 45.5009 74.6821 45.5009 74.6821H45.5044Z" fill="#202020"/>
<path d="M52.7922 73.4621L54.4177 72.9024L54.8698 71.1298L57.6722 70.1717L57.2775 69.124L55.2789 69.7986L56.2908 66.3359L58.1028 71.5245L59.7929 70.997L57.2093 64.3911L55.4475 65.0011L52.7994 73.4657L52.7922 73.4621Z" fill="#202020"/>
<path d="M59.9327 63.4476L59.9435 64.7214L62.3117 63.9249L62.2759 70.0679L63.8367 69.4974L63.826 63.2826L66.0866 62.486L66.0758 61.3306L59.9327 63.4476Z" fill="#202020"/>
<path d="M69.7501 60.8637L69.8362 61.7643C69.8362 61.7643 67.9201 62.7511 67.8842 64.0823C67.8089 66.7627 70.5897 65.3633 70.5897 65.3633C70.5897 65.3633 72.9974 64.294 72.9077 62.6685C72.775 60.1855 70.0587 61.7643 70.0587 61.7643L70.1233 60.7022C70.1233 60.7022 72.4484 59.6437 73.4173 60.3936C74.3861 61.1435 74.7808 62.2057 73.995 63.7055C72.9974 65.6109 70.6005 66.4721 70.6005 66.4721C70.6005 66.4721 67.6402 67.4014 66.901 66.3536C66.0327 65.1265 66.4274 63.9639 67.163 62.5932C67.7335 61.5311 69.7537 60.8637 69.7537 60.8637H69.7501Z" fill="#202020"/>
<path d="M69.6245 60.0424L69.6353 67.4557L71.1531 67.0071L71.1423 59.4575L69.6245 60.046V60.0424Z" fill="#202020"/>
<path d="M83.5074 55.1907L83.4823 62.5394L85.0037 62.1088V55.815L86.8122 55.2301C86.8122 55.2301 87.6518 55.1225 87.6267 56.1487C87.6052 57.1714 86.8839 57.4333 86.8839 57.4333L84.7669 58.2227L84.5982 59.5217C84.5982 59.5217 87.2033 58.8291 87.7236 58.3483C88.8108 57.34 89.2414 56.3784 89.1158 55.3521C88.9902 54.3223 88.9005 53.9671 87.5083 53.7984C86.9019 53.7267 83.511 55.1979 83.511 55.1979L83.5074 55.1907Z" fill="#202020"/>
<path d="M77.3428 59.0522C76.5641 60.0533 76.0438 63.4514 78.369 63.2971C80.3246 63.1679 80.7767 59.978 80.7767 59.978L82.212 59.5474C82.212 59.5474 82.1689 60.5557 81.7455 61.5927C81.4513 62.3175 80.9166 63.0244 80.3031 63.5626C78.8068 64.8723 77.4576 65.1307 76.1443 64.3987C74.831 63.6667 74.8382 61.3666 75.5164 59.5546C75.8393 58.697 77.0091 57.4339 77.6908 57.0428C78.308 56.6876 79.7792 56.0776 80.9095 56.605C82.0397 57.1325 82.2335 59.5546 82.2335 59.5546L80.7767 59.9744C80.7767 59.9744 80.5793 58.2197 79.7576 58.0188C78.9072 57.8107 78.125 58.0439 77.3428 59.045V59.0522Z" fill="#202020"/>
<path d="M90.1815 60.2574L91.5953 59.7622L91.685 53.5581L92.9444 59.2598L94.4838 58.8185L95.9047 52.0583L95.9191 58.2264L97.3185 57.7456L97.3364 50.1924L95.0328 51.0105L93.7626 57.315L92.4708 51.9901L90.264 52.7472L90.1923 60.2574H90.1815Z" fill="#202020"/>
<path d="M38.0518 83.1935L40.6353 87.6716L40.115 88.7624L39.0995 88.888L39.1713 90.2802L41.2058 89.2827L44.4603 80.9473L42.982 81.4532L41.2776 85.3249L39.7705 82.5727L38.0553 83.1863L38.0518 83.1935Z" fill="#202020"/>
<path d="M45.4471 80.5453L45.422 87.9513L47.0223 87.4346L46.9039 83.9541L49.9109 83.1001L49.753 86.4443L51.4323 85.7984L51.3354 78.439L49.7889 78.9844L49.796 82.0128L47.3022 82.6623L47.0475 80.0285L45.4471 80.5453Z" fill="#202020"/>
<path d="M52.6523 77.9904L52.5841 85.4791L54.3531 84.8583L57.1483 78.8731V83.85L58.7523 83.3333L58.6626 75.877L57.0048 76.3614L54.2275 82.1671L54.1737 77.5527L52.6523 77.9904Z" fill="#202020"/>
<path d="M60.2234 75.3569L60.2521 82.702L62.8033 81.8946C62.8033 81.8946 64.5436 81.4282 65.3438 80.5383C66.144 79.6484 66.388 78.6652 66.2803 77.8471C66.1727 77.029 65.2828 76.8998 65.2828 76.8998C65.2828 76.8998 65.7744 75.8018 64.7553 76.0817C64.6907 76.0996 64.5508 76.4405 64.2386 76.6989C63.9264 76.9572 63.5748 77.0936 63.4994 77.1187C62.5773 77.4201 61.5833 77.7143 61.5833 77.7143L61.3573 79.0563C61.3573 79.0563 63.6789 78.0803 64.0556 78.066C64.3355 78.0552 65.0029 77.9619 64.7625 79.1819C64.5149 80.4486 61.5833 80.8971 61.5833 80.8971L61.612 75.9956L64.235 75.1416C64.235 75.1416 64.7804 75.3425 64.6513 75.8843C64.5221 76.4262 63.686 77.3699 63.686 77.3699L65.272 76.95C65.272 76.95 66.1619 75.9884 66.0399 75.1452C65.9179 74.3019 65.6703 73.7386 64.6261 73.8103C64.1991 73.8391 60.2234 75.3533 60.2234 75.3533V75.3569Z" fill="#202020"/>
<path d="M67.5829 72.6476L67.5649 80.2259L73.1339 78.2919L73.0908 76.853L69.0469 78.2021V76.3291L72.6243 75.1163L72.671 73.8137L69.0325 75.1163V73.4406L72.9258 72.1201V70.6489L67.5829 72.6512V72.6476Z" fill="#202020"/>
<path d="M131.862 51.7102C131.084 52.7149 130.563 56.1094 132.889 55.9551C134.844 55.8259 135.296 52.636 135.296 52.636L136.732 52.2054C136.732 52.2054 136.689 53.2137 136.265 54.2507C135.971 54.9755 135.436 55.6824 134.823 56.2206C133.326 57.5303 131.977 57.7887 130.664 57.0567C129.351 56.3247 129.358 54.0246 130.036 52.2162C130.359 51.3586 131.529 50.0919 132.21 49.7044C132.828 49.3492 134.299 48.7392 135.429 49.2667C136.559 49.7941 136.753 52.2162 136.753 52.2162L135.296 52.636C135.296 52.636 135.099 50.8813 134.277 50.6804C133.427 50.4723 132.645 50.7055 131.862 51.7066V51.7102Z" fill="#202020"/>
<path d="M146.642 58.3417C145.864 59.3429 145.343 62.7409 147.669 62.5866C149.621 62.4574 150.073 59.2675 150.073 59.2675L151.508 58.8369C151.508 58.8369 151.465 59.8452 151.042 60.8822C150.747 61.607 150.213 62.3139 149.599 62.8522C148.103 64.1619 146.754 64.4202 145.44 63.6882C144.127 62.9562 144.134 60.6562 144.812 58.8441C145.135 57.9865 146.305 56.7235 146.987 56.3323C147.604 55.9771 149.075 55.3671 150.205 55.8946C151.336 56.4221 151.53 58.8441 151.53 58.8441L150.073 59.2639C150.073 59.2639 149.875 57.5093 149.054 57.3083C148.203 57.1002 147.421 57.3335 146.639 58.3346L146.642 58.3417Z" fill="#202020"/>
<path d="M146.642 58.3417C145.864 59.3429 145.343 62.7409 147.669 62.5866C149.621 62.4574 150.073 59.2675 150.073 59.2675L151.508 58.8369C151.508 58.8369 151.465 59.8452 151.042 60.8822C150.747 61.607 150.213 62.3139 149.599 62.8522C148.103 64.1619 146.754 64.4202 145.44 63.6882C144.127 62.9562 144.134 60.6562 144.812 58.8441C145.135 57.9865 146.305 56.7235 146.987 56.3323C147.604 55.9771 149.075 55.3671 150.205 55.8946C151.336 56.4221 151.53 58.8441 151.53 58.8441L150.073 59.2639C150.073 59.2639 149.875 57.5093 149.054 57.3083C148.203 57.1002 147.421 57.3335 146.639 58.3346L146.642 58.3417Z" fill="#202020"/>
<path d="M145.731 46.8447C144.952 47.8458 144.432 51.2438 146.757 51.0896C148.713 50.9604 149.161 47.7704 149.161 47.7704L150.597 47.3399C150.597 47.3399 150.553 48.3482 150.13 49.3851C149.836 50.11 149.301 50.8168 148.688 51.3551C147.191 52.6648 145.842 52.9231 144.529 52.1911C143.216 51.4591 143.223 49.1591 143.901 47.347C144.224 46.4894 145.394 45.2264 146.075 44.8353C146.693 44.48 148.164 43.87 149.294 44.3975C150.421 44.925 150.618 47.347 150.618 47.347L149.161 47.7669C149.161 47.7669 148.964 46.0122 148.142 45.8113C147.292 45.6032 146.51 45.8364 145.727 46.8375L145.731 46.8447Z" fill="#202020"/>
<path d="M132.691 63.4866C131.913 64.4913 131.392 67.8858 133.718 67.7315C135.67 67.6023 136.122 64.4124 136.122 64.4124L137.557 63.9818C137.557 63.9818 137.514 64.9901 137.09 66.0271C136.796 66.7519 136.262 67.4588 135.648 67.997C134.152 69.3067 132.803 69.5651 131.489 68.8331C130.176 68.1011 130.183 65.801 130.861 63.9925C131.184 63.135 132.354 61.8719 133.036 61.4808C133.653 61.1255 135.124 60.5155 136.254 61.043C137.385 61.5705 137.578 63.9925 137.578 63.9925L136.122 64.4124C136.122 64.4124 135.924 62.6577 135.103 62.4604C134.252 62.2523 133.47 62.4855 132.688 63.4866H132.691Z" fill="#202020"/>
<path d="M83.1702 80.915C82.3916 81.9161 81.8713 85.3142 84.1964 85.1599C86.152 85.0307 86.6005 81.8408 86.6005 81.8408L88.0358 81.4102C88.0358 81.4102 87.9928 82.4185 87.5694 83.4555C87.2751 84.1803 86.7405 84.8872 86.1269 85.4254C84.6306 86.7351 83.2814 86.9934 81.9681 86.2615C80.6549 85.5295 80.662 83.2294 81.3402 81.4173C81.6631 80.5598 82.8329 79.2967 83.5147 78.9056C84.1318 78.5504 85.603 77.9404 86.7333 78.4678C87.8636 78.9953 88.0574 81.4173 88.0574 81.4173L86.6005 81.8372C86.6005 81.8372 86.4032 80.0825 85.5815 79.8816C84.7311 79.6735 83.9488 79.9067 83.1666 80.9078L83.1702 80.915Z" fill="#202020"/>
<path d="M67.87 86.4946C67.0913 87.4957 66.571 90.8937 68.8962 90.7395C70.8518 90.6103 71.3039 87.4203 71.3039 87.4203L72.7392 86.9898C72.7392 86.9898 72.6961 87.998 72.2727 89.035C71.9785 89.7599 71.4439 90.4667 70.8303 91.005C69.334 92.3147 67.9848 92.573 66.6715 91.841C65.3582 91.109 65.3654 88.809 66.0436 86.9969C66.3665 86.1393 67.5363 84.8763 68.218 84.4852C68.8352 84.1299 70.3064 83.5199 71.4367 84.0474C72.567 84.5749 72.7607 86.9969 72.7607 86.9969L71.3039 87.4168C71.3039 87.4168 71.1066 85.6621 70.2849 85.4612C69.4345 85.253 68.6522 85.4863 67.87 86.4874V86.4946Z" fill="#202020"/>
<path d="M98.2837 57.3762L99.9092 56.8164L100.361 55.0439L103.164 54.0858L102.769 53.038L100.77 53.7126L101.782 50.25L103.594 55.4386L105.284 54.9111L102.701 48.3052L100.939 48.9152L98.2909 57.3798L98.2837 57.3762Z" fill="#202020"/>
<path d="M167.031 67.4773L168.656 66.9175L169.108 65.1449L171.911 64.1869L171.516 63.1391L169.517 63.8137L170.529 60.3511L172.341 65.5396L174.031 65.0122L171.448 58.4062L169.686 59.0163L167.038 67.4809L167.031 67.4773Z" fill="#202020"/>
<path d="M74.3861 70.3904L74.361 77.7391L75.8824 77.3085V71.0147L77.6908 70.4298C77.6908 70.4298 78.5305 70.3222 78.5054 71.3484C78.4838 72.3711 77.7626 72.633 77.7626 72.633L75.6455 73.4224L75.4769 74.7214C75.4769 74.7214 78.0819 74.0288 78.6022 73.548C79.6895 72.5397 80.1201 71.5781 79.9945 70.5518C79.8689 69.522 79.7792 69.1668 78.387 68.9981C77.7805 68.9264 74.3897 70.3976 74.3897 70.3976L74.3861 70.3904Z" fill="#202020"/>
<path d="M74.6804 92.7522L74.6553 100.101L76.1767 99.6703V93.3766L77.9851 92.7917C77.9851 92.7917 78.8248 92.684 78.7997 93.7103C78.7781 94.7329 78.0569 94.9948 78.0569 94.9948L75.9399 95.7843L75.7712 97.0832C75.7712 97.0832 78.3763 96.3907 78.8966 95.9098C79.9838 94.9016 80.4144 93.9399 80.2888 92.9137C80.1632 91.8839 80.0735 91.5286 78.6813 91.36C78.0749 91.2882 74.684 92.7594 74.684 92.7594L74.6804 92.7522Z" fill="#202020"/>
<path d="M46.1396 102.853L46.1145 110.202L47.6359 109.771V103.478L49.4444 102.893C49.4444 102.893 50.284 102.785 50.2589 103.811C50.2374 104.834 49.5161 105.096 49.5161 105.096L47.3991 105.885L47.2304 107.184C47.2304 107.184 49.8355 106.492 50.3558 106.011C51.443 105.003 51.8736 104.041 51.748 103.015C51.6224 101.985 51.5327 101.63 50.1405 101.461C49.5341 101.389 46.1432 102.86 46.1432 102.86L46.1396 102.853Z" fill="#202020"/>
<path d="M111.521 87.2878L113.146 86.7281L113.598 84.9555L116.401 83.9974L116.006 82.9497L114.007 83.6242L115.019 80.1616L116.831 85.3502L118.521 84.8227L115.938 78.2168L114.176 78.8268L111.528 87.2914L111.521 87.2878Z" fill="#202020"/>
<path d="M160.428 62.5649L160.457 69.91L163.008 69.1026C163.008 69.1026 164.748 68.6362 165.549 67.7463C166.352 66.86 166.593 65.8732 166.485 65.0551C166.378 64.237 165.488 64.1078 165.488 64.1078C165.488 64.1078 165.979 63.0098 164.96 63.2897C164.896 63.3076 164.756 63.6485 164.443 63.9069C164.131 64.1652 163.78 64.3016 163.704 64.3267C162.782 64.6281 161.788 64.9223 161.788 64.9223L161.562 66.2643C161.562 66.2643 163.884 65.2883 164.26 65.274C164.54 65.2632 165.208 65.1699 164.967 66.3899C164.72 67.6566 161.788 68.1051 161.788 68.1051L161.813 63.2036L164.436 62.3496C164.436 62.3496 164.982 62.5505 164.856 63.0923C164.727 63.6342 163.891 64.5779 163.891 64.5779L165.477 64.1581C165.477 64.1581 166.367 63.1964 166.245 62.3532C166.123 61.5099 165.875 60.9466 164.831 61.0184C164.404 61.0471 160.428 62.5613 160.428 62.5613V62.5649Z" fill="#202020"/>
<path d="M87.4222 68.0975L85.9223 68.6035C85.9223 68.6035 85.3051 67.3835 84.2538 67.9325C83.2024 68.4779 82.657 69.5005 82.5027 70.2325C82.3628 70.8927 82.0973 73.4153 83.7084 73.2323C84.6987 73.121 85.1544 72.651 85.4415 72.2204C85.7788 71.7109 85.8541 71.2444 85.8541 71.2444L87.3684 70.7241C87.3684 70.7241 87.2177 71.9226 86.6651 72.7443C86.1161 73.5624 84.9714 74.3948 84.0887 74.5671C81.211 75.1197 80.8916 72.7012 80.8916 72.7012C80.8916 72.7012 80.4969 70.0567 81.7456 68.4563C82.9979 66.856 84.4942 66.2639 85.768 66.368C87.0418 66.472 87.4222 68.1047 87.4222 68.1047V68.0975Z" fill="#202020"/>
<path d="M121.614 56.002L120.115 56.5079C120.115 56.5079 119.497 55.2879 118.446 55.8369C117.395 56.3823 116.849 57.405 116.695 58.137C116.555 58.7972 116.29 61.3197 117.901 61.1367C118.887 61.0255 119.347 60.5554 119.634 60.1249C119.975 59.6153 120.046 59.1489 120.046 59.1489L121.561 58.6286C121.561 58.6286 121.41 59.827 120.857 60.6487C120.308 61.4668 119.164 62.2993 118.281 62.4716C115.403 63.0241 115.084 60.6057 115.084 60.6057C115.084 60.6057 114.689 57.9612 115.938 56.3572C117.19 54.7569 118.686 54.1648 119.96 54.2689C121.234 54.3729 121.614 56.0056 121.614 56.0056V56.002Z" fill="#202020"/>
<path d="M122.332 67.7386L120.832 68.2446C120.832 68.2446 120.215 67.0246 119.164 67.5736C118.112 68.119 117.567 69.1416 117.413 69.8736C117.273 70.5339 117.007 73.0564 118.618 72.8734C119.609 72.7621 120.064 72.2921 120.351 71.8615C120.689 71.352 120.764 70.8855 120.764 70.8855L122.278 70.3652C122.278 70.3652 122.128 71.5637 121.575 72.3854C121.026 73.2035 119.881 74.036 118.999 74.2082C116.121 74.7608 115.802 72.3459 115.802 72.3459C115.802 72.3459 115.407 69.7014 116.656 68.0974C117.908 66.4971 119.404 65.905 120.678 66.0091C121.952 66.1132 122.332 67.7458 122.332 67.7458V67.7386Z" fill="#202020"/>
<path d="M152.932 67.6205L151.433 68.1264C151.433 68.1264 150.815 66.9064 149.764 67.4554C148.713 68.0008 148.167 69.0235 148.013 69.7554C147.873 70.4157 147.608 72.9382 149.219 72.7552C150.205 72.644 150.665 72.1739 150.952 71.7433C151.289 71.2338 151.364 70.7673 151.364 70.7673L152.879 70.247C152.879 70.247 152.728 71.4455 152.175 72.2672C151.626 73.0853 150.482 73.9178 149.599 74.09C146.721 74.6426 146.402 72.2277 146.402 72.2277C146.402 72.2277 146.007 69.5832 147.256 67.9793C148.508 66.3789 150.004 65.7869 151.278 65.8909C152.552 65.995 152.932 67.6276 152.932 67.6276V67.6205Z" fill="#202020"/>
<path d="M95.1189 62.8197L95.1297 64.0935L97.4979 63.2969L97.462 69.44L99.0229 68.8694L99.0121 62.6546L101.273 61.858L101.262 60.7026L95.1189 62.8197Z" fill="#202020"/>
<path d="M108.359 58.2767L108.37 59.5505L110.738 58.754L110.702 64.897L112.263 64.3265L112.253 58.1117L114.513 57.3151L114.502 56.1597L108.359 58.2767Z" fill="#202020"/>
<path d="M37.8364 95.264L37.8472 96.5379L40.2154 95.7413L40.1795 101.884L41.7404 101.314L41.7297 95.099L43.9902 94.3024L43.9795 93.147L37.8364 95.264Z" fill="#202020"/>
<path d="M118.546 77.1615L118.557 78.4353L120.925 77.6387L120.889 83.7818L122.45 83.2112L122.44 76.9964L124.7 76.1998L124.689 75.0444L118.546 77.1615Z" fill="#202020"/>
<path d="M153.184 65.0155L153.194 66.2893L155.563 65.4927L155.527 71.6358L157.088 71.0652L157.077 64.8504L159.337 64.0538L159.327 62.8984L153.184 65.0155Z" fill="#202020"/>
<path d="M38.4751 105.53L44.3813 103.46L44.3993 110.83L42.8886 111.386V105.225L39.9786 106.209L40.018 112.502L38.5002 112.904L38.4787 105.53H38.4751Z" fill="#202020"/>
<path d="M67.0769 95.4185L72.9831 93.3481L73.0011 100.718L71.4904 101.275V95.1136L68.5804 96.0967L68.6198 102.39L67.102 102.792L67.0805 95.4185H67.0769Z" fill="#202020"/>
<path d="M44.7008 92.8064L44.6829 100.385L50.2518 98.4507L50.2087 97.0118L46.1648 98.3574V96.4844L49.7423 95.2715L49.7853 93.969L46.1469 95.2715V93.5958L50.0401 92.2754V90.8042L44.6972 92.8064H44.7008Z" fill="#202020"/>
<path d="M52.8675 100.532L52.8496 108.11L58.4185 106.176L58.3719 104.737L54.328 106.083V104.209L57.9054 102.997L57.9521 101.694L54.3136 102.997V101.321L58.2068 100V98.5293L52.864 100.532H52.8675Z" fill="#202020"/>
<path d="M109.375 69.9244L109.357 77.5028L114.926 75.5687L114.883 74.1298L110.839 75.479V73.606L114.416 72.3931L114.459 71.0906L110.821 72.3931V70.7174L114.714 69.397V67.9258L109.371 69.928L109.375 69.9244Z" fill="#202020"/>
<path d="M102.238 60.4329L102.22 68.0112L107.789 66.0772L107.742 64.6383L103.698 65.9839V64.1108L107.276 62.898L107.322 61.5955L103.684 62.898V61.2223L107.577 59.9018V58.4307L102.234 60.4329H102.238Z" fill="#202020"/>
<path d="M125.637 74.7071L125.619 82.2855L131.188 80.3514L131.145 78.9125L127.101 80.2617V78.3887L130.678 77.1758L130.721 75.8733L127.083 77.1758V75.5001L130.976 74.1797V72.7085L125.633 74.7107L125.637 74.7071Z" fill="#202020"/>
<path d="M94.961 74.9943L94.8928 82.483L96.6618 81.8622L99.457 75.877V80.8539L101.061 80.3372L100.971 72.8809L99.3135 73.3653L96.5362 79.171L96.4824 74.5566L94.961 74.9943Z" fill="#202020"/>
<path d="M88.4233 65.2272L88.3551 72.7159L90.1241 72.0951L92.9193 66.1099V71.0868L94.5233 70.5701L94.4336 63.1138L92.7758 63.5982L89.9985 69.4039L89.9447 64.7895L88.4233 65.2272Z" fill="#202020"/>
<path d="M96.0662 85.2385L95.998 92.7271L97.767 92.1063L100.562 86.1212V91.098L102.166 90.5813L102.077 83.125L100.419 83.6094L97.6414 89.4152L97.5876 84.8007L96.0662 85.2385Z" fill="#202020"/>
<path d="M81.1714 90.3591L81.1033 97.8477L82.8723 97.2269L85.6675 91.2418V96.2186L87.2714 95.7019L87.1817 88.2456L85.524 88.73L82.7467 94.5358L82.6929 89.9213L81.1714 90.3591Z" fill="#202020"/>
<path d="M73.3168 88.8627V90.2514C73.3168 90.2514 74.2175 90.1904 74.8382 89.6701C75.4626 89.1462 75.7604 88.486 75.868 87.7647C75.9111 87.4633 76.0546 83.0032 76.0546 83.0032L78.2363 82.325L78.2112 88.468L79.7218 87.9119L79.7541 80.4771L74.605 82.2927C74.605 82.2927 74.6158 87.3664 74.526 87.8724C74.3466 88.9022 73.3132 88.8627 73.3132 88.8627H73.3168Z" fill="#202020"/>
<path d="M132.013 78.622V80.0107C132.013 80.0107 132.914 79.9497 133.535 79.4294C134.159 78.9055 134.457 78.2452 134.564 77.524C134.607 77.2226 134.751 72.7624 134.751 72.7624L136.933 72.0843L136.907 78.2273L138.418 77.6711L138.45 70.2363L133.301 72.052C133.301 72.052 133.312 77.1257 133.222 77.6317C133.043 78.6615 132.01 78.622 132.01 78.622H132.013Z" fill="#202020"/>
<path d="M58.3683 88.0301L58.3431 95.4362L59.9435 94.9195L59.8251 91.4389L62.832 90.5849L62.6741 93.9292L64.3534 93.2833L64.2565 85.9238L62.71 86.4692L62.7172 89.4977L60.2234 90.1472L59.9686 87.5134L58.3683 88.0301Z" fill="#202020"/>
<path d="M88.5454 87.8724L88.5203 95.2785L90.1206 94.7618L90.0022 91.2812L93.0091 90.4272L92.8512 93.7714L94.5305 93.1256L94.4337 85.7661L92.8871 86.3115L92.8943 89.34L90.4005 89.9895L90.1457 87.3557L88.5454 87.8724Z" fill="#202020"/>
<path d="M103.34 90.0396L104.753 89.5444L104.843 83.3404L106.103 89.0421L107.642 88.6007L109.063 81.8405L109.077 88.0086L110.477 87.5278L110.495 79.9746L108.191 80.7927L106.921 87.0972L105.629 81.7759L103.422 82.533L103.35 90.0432L103.34 90.0396Z" fill="#202020"/>
<path d="M122.798 53.2461L122.816 60.6056L124.402 59.9884L124.313 57.5233L125.106 56.5724L127.413 59.0016L129.297 58.2983L126.11 54.8644L129.157 50.9712L127.201 51.5525L124.402 55.6395L124.349 52.5213L122.798 53.2425V53.2461Z" fill="#202020"/>
<path d="M123.548 65.0406L123.566 72.4L125.152 71.7828L125.063 69.3177L125.856 68.3669L128.163 70.7961L130.047 70.0928L126.86 66.6589L129.907 62.7656L127.951 63.3469L125.152 67.4339L125.099 64.3157L123.548 65.037V65.0406Z" fill="#202020"/>
<path d="M138.077 55.1474L139.538 54.681L139.731 48.4626L142.986 47.2749L143.043 45.9688L138.052 47.7808L138.07 55.151L138.077 55.1474Z" fill="#202020"/>
<path d="M138.827 66.9458L140.288 66.4793L140.481 60.2609L143.736 59.0732L143.793 57.7671L138.802 59.5792L138.82 66.9494L138.827 66.9458Z" fill="#202020"/>
<path d="M89.2342 84.3203L90.6982 83.8538L90.8919 77.6354L94.1465 76.4477L94.2039 75.1416L89.2126 76.9537L89.2306 84.3239L89.2342 84.3203Z" fill="#202020"/>
<path d="M51.1451 97.8838L53.4201 93.4308L51.2887 90.4059L53.0074 89.7528L54.2418 91.5936L55.573 89.0747L57.3384 88.3965L55.2824 92.7275L57.5107 95.6555L55.7201 96.3336L54.414 94.3242L52.8424 97.4711L51.1487 97.8838H51.1451Z" fill="#202020"/>
<path d="M60.5464 97.6935L65.4623 95.9819L65.5592 102.1L66.2804 101.859L66.3055 104.773L65.0281 105.326L65.003 103.593L60.1589 105.182L60.3024 106.966L58.9784 107.349L58.9532 104.579L64.1095 102.699L64.0844 97.7617L61.892 98.6049C61.892 98.6049 61.892 100.159 61.6624 101.547C61.4327 102.936 60.977 104.163 60.977 104.163L59.391 104.698C59.391 104.698 60.0764 102.835 60.3096 101.16C60.5428 99.484 60.5392 97.6863 60.5392 97.6863L60.5464 97.6935Z" fill="#202020"/>
<path d="M139.875 69.7196L139.961 77.1149L143.61 75.8698C143.61 75.8698 144.299 75.5397 144.712 75.0625C145.125 74.5888 145.329 74.2946 145.408 73.8425C145.473 73.4657 145.53 72.3462 145.462 72.0878C145.379 71.7649 145.085 71.1944 144.105 71.2625C143.126 71.3307 141.393 72.0591 141.393 72.0591L141.353 73.3078L143.104 72.7086C143.104 72.7086 143.994 72.5543 143.987 73.4298C143.976 74.3053 143 74.8579 143 74.8579L141.382 75.3531L141.411 69.1562L139.871 69.7196H139.875Z" fill="#202020"/>
<path d="M101.99 72.4503L103.537 71.8224V74.6571C103.537 74.6571 103.551 75.1451 104.089 75.2025C104.628 75.2599 105.327 74.8867 105.571 74.754C105.815 74.6212 106.264 74.2444 106.264 74.2444V70.9325L107.753 70.4409L107.767 77.9834L106.328 78.4642V75.468C106.328 75.468 104.527 76.5122 103.49 76.706C102.453 76.8997 102.188 76.3148 102.03 75.895C101.922 75.608 101.99 72.4575 101.99 72.4575V72.4503Z" fill="#202020"/>
<path d="M37.1691 57.168L37.0004 44.9967L4.71356 33.335L4.62744 136.891L36.9143 148.531L37.0829 136.044L16.5439 128.355L16.2892 49.3923L37.1655 57.168H37.1691Z" fill="#202020"/>
<path d="M162.369 0.53125V13.3017L183.074 20.6074L182.851 99.4048L162.384 91.9951L162.344 104.281L194.943 116.029L194.972 12.1894L162.366 0.53125H162.369Z" fill="#202020"/>
</g>
<defs>
<filter id="filter0_d_4826_2065" x="0.627441" y="0.53125" width="198.345" height="156" filterUnits="userSpaceOnUse" color-interpolation-filters="sRGB">
<feFlood flood-opacity="0" result="BackgroundImageFix"/>
<feColorMatrix in="SourceAlpha" type="matrix" values="0 0 0 0 0 0 0 0 0 0 0 0 0 0 0 0 0 0 127 0" result="hardAlpha"/>
<feOffset dy="4"/>
<feGaussianBlur stdDeviation="2"/>
<feComposite in2="hardAlpha" operator="out"/>
<feColorMatrix type="matrix" values="0 0 0 0 0 0 0 0 0 0 0 0 0 0 0 0 0 0 0.25 0"/>
<feBlend mode="normal" in2="BackgroundImageFix" result="effect1_dropShadow_4826_2065"/>
<feBlend mode="normal" in="SourceGraphic" in2="effect1_dropShadow_4826_2065" result="shape"/>
</filter>
</defs>
</svg>
