<svg width="327" height="130" viewBox="0 0 327 130" fill="none" xmlns="http://www.w3.org/2000/svg">
<g clip-path="url(#clip0_4826_1912)" filter="url(#filter0_d_4826_1912)">
<path d="M262.654 2.21143L76.7912 2.72651L68.7373 39.3492L255.008 38.8199L262.654 2.21143Z" fill="#706F6F"/>
<path d="M84.4733 31.7034C84.3779 32.6624 83.5382 33.3775 82.5739 33.3213C81.55 33.3296 81.1518 32.7843 81.3905 31.7068L85.7285 11.916C85.8149 11.4261 86.0474 10.9728 86.3958 10.6155C86.7173 10.3157 87.1443 10.1543 87.5833 10.1668L94.608 10.1641C97.735 10.1385 99.9166 10.6035 101.131 11.4826C102.345 12.3616 102.746 13.7741 102.323 15.7092C101.999 17.5206 100.987 19.1408 99.4972 20.2321C97.8024 21.3437 95.798 21.8869 93.7771 21.7825L86.6094 21.8412L84.4733 31.7034ZM92.6662 18.8394C94.3235 18.956 95.9897 18.7562 97.5749 18.2504C98.4391 17.788 99.0241 16.9349 99.1418 15.9657C99.3297 15.377 99.2963 14.7413 99.0476 14.1775C98.6851 13.7013 98.1355 13.4025 97.5364 13.3558C96.3391 13.1667 95.1261 13.0884 93.9133 13.1221L88.5073 13.1664L87.2602 18.8836L92.6662 18.8394Z" fill="#131614"/>
<path d="M84.4733 31.7034C84.3779 32.6624 83.5382 33.3775 82.5739 33.3213C81.55 33.3296 81.1518 32.7843 81.3905 31.7068L85.7285 11.916C85.8149 11.4261 86.0474 10.9728 86.3958 10.6155C86.7173 10.3157 87.1443 10.1543 87.5833 10.1668L94.608 10.1641C97.735 10.1385 99.9166 10.6035 101.131 11.4826C102.345 12.3616 102.746 13.7741 102.323 15.7092C101.999 17.5206 100.987 19.1408 99.4972 20.2321C97.8024 21.3437 95.798 21.8869 93.7771 21.7825L86.6094 21.8412L84.4733 31.7034ZM92.6662 18.8394C94.3235 18.956 95.9897 18.7562 97.5749 18.2504C98.4391 17.788 99.0241 16.9349 99.1418 15.9657C99.3297 15.377 99.2963 14.7413 99.0476 14.1775C98.6851 13.7013 98.1355 13.4025 97.5364 13.3558C96.3391 13.1667 95.1261 13.0884 93.9133 13.1221L88.5073 13.1664L87.2602 18.8836L92.6662 18.8394Z" fill="#131614"/>
<path d="M82.5994 33.5898C82.1273 33.6285 81.6646 33.4504 81.3425 33.1063C81.051 32.675 80.9761 32.133 81.1394 31.6373L85.4774 11.8467C85.5718 11.3016 85.8313 10.7976 86.2214 10.4028C86.5862 10.0435 87.0847 9.85227 87.5958 9.87576L94.6205 9.87311C97.8466 9.84668 100.028 10.3227 101.309 11.2451C102.589 12.1675 103.056 13.7002 102.601 15.7562C102.276 17.6656 101.209 19.374 99.6328 20.5108C97.8969 21.6397 95.8439 22.1801 93.7804 22.0513L86.833 22.1082L84.6633 31.8169C84.5174 32.8388 83.6339 33.5976 82.5994 33.5898ZM87.5427 10.4469C87.1794 10.4404 86.8277 10.5775 86.5641 10.8281C86.2685 11.1327 86.0673 11.5154 85.9843 11.9303L81.6462 31.7208C81.5166 32.0503 81.5379 32.4192 81.7045 32.7301C81.9319 32.9358 82.2358 33.0368 82.5423 33.0086C82.95 33.0511 83.3583 32.9262 83.6731 32.6628C83.9879 32.3994 84.1823 32.0199 84.2113 31.612L86.3795 21.4754L93.7673 21.4148C95.7084 21.5062 97.6323 20.9875 99.2675 19.9321C100.706 18.8604 101.678 17.2807 101.983 15.5198C102.385 13.6727 102.028 12.3806 100.869 11.567C99.7102 10.7533 97.5618 10.31 94.5009 10.3021L87.4872 10.3047L87.5427 10.4469ZM93.0769 19.1047L92.6695 19.1081L86.9222 19.1553L88.2885 12.8882L93.9148 12.8422C95.1459 12.8145 96.3765 12.8926 97.5931 13.0754C98.272 13.1322 98.8915 13.4793 99.2919 14.0273C99.5754 14.6509 99.6171 15.3581 99.4087 16.0128C99.2823 17.069 98.6373 17.9959 97.6883 18.4853C96.2055 18.9924 94.6385 19.203 93.0769 19.1047ZM87.5699 18.5572L92.6345 18.5157C94.2505 18.633 95.8757 18.441 97.4222 17.9497C98.2103 17.5297 98.7398 16.7482 98.8355 15.8639C99.0203 15.3444 99.0184 14.778 98.8302 14.2616C98.4972 13.8615 98.0163 13.6124 97.4955 13.5701C96.3157 13.3908 95.1217 13.3161 93.9274 13.3469L88.7417 13.3894L87.5699 18.5572Z" fill="black"/>
<path d="M122.371 24.8684C122.021 26.5342 121.27 28.0922 120.184 29.4084C119.124 30.711 117.763 31.739 116.219 32.4043C114.563 33.1253 112.773 33.4843 110.97 33.4571C109.31 33.5159 107.664 33.1516 106.188 32.3987C104.962 31.7559 104.018 30.6857 103.535 29.3911C103.036 27.9315 102.978 26.3561 103.366 24.8594L104.733 18.6907C105.093 17.0284 105.843 15.4727 106.92 14.1509C107.984 12.852 109.344 11.8246 110.885 11.1549C112.542 10.439 114.331 10.0802 116.133 10.1022C117.793 10.0496 119.438 10.4135 120.916 11.1606C122.139 11.8013 123.082 12.8672 123.568 14.1572C124.067 15.6206 124.126 17.1992 123.738 18.6997L122.371 24.8684ZM115.472 13.0491C113.665 12.9712 111.879 13.4872 110.39 14.5176C109.035 15.5813 108.122 17.1062 107.827 18.7971L106.515 24.7568C106.037 26.2185 106.301 27.8172 107.223 29.0425C108.096 30.0232 109.573 30.5159 111.632 30.5101C113.441 30.6012 115.231 30.0841 116.714 29.0416C118.079 27.9965 119.011 26.4881 119.332 24.8055L120.633 18.8458C121.082 17.3944 120.846 15.8214 119.991 14.5706C119.107 13.5901 117.608 13.0975 115.494 13.0928L115.472 13.0491Z" fill="#131614"/>
<path d="M122.371 24.8684C122.021 26.5342 121.27 28.0922 120.184 29.4084C119.124 30.711 117.763 31.739 116.219 32.4043C114.563 33.1253 112.773 33.4843 110.97 33.4571C109.31 33.5159 107.664 33.1516 106.188 32.3987C104.962 31.7559 104.018 30.6857 103.535 29.3911C103.036 27.9315 102.978 26.3561 103.366 24.8594L104.733 18.6907C105.093 17.0284 105.843 15.4727 106.92 14.1509C107.984 12.852 109.344 11.8246 110.885 11.1549C112.542 10.439 114.331 10.0802 116.133 10.1022C117.793 10.0496 119.438 10.4135 120.916 11.1606C122.139 11.8013 123.082 12.8672 123.568 14.1572C124.067 15.6206 124.126 17.1992 123.738 18.6997L122.371 24.8684ZM115.472 13.0491C113.665 12.9712 111.879 13.4872 110.39 14.5176C109.035 15.5813 108.122 17.1062 107.827 18.7971L106.515 24.7568C106.037 26.2185 106.301 27.8172 107.223 29.0425C108.096 30.0232 109.573 30.5159 111.632 30.5101C113.441 30.6012 115.231 30.0841 116.714 29.0416C118.079 27.9965 119.011 26.4881 119.332 24.8055L120.633 18.8458C121.082 17.3944 120.846 15.8214 119.991 14.5706C119.107 13.5608 117.608 13.0536 115.494 13.0489L115.472 13.0491Z" fill="#131614"/>
<path d="M111.17 33.7335L111.038 33.7346C109.331 33.8022 107.636 33.4385 106.112 32.6774C104.832 32.0059 103.846 30.8897 103.338 29.5391C102.828 28.025 102.769 26.3941 103.168 24.8429L104.513 18.6744C104.856 16.9702 105.607 15.3715 106.7 14.0138C107.789 12.6803 109.182 11.6261 110.763 10.9402C112.456 10.2105 114.282 9.84398 116.122 9.86458C117.825 9.80077 119.515 10.1643 121.036 10.9219C122.317 11.5926 123.304 12.7091 123.811 14.0602C124.33 15.5722 124.392 17.2047 123.992 18.7564L122.647 24.9357C122.291 26.6329 121.543 28.2254 120.46 29.5854C119.371 30.919 117.977 31.9732 116.396 32.659C114.746 33.375 112.966 33.7409 111.17 33.7335ZM116.014 10.3813C114.293 10.3749 112.588 10.7252 111.007 11.4101C109.505 12.0634 108.18 13.0639 107.141 14.3285C106.109 15.6159 105.393 17.1256 105.053 18.7359L103.653 24.9376C103.283 26.3877 103.338 27.9109 103.811 29.3267C104.283 30.5514 105.181 31.5644 106.342 32.1817C107.777 32.9173 109.376 33.2816 110.992 33.2411C112.757 33.2733 114.509 32.9258 116.131 32.2221C117.658 31.5455 118.997 30.5054 120.029 29.1939C121.071 27.9106 121.79 26.3995 122.129 24.7864L123.452 18.6511C123.832 17.2028 123.781 15.6775 123.305 14.2619C122.843 13.0309 121.942 12.0146 120.774 11.407C119.335 10.67 117.733 10.3058 116.113 10.3476L116.014 10.3813ZM111.788 30.7871L111.678 30.7879C109.974 30.9533 108.284 30.3839 107.037 29.2234C106.057 27.9362 105.772 26.2506 106.273 24.7076L107.574 18.7481C107.897 17.0045 108.847 15.4354 110.246 14.3359C111.746 13.2744 113.548 12.7244 115.383 12.7682L115.493 12.7673C117.695 12.7493 119.261 13.2962 120.2 14.3312C121.113 15.6518 121.374 17.3169 120.909 18.8585L119.596 24.8071C119.271 26.5607 118.303 28.1337 116.88 29.2197C115.395 30.2777 113.608 30.8277 111.788 30.7871ZM115.385 13.328C113.674 13.2679 111.987 13.7631 110.578 14.7393C109.279 15.7696 108.402 17.2375 108.114 18.8645L106.813 24.824C106.347 26.1951 106.587 27.7037 107.454 28.8579C108.603 29.8938 110.141 30.3954 111.687 30.239C113.431 30.3224 115.157 29.8256 116.593 28.8269C117.898 27.8053 118.78 26.3395 119.067 24.7125L120.369 18.7531C120.793 17.3774 120.574 15.8875 119.772 14.697C118.954 13.7927 117.51 13.3325 115.495 13.3271L115.385 13.328Z" fill="black"/>
<path d="M134.584 33.2174C132.725 33.2817 130.869 33.0676 129.077 32.5823C127.973 32.3018 127.054 31.5451 126.57 30.5181C126.17 29.2271 126.165 27.8443 126.557 26.5467L128.574 17.1167C128.83 15.6923 129.417 14.346 130.289 13.1859C131.155 12.1798 132.304 11.4555 133.585 11.1072C135.323 10.6239 137.122 10.4057 138.923 10.4601L144.769 10.4122C145.88 10.2892 146.983 10.6853 147.756 11.4849C148.345 12.4771 148.47 13.6776 148.098 14.7735C147.809 16.0778 147.15 16.7305 146.122 16.7316C145.712 16.7767 145.312 16.5894 145.086 16.2464C144.876 15.8205 144.839 15.3299 144.982 14.8758C145.138 14.4989 145.137 14.0762 144.978 13.7019C144.824 13.5057 144.471 13.3988 143.876 13.4037L138.294 13.4494C137.03 13.4107 135.765 13.502 134.519 13.7217C133.792 13.8646 133.138 14.2586 132.673 14.834C132.179 15.5716 131.848 16.4045 131.701 17.2776L129.673 26.5212C129.436 27.3214 129.408 28.1678 129.593 28.9794C129.888 29.5853 130.476 29.9954 131.149 30.0638C132.513 30.292 133.896 30.3872 135.279 30.3482L140.2 30.3079C140.624 30.339 141.048 30.2357 141.411 30.0127C141.711 29.6855 141.902 29.2735 141.957 28.8343C142.048 28.3199 142.292 27.8438 142.657 27.468C142.992 27.142 143.444 26.9643 143.911 26.9751C144.935 26.9666 145.3 27.6659 145.018 28.9737C144.815 30.2141 144.199 31.3518 143.268 32.2027C142.274 32.9461 141.051 33.3174 139.814 33.2514L134.584 33.2174Z" fill="#131614"/>
<path d="M134.584 33.2174C132.725 33.2817 130.869 33.0676 129.077 32.5823C127.973 32.3018 127.054 31.5451 126.57 30.5181C126.17 29.2271 126.165 27.8443 126.557 26.5467L128.574 17.1167C128.83 15.6923 129.417 14.346 130.289 13.1859C131.155 12.1798 132.304 11.4555 133.585 11.1072C135.323 10.6239 137.122 10.4057 138.923 10.4601L144.769 10.4122C145.88 10.2892 146.983 10.6853 147.756 11.4849C148.345 12.4771 148.47 13.6776 148.098 14.7735C147.809 16.0778 147.15 16.7305 146.122 16.7316C145.712 16.7767 145.312 16.5894 145.086 16.2464C144.876 15.8205 144.839 15.3299 144.982 14.8758C145.138 14.4989 145.137 14.0762 144.978 13.7019C144.824 13.5057 144.471 13.3988 143.876 13.4037L138.294 13.4494C137.03 13.4107 135.765 13.502 134.519 13.7217C133.792 13.8646 133.138 14.2586 132.673 14.834C132.179 15.5716 131.848 16.4045 131.701 17.2776L129.673 26.5212C129.436 27.3214 129.408 28.1678 129.593 28.9794C129.888 29.5853 130.476 29.9954 131.149 30.0638C132.513 30.292 133.896 30.3872 135.279 30.3482L140.2 30.3079C140.624 30.339 141.048 30.2357 141.411 30.0127C141.711 29.6855 141.902 29.2735 141.957 28.8343C142.048 28.3199 142.292 27.8438 142.657 27.468C142.992 27.142 143.444 26.9643 143.911 26.9751C144.935 26.9666 145.3 27.6659 145.018 28.9737C144.815 30.2141 144.199 31.3518 143.268 32.2027C142.274 32.9461 141.051 33.3174 139.814 33.2514L134.584 33.2174Z" fill="#131614"/>
<path d="M139.835 33.4808L139.758 33.4815L134.572 33.5239C132.687 33.5896 130.805 33.3719 128.988 32.8783C127.819 32.5801 126.843 31.7862 126.316 30.706C125.88 29.3708 125.856 27.9343 126.247 26.5814L128.296 17.1183C128.565 15.6523 129.175 14.2681 130.078 13.0772C130.956 12.0136 132.135 11.2388 133.461 10.8552C135.227 10.3605 137.057 10.1383 138.887 10.1964L144.722 10.1486C145.916 10.0196 147.1 10.4473 147.93 11.3072C148.566 12.354 148.707 13.6284 148.316 14.793C147.926 16.5954 146.859 16.9991 146.122 17.0052C145.613 17.052 145.123 16.81 144.853 16.3792C144.599 15.9008 144.55 15.3397 144.716 14.8224C144.868 14.119 144.713 13.9118 144.713 13.868C144.713 13.8241 144.514 13.6721 143.853 13.6775L138.271 13.7232C137.029 13.6838 135.786 13.7748 134.562 13.995C133.901 14.1058 133.3 14.4495 132.869 14.9633C132.395 15.662 132.078 16.4545 131.941 17.2859L129.924 26.5402C129.69 27.2842 129.659 28.0758 129.833 28.8341C129.989 29.2606 130.441 29.5531 131.19 29.7225C132.533 29.94 133.893 30.0317 135.254 29.9965L140.175 29.9563C140.537 29.9971 140.902 29.9128 141.209 29.7172C141.467 29.4323 141.628 29.0738 141.668 28.6933C141.776 28.1299 142.046 27.6093 142.445 27.1948C142.824 26.8247 143.334 26.619 143.864 26.6236C144.312 26.6037 144.745 26.7853 145.043 27.1186C145.374 27.6697 145.445 28.3391 145.237 28.9493C145.025 30.2614 144.369 31.4636 143.376 32.3547C142.363 33.1326 141.109 33.5311 139.835 33.4808ZM138.603 10.7802C136.92 10.7515 135.241 10.9648 133.617 11.4135C132.406 11.7536 131.324 12.4464 130.508 13.4028C129.662 14.5274 129.089 15.8318 128.836 17.2126L126.787 26.6098C126.413 27.8502 126.417 29.1717 126.799 30.4059C127.255 31.3588 128.112 32.0591 129.14 32.3176C130.903 32.799 132.73 33.0098 134.559 32.9425L139.734 32.9001C140.914 32.9573 142.079 32.6066 143.033 31.9076C143.919 31.1034 144.502 30.022 144.686 28.844C144.852 28.3901 144.818 27.8884 144.593 27.4624C144.402 27.255 144.125 27.148 143.843 27.1724C143.458 27.1662 143.085 27.3156 142.81 27.5868C142.456 27.9253 142.225 28.3712 142.154 28.8539C142.083 29.3537 141.857 29.8197 141.508 30.1866C141.108 30.4506 140.633 30.5778 140.155 30.5488L135.234 30.5891C133.832 30.6271 132.431 30.532 131.049 30.3052C130.289 30.229 129.625 29.7651 129.294 29.0798C129.082 28.22 129.105 27.3179 129.363 26.468L131.38 17.2137C131.53 16.302 131.881 15.4337 132.406 14.6709C132.901 14.0406 133.608 13.6098 134.395 13.4587C135.659 13.235 136.943 13.1399 138.225 13.175L143.819 13.1292C144.289 13.0622 144.763 13.2117 145.108 13.5356C145.334 13.9658 145.364 14.4728 145.19 14.9283C145.067 15.3163 145.096 15.7353 145.271 16.1015C145.445 16.3613 145.753 16.4992 146.065 16.4571C146.934 16.45 147.494 15.8858 147.743 14.7099C148.096 13.7059 147.991 12.6009 147.458 11.6841C146.738 10.9526 145.715 10.5998 144.691 10.7303L138.845 10.7782L138.603 10.7802Z" fill="black"/>
<path d="M157.722 33.298C155.863 33.3623 154.007 33.1482 152.215 32.6629C151.111 32.3823 150.192 31.6259 149.709 30.5989C149.309 29.3076 149.304 27.9252 149.695 26.6274L151.745 17.2412C152 15.8144 152.592 14.4669 153.471 13.3103C154.337 12.3044 155.486 11.58 156.767 11.2318C158.509 10.7485 160.312 10.5303 162.116 10.5845L167.951 10.5367C169.063 10.4121 170.166 10.8084 170.939 11.6094C171.533 12.5997 171.658 13.8028 171.28 14.898C170.991 16.2023 170.332 16.8549 169.305 16.856C168.894 16.9011 168.494 16.7138 168.268 16.3708C168.059 15.945 168.021 15.4543 168.165 15.0003C168.321 14.6234 168.319 14.2007 168.161 13.8264C168.006 13.6302 167.653 13.5233 167.059 13.5282L161.466 13.574C160.205 13.5347 158.944 13.626 157.701 13.8462C156.97 13.9867 156.312 14.3809 155.844 14.9585C155.35 15.6961 155.019 16.529 154.872 17.4021L152.844 26.6564C152.604 27.4526 152.58 28.2973 152.775 29.1036C153.061 29.7122 153.648 30.1244 154.321 30.1881C155.684 30.4152 157.067 30.5104 158.45 30.4724L163.383 30.4321C163.805 30.4664 164.227 30.3586 164.582 30.126C164.889 29.808 165.082 29.3968 165.128 28.9585C165.223 28.443 165.471 27.9671 165.839 27.5924C166.17 27.267 166.618 27.0891 167.082 27.0995C168.106 27.091 168.472 27.7902 168.19 29.0981C167.942 30.3203 167.29 31.4264 166.339 32.2399C165.346 32.9834 164.123 33.3545 162.886 33.2886L157.722 33.298Z" fill="#131614"/>
<path d="M157.722 33.298C155.863 33.3623 154.007 33.1482 152.215 32.6629C151.111 32.3823 150.192 31.6259 149.709 30.5989C149.309 29.3076 149.304 27.9252 149.695 26.6274L151.745 17.2412C152 15.8144 152.592 14.4669 153.471 13.3103C154.337 12.3044 155.486 11.58 156.767 11.2318C158.509 10.7485 160.312 10.5303 162.116 10.5845L167.951 10.5367C169.063 10.4121 170.166 10.8084 170.939 11.6094C171.533 12.5997 171.658 13.8028 171.28 14.898C170.991 16.2023 170.332 16.8549 169.305 16.856C168.894 16.9011 168.494 16.7138 168.268 16.3708C168.059 15.945 168.021 15.4543 168.165 15.0003C168.321 14.6234 168.319 14.2007 168.161 13.8264C168.006 13.6302 167.653 13.5233 167.059 13.5282L161.466 13.574C160.205 13.5347 158.944 13.626 157.701 13.8462C156.97 13.9867 156.312 14.3809 155.844 14.9585C155.35 15.6961 155.019 16.529 154.872 17.4021L152.844 26.6564C152.604 27.4526 152.58 28.2973 152.775 29.1036C153.061 29.7122 153.648 30.1244 154.321 30.1881C155.684 30.4152 157.067 30.5104 158.45 30.4724L163.383 30.4321C163.805 30.4664 164.227 30.3586 164.582 30.126C164.889 29.808 165.082 29.3968 165.128 28.9585C165.223 28.443 165.471 27.9671 165.839 27.5924C166.17 27.267 166.618 27.0891 167.082 27.0995C168.106 27.091 168.472 27.7902 168.19 29.0981C167.942 30.3203 167.29 31.4264 166.339 32.2399C165.346 32.9834 164.123 33.3545 162.886 33.2886L157.722 33.298Z" fill="#131614"/>
<path d="M162.977 33.5663L162.9 33.5668L157.725 33.6092C155.837 33.6757 153.95 33.458 152.13 32.9639C150.961 32.6655 149.985 31.8717 149.458 30.7916C149.023 29.4563 148.999 28.0199 149.389 26.667L151.45 17.2698C151.715 15.8048 152.321 14.4207 153.22 13.2288C154.108 12.188 155.286 11.4334 156.604 11.0617C158.372 10.579 160.2 10.3571 162.029 10.4029L167.876 10.3551C169.066 10.2279 170.246 10.6556 171.073 11.5138C171.708 12.5605 171.849 13.8349 171.459 14.9994C171.068 16.7909 170.046 17.2052 169.264 17.2116C168.755 17.2584 168.265 17.0164 167.996 16.5857C167.752 16.1042 167.703 15.5473 167.858 15.0289C168.01 14.3255 167.855 14.1183 167.855 14.0745C167.855 14.0306 167.656 13.8896 166.996 13.884L161.414 13.9297C160.172 13.8954 158.929 13.9865 157.704 14.2015C157.043 14.3123 156.442 14.656 156.012 15.1698C155.537 15.8684 155.221 16.661 155.084 17.4923L153.067 26.7466C152.833 27.4906 152.801 28.2822 152.975 29.0403C153.131 29.4669 153.595 29.7593 154.333 29.9287C155.675 30.1468 157.035 30.2384 158.396 30.2028L163.329 30.1623C163.687 30.2026 164.048 30.1181 164.352 29.9236C164.608 29.642 164.769 29.2874 164.811 28.9104C164.916 28.343 165.186 27.8181 165.588 27.401C165.975 27.0305 166.492 26.8254 167.028 26.8297C167.477 26.8081 167.911 26.9901 168.208 27.3247C168.539 27.8759 168.609 28.5451 168.401 29.1553C168.187 30.4552 167.539 31.6474 166.563 32.5385C165.521 33.2856 164.254 33.649 162.977 33.5663ZM161.8 10.8546C160.114 10.8239 158.431 11.0372 156.803 11.488C155.588 11.8256 154.501 12.5187 153.683 13.4774C152.825 14.5989 152.241 15.9037 151.978 17.2874L149.929 26.6844C149.555 27.9248 149.559 29.2463 149.942 30.4805C150.409 31.4235 151.275 32.1079 152.304 32.3482C154.067 32.8294 155.894 33.0402 157.723 32.9731L162.909 32.9305C165.365 33.1605 167.559 31.376 167.828 28.9297C167.999 28.4765 167.965 27.9723 167.735 27.548C167.544 27.3406 167.267 27.2335 166.985 27.2579C166.576 27.2245 166.172 27.3768 165.886 27.6729C165.559 28.0087 165.341 28.4352 165.262 28.8958C165.197 29.3972 164.971 29.8648 164.617 30.2285C164.226 30.4953 163.757 30.623 163.286 30.5905L158.365 30.6308C156.963 30.6734 155.561 30.5745 154.18 30.336C153.422 30.2619 152.759 29.8026 152.425 29.1216C152.213 28.2617 152.236 27.3598 152.494 26.5099L154.511 17.2557C154.668 16.346 155.018 15.4793 155.537 14.7129C156.058 14.1199 156.769 13.7259 157.548 13.5993C158.816 13.3743 160.103 13.2792 161.39 13.3155L166.972 13.2698C167.442 13.206 167.915 13.3551 168.261 13.6762C168.487 14.1059 168.52 14.6112 168.354 15.0687C168.224 15.4549 168.249 15.8755 168.424 16.2421C168.602 16.4979 168.907 16.6345 169.218 16.5976C170.099 16.5904 170.647 16.0264 170.897 14.8504C171.249 13.8465 171.145 12.7415 170.611 11.8247C169.891 11.0932 168.868 10.7405 167.844 10.871L161.998 10.9188L161.8 10.8546Z" fill="black"/>
<path d="M172.139 31.9263L176.477 12.1451C176.55 11.1524 177.4 10.3929 178.398 10.4291C179.421 10.4207 179.809 11.0428 179.505 12.252L175.981 28.3735L192.558 11.2455C193.012 10.7273 193.651 10.41 194.339 10.3643C195.319 10.3563 195.673 10.9458 195.445 12.0885L191.107 31.8698C191.03 32.8504 190.184 33.5956 189.198 33.5529C188.175 33.5612 187.776 33.0269 188.003 31.972L191.56 15.7075L175.18 32.6255C174.91 32.9363 174.591 33.202 174.236 33.4121C173.939 33.5585 173.609 33.6255 173.279 33.6064C172.277 33.6145 171.89 33.0474 172.172 31.9261" fill="#131614"/>
<path d="M172.135 31.9263L176.473 12.1451C176.546 11.1524 177.396 10.3929 178.394 10.4291C179.417 10.4207 179.805 11.0428 179.501 12.252L175.977 28.3735L192.555 11.2455C193.007 10.7273 193.648 10.41 194.335 10.3643C195.314 10.3563 195.669 10.9458 195.441 12.0885L191.104 31.8697C191.025 32.8504 190.18 33.5956 189.194 33.5528C188.17 33.5611 187.772 33.0269 188 31.972L191.556 15.7075L175.176 32.6255C174.906 32.9363 174.587 33.202 174.232 33.412C173.935 33.5585 173.605 33.6254 173.275 33.6064C172.273 33.6035 171.886 33.0474 172.135 31.9263Z" fill="#131614"/>
<path d="M189.214 33.8972C188.738 33.9358 188.272 33.7581 187.945 33.4138C187.664 32.9951 187.59 32.4715 187.742 31.9893L191.115 16.604L175.382 32.8257C175.088 33.1582 174.743 33.4422 174.361 33.6677C174.016 33.8247 173.639 33.8993 173.26 33.8851C172.805 33.9304 172.356 33.7592 172.048 33.4233C171.754 32.9647 171.679 32.399 171.845 31.8782L176.182 12.0971C176.283 10.9746 177.248 10.1229 178.378 10.1594C178.834 10.1237 179.281 10.2978 179.59 10.6321C179.909 11.1345 179.984 11.754 179.794 12.3198L176.476 27.4963L192.362 11.1309C192.864 10.5588 193.572 10.2093 194.33 10.1604C194.772 10.1275 195.201 10.2979 195.499 10.6225C195.802 11.0947 195.872 11.679 195.69 12.2116L191.353 31.9927C191.238 33.0806 190.311 33.9058 189.214 33.8972ZM192.033 14.8304L188.316 32.1273C188.203 32.4511 188.237 32.8068 188.406 33.1029C188.634 33.3085 188.938 33.4094 189.244 33.3813C190.136 33.3739 190.652 32.9091 190.869 31.9089L195.206 12.1278C195.328 11.7657 195.3 11.3704 195.125 11.0315C194.924 10.844 194.651 10.7506 194.376 10.7743C193.772 10.829 193.212 11.1171 192.816 11.5769L175.59 29.2697L179.32 12.214C179.469 11.8097 179.435 11.3622 179.228 10.9861C179.021 10.7844 178.734 10.6861 178.445 10.7183C177.554 10.7256 177.038 11.2015 176.821 12.2235L172.484 32.0047C172.359 32.3676 172.392 32.7651 172.575 33.1009C172.784 33.2986 173.071 33.3928 173.358 33.3578C173.645 33.3735 173.933 33.3184 174.194 33.1974C174.52 33.0015 174.813 32.7547 175.061 32.4662L192.033 14.8304Z" fill="black"/>
<path d="M211.034 32.0797L212.91 23.4875L207.725 23.5299C206.817 23.4798 205.911 23.6688 205.096 24.078C204.391 24.517 203.833 25.1556 203.496 25.9118L201.867 29.2154C201.209 30.5141 200.264 31.6473 199.104 32.5283C198.12 33.3095 196.906 33.7473 195.65 33.774C194.374 33.7844 193.844 33.2842 194.06 32.2954C194.277 31.3065 195.014 30.8618 196.258 30.8625C196.777 30.8268 197.266 30.6092 197.643 30.2481C198.088 29.9096 198.461 29.4849 198.74 28.9997L200.543 25.4314C201.096 24.388 201.863 23.4704 202.791 22.7367C200.542 21.6804 199.706 19.8337 200.284 17.1966C200.655 15.1932 201.867 13.4392 203.616 12.3765C205.746 11.1989 208.16 10.6288 210.589 10.729L217.348 10.7395C218.327 10.7315 218.692 11.3317 218.454 12.5291L214.172 32.0758C214.087 33.0217 213.267 33.7358 212.316 33.6923C211.216 33.7014 210.818 33.1563 211.057 32.0796L211.034 32.0797ZM215.067 13.6756L209.97 13.7173C208.402 13.6301 206.831 13.9214 205.395 14.5664C204.356 15.1132 203.628 16.1074 203.421 17.2587C202.934 19.4562 204.623 20.5941 208.463 20.5846L213.571 20.5427L215.067 13.6756Z" fill="#131614"/>
<path d="M211.034 32.0797L212.91 23.4875L207.725 23.5299C206.817 23.4798 205.911 23.6688 205.096 24.078C204.391 24.517 203.833 25.1556 203.496 25.9118L201.867 29.2154C201.209 30.5141 200.264 31.6473 199.104 32.5283C198.12 33.3095 196.906 33.7473 195.65 33.774C194.374 33.7844 193.844 33.2842 194.06 32.2954C194.277 31.3065 195.014 30.8618 196.258 30.8625C196.777 30.8268 197.266 30.6092 197.643 30.2481C198.088 29.9096 198.461 29.4849 198.74 28.9997L200.543 25.4314C201.096 24.388 201.863 23.4704 202.791 22.7367C200.542 21.6804 199.706 19.8337 200.284 17.1966C200.655 15.1932 201.867 13.4392 203.616 12.3765C205.746 11.1989 208.16 10.6288 210.589 10.729L217.348 10.7395C218.327 10.7315 218.692 11.3317 218.454 12.5291L214.172 32.0758C214.087 33.0217 213.267 33.7358 212.316 33.6923C211.216 33.6904 210.795 33.1565 211.034 32.0797ZM215.046 13.6758L209.949 13.7175C208.379 13.6303 206.81 13.9215 205.372 14.5666C204.333 15.1134 203.605 16.1076 203.4 17.2589C202.913 19.4564 204.6 20.5943 208.442 20.5847L213.55 20.5429L215.046 13.6758Z" fill="#131614"/>
<path d="M212.32 33.974C211.82 34.0198 211.329 33.8336 210.986 33.4695C210.705 33.0428 210.631 32.5123 210.783 32.0233L212.594 23.7708L207.751 23.8106C206.889 23.7735 206.031 23.95 205.253 24.3245C204.593 24.7358 204.073 25.337 203.762 26.0479L202.133 29.3519C201.448 30.6575 200.473 31.791 199.282 32.6658C198.249 33.4801 196.978 33.9373 195.666 33.9679C195.054 34.0368 194.448 33.8281 194.012 33.4001C193.733 33.0485 193.645 32.5819 193.777 32.1516C193.94 31.3933 194.509 30.5222 196.27 30.4967C196.717 30.4564 197.136 30.263 197.457 29.9496C197.851 29.6477 198.183 29.2724 198.432 28.8447L200.248 25.276C200.75 24.321 201.427 23.4672 202.243 22.7587C200.158 21.6132 199.393 19.7218 199.968 17.1066C200.376 15.0561 201.639 13.2709 203.441 12.1971C205.557 11.0102 207.958 10.4251 210.382 10.5059L210.557 10.5045L217.316 10.5149C217.735 10.4902 218.139 10.6564 218.419 10.9666C218.735 11.4623 218.806 12.0755 218.611 12.6323L214.339 32.1915C214.205 33.2029 213.343 33.964 212.32 33.974ZM211.301 32.1397C211.188 32.4671 211.221 32.8261 211.393 33.126C211.631 33.3578 211.965 33.4681 212.295 33.4258C212.698 33.4463 213.092 33.3059 213.391 33.0356C213.691 32.7653 213.869 32.3878 213.887 31.9869L218.159 12.4276C218.302 12.0312 218.274 11.5938 218.078 11.2217C217.885 11.0354 217.618 10.945 217.35 10.9753L210.592 10.9649C208.213 10.8589 205.845 11.4177 203.762 12.5783C202.084 13.5704 200.911 15.2294 200.54 17.1348C199.987 19.6512 200.752 21.3669 202.891 22.3586L203.289 22.5527L202.937 22.8299C202.033 23.5376 201.285 24.4256 200.745 25.4365L198.939 29.0051C198.666 29.5139 198.293 29.9642 197.844 30.3303C197.424 30.7474 196.862 30.991 196.272 31.0122C195.171 31.0212 194.501 31.4106 194.316 32.2348C194.228 32.4964 194.265 32.7838 194.418 33.0128C194.756 33.3009 195.199 33.4327 195.641 33.3757C196.837 33.3377 197.992 32.9209 198.939 32.186C200.07 31.3331 200.989 30.2335 201.626 28.9721L203.255 25.6682C203.612 24.8623 204.204 24.1811 204.955 23.7127C205.794 23.2928 206.725 23.0926 207.66 23.1313L207.727 23.1306L213.23 23.1405L211.301 32.1397ZM213.772 20.8325L208.446 20.8762C205.914 20.897 204.315 20.4165 203.554 19.4685C203.082 18.8431 202.928 18.0344 203.139 17.278C203.36 16.0462 204.135 14.9808 205.243 14.387C206.722 13.7273 208.336 13.4282 209.951 13.5148L215.399 13.4702L213.772 20.8325ZM209.765 13.9551C208.299 13.889 206.838 14.1678 205.497 14.7688C204.515 15.2706 203.824 16.2028 203.633 17.285C203.444 17.8957 203.557 18.5585 203.937 19.0704C204.579 19.8658 206.087 20.2813 208.4 20.2734L213.286 20.2333L214.664 13.915L209.898 13.954L209.765 13.9551Z" fill="black"/>
<path d="M233.568 24.7247C233.377 24.4759 233.318 24.1523 233.41 23.8532C233.472 23.4983 233.668 23.1781 233.956 22.9547C234.249 22.7457 234.605 22.6368 234.967 22.645L248.574 22.6545C248.904 22.6192 249.231 22.7313 249.466 22.9598C249.648 23.2207 249.694 23.5521 249.589 23.853C249.526 24.203 249.34 24.5208 249.065 24.7515C248.77 24.9667 248.409 25.0761 248.044 25.0614L234.426 25.0519C234.103 25.0814 233.785 24.9602 233.568 24.7247Z" fill="#131614"/>
<path d="M233.568 24.7247C233.377 24.4759 233.318 24.1523 233.41 23.8532C233.472 23.4983 233.668 23.1781 233.956 22.9547C234.249 22.7457 234.605 22.6368 234.967 22.645L248.574 22.6545C248.904 22.6192 249.231 22.7313 249.466 22.9598C249.648 23.2207 249.694 23.5521 249.589 23.853C249.526 24.203 249.34 24.5208 249.065 24.7515C248.77 24.9667 248.409 25.0761 248.044 25.0614L234.426 25.0519C234.103 25.0814 233.785 24.9602 233.568 24.7247Z" fill="#131614"/>
<path d="M248.07 25.3395L234.43 25.3196C234.015 25.3593 233.605 25.2021 233.329 24.8961C233.091 24.5894 233.013 24.1907 233.117 23.8172C233.186 23.3893 233.416 23.0019 233.762 22.7314C234.105 22.4926 234.516 22.3647 234.937 22.3654L248.554 22.3747C248.966 22.3117 249.379 22.4662 249.643 22.7814C249.904 23.0966 249.978 23.5255 249.835 23.9098C249.757 24.3324 249.533 24.7163 249.201 24.9956C248.872 25.2288 248.475 25.3496 248.07 25.3395ZM234.949 22.9164C234.654 22.9132 234.366 23.0026 234.126 23.1715C233.891 23.3558 233.735 23.6192 233.688 23.91C233.615 24.1283 233.649 24.3673 233.778 24.5576C233.949 24.7322 234.193 24.8182 234.439 24.7899L248.047 24.7995C248.353 24.8113 248.655 24.7212 248.902 24.544C249.127 24.353 249.277 24.0923 249.33 23.8057C249.408 23.5819 249.378 23.3356 249.25 23.1363C249.07 22.9706 248.825 22.8932 248.579 22.9257L234.97 22.9162L234.949 22.9164Z" fill="#131614"/>
<path d="M101.416 43.4826L93.2847 80.5632L246.153 80.1219L254.273 43.0415L101.416 43.4826Z" fill="#706F6F"/>
<path d="M114.628 74.3515C112.769 74.4215 110.912 74.2074 109.121 73.7164C108.019 73.4318 107.102 72.6766 106.615 71.6524C106.216 70.3649 106.211 68.986 106.602 67.6919L108.651 58.2947C108.911 56.8693 109.502 55.5228 110.377 54.3636C111.229 53.3671 112.357 52.6436 113.619 52.2855C115.361 51.8076 117.163 51.5894 118.967 51.6382L124.814 51.5903C125.921 51.4675 127.021 51.864 127.79 52.6632C128.393 53.6504 128.518 54.8576 128.131 55.9517C127.838 57.2597 127.191 57.9123 126.156 57.9099C125.749 57.9507 125.355 57.7639 125.13 57.4246C124.923 56.9986 124.882 56.5101 125.016 56.0542C125.172 55.6772 125.17 55.2546 125.012 54.8802C124.868 54.6839 124.504 54.5882 123.91 54.582L118.328 54.6278C117.063 54.591 115.798 54.6859 114.552 54.911C113.829 55.0369 113.172 55.4111 112.695 55.9685C112.201 56.7061 111.87 57.5391 111.723 58.4121L109.706 67.6665C109.458 68.4609 109.43 69.307 109.626 70.1137C109.914 70.7255 110.506 71.1381 111.183 71.198C112.542 71.4314 113.922 71.5268 115.301 71.4825L120.234 71.4422C120.655 71.4789 121.076 71.3751 121.433 71.1472C121.738 70.8217 121.933 70.4094 121.99 69.9686C122.079 69.4535 122.323 68.977 122.69 68.6025C123.025 68.2823 123.471 68.1053 123.933 68.1096C124.957 68.1011 125.334 68.8001 125.041 70.1082C124.845 71.3509 124.227 72.4907 123.29 73.3371C122.3 74.0788 121.081 74.4499 119.847 74.3856L114.628 74.3515Z" fill="black"/>
<path d="M119.891 74.6503L119.802 74.651L114.628 74.6934C112.739 74.7587 110.853 74.5413 109.033 74.048C107.866 73.7456 106.891 72.953 106.361 71.8755C105.931 70.5394 105.907 69.1045 106.292 67.7509L108.353 58.3646C108.619 56.8981 109.229 55.5132 110.134 54.3237C111.008 53.2614 112.184 52.4867 113.506 52.1018C115.274 51.62 117.102 51.3981 118.932 51.443L124.778 51.3951C125.971 51.269 127.152 51.7011 127.975 52.5648C128.61 53.6077 128.752 54.8784 128.361 56.0395C127.971 57.8309 126.948 58.2454 126.166 58.2517C125.659 58.2909 125.173 58.0508 124.898 57.6258C124.659 57.1391 124.61 56.5804 124.761 56.058C124.913 55.3546 124.758 55.1473 124.758 55.1035C124.758 55.0597 124.559 54.9185 123.909 54.9129L118.316 54.9588C117.074 54.9249 115.832 55.0159 114.607 55.2305C113.946 55.3415 113.345 55.6851 112.915 56.1988C112.444 56.8986 112.131 57.691 111.997 58.5213L109.969 67.7756C109.747 68.5252 109.715 69.3176 109.878 70.0804C110.158 70.5774 110.665 70.9051 111.235 70.9579C112.581 71.1816 113.945 71.2733 115.31 71.2318L120.231 71.1915C120.602 71.2706 120.99 71.1733 121.28 70.9279C121.57 70.6827 121.731 70.3175 121.713 69.9396C121.818 69.3695 122.092 68.8434 122.501 68.43C122.874 68.0585 123.382 67.8525 123.909 67.859C124.358 67.8341 124.793 68.0168 125.088 68.354C125.426 68.9063 125.501 69.5805 125.293 70.1956C125.073 71.4931 124.422 72.681 123.443 73.5678C122.418 74.3268 121.163 74.7093 119.891 74.6503ZM118.714 51.9383C117.027 51.9085 115.344 52.1217 113.717 52.5719C112.504 52.9137 111.418 53.6061 110.597 54.5611C109.752 55.6853 109.183 56.9903 108.936 58.3708L106.876 67.768C106.5 69.0082 106.505 70.3301 106.888 71.5641C107.344 72.5193 108.2 73.2232 109.229 73.4867C110.99 73.9583 112.812 74.1653 114.637 74.1008L119.823 74.0583C121.002 74.1289 122.171 73.7812 123.122 73.0769C124.005 72.2644 124.591 71.1818 124.785 70.0022C124.946 69.5476 124.913 69.048 124.693 68.6206C124.496 68.4155 124.217 68.3092 123.932 68.3305C123.545 68.3332 123.172 68.4812 122.888 68.745C122.565 69.0881 122.348 69.5169 122.264 69.979C122.201 70.4779 121.975 70.9427 121.619 71.3008C121.213 71.5694 120.729 71.6969 120.244 71.6632L115.312 71.7035C113.91 71.7476 112.508 71.6526 111.127 71.4196C110.366 71.3434 109.702 70.8795 109.372 70.1942C109.16 69.3344 109.183 68.4325 109.44 67.5825L111.468 58.3282C111.621 57.4171 111.971 56.5493 112.495 55.7854C113.012 55.194 113.719 54.8 114.495 54.6719C115.762 54.4421 117.05 54.347 118.336 54.3882L123.918 54.3424C124.389 54.2785 124.862 54.4276 125.208 54.7488C125.439 55.1807 125.473 55.6918 125.301 56.1524C125.176 56.5354 125.201 56.9507 125.371 57.3147C125.549 57.5708 125.852 57.7109 126.165 57.6812C127.045 57.674 127.594 57.099 127.843 55.934C128.193 54.9272 128.094 53.8213 127.569 52.8971C126.838 52.1754 125.816 51.8246 124.791 51.9435L118.956 51.9913L118.714 51.9383Z" fill="black"/>
<path d="M135.357 74.9664C134.844 75.015 134.339 74.8245 133.989 74.4507C133.689 74.0405 133.601 73.5123 133.753 73.0257L137.702 54.9474L132.745 54.9881C132.22 55.0282 131.703 54.8541 131.311 54.5059C130.988 54.1466 130.87 53.6475 130.998 53.1802C131.11 52.6818 131.403 52.2416 131.82 51.9441C132.284 51.6303 132.836 51.472 133.394 51.4922L147.408 51.4982C147.979 51.4342 148.546 51.6314 148.952 52.0344C149.215 52.4024 149.29 52.8728 149.154 53.306C148.915 54.4125 147.843 55.1382 146.725 54.9504L141.724 54.9914L137.752 73.1356C137.638 73.6621 137.334 74.1295 136.897 74.4488C136.455 74.7862 135.913 74.968 135.357 74.9664ZM147.375 51.7289C148.576 51.719 149.063 52.22 148.857 53.2096C148.65 54.1853 147.711 54.8308 146.724 54.6761L141.503 54.7188L137.477 73.1379C137.383 73.6029 137.117 74.0165 136.731 74.2965C136.327 74.6035 135.83 74.7627 135.323 74.7472C134.91 74.777 134.507 74.6237 134.22 74.3281C133.975 73.9806 133.909 73.5384 134.04 73.1331L138.065 54.725L132.777 54.7683C132.326 54.8126 131.877 54.6648 131.542 54.3612C131.264 54.0697 131.17 53.6491 131.296 53.2657C131.373 52.8172 131.631 52.4186 132.008 52.1621C132.424 51.8833 132.917 51.7409 133.417 51.7554L147.375 51.7289Z" fill="black"/>
<path d="M151.147 73.149C151.051 74.1065 150.21 74.8183 149.247 74.7559C148.223 74.7642 147.825 74.2189 148.053 73.1414L152.391 53.3506C152.477 52.8607 152.71 52.4074 153.058 52.0502C153.378 51.7483 153.806 51.5866 154.246 51.6015L161.259 51.544C164.401 51.5182 166.579 51.9578 167.793 52.8623C169.007 53.7414 169.408 55.1429 168.985 57.0889C168.659 58.8996 167.647 60.5191 166.159 61.6119C164.477 62.7034 162.495 63.2417 160.494 63.1509L153.316 63.1878L151.147 73.149ZM159.362 60.2848C161.02 60.4053 162.687 60.2016 164.27 59.6848C165.134 59.2292 165.717 58.3775 165.826 57.4111C166.017 56.8237 165.987 56.1883 165.743 55.6229C165.383 55.1426 164.833 54.8396 164.232 54.7903C163.033 54.6113 161.821 54.5368 160.609 54.5675L155.203 54.6117L153.955 60.318L159.362 60.2848Z" fill="black"/>
<path d="M149.311 75.026C148.837 75.0708 148.37 74.8967 148.043 74.5534C147.763 74.126 147.689 73.5958 147.84 73.1063L152.178 53.3159C152.275 52.7746 152.534 52.2748 152.922 51.883C153.297 51.5385 153.789 51.3498 154.297 51.356L161.321 51.2984C164.547 51.2721 166.729 51.748 168.009 52.6704C169.289 53.5928 169.746 55.1255 169.301 57.1706C168.963 59.0486 167.912 60.728 166.366 61.859C164.636 62.9863 162.596 63.5444 160.536 63.4541L153.6 63.511L151.43 73.2088C151.303 74.2693 150.381 75.0594 149.311 75.026ZM154.255 51.9379C153.894 51.9332 153.544 52.0655 153.276 52.3082C152.98 52.6137 152.775 52.9956 152.685 53.4105L148.347 73.201C148.225 73.5347 148.258 73.905 148.438 74.2099C148.66 74.4175 148.963 74.5156 149.265 74.4776C150.091 74.5276 150.806 73.9047 150.868 73.0816L153.036 62.945L160.424 62.9503C162.366 63.0308 164.288 62.509 165.924 61.4566C167.37 60.3918 168.345 58.8087 168.64 57.0443C169.042 55.2082 168.696 53.9159 167.526 53.1023C166.356 52.2888 164.219 51.8344 161.158 51.8376L154.144 51.895L154.255 51.9379ZM159.789 60.5958L159.426 60.5988L153.678 60.5911L155.044 54.3349L160.671 54.289C161.902 54.2558 163.133 54.3339 164.349 54.5222C165.025 54.5872 165.642 54.9326 166.048 55.4741C166.326 56.099 166.368 56.8044 166.164 57.4597C166.038 58.5158 165.393 59.4427 164.444 59.9321C162.939 60.4398 161.35 60.6504 159.767 60.552L159.789 60.5958ZM159.424 60.0501C161.04 60.1614 162.664 59.9696 164.211 59.4841C165 59.059 165.529 58.2743 165.625 57.3872C165.793 56.8655 165.771 56.3021 165.564 55.7963C165.24 55.3918 164.76 55.1413 164.241 55.1049C163.061 54.9255 161.867 54.8508 160.673 54.8816L155.487 54.9241L154.403 60.0911L159.424 60.0501Z" fill="black"/>
<path d="M184.066 51.8618L188.223 72.9994C188.242 73.2941 188.217 73.5904 188.148 73.8782C188.044 74.2426 187.811 74.5573 187.489 74.7615C187.15 75.0078 186.744 75.1417 186.325 75.1442C185.654 75.2072 185.06 74.7239 184.988 74.0577L183.868 67.9863L173.957 67.9798L170.179 74.0472C169.8 74.7089 169.106 75.1297 168.344 75.1597C167.972 75.1786 167.611 75.0378 167.352 74.7728C167.109 74.5522 167.006 74.2165 167.084 73.8969C167.144 73.5921 167.243 73.296 167.379 73.0166L180.763 51.856L184.066 51.8618ZM181.405 56.2739L175.819 65.0012L183.251 65.0061L181.405 56.2739Z" fill="black"/>
<path d="M186.348 75.4232C185.53 75.487 184.815 74.8885 184.735 74.0754L183.615 68.2347L174.069 68.2251L170.367 74.1602C169.947 74.9005 169.175 75.3752 168.324 75.417C167.876 75.437 167.443 75.2648 167.133 74.9439C166.834 74.6648 166.704 74.25 166.788 73.8493C166.856 73.5179 166.966 73.1962 167.115 72.8918L180.609 51.6098L184.297 51.5796L184.299 51.799L188.465 72.9472C188.488 73.279 188.458 73.6122 188.38 73.9359C188.267 74.3632 187.997 74.7335 187.624 74.9736C187.256 75.2527 186.809 75.41 186.348 75.4232ZM173.781 67.6787L184.076 67.6822L185.242 73.9615C185.253 74.2337 185.378 74.488 185.59 74.6604C185.801 74.8326 186.076 74.9065 186.347 74.8634C186.703 74.8574 187.05 74.7393 187.336 74.5261C187.597 74.3662 187.79 74.1136 187.873 73.8193C187.942 73.5613 187.967 73.294 187.947 73.0283L183.836 52.1211L180.908 52.1451L167.578 73.1075C167.459 73.3564 167.372 73.6188 167.317 73.8889C167.26 74.1217 167.337 74.3659 167.517 74.5238C167.733 74.7289 168.023 74.8374 168.322 74.8245C168.986 74.7867 169.585 74.4077 169.904 73.8237L173.781 67.6787ZM183.583 65.2826L175.304 65.2626L181.515 55.5426L183.583 65.2826ZM176.326 64.7384L182.932 64.6844L181.299 56.9381L176.326 64.7384Z" fill="black"/>
<path d="M194.842 73.2104C194.765 74.1911 193.918 74.9361 192.933 74.8935C191.91 74.9018 191.51 74.3347 191.76 73.2138L196.099 53.4322C196.348 52.3332 196.962 51.714 197.941 51.7168C198.922 51.7198 199.43 52.286 199.181 53.44L197.544 60.9678L210.325 60.9729L211.974 53.445C212.046 52.4507 212.894 51.6878 213.894 51.7179C214.919 51.7096 215.306 52.2987 215.057 53.4416L210.718 73.223C210.635 74.201 209.792 74.943 208.808 74.9061C207.785 74.9146 207.386 74.3473 207.637 73.2154L209.674 63.8962L196.881 63.8913L194.842 73.2104Z" fill="black"/>
<path d="M208.829 75.1803C208.361 75.2171 207.901 75.039 207.583 74.6968C207.288 74.2427 207.214 73.6797 207.38 73.1626L209.377 64.1731L197.144 64.1636L195.095 73.2743C194.977 74.3821 194.015 75.2119 192.899 75.1681C192.431 75.2142 191.97 75.0393 191.653 74.6955C191.358 74.2408 191.288 73.6765 191.461 73.1614L195.798 53.3802C195.876 52.2864 196.794 51.4377 197.895 51.4434C198.384 51.4017 198.867 51.5833 199.206 51.9372C199.499 52.4002 199.573 52.9687 199.409 53.4932L197.837 60.6914L210.059 60.7009L211.663 53.3819C211.763 52.2594 212.728 51.4079 213.859 51.4443C214.323 51.4093 214.777 51.5874 215.094 51.9278C215.397 52.3903 215.473 52.9678 215.297 53.4948L210.958 73.276C210.843 74.3597 209.923 75.1833 208.829 75.1803ZM196.68 63.6187L210.034 63.6191L207.921 73.2789C207.788 73.641 207.822 74.0413 208.011 74.3752C208.228 74.5835 208.527 74.6855 208.827 74.6537C209.719 74.6464 210.235 74.1814 210.453 73.1813L214.79 53.4001C214.917 53.0376 214.883 52.6391 214.698 52.3039C214.484 52.0974 214.191 51.9955 213.894 52.0253C213.002 52.0327 212.486 52.5196 212.258 53.5307L210.566 61.2233L197.211 61.2229L198.936 53.3546C199.059 52.9915 199.026 52.5945 198.844 52.2583C198.609 52.0368 198.285 51.931 197.962 51.9693C197.127 51.9762 196.632 52.452 196.404 53.474L192.067 73.2552C191.94 73.6177 191.973 74.0163 192.159 74.3514C192.376 74.557 192.675 74.6551 192.973 74.619C193.865 74.6116 194.381 74.1466 194.598 73.1577L196.68 63.6187Z" fill="black"/>
<path d="M231.059 52.0156L235.214 73.164C235.236 73.4589 235.209 73.755 235.14 74.0428C235.039 74.4056 234.804 74.7176 234.483 74.9152C234.146 75.1646 233.737 75.3024 233.317 75.3089C232.649 75.3658 232.059 74.8855 231.981 74.2223L230.86 68.1621L220.95 68.1554L217.161 74.223C216.784 74.8812 216.095 75.3017 215.338 75.3354C214.965 75.3535 214.601 75.2174 214.334 74.9595C214.09 74.7341 213.99 74.3954 214.067 74.0726C214.127 73.7718 214.226 73.4796 214.361 73.2033L227.768 52.0646L231.059 52.0156ZM228.399 56.4275L222.812 65.1549L230.245 65.1598L228.399 56.4275Z" fill="black"/>
<path d="M233.329 75.5817C232.508 75.6453 231.79 75.0406 231.718 74.223L230.596 68.3824L221.051 68.3838L217.35 74.3188C216.929 75.0692 216.143 75.5436 215.283 75.565C214.837 75.5835 214.406 75.4159 214.092 75.1028C213.797 74.8214 213.668 74.4087 213.747 74.008C213.82 73.6812 213.929 73.3633 214.074 73.0614L227.58 51.7685L231.257 51.7383L231.259 51.9579L235.424 73.1061C235.447 73.4377 235.419 73.7713 235.34 74.0946C235.23 74.5265 234.96 74.9014 234.583 75.1434C234.216 75.4072 233.781 75.5595 233.329 75.5817ZM220.773 67.8372L231.08 67.8406L232.257 74.1308C232.267 74.403 232.394 74.6574 232.605 74.8297C232.815 75.0019 233.091 75.0758 233.361 75.0327C233.721 75.0298 234.073 74.9115 234.361 74.6952C234.624 74.5355 234.815 74.2829 234.9 73.9884C234.967 73.7269 234.993 73.4559 234.974 73.1867L230.863 52.2904L227.934 52.3144L214.604 73.2766C214.488 73.5308 214.401 73.7965 214.343 74.0689C214.288 74.2984 214.366 74.5385 214.542 74.6929C214.758 74.8982 215.049 75.0067 215.348 74.9936C216.01 74.9624 216.611 74.5868 216.929 74.0039L220.773 67.8372ZM230.577 65.4411L222.317 65.4428L228.529 55.7228L230.577 65.4411ZM223.317 64.886L229.925 64.8319L228.291 57.0966L223.317 64.886Z" fill="black"/>
<path d="M12.858 84.8911L4.81396 121.213L314.099 120.356L322.143 84.0225L12.858 84.8911Z" fill="#706F6F"/>
<path d="M21.9263 92.8383C22.0164 92.3473 22.2529 91.894 22.6046 91.5377C22.9209 91.2365 23.3452 91.0746 23.7812 91.0891L30.6954 91.0324C32.4167 90.9771 34.1355 91.1775 35.7951 91.6272C36.8438 91.8947 37.7386 92.5715 38.2787 93.5056C38.7163 94.5822 38.7783 95.7756 38.4552 96.8953C38.1764 98.356 37.4035 99.6795 36.2656 100.645C37.9538 101.728 38.4776 103.623 37.8704 106.426L37.7185 107.097C37.466 108.545 36.8535 109.908 35.9371 111.062C35.0296 112.068 33.844 112.785 32.5308 113.121C30.6532 113.596 28.7194 113.808 26.7856 113.749L18.7702 113.749C18.3852 113.78 18.0128 113.609 17.7888 113.296C17.5896 112.895 17.5526 112.432 17.6854 112.002L21.9263 92.8383ZM22.8297 102.862L21.0837 110.866L27.4695 110.813C28.8761 110.858 30.2843 110.765 31.6743 110.537C32.4367 110.428 33.141 110.067 33.6747 109.511C34.1945 108.796 34.5386 107.97 34.6796 107.1L34.7989 106.539C35.0382 105.762 35.0695 104.937 34.89 104.146C34.6445 103.57 34.1198 103.16 33.4991 103.06C32.3093 102.837 31.0981 102.744 29.8868 102.782L22.8297 102.862ZM28.7653 99.9269C30.0244 99.9504 31.2839 99.8666 32.5299 99.6765C33.2382 99.5879 33.9065 99.2965 34.4538 98.8375C34.9204 98.3429 35.2289 97.7214 35.3398 97.0525C35.531 96.467 35.4935 95.8323 35.2347 95.2754C34.8386 94.811 34.2779 94.517 33.6686 94.4541C32.4603 94.2615 31.2366 94.1797 30.0124 94.2098L24.7167 94.253L23.4696 99.9702L28.7653 99.9269Z" fill="black"/>
<path d="M27.2088 114.072L26.8674 114.075L18.852 114.075C18.3696 114.12 17.9031 113.895 17.639 113.492C17.3943 113.03 17.3449 112.49 17.5018 111.99L21.6325 92.7828C21.7256 92.2349 21.9898 91.7295 22.3873 91.3389C22.753 90.9947 23.2383 90.8057 23.7399 90.8119L30.6541 90.7554C32.4059 90.6999 34.1548 90.9075 35.8421 91.3712C36.9634 91.6484 37.9181 92.3752 38.4803 93.3801C38.9532 94.509 39.0233 95.767 38.6794 96.9452C38.422 98.3393 37.7377 99.6219 36.7207 100.616C38.266 101.767 38.746 103.738 38.1386 106.487L37.9978 107.146C37.7243 108.637 37.0903 110.04 36.1507 111.233C35.2096 112.282 33.9779 113.03 32.6125 113.38C30.8483 113.845 29.0314 114.078 27.2088 114.072ZM23.8298 91.3599C23.4659 91.3498 23.1127 91.4873 22.8513 91.7412C22.5474 92.0411 22.3414 92.4256 22.2603 92.8434L18.0636 112.062C17.9468 112.423 17.9677 112.814 18.1223 113.159C18.2988 113.395 18.5891 113.518 18.8831 113.482L26.8876 113.482C28.7952 113.539 30.7029 113.331 32.5557 112.865C33.8292 112.553 34.9789 111.862 35.8522 110.885C36.7344 109.766 37.3275 108.449 37.5791 107.051L37.7308 106.38C38.3165 103.676 37.837 101.88 36.2483 100.905L35.9283 100.699L36.2138 100.466C37.2434 99.5193 37.9289 98.2586 38.1616 96.8836C38.4746 95.8273 38.4204 94.6984 38.0079 93.6803C37.5058 92.81 36.6689 92.1827 35.6898 91.9433C34.0587 91.5023 32.3697 91.3053 30.6781 91.3587L23.83 91.4039L23.8298 91.3599ZM27.9806 111.081L27.5291 111.084L20.8019 111.085L22.667 102.542L29.9448 102.548C31.1786 102.507 32.4125 102.604 33.6233 102.836C34.3238 102.94 34.9201 103.395 35.2017 104.042C35.4089 104.884 35.3852 105.767 35.1333 106.599L35.0141 107.16C34.8551 108.074 34.4805 108.939 33.9214 109.682C33.3331 110.288 32.5591 110.68 31.7231 110.798C30.4653 111.019 29.1908 111.129 27.9145 111.125L27.9806 111.081ZM21.4827 110.53L27.5381 110.481C28.9222 110.516 30.3075 110.427 31.677 110.216C32.3816 110.117 33.0326 109.783 33.5237 109.268C34.0186 108.594 34.3445 107.813 34.474 106.989L34.5932 106.428C34.816 105.697 34.8475 104.922 34.6848 104.177C34.4576 103.703 34.0051 103.377 33.4817 103.309C32.3137 103.09 31.1246 103 29.9356 103.042L23.1092 103.043L21.4827 110.53ZM29.2321 100.14L28.8247 100.143L23.1875 100.134L24.554 93.8783L30.0589 93.8331C31.3019 93.8004 32.5446 93.8857 33.7702 94.088C34.4562 94.1527 35.0851 94.492 35.513 95.0286C35.8165 95.6416 35.8702 96.349 35.6626 97.0028C35.5416 97.7284 35.202 98.401 34.6892 98.9315C34.1026 99.4293 33.3848 99.7479 32.6224 99.8484C31.4818 100.061 30.3257 100.177 29.1662 100.195L29.2321 100.14ZM23.8683 99.5908L28.8228 99.5502C30.0635 99.5772 31.3046 99.4972 32.5324 99.3113C33.1891 99.2233 33.8092 98.9561 34.3245 98.5393C34.751 98.0787 35.0324 97.5039 35.1338 96.8864C35.3022 96.3751 35.2769 95.8208 35.0625 95.3286C34.7035 94.9288 34.209 94.6751 33.6728 94.6157C32.4828 94.4283 31.2772 94.35 30.0718 94.3818L24.9962 94.4233L23.8683 99.5908Z" fill="black"/>
<path d="M60.9995 105.619C60.6415 107.282 59.8919 108.838 58.8125 110.159C57.7504 111.46 56.3902 112.487 54.8474 113.154C53.1938 113.869 51.4088 114.228 49.6098 114.207C47.9463 114.262 46.2978 113.898 44.8164 113.149C43.5914 112.51 42.6471 111.444 42.1638 110.152C41.6704 108.688 41.6115 107.111 41.9945 105.61L43.3503 99.441C43.7033 97.7763 44.4536 96.2188 45.5372 94.901C46.5912 93.5964 47.9489 92.5678 49.4912 91.9053C51.1475 91.1861 52.9369 90.8273 54.74 90.8526C56.4036 90.7951 58.0528 91.1592 59.5333 91.9108C60.761 92.5457 61.7063 93.6137 62.1859 94.9074C62.6808 96.372 62.7357 97.9507 62.3442 99.4502L60.9995 105.619ZM54.1001 93.7992C52.2926 93.7165 50.5055 94.2329 49.0179 95.2678C47.6632 96.3331 46.747 97.8567 46.4446 99.5474L45.1433 105.507C44.6566 106.963 44.917 108.561 45.8402 109.782C46.7244 110.773 48.2015 111.255 50.2496 111.26C52.0571 111.343 53.8441 110.827 55.3318 109.792C56.7163 108.725 57.6536 107.183 57.9599 105.468L59.2612 99.5083C59.7137 98.0556 59.4731 96.4796 58.6084 95.233C57.7242 94.2416 56.225 93.76 54.122 93.7552L54.1001 93.7992Z" fill="black"/>
<path d="M49.7665 114.481L49.6344 114.482C47.9313 114.546 46.2415 114.182 44.7201 113.424C43.4376 112.756 42.4499 111.639 41.9459 110.286C41.427 108.774 41.3641 107.142 41.765 105.59L43.1097 99.4216C43.4625 97.7203 44.2116 96.1238 45.2963 94.761C46.3855 93.4275 47.7794 92.3732 49.36 91.6873C51.0546 90.9648 52.8791 90.5986 54.7189 90.6118C56.426 90.5427 58.1206 90.9065 59.6443 91.669C60.9266 92.3373 61.9143 93.4545 62.4185 94.8073C62.9261 96.3215 62.9888 97.9507 62.5993 99.5034L61.2656 105.672C60.9158 107.374 60.1666 108.971 59.079 110.332C57.9858 111.666 56.5883 112.721 55.0042 113.406C53.3493 114.119 51.5662 114.485 49.7665 114.481ZM54.6104 91.1286C52.89 91.1243 51.1855 91.4746 49.6038 92.1573C48.1034 92.8076 46.7809 93.8088 45.7488 95.0755C44.7118 96.3612 43.9924 97.8714 43.6495 99.4831L42.3047 105.662C41.9277 107.112 41.9824 108.637 42.4626 110.051C42.9191 111.285 43.8162 112.305 44.9826 112.917C46.4228 113.65 48.0243 114.014 49.6438 113.977C51.4048 113.995 53.1517 113.644 54.7715 112.947C56.2734 112.294 57.5987 111.293 58.6375 110.029C59.6731 108.743 60.389 107.233 60.7259 105.621L62.0816 99.4418C62.4537 97.9921 62.3989 96.4681 61.9239 95.0529C61.4592 93.8208 60.5593 92.8021 59.3928 92.187C57.9584 91.4499 56.3592 91.0856 54.7425 91.1275L54.6104 91.1286ZM50.3953 111.534L50.2743 111.535C48.0721 111.553 46.5509 111.006 45.6334 109.971C44.6452 108.687 44.3593 106.997 44.8695 105.455L46.171 99.4844C46.4899 97.7392 47.4409 96.1689 48.8429 95.0721C50.3414 94.0204 52.1418 93.4853 53.9689 93.5484L54.0899 93.5475C56.2921 93.5295 57.8466 94.0764 58.7859 95.1115C59.7049 96.4255 59.966 98.0901 59.4947 99.6276L58.1932 105.587C57.8704 107.331 56.9201 108.9 55.5213 109.999C54.0224 111.051 52.2231 111.59 50.3953 111.534ZM53.9926 94.075C52.2816 94.0133 50.5942 94.5087 49.1857 95.4864C47.8859 96.5112 47.0086 97.9762 46.7219 99.6006L45.4096 105.571C44.955 106.947 45.1937 108.453 46.0507 109.616C47.1937 110.657 48.7269 111.167 50.2725 111.019C52.0189 111.088 53.7435 110.593 55.1897 109.607C56.4862 108.579 57.3627 107.116 57.6535 105.493L58.9548 99.5223C59.3866 98.1521 59.1709 96.6637 58.3686 95.477C57.2012 94.443 55.6499 93.946 54.0919 94.1072L53.9818 94.108L53.9926 94.075Z" fill="black"/>
<path d="M77.3565 100.774C78.5631 100.814 79.759 100.519 80.8105 99.9222C81.6741 99.4404 82.2951 98.6182 82.5205 97.6588C82.777 96.7452 82.482 95.7686 81.7635 95.152C80.8792 94.46 79.7692 94.1177 78.6446 94.1899L71.9178 94.1791C71.4914 94.1408 71.0631 94.2404 70.6967 94.4636C70.3969 94.8114 70.2102 95.2416 70.1614 95.6969L70.0204 96.3235C69.7602 97.5109 69.1125 98.1087 68.0888 98.1061C67.0648 98.1034 66.6775 97.5141 66.9818 96.3265C67.1879 94.8621 67.8186 93.4878 68.7961 92.3722C69.7929 91.5555 71.0652 91.152 72.3484 91.2458L79.5926 91.2523C80.8785 91.2161 82.1535 91.48 83.3162 92.0227C84.287 92.4669 85.0687 93.2371 85.5254 94.1995C85.9496 95.2195 86.0307 96.3505 85.7563 97.4238C85.3343 99.4452 84.0983 101.209 82.3378 102.302C83.6285 103.678 84.0949 105.633 83.566 107.449C83.2902 108.673 82.7111 109.81 81.8816 110.755C81.0123 111.76 79.9272 112.557 78.7077 113.086C77.439 113.647 76.0667 113.935 74.6811 113.931L67.437 113.924C65.8737 113.937 64.8485 113.54 64.3835 112.786C63.9187 112.033 63.8813 110.705 64.2934 108.836C64.5537 107.649 65.1902 107.051 66.2251 107.054C67.2598 107.056 67.6361 107.646 67.3319 108.844L67.1909 109.471C67.0609 110.098 67.0623 110.515 67.195 110.7C67.3277 110.885 67.7024 110.981 68.2969 110.976L75.0236 110.976C76.2965 110.99 77.542 110.595 78.5757 109.85C79.5408 109.218 80.2273 108.242 80.4932 107.124C80.7444 106.22 80.4743 105.255 79.7913 104.616C78.9421 103.923 77.8586 103.579 76.7606 103.654L73.6009 103.679C72.324 103.69 71.7938 103.189 72.0108 102.2C72.2275 101.211 72.9746 100.733 74.2076 100.733L77.3565 100.774Z" fill="black"/>
<path d="M74.67 114.234L74.5818 114.234L67.3371 114.228C65.6746 114.242 64.5721 113.801 64.0297 112.96C63.4875 112.12 63.472 110.771 63.8947 108.814C63.9991 107.684 64.9512 106.815 66.0902 106.81C66.5506 106.77 67.0028 106.944 67.3139 107.283C67.6275 107.772 67.6985 108.378 67.5065 108.927L67.3765 109.554C67.203 110.345 67.3026 110.531 67.3249 110.564C67.347 110.596 67.5015 110.738 68.2063 110.732L74.9336 110.743L74.9885 110.742C76.1701 110.736 77.3224 110.367 78.2881 109.684C79.2032 109.103 79.8532 108.187 80.0963 107.135C80.3152 106.344 80.0747 105.5 79.4725 104.945C78.6807 104.294 77.6664 103.972 76.6398 104.047L73.4799 104.073C72.8697 104.142 72.2624 103.933 71.8265 103.505C71.5672 103.148 71.4923 102.689 71.6241 102.267C71.7868 101.498 72.3562 100.593 74.0849 100.579L77.2447 100.553C78.3985 100.595 79.5424 100.312 80.545 99.7361C81.3481 99.3049 81.9246 98.547 82.1235 97.6605C82.3544 96.8448 82.0944 95.9716 81.4554 95.4168C80.624 94.7681 79.5802 94.4485 78.5238 94.5194L71.7963 94.5086C71.4343 94.4701 71.0686 94.546 70.7512 94.7255C70.493 95.0391 70.3369 95.4232 70.3035 95.8263L70.1623 96.453C69.8046 98.1016 68.7928 98.45 67.9671 98.4567C67.5061 98.5011 67.0523 98.3258 66.7433 97.984C66.4244 97.4978 66.3493 96.8911 66.5396 96.3399C66.7647 94.8252 67.4254 93.4058 68.4418 92.254C69.4929 91.3957 70.828 90.9616 72.1811 91.0385L79.426 91.0449C80.7581 91.0076 82.079 91.2823 83.2823 91.8471C84.2886 92.3275 85.0935 93.1435 85.5581 94.1545C86.0084 95.2253 86.0936 96.4153 85.8005 97.5427C85.3834 99.5273 84.2036 101.274 82.5138 102.408C83.7174 103.839 84.1354 105.772 83.6321 107.577C83.3567 108.858 82.7581 110.049 81.893 111.037C80.9913 112.077 79.8643 112.901 78.598 113.444C77.3532 113.966 76.0178 114.234 74.67 114.234ZM66.1031 107.359C65.2112 107.366 64.6844 107.864 64.4567 108.93C64.0663 110.722 64.0815 111.972 64.4692 112.672C64.8568 113.371 65.8379 113.681 67.3023 113.68L74.5361 113.686C75.8849 113.702 77.2223 113.421 78.4529 112.864C79.6287 112.359 80.6789 111.601 81.5284 110.645C82.3343 109.722 82.8915 108.611 83.1471 107.417C83.6771 105.695 83.2517 103.828 82.0297 102.511L81.7976 102.271L82.1272 102.038C83.8158 100.978 85.0027 99.2811 85.4145 97.3374C85.6774 96.3194 85.6003 95.2453 85.1951 94.2782C84.7813 93.3816 84.0663 92.6584 83.1735 92.2321C82.0474 91.7107 80.8141 91.4579 79.5705 91.4936L72.3258 91.4871L72.1827 91.4883C70.9877 91.4081 69.8056 91.7913 68.8833 92.5575C67.948 93.6316 67.3441 94.9513 67.1452 96.3569C67.003 96.7473 67.0366 97.1789 67.2373 97.5411C67.4448 97.7488 67.7383 97.8479 68.0308 97.8089C68.9117 97.8016 69.4606 97.3144 69.6993 96.2482L69.8293 95.6108C69.8927 95.0983 70.1143 94.6172 70.4632 94.2342C70.8835 93.9795 71.3704 93.8569 71.8604 93.8827L78.5877 93.8934C79.7869 93.8288 80.9653 94.2102 81.8944 94.9635C82.6928 95.6419 83.0226 96.7213 82.7403 97.7324C82.5067 98.7671 81.8405 99.6551 80.9098 100.172C79.8126 100.799 78.5628 101.11 77.3014 101.068L74.1416 101.094C73.0406 101.103 72.3703 101.493 72.1859 102.35C72.0998 102.611 72.133 102.895 72.2767 103.128C72.615 103.414 73.0584 103.545 73.4999 103.491L76.6598 103.465C77.8327 103.398 78.9845 103.781 79.8785 104.536C80.6392 105.238 80.9402 106.307 80.6584 107.306C80.3772 108.487 79.6514 109.519 78.631 110.186C77.559 110.93 76.2828 111.324 74.9795 111.313L74.9244 111.313L68.1971 111.303C67.5035 111.308 67.0957 111.18 66.8857 110.918C66.6755 110.657 66.6631 110.207 66.8807 109.47L67.0217 108.833C67.1583 108.442 67.1249 108.012 66.9297 107.648C66.717 107.449 66.4276 107.351 66.1361 107.381L66.1031 107.359Z" fill="black"/>
<path d="M100.295 103.764C99.9361 104.072 99.481 104.247 99.0084 104.257C98.5841 104.277 98.176 104.097 97.9058 103.772L93.9833 96.126L90.4159 112.455C90.1558 113.653 89.5082 114.25 88.4844 114.248C87.4606 114.245 87.0624 113.689 87.3009 112.568L91.6382 92.7888C91.8879 91.6899 92.5021 91.0705 93.4819 91.0734C94.0868 91.0656 94.6336 91.4263 94.8612 91.9836L99.6692 101.059L108.446 91.9493C108.884 91.4377 109.51 91.1239 110.182 91.0794C111.184 91.0712 111.56 91.6495 111.289 92.7925L106.951 112.572C106.867 113.55 106.025 114.292 105.042 114.255C104.007 114.263 103.63 113.652 103.935 112.465L107.502 96.1361L100.295 103.764Z" fill="black"/>
<path d="M105.151 114.561C104.689 114.595 104.238 114.417 103.927 114.077C103.609 113.595 103.534 112.992 103.724 112.444L107.085 97.0593L100.503 103.98C100.099 104.322 99.5909 104.516 99.0628 104.529C98.5551 104.55 98.0685 104.33 97.7509 103.937L94.1499 96.9678L90.7344 112.551C90.3766 114.21 89.3541 114.58 88.5395 114.554C88.0747 114.589 87.6201 114.411 87.3049 114.071C86.9988 113.621 86.9235 113.052 87.1016 112.537L91.4388 92.7557C91.5167 91.6637 92.4368 90.8184 93.5349 90.8298C94.2511 90.8177 94.8975 91.2496 95.1567 91.9135L99.7983 100.651L108.355 91.8056C108.843 91.2432 109.536 90.8979 110.278 90.8465C110.73 90.8048 111.175 90.9756 111.48 91.3083C111.787 91.7747 111.858 92.3578 111.672 92.8862L107.335 112.667C107.218 113.77 106.263 114.599 105.151 114.561ZM108.015 95.3186L104.242 112.605C104.099 112.995 104.133 113.426 104.334 113.789C104.542 113.996 104.833 114.098 105.127 114.067C106.041 114.06 106.546 113.595 106.762 112.595L111.099 92.8142C111.221 92.4509 111.188 92.0547 111.008 91.7179C110.803 91.5206 110.52 91.4263 110.236 91.4611C109.642 91.5194 109.091 91.8027 108.698 92.2525L99.6145 101.629L94.6294 92.214C94.4478 91.7635 94.014 91.4651 93.5261 91.4552C92.7005 91.462 92.1735 91.9271 91.9458 92.9491L87.6086 112.73C87.4708 113.091 87.5046 113.494 87.7003 113.826C87.9171 114.034 88.2157 114.136 88.516 114.104C89.4076 114.097 89.9452 113.599 90.1839 112.533L93.9137 95.4559L98.1904 103.736C98.4116 103.971 98.7261 104.097 99.0503 104.08C99.4532 104.072 99.8419 103.926 100.15 103.665L108.015 95.3186Z" fill="black"/>
<path d="M132.446 105.858C132.091 107.522 131.341 109.079 130.259 110.398C129.199 111.697 127.843 112.724 126.305 113.394C124.646 114.103 122.859 114.461 121.057 114.447C119.393 114.501 117.745 114.137 116.263 113.389C115.04 112.748 114.097 111.682 113.611 110.392C113.117 108.927 113.061 107.349 113.452 105.849L114.83 99.7245C115.183 98.0564 115.934 96.4956 117.017 95.1736C118.078 93.8752 119.433 92.8479 120.971 92.1778C122.63 91.4676 124.418 91.1125 126.22 91.136C127.884 91.0772 129.533 91.4415 131.013 92.1944C132.236 92.835 133.18 93.901 133.666 95.1909C134.16 96.6556 134.215 98.234 133.824 99.7337L132.446 105.858ZM125.547 94.0282C123.738 93.9486 121.951 94.4689 120.465 95.5077C119.109 96.5668 118.192 98.0877 117.892 99.7763L116.59 105.747C116.103 107.203 116.364 108.801 117.287 110.022C118.48 111.111 120.081 111.648 121.697 111.5C123.505 111.58 125.292 111.059 126.779 110.021C128.147 108.967 129.076 107.445 129.385 105.752L130.686 99.7812C131.135 98.3283 130.895 96.7539 130.033 95.5061C129.149 94.5256 127.65 94.0328 125.547 94.0282Z" fill="black"/>
<path d="M121.206 114.721L121.074 114.722C119.372 114.78 117.683 114.417 116.16 113.665C114.879 112.989 113.893 111.869 113.385 110.516C112.866 109.004 112.803 107.371 113.205 105.819L114.56 99.6509C114.912 97.9525 115.661 96.3593 116.747 95.0013C117.839 93.6674 119.232 92.6103 120.811 91.9167C122.508 91.2029 124.331 90.8408 126.17 90.8521C127.876 90.7874 129.57 91.1508 131.095 91.9094C132.376 92.5852 133.362 93.7051 133.869 95.0587C134.383 96.5715 134.446 98.2026 134.05 99.7548L132.683 105.912C132.332 107.611 131.583 109.204 130.497 110.562C129.406 111.896 128.013 112.954 126.433 113.646C124.78 114.355 123.002 114.72 121.206 114.721ZM126.028 91.3582C124.305 91.358 122.597 91.7082 121.011 92.3871C119.539 93.0547 118.245 94.058 117.233 95.3156C116.197 96.6022 115.478 98.112 115.133 99.723L113.788 105.892C113.411 107.341 113.466 108.866 113.946 110.28C114.403 111.511 115.301 112.527 116.466 113.136C117.905 113.872 119.507 114.237 121.128 114.195C122.891 114.199 124.638 113.849 126.266 113.165C127.763 112.508 129.084 111.508 130.121 110.247C131.157 108.96 131.876 107.45 132.221 105.839L133.565 99.6709C133.942 98.2217 133.888 96.6964 133.408 95.282C132.947 94.0503 132.046 93.0337 130.877 92.427C129.443 91.6886 127.843 91.3243 126.226 91.3676L126.028 91.3582ZM121.835 111.741L121.692 111.743C119.49 111.761 117.968 111.213 117.051 110.178C116.061 108.892 115.775 107.197 116.287 105.651L117.589 99.6919C117.908 97.9474 118.859 96.3773 120.26 95.2799C121.801 94.219 123.641 93.6805 125.508 93.7441C127.71 93.7261 129.264 94.2732 130.203 95.3191C131.122 96.6331 131.384 98.2979 130.912 99.8354L129.611 105.795C129.291 107.539 128.34 109.11 126.939 110.207C125.446 111.254 123.655 111.793 121.835 111.741ZM125.432 94.2716C123.72 94.2154 122.033 94.7145 120.625 95.694C119.326 96.7195 118.449 98.1839 118.161 99.808L116.849 105.768C116.396 107.143 116.635 108.649 117.49 109.812C118.308 110.728 119.697 111.188 121.723 111.194C123.471 111.266 125.198 110.766 126.64 109.77C127.939 108.745 128.816 107.28 129.104 105.656L130.405 99.6967C130.836 98.3229 130.62 96.8317 129.819 95.6406C128.646 94.6159 127.099 94.1204 125.542 94.2707L125.432 94.2716Z" fill="black"/>
<path d="M151.343 105.105L149.653 112.789C149.558 113.251 149.298 113.662 148.919 113.946C148.55 114.247 148.087 114.409 147.612 114.406C147.213 114.43 146.83 114.257 146.587 113.943C146.386 113.616 146.325 113.222 146.418 112.849L148.109 105.11L147.856 105.112C146.822 105.1 145.805 105.378 144.921 105.914C143.997 106.49 143.24 107.297 142.728 108.255C142.378 108.871 141.864 109.774 141.208 110.996C140.642 112.017 139.842 112.891 138.873 113.546C137.967 114.138 136.909 114.455 135.828 114.459C135.354 114.494 134.886 114.349 134.517 114.053C134.228 113.769 134.121 113.348 134.239 112.959C134.455 111.982 135.191 111.494 136.434 111.495C136.605 111.467 136.76 111.381 136.873 111.25C137.078 111.043 137.248 110.805 137.377 110.545C137.979 109.499 138.471 108.651 138.733 108.025C139.292 106.918 140.033 105.912 140.924 105.048C141.845 104.121 142.943 103.385 144.151 102.885C143.58 101.933 143.112 100.923 142.755 99.8721C142.2 98.3973 141.712 97.2617 141.302 96.4432C140.892 95.6249 140.44 95.256 139.912 95.2164C139.447 95.2293 138.995 95.0777 138.634 94.7885C138.352 94.4999 138.254 94.0798 138.377 93.695C138.587 92.7362 139.278 92.2594 140.452 92.2645C141.405 92.2649 142.329 92.5853 143.074 93.1743C143.957 93.8828 144.655 94.7944 145.107 95.8314C145.484 96.672 145.894 97.644 146.338 98.736C146.629 99.5879 147.001 100.41 147.446 101.193C147.746 101.826 148.077 102.141 148.418 102.138L148.638 102.136L150.415 94.0128C150.504 93.5275 150.754 93.0853 151.126 92.7579C151.484 92.4597 151.935 92.2968 152.401 92.2983C153.501 92.2892 153.888 92.8777 153.639 94.0193L151.873 102.142L152.093 102.141C152.379 102.138 152.851 101.828 153.509 101.198C154.002 100.701 154.748 99.8836 155.701 98.7471C156.797 97.4343 157.74 96.3637 158.529 95.5244C159.313 94.6873 160.194 93.9446 161.151 93.3114C162.051 92.6809 163.11 92.3152 164.206 92.2564C164.677 92.2203 165.142 92.3656 165.506 92.6622C165.799 92.944 165.911 93.3648 165.796 93.7556C165.705 94.1833 165.45 94.5592 165.084 94.8023C164.64 95.0822 164.124 95.2272 163.6 95.22C162.815 95.3945 162.118 95.8434 161.635 96.4852C160.584 97.5537 159.599 98.6851 158.687 99.8734C157.845 100.934 156.937 101.941 155.968 102.887C156.651 103.202 157.26 103.656 157.755 104.22C158.233 104.739 158.582 105.363 158.773 106.042C159.167 107.273 159.379 108.556 159.402 109.85C159.365 110.264 159.412 110.681 159.538 111.076C159.649 111.36 159.804 111.501 160.002 111.499C160.468 111.471 160.927 111.615 161.29 111.905C161.602 112.176 161.72 112.606 161.591 112.999C161.374 113.987 160.606 114.475 159.286 114.475C158.315 114.522 157.364 114.196 156.631 113.565C155.951 112.885 155.555 111.972 155.522 111.01C155.473 110.695 155.443 110.377 155.431 110.058C155.333 109.23 155.191 108.408 155.005 107.596C154.85 107.005 154.558 106.459 154.152 106.003C153.412 105.371 152.45 105.056 151.475 105.126L151.343 105.105Z" fill="black"/>
<path d="M159.449 114.722C158.405 114.797 157.378 114.442 156.608 113.74C155.838 113.037 155.393 112.05 155.377 111.008C155.328 110.685 155.298 110.36 155.286 110.033C155.19 109.227 155.048 108.427 154.859 107.637C154.58 106.122 153.133 105.116 151.606 105.374L149.959 112.893C149.853 113.414 149.561 113.88 149.138 114.204C148.719 114.537 148.2 114.718 147.665 114.72C147.18 114.748 146.713 114.534 146.42 114.149C146.151 113.744 146.073 113.24 146.206 112.771L147.821 105.372C146.867 105.373 145.93 105.638 145.117 106.139C144.248 106.682 143.537 107.444 143.056 108.347C142.684 108.975 142.181 109.9 141.536 111.066C140.953 112.133 140.122 113.045 139.113 113.727C138.175 114.343 137.079 114.676 135.958 114.684C135.416 114.714 134.882 114.543 134.46 114.203C134.104 113.864 133.966 113.354 134.104 112.88C134.266 112.112 134.824 111.209 136.552 111.195C136.648 111.161 136.735 111.104 136.804 111.028C136.985 110.838 137.136 110.623 137.253 110.389C137.866 109.288 138.347 108.495 138.609 107.88C139.193 106.746 139.963 105.718 140.888 104.837C141.761 103.962 142.783 103.248 143.906 102.73C143.406 101.838 142.987 100.902 142.654 99.9348C142.232 98.7789 141.75 97.6452 141.212 96.5388C140.869 95.8621 140.482 95.4489 140.053 95.4524C139.522 95.4652 139.006 95.2864 138.599 94.9493C138.248 94.6016 138.12 94.0884 138.265 93.6151C138.477 92.5468 139.487 91.8235 140.57 91.9636C141.585 91.967 142.569 92.3057 143.367 92.927C144.277 93.6704 144.996 94.6182 145.467 95.6931C145.844 96.5229 146.265 97.5055 146.709 98.6086C147.002 99.4458 147.374 100.254 147.818 101.021C148.072 101.556 148.326 101.828 148.546 101.837L150.269 93.9335C150.368 93.3851 150.654 92.8871 151.079 92.5242C151.477 92.1682 151.997 91.9793 152.53 91.9972C153.02 91.9557 153.502 92.1369 153.841 92.4906C154.133 92.9531 154.208 93.5211 154.044 94.0449L152.342 101.806C152.758 101.603 153.131 101.32 153.44 100.975C153.933 100.5 154.679 99.6721 155.632 98.5356C156.728 97.2338 157.682 96.152 158.471 95.3127C159.273 94.4764 160.167 93.7336 161.137 93.0994C162.079 92.429 163.193 92.0398 164.346 91.9772C164.889 91.9475 165.423 92.1189 165.844 92.4581C166.199 92.7991 166.336 93.3072 166.201 93.7812C166.099 94.2799 165.804 94.7194 165.38 95.0042C164.891 95.315 164.321 95.4759 163.742 95.4669C163.033 95.6406 162.408 96.057 161.974 96.6428C160.933 97.7131 159.952 98.8406 159.037 100.02C158.267 100.985 157.447 101.91 156.582 102.791C157.152 103.111 157.666 103.521 158.104 104.005C158.617 104.556 158.995 105.216 159.211 105.936C159.613 107.192 159.829 108.501 159.851 109.821C159.823 110.19 159.861 110.561 159.965 110.916C159.965 111.036 160.086 111.167 160.174 111.166C160.708 111.139 161.233 111.306 161.65 111.636C162.017 111.974 162.163 112.488 162.029 112.97C161.812 113.793 161.276 114.707 159.449 114.722ZM151.087 104.819L151.571 104.815C152.616 104.748 153.643 105.089 154.435 105.767C154.874 106.261 155.189 106.851 155.354 107.491C155.549 108.313 155.695 109.146 155.791 109.985C155.803 110.301 155.833 110.615 155.883 110.927C155.884 111.836 156.263 112.703 156.93 113.32C157.597 113.937 158.493 114.251 159.403 114.186C160.581 114.176 161.25 113.776 161.435 112.931C161.526 112.642 161.443 112.328 161.223 112.122C160.908 111.884 160.517 111.767 160.122 111.791C159.901 111.793 159.593 111.686 159.404 111.194C159.264 110.764 159.21 110.31 159.246 109.859C159.224 108.594 159.016 107.34 158.628 106.138C158.448 105.495 158.119 104.905 157.665 104.414C157.189 103.884 156.612 103.452 155.967 103.146L155.614 102.985L155.899 102.708C156.857 101.769 157.754 100.77 158.585 99.717C159.511 98.5266 160.503 97.388 161.555 96.3066C162.083 95.616 162.844 95.1385 163.696 94.9632C164.173 94.9749 164.644 94.8452 165.048 94.5905C165.361 94.3924 165.576 94.0723 165.639 93.7091C165.731 93.4224 165.653 93.1098 165.439 92.8998C165.125 92.6593 164.733 92.5419 164.337 92.5691C163.304 92.6357 162.307 92.9851 161.458 93.5789C160.524 94.2 159.663 94.9239 158.891 95.7367C158.112 96.5759 157.159 97.6466 156.074 98.9485C154.989 100.25 154.331 100.924 153.881 101.421C153.169 102.117 152.652 102.439 152.278 102.442L151.706 102.447L153.505 94.0165C153.632 93.6543 153.598 93.2561 153.413 92.9215C153.179 92.6963 152.856 92.5864 152.532 92.6219C152.13 92.6164 151.74 92.7558 151.433 93.0143C151.11 93.304 150.891 93.6907 150.809 94.1152L148.989 102.447L148.549 102.451C148.075 102.455 147.678 102.085 147.335 101.365C146.889 100.575 146.518 99.7453 146.226 98.8865C145.782 97.7943 145.361 96.8227 144.995 95.9929C144.56 95.0007 143.893 94.1273 143.05 93.4444C142.353 92.8915 141.487 92.5897 140.594 92.588C139.57 92.5963 139.011 92.9844 138.826 93.8078C138.725 94.0937 138.794 94.4112 139.005 94.6281C139.317 94.8746 139.708 94.9998 140.106 94.9807C140.745 95.0304 141.286 95.4971 141.718 96.3483C142.149 97.1995 142.626 98.3462 143.181 99.8101C143.53 100.843 143.991 101.835 144.556 102.768L144.744 103.052L144.425 103.175C143.249 103.664 142.182 104.38 141.285 105.283C140.398 106.121 139.657 107.101 139.094 108.183C138.788 108.809 138.34 109.646 137.727 110.725C137.581 111.005 137.393 111.262 137.169 111.486C136.997 111.678 136.756 111.794 136.499 111.809C135.399 111.818 134.762 112.229 134.578 113.063C134.487 113.349 134.564 113.662 134.778 113.872C135.093 114.112 135.484 114.229 135.88 114.203C136.892 114.197 137.882 113.896 138.727 113.336C139.664 112.705 140.439 111.861 140.985 110.874C141.619 109.696 142.133 108.771 142.494 108.144C143.022 107.146 143.805 106.304 144.763 105.704C145.686 105.139 146.75 104.846 147.83 104.857L148.424 104.852L146.669 112.92C146.574 113.238 146.619 113.58 146.793 113.861C146.983 114.1 147.281 114.229 147.587 114.206C147.985 114.197 148.371 114.059 148.685 113.813C149.009 113.564 149.234 113.209 149.32 112.811L151.087 104.819Z" fill="black"/>
<path d="M168.933 112.857C168.854 113.838 168.009 114.583 167.023 114.54C165.999 114.548 165.601 113.981 165.85 112.86L170.188 93.0789C170.437 91.98 171.052 91.3606 172.032 91.3635C173.012 91.3665 173.531 91.9327 173.271 93.0757L171.622 100.615L184.415 100.62L186.064 93.0807C186.136 92.088 186.986 91.3283 187.984 91.3645C189.009 91.3562 189.406 91.9343 189.146 93.0883L184.808 112.87C184.73 113.85 183.884 114.595 182.898 114.553C181.875 114.561 181.476 113.994 181.726 112.873L183.763 103.554L170.971 103.549L168.933 112.857Z" fill="black"/>
<path d="M182.898 114.818C182.431 114.864 181.97 114.689 181.652 114.345C181.359 113.887 181.285 113.321 181.449 112.8L183.423 103.811L171.17 103.812L169.186 112.912C169.074 114.024 168.11 114.86 166.99 114.816C166.522 114.853 166.063 114.675 165.745 114.333C165.45 113.879 165.375 113.316 165.541 112.799L169.879 93.0177C170.226 91.4241 171.216 91.0759 171.986 91.0917C172.478 91.0432 172.963 91.2259 173.298 91.5854C173.592 92.0479 173.667 92.6172 173.501 93.1415L171.929 100.34L184.149 100.349L185.755 93.0302C185.855 91.9077 186.82 91.0561 187.951 91.0925C188.417 91.0473 188.874 91.227 189.184 91.5761C189.489 92.0386 189.565 92.6161 189.389 93.1431L185.05 112.924C184.944 114.02 184.002 114.849 182.898 114.818ZM170.75 103.256L184.104 103.268L181.935 112.917C181.808 113.279 181.841 113.678 182.027 114.013C182.244 114.219 182.543 114.317 182.841 114.281C183.733 114.273 184.249 113.808 184.467 112.819L188.804 93.0382C188.936 92.6764 188.903 92.2751 188.712 91.942C188.502 91.7298 188.205 91.627 187.908 91.6633C186.993 91.6708 186.477 92.1357 186.251 93.1687L184.559 100.861L171.204 100.85L172.928 92.9926C173.057 92.6302 173.024 92.231 172.837 91.8964C172.601 91.6748 172.278 91.5692 171.955 91.6075C171.118 91.6142 170.624 92.09 170.397 93.1011L166.059 112.882C165.927 113.244 165.961 113.645 166.151 113.978C166.364 114.192 166.665 114.295 166.966 114.257C167.858 114.25 168.374 113.785 168.591 112.796L170.75 103.256Z" fill="black"/>
<path d="M210.195 106.111C209.84 107.776 209.089 109.332 208.008 110.651C206.946 111.954 205.585 112.982 204.041 113.647C202.384 114.361 200.596 114.72 198.793 114.7C197.13 114.757 195.48 114.393 194 113.642C192.772 113.011 191.828 111.941 191.358 110.645C190.858 109.182 190.8 107.603 191.189 106.102L192.533 99.934C192.892 98.2707 193.641 96.7144 194.72 95.394C195.782 94.0928 197.143 93.0652 198.685 92.3981C200.344 91.6821 202.132 91.3234 203.934 91.3453C205.594 91.2927 207.239 91.6566 208.716 92.4037C209.942 93.042 210.885 94.1087 211.369 95.4004C211.862 96.8647 211.921 98.4419 211.539 99.943L210.195 106.111ZM203.294 94.292C201.487 94.2093 199.701 94.7257 198.213 95.7606C196.858 96.8259 195.941 98.3495 195.639 100.04L194.337 106C193.857 107.461 194.12 109.062 195.045 110.285C195.918 111.266 197.395 111.759 199.455 111.753C201.262 111.836 203.05 111.319 204.538 110.285C205.893 109.219 206.808 107.696 207.11 106.005L208.412 100.045C208.861 98.5938 208.624 97.0209 207.771 95.7701C206.875 94.7785 205.375 94.2969 203.273 94.2921L203.294 94.292Z" fill="black"/>
<path d="M198.964 114.974L198.832 114.975C197.125 115.043 195.431 114.679 193.906 113.918C192.623 113.249 191.636 112.132 191.132 110.779C190.624 109.265 190.56 107.636 190.95 106.083L192.307 99.9148C192.65 98.2105 193.401 96.6118 194.493 95.2542C195.583 93.9205 196.977 92.8663 198.558 92.1805C200.254 91.4622 202.077 91.0961 203.916 91.105C205.619 91.0359 207.31 91.3996 208.831 92.1623C210.115 92.8271 211.105 93.9456 211.605 95.3004C212.124 96.8125 212.186 98.4449 211.785 99.9966L210.44 106.165C210.087 107.866 209.338 109.463 208.253 110.826C207.165 112.159 205.771 113.214 204.19 113.899C202.54 114.614 200.759 114.98 198.964 114.974ZM203.808 91.6217C202.088 91.6152 200.381 91.9655 198.802 92.6504C197.296 93.2995 195.97 94.3009 194.934 95.5688C193.899 96.8541 193.184 98.3646 192.846 99.9761L191.491 106.156C191.122 107.606 191.177 109.129 191.648 110.545C192.109 111.776 193.01 112.793 194.18 113.4C195.614 114.135 197.213 114.5 198.83 114.459C200.593 114.47 202.342 114.12 203.969 113.429C205.469 112.779 206.792 111.778 207.824 110.511C208.863 109.227 209.582 107.716 209.923 106.103L211.267 99.9242C211.65 98.4755 211.596 96.9484 211.11 95.5351C210.656 94.3032 209.757 93.2856 208.589 92.6801C207.153 91.9376 205.548 91.5731 203.928 91.6207L203.808 91.6217ZM199.57 112.027L199.471 112.028C197.768 112.191 196.079 111.622 194.83 110.464C193.848 109.178 193.562 107.491 194.067 105.948L195.367 99.9885C195.69 98.2448 196.641 96.6758 198.04 95.5762C199.545 94.5302 201.347 93.9958 203.178 94.0525L203.287 94.0516C205.488 94.0336 207.055 94.5805 207.983 95.6156C208.9 96.9302 209.161 98.5942 208.691 100.132L207.391 106.091C207.073 107.837 206.121 109.407 204.718 110.503C203.211 111.556 201.404 112.09 199.57 112.027ZM203.179 94.5683C201.467 94.5081 199.78 95.0035 198.372 95.9797C197.075 97.0072 196.199 98.4707 195.908 100.094L194.606 106.064C194.141 107.435 194.38 108.944 195.247 110.098C196.397 111.134 197.934 111.636 199.48 111.479C201.224 111.545 202.943 111.05 204.386 110.067C205.686 109.041 206.566 107.577 206.861 105.953L208.163 99.9934C208.587 98.6177 208.368 97.1279 207.566 95.9373C206.398 94.9031 204.847 94.4063 203.289 94.5675L203.179 94.5683Z" fill="black"/>
<path d="M222.383 114.502C220.524 114.567 218.668 114.353 216.876 113.867C215.77 113.581 214.853 112.821 214.369 111.792C213.963 110.506 213.959 109.125 214.355 107.832L216.417 98.4453C216.673 97.0208 217.26 95.6746 218.132 94.5145C218.994 93.5053 220.145 92.7803 221.429 92.4358C223.166 91.9519 224.966 91.7337 226.766 91.7887L232.612 91.7408C233.723 91.6178 234.826 92.0139 235.599 92.8135C236.189 93.806 236.31 95.0084 235.93 96.1022C235.649 97.41 234.99 98.0628 233.965 98.0602C233.555 98.1052 233.154 97.9179 232.928 97.5749C232.72 97.1491 232.683 96.6585 232.826 96.2045C232.981 95.8274 232.979 95.4049 232.822 95.0305C232.515 94.7763 232.114 94.6675 231.72 94.7323L226.028 94.724C224.763 94.6929 223.498 94.7878 222.252 95.0074C221.524 95.1503 220.871 95.5441 220.406 96.1197C219.91 96.8532 219.574 97.6823 219.422 98.5524L217.406 107.807C217.162 108.606 217.136 109.454 217.327 110.265C217.623 110.868 218.21 111.277 218.881 111.349C220.245 111.577 221.629 111.673 223.012 111.634L227.934 111.593C228.36 111.627 228.784 111.519 229.144 111.287C229.437 110.961 229.628 110.554 229.69 110.12C229.78 109.605 230.025 109.129 230.389 108.753C230.725 108.427 231.177 108.25 231.644 108.261C232.67 108.252 233.039 108.918 232.751 110.259C232.552 111.498 231.935 112.634 231.001 113.477C230.015 114.229 228.794 114.605 227.557 114.537L222.383 114.502Z" fill="black"/>
<path d="M227.648 114.733L227.559 114.734L222.374 114.776C220.489 114.839 218.606 114.618 216.79 114.12C215.618 113.827 214.64 113.031 214.119 111.947C213.682 110.612 213.657 109.176 214.05 107.823L216.099 98.4254C216.368 96.9594 216.977 95.5752 217.88 94.3843C218.758 93.3208 219.938 92.5461 221.263 92.1624C223.026 91.6698 224.851 91.4478 226.678 91.5036L232.524 91.4557C233.718 91.3267 234.902 91.7545 235.732 92.6145C236.364 93.6626 236.504 94.9352 236.119 96.1001C235.728 97.8917 234.695 98.306 233.923 98.3123C233.416 98.3567 232.926 98.1152 232.654 97.6864C232.416 97.1997 232.368 96.6411 232.518 96.1187C232.67 95.4261 232.57 95.2185 232.515 95.1751C232.46 95.1316 232.315 94.9793 231.654 94.9846L226.074 95.0304C224.828 95.0028 223.583 95.0938 222.353 95.3023C221.69 95.4198 221.092 95.7667 220.661 96.2815C220.194 96.9836 219.881 97.7749 219.744 98.604L217.715 107.859C217.489 108.604 217.461 109.394 217.634 110.152C217.791 110.579 218.244 110.871 218.993 111.041C220.335 111.258 221.696 111.35 223.056 111.314L227.978 111.274C228.338 111.299 228.697 111.216 229.012 111.035C229.264 110.748 229.425 110.39 229.471 110.011C229.568 109.445 229.84 108.921 230.246 108.513C230.639 108.148 231.153 107.944 231.688 107.942C232.137 107.917 232.573 108.099 232.868 108.437C233.199 108.988 233.269 109.657 233.061 110.267C232.847 111.57 232.195 112.763 231.211 113.651C230.183 114.412 228.923 114.794 227.648 114.733ZM222.383 114.184L227.558 114.141C228.738 114.206 229.905 113.854 230.858 113.149C231.738 112.336 232.319 111.253 232.51 110.074C232.676 109.624 232.642 109.126 232.418 108.704C232.227 108.496 231.95 108.389 231.667 108.413C231.278 108.409 230.904 108.558 230.623 108.828C230.299 109.167 230.082 109.592 229.999 110.051C229.936 110.553 229.709 111.021 229.354 111.384C228.944 111.646 228.464 111.773 227.978 111.746L223.058 111.786C221.652 111.829 220.245 111.73 218.862 111.491C218.108 111.414 217.449 110.955 217.118 110.277C216.906 109.417 216.929 108.515 217.185 107.665L219.203 98.4109C219.351 97.4986 219.703 96.6299 220.229 95.8681C220.742 95.2549 221.454 94.841 222.24 94.6997C223.505 94.4702 224.787 94.3714 226.072 94.405L231.665 94.3592C232.135 94.2923 232.608 94.4417 232.953 94.7656C233.179 95.1957 233.209 95.7028 233.036 96.1582C232.918 96.5458 232.942 96.9622 233.105 97.3316C233.285 97.5912 233.596 97.7283 233.911 97.6871C234.792 97.6799 235.34 97.1048 235.599 95.9399C235.947 94.9315 235.843 93.8255 235.315 92.9031C234.585 92.1871 233.568 91.8403 232.548 91.9603L226.703 92.0082C224.929 91.9573 223.155 92.1677 221.441 92.6327C220.228 92.9795 219.141 93.6754 218.321 94.6331C217.479 95.7586 216.91 97.0629 216.661 98.4427L214.61 107.84C214.237 109.08 214.24 110.402 214.624 111.636C215.081 112.586 215.938 113.285 216.963 113.548C218.728 114.025 220.555 114.235 222.383 114.173V114.184Z" fill="black"/>
<path d="M255.119 91.8133C256.321 91.8036 256.817 92.3045 256.6 93.2832C256.398 94.2584 255.466 94.9082 254.48 94.7605L249.257 94.8032L245.231 113.212C245.127 113.673 244.862 114.083 244.486 114.371C244.078 114.67 243.583 114.828 243.078 114.821C242.647 114.869 242.217 114.714 241.919 114.403C241.671 114.057 241.604 113.613 241.739 113.208L245.797 94.7548L240.498 94.7981C240.048 94.8357 239.601 94.6888 239.263 94.3913C238.984 94.0996 238.891 93.6789 239.016 93.2956C239.099 92.8493 239.355 92.4529 239.73 92.1919C240.14 91.9004 240.636 91.757 241.138 91.7852L255.119 91.8133Z" fill="black"/>
<path d="M243.083 115.054C242.571 115.101 242.067 114.911 241.716 114.539C241.408 114.132 241.316 113.602 241.468 113.114L245.429 95.0243L240.472 95.065C239.945 95.1033 239.428 94.9251 239.037 94.5717C238.707 94.221 238.589 93.7207 238.725 93.2571C238.829 92.7552 239.124 92.3122 239.548 92.021C240.014 91.7159 240.564 91.5583 241.122 91.5691L255.123 91.5751C255.695 91.5044 256.266 91.7027 256.667 92.1113C256.932 92.4788 257.011 92.9478 256.881 93.3828C256.653 94.4712 255.624 95.2061 254.519 95.0706L249.517 95.1116L245.535 113.3C245.426 113.829 245.125 114.3 244.691 114.624C244.217 114.942 243.652 115.094 243.083 115.054ZM241.08 92.0853C240.645 92.0689 240.217 92.1917 239.857 92.4355C239.541 92.6436 239.323 92.9704 239.255 93.3405C239.159 93.6255 239.225 93.9382 239.422 94.1626C239.714 94.3981 240.085 94.5129 240.459 94.4832L246.099 94.4371L241.998 113.131C241.885 113.455 241.931 113.812 242.122 114.096C242.373 114.342 242.721 114.46 243.071 114.418C243.514 114.427 243.947 114.288 244.304 114.023C244.631 113.777 244.857 113.42 244.938 113.019L249.019 94.3912L254.46 94.4016C255.508 94.3929 256.123 94.0037 256.319 93.1458C256.409 92.8732 256.372 92.5754 256.216 92.3344C255.914 92.0722 255.513 91.9518 255.114 92.0032L241.101 91.9973L241.08 92.0853Z" fill="black"/>
<path d="M261.099 103.343L259.278 111.684L273.314 111.69C273.775 111.645 274.235 111.783 274.591 112.074C274.864 112.395 274.948 112.834 274.816 113.235C274.728 113.656 274.477 114.025 274.114 114.261C273.68 114.521 273.18 114.651 272.675 114.635L257.02 114.631C256.632 114.66 256.259 114.484 256.038 114.168C255.828 113.769 255.791 113.302 255.935 112.874L260.131 93.6653C260.214 93.178 260.448 92.7277 260.797 92.3765C261.117 92.0707 261.545 91.9051 261.986 91.917L277.641 91.9205C278.097 91.8834 278.551 92.0208 278.907 92.3049C279.19 92.6213 279.275 93.066 279.132 93.4658C279.047 93.891 278.794 94.265 278.43 94.5027C277.998 94.7655 277.494 94.892 276.989 94.8655L262.953 94.8599L261.739 100.354L271.261 100.353C271.775 100.312 272.286 100.452 272.705 100.747C273.016 101.042 273.125 101.491 272.984 101.897C272.777 102.842 271.987 103.298 270.622 103.298L261.099 103.343Z" fill="black"/>
<path d="M272.706 114.873L257.052 114.87C256.568 114.907 256.102 114.685 255.828 114.287C255.584 113.826 255.534 113.286 255.69 112.786L259.886 93.577C259.99 93.0326 260.251 92.5302 260.642 92.1339C261.008 91.7919 261.493 91.6032 261.993 91.6073L277.648 91.6107C278.181 91.5674 278.708 91.7366 279.114 92.0813C279.459 92.4602 279.574 92.9943 279.416 93.483C279.316 93.9801 279.021 94.4174 278.595 94.6963C278.111 94.9783 277.558 95.1196 276.999 95.1042L263.184 95.0966L262.099 100.086L271.281 100.098C271.858 100.046 272.434 100.205 272.901 100.546C273.295 100.904 273.44 101.462 273.268 101.969C273.04 103.067 272.173 103.568 270.632 103.581L261.34 103.58L259.638 111.371L273.334 111.38C273.865 111.331 274.392 111.497 274.798 111.84C275.148 112.221 275.263 112.76 275.1 113.252C275.005 113.748 274.708 114.184 274.279 114.454C273.809 114.75 273.259 114.897 272.706 114.873ZM261.963 92.156C261.599 92.1495 261.248 92.2864 260.985 92.5369C260.684 92.8401 260.479 93.2227 260.393 93.6386L256.197 112.836C256.077 113.198 256.102 113.591 256.266 113.933C256.437 114.171 256.723 114.299 257.017 114.267L272.671 114.27C273.123 114.295 273.572 114.18 273.957 113.942C274.263 113.748 274.475 113.436 274.539 113.081C274.659 112.777 274.604 112.432 274.392 112.183C274.081 111.939 273.685 111.828 273.291 111.874L258.912 111.871L260.854 102.981L270.597 102.978C271.807 102.968 272.479 102.589 272.641 101.798C272.761 101.491 272.687 101.141 272.45 100.911C272.083 100.66 271.638 100.547 271.194 100.593L261.287 100.586L262.621 94.4979L276.876 94.502C277.326 94.5159 277.772 94.4061 278.164 94.1842C278.473 93.9919 278.687 93.68 278.756 93.3238C278.865 93.0148 278.809 92.6726 278.609 92.4145C278.294 92.176 277.9 92.0656 277.506 92.1055L261.852 92.102L261.963 92.156Z" fill="black"/>
<path d="M279.178 113.232L283.517 93.4393C283.596 92.4487 284.442 91.6917 285.439 91.7221C286.474 91.7136 286.85 92.3362 286.547 93.5462L283.02 109.677L299.65 92.5826C300.099 92.0647 300.736 91.747 301.42 91.7011C302.401 91.6929 302.766 92.2827 302.528 93.4262L298.189 113.219C298.109 114.199 297.261 114.941 296.277 114.892C295.253 114.901 294.855 114.366 295.083 113.322L298.563 97.0041L282.176 113.932C281.907 114.246 281.589 114.512 281.231 114.719C280.932 114.862 280.603 114.928 280.273 114.914C279.271 114.922 278.884 114.354 279.167 113.232H279.178ZM290.894 92.5447C289.451 92.5565 288.513 92.191 288.071 91.47C287.612 90.3172 287.58 89.0376 287.981 87.8596L288.306 86.3422L291.401 86.3168L290.946 88.3842C290.838 88.9009 290.827 89.2193 290.949 89.35C291.071 89.4807 291.347 89.5443 291.864 89.5401L295.62 89.5093C295.95 89.5456 296.286 89.4777 296.578 89.3148C296.798 89.0396 296.935 88.7067 296.97 88.3568L297.426 86.2894L300.51 86.2642L300.185 87.7706C299.993 89.117 299.411 90.3803 298.512 91.4066C297.583 92.1576 296.401 92.5249 295.21 92.4325L290.894 92.5447Z" fill="black"/>
<path d="M296.254 115.194C295.779 115.242 295.311 115.067 294.986 114.721C294.703 114.299 294.629 113.771 294.783 113.285L298.157 97.8906L282.439 114.122C282.151 114.459 281.81 114.747 281.428 114.975C281.082 115.129 280.706 115.203 280.328 115.192C279.872 115.233 279.425 115.062 279.114 114.73C278.819 114.268 278.748 113.696 278.922 113.173L283.262 93.3807C283.363 92.2576 284.328 91.4054 285.458 91.4419C285.916 91.4011 286.365 91.5762 286.67 91.9149C286.995 92.4154 287.071 93.0381 286.875 93.6035L283.556 108.789L299.449 92.403C299.945 91.8389 300.646 91.4935 301.395 91.443C301.837 91.4101 302.266 91.5806 302.565 91.9055C302.867 92.3779 302.938 92.9625 302.757 93.4953L298.417 113.288C298.305 114.388 297.362 115.219 296.254 115.194ZM299.086 96.1158L295.311 113.401C295.2 113.725 295.233 114.081 295.403 114.378C295.629 114.591 295.942 114.69 296.253 114.645C297.145 114.638 297.661 114.172 297.878 113.183L302.217 93.39C302.344 93.0284 302.316 92.6307 302.136 92.2931C301.934 92.1044 301.662 92.0108 301.387 92.0359C300.781 92.0859 300.219 92.3749 299.825 92.8388L282.593 110.542L286.324 93.4763C286.472 93.0719 286.439 92.624 286.232 92.2477C286.025 92.046 285.737 91.9476 285.449 91.9797C284.582 91.9555 283.852 92.6238 283.801 93.486L279.462 113.279C279.326 113.639 279.354 114.04 279.543 114.376C279.75 114.578 280.036 114.676 280.326 114.644C280.612 114.653 280.898 114.598 281.162 114.483C281.489 114.288 281.782 114.041 282.029 113.752L299.086 96.1158ZM295.286 92.854L295.244 92.8544L290.937 92.8897C289.394 92.9024 288.37 92.4936 287.882 91.7075C287.395 90.9211 287.357 89.6921 287.758 87.8886L288.128 86.1624L291.785 86.1324L291.253 88.5296C291.122 89.1234 291.179 89.2765 291.189 89.2875C291.414 89.3552 291.649 89.3794 291.884 89.3587L295.627 89.328C296.189 89.3234 296.343 89.2343 296.376 89.2011C296.41 89.1679 296.541 89.035 296.682 88.3863L297.18 86.0992L300.826 86.0693L300.425 87.9056C300.219 89.3052 299.611 90.6174 298.675 91.6849C297.719 92.4887 296.489 92.8957 295.242 92.8215L295.286 92.854ZM288.538 86.6859L288.255 87.9724C287.875 89.0849 287.9 90.2926 288.322 91.3854C288.698 91.997 289.569 92.3083 290.901 92.3083L295.208 92.273C296.32 92.3433 297.42 92.002 298.3 91.3147C299.157 90.3311 299.706 89.1211 299.885 87.8332L300.146 86.6568L297.624 86.6774L297.222 88.5247C297.178 88.9335 297.005 89.3188 296.73 89.6263C296.399 89.8249 296.014 89.9163 295.629 89.8878L291.885 89.9184C291.246 89.9237 290.905 89.8277 290.783 89.6092C290.661 89.3907 290.626 89.0615 290.779 88.4347L291.158 86.6974L288.538 86.6859Z" fill="black"/>
</g>
<defs>
<filter id="filter0_d_4826_1912" x="0.41333" y="0.697754" width="326" height="131.667" filterUnits="userSpaceOnUse" color-interpolation-filters="sRGB">
<feFlood flood-opacity="0" result="BackgroundImageFix"/>
<feColorMatrix in="SourceAlpha" type="matrix" values="0 0 0 0 0 0 0 0 0 0 0 0 0 0 0 0 0 0 127 0" result="hardAlpha"/>
<feOffset dy="4"/>
<feGaussianBlur stdDeviation="2"/>
<feComposite in2="hardAlpha" operator="out"/>
<feColorMatrix type="matrix" values="0 0 0 0 0 0 0 0 0 0 0 0 0 0 0 0 0 0 0.25 0"/>
<feBlend mode="normal" in2="BackgroundImageFix" result="effect1_dropShadow_4826_1912"/>
<feBlend mode="normal" in="SourceGraphic" in2="effect1_dropShadow_4826_1912" result="shape"/>
</filter>
<clipPath id="clip0_4826_1912">
<rect width="318" height="123.667" fill="white" transform="translate(4.41333 0.697754)"/>
</clipPath>
</defs>
</svg>
