<svg width="221" height="73" viewBox="0 0 221 73" fill="none" xmlns="http://www.w3.org/2000/svg">
<g clip-path="url(#clip0_4826_2054)" filter="url(#filter0_d_4826_2054)">
<mask id="mask0_4826_2054" style="mask-type:luminance" maskUnits="userSpaceOnUse" x="4" y="0" width="213" height="65">
<path d="M4.625 0.931152H216.625V64.1312H4.625V0.931152Z" fill="white"/>
</mask>
<g mask="url(#mask0_4826_2054)">
<path d="M120.725 33.6312H116.725V7.23115H120.725V17.6312H121.425C123.625 17.6312 124.325 15.2312 124.325 13.5312V7.23115H128.325V13.2312C128.325 16.0312 127.325 18.1312 125.325 19.4312C127.525 20.9312 128.325 22.8312 128.325 25.6312V33.5312H124.325V25.4312C124.325 23.7312 123.525 21.6312 121.425 21.6312H120.725V33.6312ZM189.325 33.6312V7.23115H192.925V22.6312L197.025 7.23115H201.525V33.6312H197.925V15.2312L192.925 33.6312H189.325ZM204.425 33.6312V7.23115H208.025V22.6312L212.125 7.23115H216.625V33.6312H213.025V15.2312L208.025 33.6312H204.425ZM214.925 4.03115H206.025V0.931152H214.925V4.03115ZM179.025 33.6312H175.025V7.23115H179.025V17.6312H179.725C181.925 17.6312 182.625 15.2312 182.625 13.5312V7.23115H186.625V13.2312C186.625 16.0312 185.625 18.1312 183.625 19.4312C185.825 20.9312 186.625 22.8312 186.625 25.6312V33.5312H182.625V25.4312C182.625 23.7312 181.825 21.6312 179.725 21.6312H179.025V33.6312ZM105.925 33.5312H101.925V7.13115H113.825V17.7312H109.725V10.9312H105.925V29.8312H109.725V22.9312H113.825V33.5312H105.925ZM164.125 33.5312H160.125V7.13115H172.025V17.7312H167.925V10.9312H164.125V29.8312H167.925V22.9312H172.025V33.5312H164.125ZM94.9251 10.9312H91.125V29.8312H94.9251V10.9312ZM91.0251 33.5312H87.0251V7.13115H98.925V33.5312H91.0251ZM139.125 10.9312H135.325V29.8312H139.125V10.9312ZM135.225 33.5312H131.225V7.13115H143.125V33.5312H135.225ZM150.125 10.9312V18.0312C151.625 18.1312 153.425 18.0312 153.425 15.3312V10.9312H150.125ZM150.125 21.8312V29.8312H153.425V24.7312C153.425 21.9312 151.625 21.7312 150.125 21.8312ZM157.425 11.8312V15.0312C157.425 17.1312 156.525 18.6312 155.125 19.6312C156.625 20.8312 157.425 22.6312 157.425 24.9312V33.5312H146.025V7.13115H157.425V11.8312ZM75.625 24.8312C76.725 19.1312 78.025 12.8312 78.725 7.13115H84.125V33.5312H80.625V23.1312L81.0251 13.7312C80.5251 16.7312 78.5251 27.9312 76.0251 33.3312H75.225C72.725 27.9312 70.725 16.7312 70.225 13.7312L70.625 23.1312V33.6312H67.125V7.23115H72.625C73.225 12.9312 74.625 19.2312 75.625 24.8312ZM115.625 41.5312V53.3312C117.125 53.4312 118.925 53.1312 118.925 50.4312V41.5312H115.625ZM122.925 46.9312V50.1312C122.925 54.2312 120.825 57.0312 116.925 57.0312H115.625V64.1312H111.625V37.7312H123.025V46.9312H122.925ZM124.025 37.7312H136.525V41.5312H132.325V64.1312H128.325V41.5312H124.125V37.7312H124.025ZM104.725 41.5312H100.925V60.4312H104.725V41.5312ZM100.825 64.1312H96.825V37.7312H108.725V64.1312H100.825ZM71.225 64.1312H67.225V37.7312H79.125V48.3312H75.0251V41.5312H71.225V60.4312H75.0251V53.6312H79.125V64.2312H75.0251L71.225 64.1312ZM86.0251 64.1312H82.0251V37.7312H94.0251V64.1312H89.9251V41.5312H86.125V64.1312H86.0251ZM31.925 50.4312C32.925 51.6312 34.025 52.8312 35.125 53.9312C40.425 59.0312 47.325 62.6312 54.925 64.2312V59.6312C48.525 58.1312 42.925 55.0312 38.425 50.7312C36.925 49.3312 35.625 47.8312 34.425 46.1312L31.925 50.4312Z" fill="#202020"/>
<path d="M15.325 45.6313C20.325 40.8313 23.425 34.3313 23.425 27.1313V7.13135H28.125V27.1313C28.125 30.6313 28.725 34.7313 29.825 37.9313C30.925 34.7313 31.525 30.6313 31.525 27.1313V7.13135H36.225V27.1313C36.225 34.3313 39.325 40.9313 44.325 45.6313C47.325 48.4313 50.925 50.6313 55.025 51.9313V56.6313C49.625 55.2313 44.825 52.4313 41.025 48.7313C38.125 45.9313 35.825 42.7313 34.125 39.1313C32.925 42.2313 31.525 45.2313 29.825 47.5313C28.125 45.2313 26.825 42.3313 25.525 39.1313C23.925 42.7313 21.525 46.0313 18.625 48.7313C14.825 52.4313 9.925 55.1313 4.625 56.6313V51.9313C8.725 50.7313 12.325 48.5313 15.325 45.6313Z" fill="#202020"/>
<path d="M43.625 26.7313C43.625 32.0313 45.925 36.7313 49.525 40.2313C51.125 41.7313 52.925 43.0313 54.925 43.9313V48.7313C51.625 47.5313 48.625 45.6313 46.125 43.3313C41.625 39.0313 38.825 33.1313 38.825 26.6313V22.1313H43.625V26.7313ZM16.025 22.2313H20.625V26.7313C20.625 33.2313 17.825 39.1313 13.325 43.4313C10.825 45.7313 7.92502 47.6313 4.52502 48.8313V43.9313C6.52502 43.0313 8.42502 41.7313 9.92502 40.2313C13.525 36.7313 15.825 31.9313 15.825 26.7313V22.2313H16.025ZM25.125 46.2313C23.925 47.8313 22.625 49.4313 21.125 50.8313C16.625 55.0313 11.025 58.1313 4.62502 59.6313V64.2313C12.225 62.6313 19.125 58.9313 24.425 53.9313C25.525 52.8313 26.625 51.7313 27.625 50.4313L25.125 46.2313Z" fill="#202020"/>
</g>
</g>
<defs>
<filter id="filter0_d_4826_2054" x="0.625" y="0.931152" width="220" height="71.2002" filterUnits="userSpaceOnUse" color-interpolation-filters="sRGB">
<feFlood flood-opacity="0" result="BackgroundImageFix"/>
<feColorMatrix in="SourceAlpha" type="matrix" values="0 0 0 0 0 0 0 0 0 0 0 0 0 0 0 0 0 0 127 0" result="hardAlpha"/>
<feOffset dy="4"/>
<feGaussianBlur stdDeviation="2"/>
<feComposite in2="hardAlpha" operator="out"/>
<feColorMatrix type="matrix" values="0 0 0 0 0 0 0 0 0 0 0 0 0 0 0 0 0 0 0.25 0"/>
<feBlend mode="normal" in2="BackgroundImageFix" result="effect1_dropShadow_4826_2054"/>
<feBlend mode="normal" in="SourceGraphic" in2="effect1_dropShadow_4826_2054" result="shape"/>
</filter>
<clipPath id="clip0_4826_2054">
<rect width="212" height="63.2" fill="white" transform="translate(4.625 0.931152)"/>
</clipPath>
</defs>
</svg>
