<svg width="227" height="128" viewBox="0 0 227 128" fill="none" xmlns="http://www.w3.org/2000/svg">
<g clip-path="url(#clip0_4826_1620)" filter="url(#filter0_d_4826_1620)">
<mask id="mask0_4826_1620" style="mask-type:luminance" maskUnits="userSpaceOnUse" x="4" y="2" width="219" height="121">
<path d="M222.778 2.00586H4.625V122.512H222.778V2.00586Z" fill="white"/>
</mask>
<g mask="url(#mask0_4826_1620)">
<path d="M19.1761 57.186H14.0329V71.4131H9.7682V57.186H4.625V53.9834H19.1761V57.186Z" fill="#202020"/>
<path d="M38.091 62.6985C38.091 63.9593 37.8785 65.1354 37.4393 66.2125C37.0001 67.3036 36.3908 68.2389 35.5974 69.0469C34.8039 69.8544 33.8546 70.4778 32.7495 70.9315C31.6443 71.3848 30.3975 71.6117 29.0515 71.6117C27.7055 71.6117 26.4587 71.3848 25.3393 70.9315C24.22 70.4778 23.2707 69.8544 22.4773 69.0469C21.6838 68.2389 21.0746 67.3036 20.6354 66.2125C20.1962 65.1215 19.9836 63.9593 19.9836 62.6985C19.9836 61.4373 20.1962 60.2611 20.6354 59.184C21.0746 58.0929 21.6838 57.1576 22.4773 56.3641C23.2707 55.5705 24.22 54.9471 25.3393 54.4794C26.4587 54.0118 27.6913 53.7993 29.0515 53.7993C30.4117 53.7993 31.6443 54.0257 32.7495 54.4934C33.8546 54.9611 34.8181 55.5845 35.5974 56.378C36.3908 57.1716 37.0001 58.1213 37.4393 59.198C37.8785 60.2895 38.091 61.4512 38.091 62.6985ZM33.9538 62.6985C33.9538 61.8338 33.8405 61.0547 33.6138 60.3741C33.3871 59.68 33.0754 59.0989 32.6503 58.6173C32.2252 58.1353 31.7152 57.7671 31.1201 57.5118C30.525 57.2566 29.8166 57.1293 29.0515 57.1293C28.2864 57.1293 27.578 57.2566 26.9687 57.5118C26.3595 57.7671 25.8494 58.1353 25.4244 58.6173C25.0135 59.0989 24.6876 59.68 24.4609 60.3741C24.2342 61.0686 24.1208 61.8338 24.1208 62.6985C24.1208 63.5627 24.2342 64.3419 24.4609 65.0364C24.6876 65.7309 24.9993 66.3116 25.4244 66.7936C25.8494 67.2753 26.3595 67.6439 26.9687 67.8847C27.578 68.1399 28.2722 68.2673 29.0515 68.2673C29.8308 68.2673 30.5108 68.1399 31.1201 67.8847C31.7293 67.6295 32.2394 67.2613 32.6503 66.7936C33.0612 66.3116 33.3871 65.7309 33.6138 65.0364C33.8405 64.3419 33.9538 63.5627 33.9538 62.6985Z" fill="#202020"/>
<path d="M54.9231 53.9834V71.4131H50.6585V64.8662C49.6667 65.0787 48.7174 65.2349 47.8107 65.3339C46.9039 65.4334 46.0679 65.4473 45.3028 65.3767C44.5235 65.32 43.8293 65.1638 43.2059 64.9229C42.5824 64.6821 42.0441 64.3419 41.6048 63.8886C41.1656 63.4353 40.8256 62.8682 40.5847 62.2025C40.3438 61.5219 40.2305 60.7144 40.2305 59.7791V53.9834H44.4952V59.7791C44.4952 60.3457 44.5802 60.8418 44.7361 61.2527C44.8919 61.6637 45.2036 61.9896 45.657 62.2025C46.1104 62.4149 46.7339 62.5284 47.5414 62.5139C48.349 62.5139 49.3975 62.3722 50.6869 62.089V53.9834H54.9515H54.9231Z" fill="#202020"/>
<path d="M74.8442 71.4131H70.962C70.5794 71.4131 70.2679 71.3141 70.0127 71.1296C69.758 70.9315 69.5167 70.6619 69.3042 70.3077L66.2579 64.8662C66.0599 64.512 65.833 64.2851 65.5782 64.1722C65.323 64.0587 65.0111 64.002 64.629 64.002H62.716V71.4131H58.4656V53.9834H62.716V61.0403H64.2747C64.5862 61.0403 64.8698 60.9836 65.0962 60.8701C65.323 60.7567 65.5355 60.5587 65.734 60.2611L69.0495 55.0038C69.2475 54.7063 69.4744 54.4511 69.758 54.267C70.0271 54.0685 70.367 53.9834 70.7635 53.9834H74.4049L69.9421 60.8418C69.7296 61.1677 69.4744 61.4229 69.1908 61.6353C68.9077 61.8482 68.5818 62.0179 68.2276 62.1458C68.7943 62.2875 69.2619 62.5284 69.6585 62.8542C70.0555 63.1801 70.4237 63.6478 70.7635 64.2289L74.8586 71.4131H74.8442Z" fill="#202020"/>
<path d="M93.2775 71.4129H89.9903C89.6221 71.4129 89.3246 71.3278 89.0978 71.1721C88.8709 71.0019 88.7007 70.8034 88.5878 70.5487L87.5107 67.5158H80.5542L79.4771 70.5487C79.378 70.775 79.2223 70.9735 78.9815 71.1576C78.7407 71.3422 78.4432 71.4273 78.1029 71.4273H74.7874L81.8717 53.9971H86.2215L93.3058 71.4273L93.2775 71.4129ZM86.533 64.7525L84.8329 59.9773C84.7056 59.6798 84.5777 59.3111 84.4364 58.9002C84.2946 58.4892 84.1528 58.0499 84.011 57.5683C83.8837 58.0499 83.7563 58.5036 83.6145 58.9146C83.4727 59.3255 83.3453 59.6937 83.218 59.9912L81.5318 64.7386H86.5474L86.533 64.7525Z" fill="#202020"/>
<path d="M116.344 71.4131H112.462C112.079 71.4131 111.767 71.3141 111.512 71.1296C111.257 70.9315 111.016 70.6619 110.804 70.3077L107.758 64.8662C107.56 64.512 107.333 64.2851 107.077 64.1722C106.823 64.0587 106.511 64.002 106.128 64.002H104.216V71.4131H99.9648V53.9834H104.216V61.0403H105.774C106.086 61.0403 106.369 60.9836 106.596 60.8701C106.823 60.7567 107.035 60.5587 107.234 60.2611L110.549 55.0038C110.747 54.7063 110.974 54.4511 111.257 54.267C111.526 54.0685 111.867 53.9834 112.263 53.9834H115.905L111.441 60.8418C111.229 61.1677 110.974 61.4229 110.691 61.6353C110.407 61.8482 110.082 62.0179 109.727 62.1458C110.294 62.2875 110.762 62.5284 111.158 62.8542C111.555 63.1801 111.923 63.6478 112.263 64.2289L116.358 71.4131H116.344Z" fill="#202020"/>
<path d="M133.757 53.9834V71.4131H129.492V61.6497C129.492 61.196 129.507 60.7144 129.535 60.2044C129.563 59.694 129.62 59.1557 129.705 58.589C129.507 59.0989 129.308 59.5666 129.081 60.0059C128.855 60.4452 128.628 60.8278 128.416 61.1537L122.847 70.2086C122.762 70.3504 122.649 70.4922 122.521 70.6335C122.394 70.7753 122.252 70.9032 122.082 71.0166C121.926 71.1296 121.756 71.229 121.572 71.2997C121.388 71.3708 121.189 71.4131 120.991 71.4131H117.789V53.9834H122.054V63.7329C122.054 64.1861 122.054 64.6682 122.011 65.1782C121.969 65.6881 121.926 66.2269 121.841 66.7936C122.04 66.2976 122.238 65.816 122.465 65.3906C122.691 64.9657 122.918 64.5687 123.131 64.2428L128.699 55.1879C128.784 55.0461 128.897 54.9043 129.025 54.7625C129.152 54.6212 129.294 54.4934 129.464 54.3799C129.634 54.267 129.79 54.1675 129.974 54.0968C130.158 54.0257 130.356 53.9834 130.555 53.9834H133.757Z" fill="#202020"/>
<path d="M152.46 71.4131H148.195V56.9875H141.323V71.4131H137.058V53.9834H152.474V71.4131H152.46Z" fill="#202020"/>
<path d="M160.026 57.1006V61.1674H165.778V64.1575H160.026V68.3093H167.535V71.4273H155.747V53.9971H167.535V57.115H160.026V57.1006Z" fill="#202020"/>
<path d="M185.869 53.9834V71.4131H181.604V64.0443H174.166V71.4131H169.901V53.9834H174.166V61.2671H181.604V53.9834H185.869Z" fill="#202020"/>
<path d="M205.138 53.9834V71.4131H200.874V61.6497C200.874 61.196 200.887 60.7144 200.916 60.2044C200.944 59.694 201.001 59.1557 201.086 58.589C200.887 59.0989 200.689 59.5666 200.463 60.0059C200.236 60.4452 200.009 60.8278 199.796 61.1537L194.228 70.2086C194.143 70.3504 194.03 70.4922 193.902 70.6335C193.775 70.7753 193.633 70.9032 193.463 71.0166C193.307 71.1296 193.137 71.229 192.953 71.2997C192.769 71.3708 192.571 71.4131 192.372 71.4131H189.17V53.9834H193.435V63.7329C193.435 64.1861 193.435 64.6682 193.392 65.1782C193.35 65.6881 193.307 66.2269 193.223 66.7936C193.421 66.2976 193.619 65.816 193.846 65.3906C194.072 64.9657 194.299 64.5687 194.512 64.2428L200.08 55.1879C200.165 55.0461 200.278 54.9043 200.406 54.7625C200.533 54.6212 200.675 54.4934 200.845 54.3799C201.015 54.267 201.171 54.1675 201.355 54.0968C201.539 54.0257 201.738 53.9834 201.936 53.9834H205.138Z" fill="#202020"/>
<path d="M222.778 71.4129H218.527V64.4267H217.209C216.827 64.4267 216.473 64.5118 216.147 64.6675C215.821 64.8376 215.523 65.1496 215.254 65.6172L212.69 70.0527C212.435 70.4636 212.08 70.7895 211.641 71.0443C211.202 71.2855 210.678 71.4129 210.068 71.4129H206.852L210.593 65.461C210.862 65.0361 211.159 64.6819 211.5 64.3983C211.84 64.1152 212.237 63.8739 212.69 63.6899C212.052 63.5058 211.5 63.265 211.032 62.9674C210.564 62.6694 210.182 62.3296 209.87 61.9326C209.558 61.5361 209.332 61.1251 209.19 60.6574C209.048 60.1898 208.963 59.7082 208.963 59.1977C208.963 58.4469 209.119 57.7524 209.431 57.1146C209.743 56.4772 210.196 55.9245 210.791 55.4568C211.386 54.9892 212.109 54.621 212.973 54.3658C213.838 54.0966 214.815 53.9688 215.906 53.9688H222.735V71.3985L222.778 71.4129ZM218.527 61.3803V57.0156H215.934C215.367 57.0156 214.9 57.0723 214.546 57.1997C214.192 57.3275 213.908 57.4832 213.71 57.6817C213.512 57.8802 213.37 58.1211 213.285 58.3758C213.214 58.631 213.171 58.9002 213.171 59.1838C213.171 59.5097 213.214 59.7932 213.285 60.0624C213.355 60.3316 213.497 60.5724 213.71 60.7565C213.908 60.955 214.192 61.0968 214.546 61.2102C214.9 61.3236 215.367 61.3659 215.934 61.3659H218.527V61.3803Z" fill="#202020"/>
<path fill-rule="evenodd" clip-rule="evenodd" d="M114.275 117.509C107.191 117.509 101.424 111.742 101.424 104.657C101.424 101.227 102.756 97.9964 105.193 95.5734C107.616 93.15 110.846 91.8042 114.275 91.8042C117.704 91.8042 120.934 93.1361 123.357 95.5734C125.78 97.9964 127.126 101.227 127.126 104.657C127.126 108.086 125.794 111.317 123.357 113.74C120.934 116.163 117.704 117.509 114.275 117.509Z" fill="#202020"/>
<path fill-rule="evenodd" clip-rule="evenodd" d="M157.9 27.7111C157.248 27.7111 156.639 27.456 156.172 27.0026C155.222 26.0532 155.222 24.5086 156.172 23.5449C156.639 23.0773 157.248 22.8364 157.9 22.8364C158.552 22.8364 159.161 23.0915 159.629 23.5449C160.096 24.0126 160.337 24.6219 160.337 25.2738C160.337 25.9256 160.082 26.535 159.629 27.0026C159.175 27.4702 158.552 27.7111 157.9 27.7111Z" fill="#202020"/>
<path fill-rule="evenodd" clip-rule="evenodd" d="M87.0009 47.9609C84.5073 47.9609 82.1694 46.9973 80.4126 45.226C78.6559 43.4547 77.6782 41.1307 77.6782 38.6367C77.6782 36.1427 78.6415 33.8046 80.4126 32.0474C82.1694 30.2903 84.5073 29.3125 87.0009 29.3125C89.4945 29.3125 91.8324 30.2761 93.5892 32.0474C97.2162 35.6751 97.2162 41.5842 93.5892 45.226C91.8324 46.9832 89.4945 47.9609 87.0009 47.9609Z" fill="#202020"/>
<path fill-rule="evenodd" clip-rule="evenodd" d="M159.926 47.9608C158.24 47.9608 156.667 47.309 155.477 46.1187C154.287 44.9284 153.635 43.3555 153.635 41.6692C153.635 39.9829 154.287 38.4099 155.477 37.2196C156.667 36.0293 158.24 35.3774 159.926 35.3774C161.612 35.3774 163.185 36.0293 164.375 37.2196C165.565 38.4099 166.217 39.9829 166.217 41.6692C166.217 43.3555 165.565 44.9284 164.375 46.1187C163.185 47.309 161.612 47.9608 159.926 47.9608Z" fill="#202020"/>
<path fill-rule="evenodd" clip-rule="evenodd" d="M144.199 23.7148C142.513 23.7148 140.94 23.063 139.75 21.8726C137.299 19.4211 137.299 15.425 139.75 12.9735C140.94 11.7832 142.528 11.1313 144.199 11.1313C145.871 11.1313 147.458 11.7832 148.648 12.9735C151.099 15.425 151.099 19.4211 148.648 21.8726C147.458 23.063 145.871 23.7148 144.199 23.7148Z" fill="#202020"/>
<path fill-rule="evenodd" clip-rule="evenodd" d="M159.926 93.6038C158.637 93.6038 157.432 93.1078 156.526 92.1869C155.619 91.2799 155.109 90.0614 155.109 88.7858C155.109 87.5106 155.605 86.2917 156.526 85.3847C157.432 84.4782 158.651 83.9678 159.926 83.9678C161.201 83.9678 162.42 84.4638 163.327 85.3847C165.211 87.2698 165.211 90.3162 163.327 92.2008C162.42 93.1078 161.201 93.6182 159.926 93.6182V93.6038Z" fill="#202020"/>
<path fill-rule="evenodd" clip-rule="evenodd" d="M67.6042 95.0775C65.9181 95.0775 64.3454 94.4257 63.1553 93.2357C61.9652 92.0451 61.3135 90.4724 61.3135 88.7858C61.3135 87.0997 61.9652 85.5266 63.1553 84.3365C64.3454 83.1459 65.9181 82.4941 67.6042 82.4941C69.2903 82.4941 70.863 83.1459 72.0531 84.3365C73.2432 85.5266 73.895 87.0997 73.895 88.7858C73.895 90.4724 73.2432 92.0451 72.0531 93.2357C70.863 94.4257 69.2903 95.0775 67.6042 95.0775Z" fill="#202020"/>
<path fill-rule="evenodd" clip-rule="evenodd" d="M88.3327 23.3324C86.6466 23.3324 85.0739 22.6806 83.8838 21.4903C82.6937 20.3 82.042 18.727 82.042 17.0408C82.042 15.3544 82.6937 13.7815 83.8838 12.5912C85.0739 11.4009 86.661 10.749 88.3327 10.749C90.0045 10.749 91.5915 11.4009 92.7816 12.5912C95.233 15.0427 95.233 19.0388 92.7816 21.4903C91.5915 22.6806 90.0045 23.3324 88.3327 23.3324Z" fill="#202020"/>
<path fill-rule="evenodd" clip-rule="evenodd" d="M154.018 105.55C152.913 105.55 151.949 104.799 151.666 103.736C151.496 103.113 151.581 102.447 151.907 101.88C152.233 101.313 152.757 100.916 153.394 100.746C153.607 100.689 153.819 100.661 154.032 100.661C155.137 100.661 156.1 101.412 156.384 102.475C156.738 103.779 155.959 105.111 154.656 105.465C154.443 105.522 154.23 105.55 154.018 105.55Z" fill="#202020"/>
<path fill-rule="evenodd" clip-rule="evenodd" d="M96.7062 118.927C96.0544 118.927 95.4454 118.672 94.9778 118.219C94.5101 117.751 94.2693 117.141 94.2693 116.49C94.2693 115.838 94.5245 115.228 94.9778 114.761C95.4454 114.293 96.0544 114.052 96.7062 114.052C97.358 114.052 97.9674 114.307 98.4346 114.761C99.3844 115.71 99.3844 117.255 98.4346 118.219C97.9674 118.686 97.358 118.927 96.7062 118.927Z" fill="#202020"/>
<path fill-rule="evenodd" clip-rule="evenodd" d="M114.275 31.2112C107.191 31.2112 101.424 25.4438 101.424 18.3585C101.424 11.2733 107.191 5.50586 114.275 5.50586C117.704 5.50586 120.934 6.83788 123.357 9.2752C125.78 11.6984 127.126 14.9293 127.126 18.3585C127.126 25.4438 121.36 31.2112 114.275 31.2112Z" fill="#202020"/>
<path fill-rule="evenodd" clip-rule="evenodd" d="M107.531 86.5755C106.242 86.5755 105.037 86.0795 104.131 85.1585C103.224 84.2516 102.714 83.0326 102.714 81.7575C102.714 79.1077 104.881 76.9395 107.531 76.9395C110.181 76.9395 112.348 79.1077 112.348 81.7575C112.348 83.0471 111.852 84.2516 110.931 85.1585C110.025 86.0655 108.806 86.5755 107.531 86.5755Z" fill="#202020"/>
<path fill-rule="evenodd" clip-rule="evenodd" d="M140.969 98.0959C138.475 98.0959 136.137 97.1322 134.38 95.361C130.753 91.7331 130.753 85.824 134.38 82.1822C136.137 80.4254 138.475 79.4473 140.969 79.4473C143.462 79.4473 145.8 80.411 147.557 82.1822C149.314 83.9538 150.291 86.2777 150.291 88.7718C150.291 91.2654 149.328 93.6038 147.557 95.361C145.8 97.1183 143.462 98.0959 140.969 98.0959Z" fill="#202020"/>
<path fill-rule="evenodd" clip-rule="evenodd" d="M86.8589 114.69C85.1728 114.69 83.6001 114.038 82.41 112.848C79.9587 110.396 79.9587 106.4 82.41 103.949C83.6001 102.759 85.1872 102.106 86.8589 102.106C88.5311 102.106 90.1177 102.759 91.3078 103.949C92.4979 105.139 93.1497 106.712 93.1497 108.398C93.1497 110.085 92.4979 111.657 91.3078 112.848C90.1177 114.038 88.5311 114.69 86.8589 114.69Z" fill="#202020"/>
<path fill-rule="evenodd" clip-rule="evenodd" d="M75.4532 26.0958C74.3482 26.0958 73.385 25.3448 73.1014 24.282C72.7472 22.9783 73.5263 21.6463 74.8298 21.292C75.0427 21.2353 75.2552 21.207 75.4676 21.207C76.5727 21.207 77.5363 21.958 77.8195 23.0209C78.1737 24.3245 77.3946 25.6565 76.091 26.0108C75.8786 26.0675 75.6661 26.0958 75.4532 26.0958Z" fill="#202020"/>
<path fill-rule="evenodd" clip-rule="evenodd" d="M128.755 119.749C128.543 119.749 128.331 119.721 128.118 119.664C127.495 119.494 126.956 119.097 126.631 118.53C126.305 117.963 126.22 117.312 126.389 116.674C126.673 115.611 127.636 114.86 128.742 114.86C128.954 114.86 129.166 114.888 129.379 114.945C130.002 115.115 130.541 115.512 130.867 116.079C131.192 116.645 131.277 117.297 131.108 117.935C130.824 118.998 129.861 119.749 128.755 119.749Z" fill="#202020"/>
<path fill-rule="evenodd" clip-rule="evenodd" d="M118.101 47.9608C115.267 47.9608 112.759 46.0479 112.022 43.2988C111.583 41.6692 111.81 39.9829 112.646 38.5233C113.482 37.0637 114.842 36.0293 116.471 35.59C117.01 35.4483 117.562 35.3774 118.101 35.3774C120.934 35.3774 123.442 37.2905 124.179 40.0396C124.618 41.6692 124.391 43.3555 123.556 44.815C122.72 46.2746 121.359 47.309 119.73 47.7484C119.192 47.8901 118.639 47.9608 118.101 47.9608Z" fill="#202020"/>
<path fill-rule="evenodd" clip-rule="evenodd" d="M98.4917 9.79946C97.3863 9.79946 96.423 9.04844 96.1394 7.98563C95.7852 6.68197 96.5648 5.34995 97.8683 4.99567C98.0808 4.93898 98.2932 4.91064 98.5057 4.91064C99.6107 4.91064 100.574 5.6617 100.858 6.72446C101.028 7.34796 100.943 8.01399 100.617 8.58082C100.291 9.14765 99.7669 9.54442 99.1291 9.71448C98.9166 9.77114 98.7042 9.79946 98.4917 9.79946Z" fill="#202020"/>
<path fill-rule="evenodd" clip-rule="evenodd" d="M75.4536 81.8281C74.3481 81.8281 73.3849 81.0774 73.1013 80.0146C72.9316 79.3908 73.0162 78.7251 73.3421 78.1584C73.668 77.5912 74.1924 77.1947 74.8302 77.0245C75.0426 76.9678 75.2551 76.9395 75.4675 76.9395C76.5725 76.9395 77.5362 77.6907 77.8193 78.7534C78.1736 80.0569 77.3944 81.3888 76.0909 81.7435C75.8785 81.7998 75.666 81.8281 75.4536 81.8281Z" fill="#202020"/>
<path fill-rule="evenodd" clip-rule="evenodd" d="M169.32 81.8281C168.215 81.8281 167.251 81.0774 166.968 80.0146C166.798 79.3908 166.883 78.7251 167.209 78.1584C167.535 77.5912 168.059 77.1947 168.696 77.0245C168.909 76.9678 169.121 76.9395 169.334 76.9395C170.439 76.9395 171.402 77.6907 171.686 78.7534C171.856 79.3768 171.771 80.043 171.445 80.6097C171.119 81.1764 170.595 81.5734 169.958 81.7435C169.745 81.7998 169.532 81.8281 169.32 81.8281Z" fill="#202020"/>
<path fill-rule="evenodd" clip-rule="evenodd" d="M139.013 47.9609C136.52 47.9609 134.182 46.9973 132.425 45.226C128.798 41.5984 128.798 35.6893 132.425 32.0474C134.182 30.2903 136.52 29.3125 139.013 29.3125C141.507 29.3125 143.845 30.2761 145.602 32.0474C149.229 35.6751 149.229 41.5842 145.602 45.226C143.845 46.9832 141.507 47.9609 139.013 47.9609Z" fill="#202020"/>
<path fill-rule="evenodd" clip-rule="evenodd" d="M86.8591 98.0959C84.3654 98.0959 82.0276 97.1322 80.2708 95.361C76.6438 91.7331 76.6438 85.824 80.2708 82.1822C82.0276 80.4254 84.3654 79.4473 86.8591 79.4473C89.3527 79.4473 91.6906 80.411 93.4478 82.1822C95.2046 83.9394 96.1822 86.2777 96.1822 88.7718C96.1822 91.2654 95.2185 93.6038 93.4478 95.361C91.6906 97.1183 89.3527 98.0959 86.8591 98.0959Z" fill="#202020"/>
<path fill-rule="evenodd" clip-rule="evenodd" d="M137.88 114.364C136.194 114.364 134.593 113.712 133.403 112.507C132.213 111.317 131.547 109.716 131.547 108.03C131.547 106.343 132.198 104.742 133.403 103.552C134.593 102.361 136.194 101.695 137.88 101.695C139.566 101.695 141.167 102.347 142.357 103.552C144.822 106.017 144.822 110.042 142.357 112.507C141.167 113.698 139.566 114.364 137.88 114.364Z" fill="#202020"/>
<path fill-rule="evenodd" clip-rule="evenodd" d="M65.1528 47.9608C63.4666 47.9608 61.8939 47.309 60.7039 46.1187C58.253 43.6672 58.253 39.6711 60.7039 37.2196C61.8939 36.0293 63.4811 35.3774 65.1528 35.3774C66.8249 35.3774 68.4116 36.0293 69.6017 37.2196C70.7918 38.4099 71.4435 39.997 71.4435 41.6692C71.4435 43.3413 70.7918 44.9284 69.6017 46.1187C68.4116 47.309 66.8249 47.9608 65.1528 47.9608Z" fill="#202020"/>
<path fill-rule="evenodd" clip-rule="evenodd" d="M75.4536 104.799C74.3482 104.799 73.3849 104.048 73.1014 102.985C72.7471 101.681 73.5267 100.349 74.8303 99.9952C75.0427 99.9385 75.2552 99.9102 75.4676 99.9102C76.5726 99.9102 77.5363 100.661 77.8199 101.724C78.1737 103.028 77.3945 104.36 76.091 104.714C75.8786 104.77 75.6661 104.799 75.4536 104.799Z" fill="#202020"/>
<path fill-rule="evenodd" clip-rule="evenodd" d="M104.06 39.6003C103.408 39.6003 102.799 39.3452 102.331 38.8917C101.382 37.9423 101.382 36.3977 102.331 35.4341C102.799 34.9665 103.408 34.7256 104.06 34.7256C104.711 34.7256 105.321 34.9807 105.788 35.4341C106.256 35.9017 106.497 36.5111 106.497 37.1629C106.497 37.8148 106.242 38.4241 105.788 38.8917C105.335 39.3594 104.711 39.6003 104.06 39.6003Z" fill="#202020"/>
<path fill-rule="evenodd" clip-rule="evenodd" d="M123.697 91.2234C123.046 91.2234 122.436 90.9681 121.969 90.5149C121.019 89.5656 121.019 88.0208 121.969 87.0571C122.436 86.5899 123.046 86.3486 123.697 86.3486C124.349 86.3486 124.958 86.6039 125.426 87.0571C126.375 88.0069 126.375 89.5512 125.426 90.5149C124.958 90.9826 124.349 91.2234 123.697 91.2234Z" fill="#202020"/>
<path fill-rule="evenodd" clip-rule="evenodd" d="M131.504 9.79947C130.852 9.79947 130.243 9.5444 129.776 9.09095C128.826 8.14153 128.826 6.59692 129.776 5.63331C130.243 5.1657 130.852 4.9248 131.504 4.9248C132.156 4.9248 132.765 5.17988 133.233 5.63331C133.7 6.10094 133.941 6.7103 133.941 7.36216C133.941 8.01396 133.686 8.62333 133.233 9.09095C132.779 9.55857 132.156 9.79947 131.504 9.79947Z" fill="#202020"/>
</g>
</g>
<defs>
<filter id="filter0_d_4826_1620" x="0.625" y="0.53125" width="226" height="132" filterUnits="userSpaceOnUse" color-interpolation-filters="sRGB">
<feFlood flood-opacity="0" result="BackgroundImageFix"/>
<feColorMatrix in="SourceAlpha" type="matrix" values="0 0 0 0 0 0 0 0 0 0 0 0 0 0 0 0 0 0 127 0" result="hardAlpha"/>
<feOffset dy="4"/>
<feGaussianBlur stdDeviation="2"/>
<feComposite in2="hardAlpha" operator="out"/>
<feColorMatrix type="matrix" values="0 0 0 0 0 0 0 0 0 0 0 0 0 0 0 0 0 0 0.25 0"/>
<feBlend mode="normal" in2="BackgroundImageFix" result="effect1_dropShadow_4826_1620"/>
<feBlend mode="normal" in="SourceGraphic" in2="effect1_dropShadow_4826_1620" result="shape"/>
</filter>
<clipPath id="clip0_4826_1620">
<rect width="218" height="124" fill="white" transform="translate(4.625 0.53125)"/>
</clipPath>
</defs>
</svg>
