<svg width="423" height="151" viewBox="0 0 423 151" fill="none" xmlns="http://www.w3.org/2000/svg">
<g clip-path="url(#clip0_4826_1665)" filter="url(#filter0_d_4826_1665)">
<path d="M4.625 10.0946V25.569C24.6316 9.17949 44.4901 9.479 65.2947 26.5591L66.4629 27.5241L67.631 26.5591C88.4356 9.479 108.294 9.17949 128.309 25.569V10.0946C108.171 -2.68421 87.0782 -2.06025 66.4629 11.8667C45.8557 -2.06857 24.7632 -2.68421 4.625 10.0946Z" fill="#202020"/>
<path d="M4.625 36.5514V48.6813C25.0183 36.6179 45.2717 37.0755 66.4629 50.1206C87.6623 37.0755 107.916 36.6179 128.309 48.6813V36.5514C108.039 26.4681 87.2921 26.9256 66.4629 37.8992C45.6418 26.9256 24.9031 26.4681 4.625 36.5514Z" fill="#202020"/>
<path d="M4.625 60.0462V69.3725C24.8126 61.7268 45.5925 62.0512 66.4629 70.3459C87.3415 62.0596 108.121 61.7268 128.309 69.3725V60.0462C108.047 53.1077 87.3003 53.4072 66.4629 60.9531C45.6254 53.4155 24.8784 53.1077 4.625 60.0462Z" fill="#202020"/>
<path d="M4.625 80.8449V87.8749C24.8373 84.1644 45.6007 84.3059 66.4629 88.3325C87.3333 84.3059 108.097 84.1561 128.309 87.8749V80.8449C108.064 77.2841 87.3086 77.4339 66.4629 81.3025C45.6254 77.4339 24.8702 77.2758 4.625 80.8449Z" fill="#202020"/>
<path d="M128.309 100.171H4.625V105.196H128.309V100.171Z" fill="#202020"/>
<path d="M7.94846 134.498H11.9958L9.98038 127.643L7.94846 134.498ZM13.4108 139.257L12.4318 135.962H7.51246L6.53352 139.257H4.73193L8.89449 126.137H11.1485L15.2864 139.257H13.4026H13.4108Z" fill="#202020"/>
<path d="M23.1098 137.335C23.6692 137.019 23.9489 136.411 23.9489 135.529C23.9489 134.648 23.6775 134.04 23.1427 133.666C22.5998 133.283 21.9006 133.092 21.0368 133.092H18.9061V137.817H20.6913C21.7443 137.817 22.5504 137.659 23.1098 137.343M18.9061 127.576V131.711H20.864C21.6126 131.711 22.2378 131.528 22.715 131.162C23.2003 130.796 23.4389 130.272 23.4389 129.598C23.4389 128.841 23.1839 128.308 22.6738 128.017C22.1638 127.726 21.3987 127.576 20.3704 127.576H18.9061ZM25.0019 133.292C25.5531 133.774 25.8328 134.523 25.8328 135.538C25.8328 138.025 24.1217 139.273 20.6913 139.273H17.1128V126.153H20.1812C21.8265 126.153 23.0852 126.428 23.9572 126.977C24.8292 127.526 25.2652 128.35 25.2652 129.473C25.2652 130.23 25.0266 130.871 24.5577 131.378C24.0888 131.886 23.5129 132.21 22.8384 132.351C23.7268 132.501 24.4507 132.826 25.0019 133.3" fill="#202020"/>
<path d="M36.0579 126.145L35.8686 127.684H32.2737V139.257H30.4804V127.684H26.7949V126.145H36.0579Z" fill="#202020"/>
<path d="M39.9493 128.691C39.3241 129.556 39.0115 130.904 39.0115 132.726C39.0115 134.548 39.3323 135.871 39.9657 136.728C40.5992 137.576 41.4712 138 42.5899 138C44.9756 138 46.1684 136.237 46.1684 132.709C46.1684 129.182 44.9756 127.401 42.5899 127.401C41.4629 127.401 40.5827 127.834 39.9575 128.691M45.461 126.702C46.2836 127.227 46.9253 128 47.3777 129.015C47.8384 130.03 48.0605 131.262 48.0605 132.709C48.0605 134.157 47.8302 135.347 47.3777 136.362C46.917 137.377 46.2754 138.15 45.461 138.683C44.6383 139.215 43.6841 139.481 42.5899 139.481C41.4958 139.481 40.5416 139.223 39.7189 138.699C38.8963 138.175 38.2546 137.41 37.8022 136.395C37.3415 135.38 37.1194 134.157 37.1194 132.718C37.1194 131.278 37.3497 130.089 37.8022 129.065C38.2629 128.034 38.9045 127.252 39.7354 126.711C40.5662 126.17 41.5205 125.904 42.5982 125.904C43.6758 125.904 44.6465 126.17 45.4692 126.694" fill="#202020"/>
<path d="M58.0636 139.257V133.108H52.6013V139.257H50.8162V126.145H52.6013V131.628H58.0636V126.145H59.8487V139.257H58.0636Z" fill="#202020"/>
<path d="M65.4427 128.691C64.8175 129.556 64.5049 130.904 64.5049 132.726C64.5049 134.548 64.8257 135.871 65.4591 136.728C66.0926 137.576 66.9646 138 68.0834 138C70.469 138 71.6618 136.237 71.6618 132.709C71.6618 129.182 70.469 127.401 68.0834 127.401C66.9563 127.401 66.0761 127.834 65.4509 128.691M70.9544 126.702C71.777 127.227 72.4187 128 72.8711 129.015C73.3318 130.03 73.5539 131.262 73.5539 132.709C73.5539 134.157 73.3236 135.347 72.8711 136.362C72.4104 137.377 71.7688 138.15 70.9544 138.683C70.1317 139.215 69.1775 139.481 68.0834 139.481C66.9892 139.481 66.035 139.223 65.2123 138.699C64.3897 138.175 63.748 137.41 63.2956 136.395C62.8349 135.38 62.6128 134.157 62.6128 132.718C62.6128 131.278 62.8431 130.089 63.2956 129.065C63.7563 128.034 64.3979 127.252 65.2288 126.711C66.0597 126.17 67.0139 125.904 68.0916 125.904C69.1692 125.904 70.14 126.17 70.9626 126.694" fill="#202020"/>
<path d="M87.9008 139.257H86.165L85.7126 133.334C85.5234 131.012 85.4164 129.224 85.3917 127.984L82.5865 137.768H80.9083L77.9551 127.959C77.9551 129.548 77.8728 131.379 77.7083 133.458L77.2723 139.249H75.5776L76.6471 126.129H79.0574L81.7886 135.663L84.3881 126.129H86.8149L87.8843 139.249L87.9008 139.257Z" fill="#202020"/>
<path d="M98.0276 139.257V133.108H92.5735V139.257H90.7883V126.145H92.5735V131.628H98.0276V126.145H99.8209V139.257H98.0276Z" fill="#202020"/>
<path d="M104.864 134.498H108.911L106.896 127.643L104.864 134.498ZM110.326 139.257L109.347 135.962H104.436L103.457 139.257H101.647L105.81 126.137H108.072L112.21 139.257H110.326Z" fill="#202020"/>
<path d="M119.885 132.668V127.543H118.117C116.998 127.543 116.192 127.759 115.698 128.192C115.204 128.624 114.958 129.282 114.958 130.172C114.958 130.995 115.196 131.619 115.665 132.035C116.134 132.451 116.767 132.668 117.557 132.668H119.893H119.885ZM121.67 126.137V139.257H119.885V134.099H117.253L114.752 139.257H112.72L115.542 133.774C114.727 133.458 114.11 132.984 113.691 132.368C113.271 131.744 113.057 131.02 113.057 130.18C113.057 128.899 113.477 127.909 114.316 127.202C115.155 126.494 116.389 126.145 118.01 126.145H121.679L121.67 126.137Z" fill="#202020"/>
<path d="M137.341 139.257V133.108H131.879V139.257H130.094V126.145H131.879V131.628H137.341V126.145H139.127V139.257H137.341Z" fill="#202020"/>
<path d="M149.747 126.145L149.541 127.584H144.515V131.869H148.883V133.316H144.515V137.809H149.895V139.257H142.721V126.145H149.747Z" fill="#202020"/>
<path d="M161.289 126.145L157.694 132.293L161.642 139.257H159.578L156.188 133.108H154.42V139.257H152.626V126.145H154.42V131.628H156.205L159.405 126.145H161.289Z" fill="#202020"/>
<path d="M165.542 128.691C164.916 129.556 164.604 130.904 164.604 132.726C164.604 134.548 164.916 135.871 165.558 136.728C166.191 137.576 167.063 138 168.182 138C170.568 138 171.761 136.237 171.761 132.709C171.761 129.182 170.568 127.401 168.182 127.401C167.055 127.401 166.175 127.834 165.55 128.691M171.053 126.702C171.876 127.227 172.518 128 172.97 129.015C173.431 130.03 173.653 131.262 173.653 132.709C173.653 134.157 173.422 135.347 172.97 136.362C172.509 137.377 171.868 138.15 171.053 138.683C170.231 139.215 169.276 139.481 168.182 139.481C167.088 139.481 166.134 139.223 165.311 138.699C164.489 138.175 163.847 137.41 163.394 136.395C162.934 135.38 162.712 134.157 162.712 132.718C162.712 131.278 162.942 130.089 163.394 129.065C163.855 128.034 164.497 127.252 165.328 126.711C166.159 126.17 167.113 125.904 168.19 125.904C169.268 125.904 170.239 126.17 171.061 126.694" fill="#202020"/>
<path d="M187.999 139.257H186.264L185.811 133.334C185.622 131.012 185.515 129.224 185.49 127.984L182.685 137.768H181.007L178.054 127.959C178.054 129.548 177.971 131.379 177.807 133.458L177.371 139.249H175.676L176.746 126.129H179.156L181.887 135.663L184.487 126.129H186.914L187.983 139.249L187.999 139.257Z" fill="#202020"/>
<path d="M202.478 139.257H200.742L200.29 133.334C200.101 131.012 199.994 129.224 199.969 127.984L197.164 137.768H195.485L192.532 127.959C192.532 129.548 192.45 131.379 192.285 133.458L191.849 139.249H190.155L191.224 126.129H193.635L196.366 135.663L198.965 126.129H201.392L202.461 139.249L202.478 139.257Z" fill="#202020"/>
<path d="M212.383 126.145L212.177 127.584H207.151V131.869H211.511V133.316H207.151V137.809H212.531V139.257H205.357V126.145H212.383Z" fill="#202020"/>
<path d="M220.996 132.401C221.539 131.994 221.818 131.262 221.818 130.213C221.818 129.273 221.547 128.591 220.996 128.175C220.453 127.759 219.671 127.551 218.651 127.551H217.047V133.017H218.61C219.655 133.017 220.445 132.817 220.988 132.41M222.394 127.16C223.274 127.842 223.71 128.849 223.71 130.197C223.71 131.636 223.25 132.701 222.337 133.4C221.424 134.099 220.206 134.448 218.684 134.448H217.047V139.265H215.262V126.145H218.668C220.272 126.145 221.514 126.486 222.394 127.16Z" fill="#202020"/>
<path d="M233.788 126.145V139.265H232.003V133.974C231.452 134.39 230.925 134.689 230.432 134.864C229.938 135.047 229.362 135.13 228.712 135.13C227.561 135.13 226.631 134.772 225.948 134.065C225.257 133.358 224.912 132.393 224.912 131.195V126.145H226.705V131.054C226.705 132.742 227.528 133.583 229.173 133.583C230.316 133.583 231.262 133.217 232.019 132.476V126.137H233.804L233.788 126.145Z" fill="#202020"/>
<path d="M244.408 126.145L244.194 127.584H239.168V131.869H243.536V133.316H239.168V137.809H244.556V139.257H237.383V126.145H244.408Z" fill="#202020"/>
<path d="M253.786 126.22C254.321 126.42 254.864 126.752 255.415 127.21L254.436 128.375C253.647 127.726 252.816 127.401 251.936 127.401C250.858 127.401 249.986 127.826 249.328 128.658C248.67 129.498 248.341 130.837 248.341 132.693C248.341 134.548 248.67 135.829 249.32 136.678C249.969 137.535 250.841 137.959 251.919 137.959C252.47 137.959 252.956 137.867 253.367 137.676C253.786 137.485 254.222 137.218 254.683 136.877L255.572 138.017C255.168 138.433 254.658 138.783 254.025 139.065C253.4 139.348 252.676 139.481 251.861 139.481C250.808 139.481 249.871 139.215 249.048 138.691C248.225 138.167 247.584 137.393 247.131 136.37C246.671 135.347 246.448 134.124 246.448 132.684C246.448 131.245 246.687 130.022 247.164 128.999C247.641 127.975 248.283 127.21 249.106 126.686C249.92 126.162 250.833 125.904 251.837 125.904C252.618 125.904 253.268 126.004 253.803 126.212" fill="#202020"/>
<path d="M266.315 126.145L262.72 132.293L266.677 139.257H264.604L261.215 133.108H259.446V139.257H257.661V126.145H259.446V131.628H261.231L264.431 126.145H266.315Z" fill="#202020"/>
<path d="M270.025 134.498H274.073L272.057 127.643L270.025 134.498ZM275.488 139.257L274.509 135.962H269.598L268.619 139.257H266.809L270.971 126.137H273.225L277.363 139.257H275.479H275.488Z" fill="#202020"/>
<path d="M285.055 132.668V127.543H283.286C282.167 127.543 281.361 127.759 280.868 128.192C280.374 128.624 280.127 129.282 280.127 130.172C280.127 130.995 280.366 131.619 280.835 132.035C281.304 132.451 281.937 132.668 282.727 132.668H285.063H285.055ZM286.84 126.137V139.257H285.055V134.099H282.422L279.922 139.257H277.89L280.711 133.774C279.897 133.458 279.28 132.984 278.86 132.368C278.441 131.744 278.227 131.02 278.227 130.18C278.227 128.899 278.646 127.909 279.486 127.202C280.325 126.494 281.559 126.145 283.179 126.145H286.848L286.84 126.137Z" fill="#202020"/>
<path d="M297.246 128.691C296.621 129.556 296.308 130.904 296.308 132.726C296.308 134.548 296.621 135.871 297.263 136.728C297.896 137.576 298.768 138 299.887 138C302.272 138 303.465 136.237 303.465 132.709C303.465 129.182 302.272 127.401 299.887 127.401C298.76 127.401 297.88 127.834 297.254 128.691M302.758 126.702C303.58 127.227 304.222 128 304.675 129.015C305.135 130.03 305.357 131.262 305.357 132.709C305.357 134.157 305.127 135.347 304.675 136.362C304.214 137.377 303.572 138.15 302.758 138.683C301.935 139.215 300.981 139.481 299.887 139.481C298.793 139.481 297.838 139.223 297.016 138.699C296.193 138.175 295.552 137.41 295.099 136.395C294.638 135.38 294.416 134.157 294.416 132.718C294.416 131.278 294.647 130.089 295.099 129.065C295.56 128.034 296.201 127.252 297.032 126.711C297.863 126.17 298.817 125.904 299.895 125.904C300.973 125.904 301.943 126.17 302.766 126.694" fill="#202020"/>
<path d="M313.847 132.401C314.39 131.994 314.67 131.262 314.67 130.213C314.67 129.273 314.398 128.591 313.847 128.175C313.304 127.759 312.523 127.551 311.503 127.551H309.898V133.017H311.461C312.506 133.017 313.296 132.817 313.839 132.41M315.246 127.16C316.126 127.842 316.562 128.849 316.562 130.197C316.562 131.636 316.101 132.701 315.188 133.4C314.275 134.099 313.057 134.448 311.535 134.448H309.898V139.265H308.113V126.145H311.519C313.123 126.145 314.365 126.486 315.246 127.16Z" fill="#202020"/>
<path d="M326.376 126.145L326.113 127.701H320.667V139.257H318.882V126.145H326.376Z" fill="#202020"/>
<path d="M329.724 134.498H333.772L331.756 127.643L329.724 134.498ZM335.187 139.257L334.208 135.962H329.297L328.318 139.257H326.508L330.67 126.137H332.933L337.071 139.257H335.187Z" fill="#202020"/>
<path d="M346.144 139.257V133.108H340.682V139.257H338.888V126.145H340.682V131.628H346.144V126.145H347.929V139.257H346.144Z" fill="#202020"/>
<path d="M360.615 139.256H358.83V132.858C358.83 131.377 358.912 129.805 359.076 128.157L353.828 139.256H351.533V126.136H353.318V132.533C353.318 134.314 353.236 135.895 353.071 137.292L358.377 126.136H360.615V139.256Z" fill="#202020"/>
<path d="M364.366 139.04C363.65 138.74 363.033 138.299 362.523 137.717L363.576 136.685C364.374 137.534 365.378 137.958 366.571 137.958C367.459 137.958 368.15 137.742 368.644 137.293C369.129 136.852 369.376 136.245 369.376 135.462C369.376 134.68 369.137 134.098 368.652 133.682C368.167 133.274 367.459 133.066 366.513 133.066H365.271L365.518 131.586H366.538C367.295 131.586 367.895 131.394 368.339 131.003C368.783 130.612 369.006 130.088 369.006 129.414C369.006 128.815 368.825 128.333 368.471 127.958C368.117 127.584 367.566 127.401 366.826 127.401C365.797 127.401 364.794 127.808 363.815 128.615L362.877 127.534C364.086 126.452 365.444 125.912 366.965 125.912C368.216 125.912 369.187 126.228 369.861 126.852C370.536 127.484 370.881 128.283 370.881 129.264C370.881 130.063 370.659 130.712 370.207 131.219C369.754 131.719 369.137 132.06 368.348 132.243C369.203 132.334 369.911 132.65 370.478 133.216C371.046 133.774 371.325 134.539 371.325 135.504C371.325 136.294 371.128 136.985 370.733 137.592C370.338 138.191 369.787 138.666 369.088 138.998C368.389 139.331 367.591 139.506 366.694 139.506C365.88 139.506 365.115 139.356 364.399 139.057" fill="#202020"/>
<path d="M375.307 134.498H379.354L377.339 127.643L375.307 134.498ZM380.769 139.257L379.79 135.962H374.879L373.9 139.257H372.09L376.253 126.137H378.507L382.645 139.257H380.761H380.769Z" fill="#202020"/>
<path d="M393.224 137.776H394.729V142.119H393.322L393.034 139.257H384.471V126.145H386.264V137.776H391.438V126.145H393.224V137.776Z" fill="#202020"/>
<path d="M405.917 139.257H404.132V132.859C404.132 131.378 404.214 129.806 404.379 128.158L399.13 139.257H396.835V126.137H398.62V132.534C398.62 134.315 398.538 135.896 398.374 137.293L403.68 126.137H405.917V139.257Z" fill="#202020"/>
<path d="M415.369 132.668V127.543H413.601C412.482 127.543 411.676 127.759 411.182 128.192C410.688 128.624 410.442 129.282 410.442 130.172C410.442 130.995 410.68 131.619 411.149 132.035C411.618 132.451 412.251 132.668 413.041 132.668H415.378H415.369ZM417.154 126.137V139.257H415.369V134.099H412.737L410.236 139.257H408.204L411.026 133.774C410.211 133.458 409.586 132.984 409.175 132.368C408.755 131.744 408.541 131.02 408.541 130.18C408.541 128.899 408.961 127.909 409.8 127.202C410.639 126.494 411.873 126.145 413.494 126.145H417.163L417.154 126.137Z" fill="#202020"/>
<path d="M178.679 20.9024C179.28 20.3533 179.584 19.4464 179.584 18.1819C179.584 15.9938 178.375 14.904 175.956 14.904H174.229V21.7343H176.047C177.198 21.7343 178.079 21.4598 178.679 20.9024ZM182.356 13.0903C183.862 14.2301 184.619 15.9273 184.619 18.1736C184.619 20.4198 183.878 22.2917 182.397 23.4814C180.917 24.6711 178.942 25.2701 176.458 25.2701H174.229V32.217H169.35V11.3765H176.014C178.728 11.3765 180.843 11.9505 182.348 13.0903" fill="#202020"/>
<path d="M193.305 24.1636H197.649L195.477 14.9539L193.305 24.1636ZM199.549 32.2253L198.48 27.7411H192.466L191.43 32.2253H186.371L192.59 11.3765H198.513L204.732 32.2253H199.558H199.549Z" fill="#202020"/>
<path d="M205.736 29.8212L208.327 27.2338C208.986 27.8744 209.644 28.3486 210.31 28.6481C210.976 28.9476 211.717 29.0974 212.531 29.0974C213.617 29.0974 214.473 28.8311 215.09 28.2987C215.706 27.7662 216.011 27.0175 216.011 26.0524C216.011 25.0873 215.698 24.3386 215.073 23.8061C214.448 23.2737 213.526 23.0074 212.317 23.0074H210.145L210.713 19.455H212.408C213.378 19.455 214.135 19.2304 214.67 18.7811C215.205 18.3319 215.476 17.6912 215.476 16.8676C215.476 16.1438 215.254 15.5614 214.818 15.1039C214.382 14.6546 213.707 14.4217 212.794 14.4217C211.429 14.4217 210.038 14.9874 208.632 16.1105L206.37 13.6147C208.311 11.7677 210.672 10.8442 213.452 10.8442C214.876 10.8442 216.126 11.0772 217.187 11.5514C218.248 12.0256 219.063 12.6662 219.63 13.4899C220.198 14.3135 220.478 15.2536 220.478 16.3185C220.478 17.5415 220.091 18.5731 219.318 19.4217C218.545 20.262 217.401 20.836 215.896 21.1355C217.525 21.3186 218.8 21.8427 219.737 22.7163C220.667 23.5898 221.136 24.7795 221.136 26.2854C221.136 27.5666 220.79 28.698 220.099 29.6714C219.408 30.6448 218.429 31.3936 217.187 31.926C215.937 32.4585 214.505 32.7247 212.901 32.7247C209.89 32.7247 207.505 31.7513 205.761 29.8045" fill="#202020"/>
<path d="M234.915 28.0572C235.582 27.6662 235.911 26.9424 235.911 25.8775C235.911 23.9557 234.718 22.9906 232.34 22.9906H230.201V28.6479H231.987C233.278 28.6479 234.249 28.4482 234.915 28.0572ZM230.201 14.8624V19.7044H232.019C234.084 19.7044 235.113 18.8641 235.113 17.1752C235.113 16.3349 234.833 15.7359 234.282 15.3865C233.731 15.0371 232.842 14.8624 231.633 14.8624H230.201ZM239.645 22.716C240.509 23.4814 240.937 24.6212 240.937 26.1437C240.937 28.3733 240.147 29.9374 238.568 30.8526C236.988 31.7677 234.784 32.2253 231.945 32.2253H225.315V11.3765H231.147C234.043 11.3765 236.256 11.7924 237.778 12.6244C239.308 13.4564 240.065 14.8208 240.065 16.701C240.065 17.924 239.703 18.914 238.979 19.6628C238.255 20.4115 237.358 20.919 236.289 21.1852C237.655 21.4431 238.773 21.959 239.637 22.716" fill="#202020"/>
<path d="M261.05 32.2253H256.263V24.4299C256.263 21.5596 256.493 18.8225 256.945 16.2185L251.022 32.2253H245.165V11.3765H249.953V19.3217C249.953 20.9856 249.895 22.3749 249.772 23.4731C249.657 24.5796 249.476 25.8608 249.237 27.3251L255.276 11.3765H261.05V32.2253Z" fill="#202020"/>
<path d="M280.481 11.3765L280.004 15.1702H274.912V32.2253H270.033V15.1702H264.711V11.3765H280.481Z" fill="#202020"/>
<path d="M299.821 32.2253H295.033V24.4299C295.033 21.5596 295.264 18.8225 295.716 16.2185L289.793 32.2253H283.936V11.3765H288.724V19.3217C288.724 20.9856 288.666 22.3749 288.543 23.4731C288.427 24.5796 288.246 25.8608 288.008 27.3251L294.046 11.3765H299.821V32.2253Z" fill="#202020"/>
<path d="M317.788 11.3765L317.286 14.8956H310.022V19.8957H316.356V23.3483H310.022V28.6812H317.788V32.2253H305.144V11.3765H317.788Z" fill="#202020"/>
<path d="M183.903 47.7915V68.6487H179.025V60.9447C178.334 61.4855 177.618 61.8848 176.894 62.1428C176.17 62.4007 175.348 62.5338 174.443 62.5338C172.435 62.5338 170.872 61.8932 169.737 60.6036C168.61 59.3224 168.042 57.5753 168.042 55.3706V47.7915H172.863V55.3124C172.863 56.5354 173.102 57.4339 173.579 58.0079C174.056 58.582 174.805 58.8649 175.841 58.8649C177.149 58.8649 178.21 58.4738 179.025 57.6918V47.7915H183.903Z" fill="#202020"/>
<path d="M201.903 47.7915L201.392 51.3107H194.137V56.3024H200.471V59.7634H194.137V65.0962H201.903V68.6403H189.259V47.7915H201.903Z" fill="#202020"/>
<path d="M222.039 47.7915V68.6487H217.161V51.527H212.875L212.102 58.5986C211.822 60.9863 211.468 62.8749 211.049 64.2559C210.621 65.637 209.988 66.7268 209.157 67.5089C208.326 68.2909 207.166 68.84 205.677 69.1645L204.517 65.7035C205.233 65.4207 205.768 65.0296 206.121 64.5305C206.475 64.0313 206.746 63.3491 206.927 62.5005C207.108 61.6519 207.306 60.2709 207.52 58.3657L208.77 47.7998H222.039V47.7915Z" fill="#202020"/>
<path d="M232.562 52.6166C231.879 53.773 231.533 55.6282 231.533 58.199C231.533 60.7697 231.879 62.6333 232.578 63.7981C233.269 64.9628 234.314 65.5452 235.704 65.5452C237.095 65.5452 238.189 64.9711 238.871 63.8147C239.554 62.6666 239.9 60.7947 239.9 58.2073C239.9 55.6199 239.554 53.7563 238.863 52.6082C238.172 51.4685 237.119 50.8944 235.713 50.8944C234.306 50.8944 233.261 51.4685 232.57 52.6249M242.565 50.1456C244.202 52.0508 245.017 54.738 245.017 58.2073C245.017 60.4702 244.646 62.4336 243.898 64.0726C243.157 65.7199 242.088 66.9761 240.681 67.8497C239.283 68.7232 237.621 69.1559 235.696 69.1559C233.771 69.1559 232.118 68.7232 230.727 67.858C229.337 67.0011 228.276 65.7448 227.527 64.1142C226.787 62.4836 226.408 60.5118 226.408 58.199C226.408 55.8861 226.779 54.0059 227.527 52.3586C228.268 50.7114 229.337 49.4551 230.727 48.5816C232.118 47.708 233.771 47.2754 235.696 47.2754C238.633 47.2754 240.92 48.2238 242.557 50.1373" fill="#202020"/>
<path d="M259.01 64.4722C259.676 64.0812 260.005 63.3574 260.005 62.2925C260.005 60.3707 258.812 59.4056 256.435 59.4056H254.296V65.0629H256.081C257.373 65.0629 258.343 64.8633 259.01 64.4722ZM254.296 51.2774V56.1194H256.114C258.179 56.1194 259.207 55.2791 259.207 53.5902C259.207 52.75 258.927 52.151 258.376 51.8015C257.825 51.4521 256.937 51.2774 255.727 51.2774H254.296ZM263.74 59.1311C264.604 59.8965 265.031 61.0363 265.031 62.5587C265.031 64.7884 264.242 66.3525 262.662 67.2676C261.083 68.1828 258.878 68.6403 256.04 68.6403H249.409V47.7915H255.242C258.138 47.7915 260.351 48.2075 261.872 49.0394C263.403 49.8714 264.159 51.2358 264.159 53.116C264.159 54.339 263.797 55.329 263.073 56.0778C262.35 56.8266 261.453 57.334 260.383 57.6003C261.749 57.8582 262.868 58.374 263.732 59.1311" fill="#202020"/>
<path d="M281.904 47.7915L281.402 51.3107H274.139V56.3024H280.481V59.7634H274.139V65.0962H281.904V68.6403H269.26V47.7915H281.904Z" fill="#202020"/>
<path d="M300.948 47.7915V68.6487H296.07V60.9447C295.379 61.4855 294.663 61.8848 293.939 62.1428C293.215 62.4007 292.393 62.5338 291.488 62.5338C289.481 62.5338 287.918 61.8932 286.782 60.6036C285.655 59.3224 285.088 57.5753 285.088 55.3706V47.7915H289.908V55.3124C289.908 56.5354 290.147 57.4339 290.624 58.0079C291.101 58.582 291.85 58.8649 292.886 58.8649C294.194 58.8649 295.255 58.4738 296.07 57.6918V47.7915H300.948Z" fill="#202020"/>
<path d="M318.948 47.7915L318.446 51.3107H311.182V56.3024H317.525V59.7634H311.182V65.0962H318.948V68.6403H306.304V47.7915H318.948Z" fill="#202020"/>
<path d="M335.302 47.8494C336.305 48.2321 337.251 48.7979 338.14 49.5633L335.82 52.3586C335.203 51.8761 334.602 51.5184 334.002 51.2771C333.41 51.0358 332.768 50.9193 332.102 50.9193C330.711 50.9193 329.617 51.51 328.811 52.6914C328.005 53.8728 327.602 55.7031 327.602 58.1657C327.602 60.6283 328.005 62.392 328.811 63.5651C329.609 64.7381 330.728 65.3288 332.159 65.3288C332.916 65.3288 333.599 65.1874 334.216 64.8962C334.833 64.605 335.499 64.1891 336.206 63.6483L338.378 66.4769C337.605 67.259 336.667 67.8996 335.565 68.4071C334.463 68.9062 333.245 69.1558 331.921 69.1558C330.012 69.1558 328.359 68.7315 326.952 67.8913C325.545 67.051 324.451 65.8031 323.661 64.1475C322.88 62.4919 322.485 60.5035 322.485 58.174C322.485 55.8445 322.888 53.9477 323.694 52.3087C324.492 50.6614 325.603 49.4135 327.026 48.5649C328.441 47.7163 330.053 47.2837 331.863 47.2837C333.155 47.2837 334.298 47.475 335.302 47.8577" fill="#202020"/>
<path d="M358.254 47.7915L353.161 57.2342L358.821 68.6403H353.49L349.056 59.5886H346.918V68.6403H342.039V47.7915H346.918V55.978H349.18L353.466 47.7915H358.254Z" fill="#202020"/>
<path d="M367.253 52.6166C366.57 53.773 366.225 55.6282 366.225 58.199C366.225 60.7697 366.57 62.6333 367.27 63.7981C367.961 64.9628 369.005 65.5452 370.396 65.5452C371.786 65.5452 372.88 64.9711 373.563 63.8147C374.246 62.6666 374.591 60.7947 374.591 58.2073C374.591 55.6199 374.246 53.7563 373.555 52.6082C372.864 51.4685 371.811 50.8944 370.404 50.8944C368.997 50.8944 367.952 51.4685 367.261 52.6249M377.257 50.1456C378.894 52.0508 379.708 54.738 379.708 58.2073C379.708 60.4702 379.338 62.4336 378.589 64.0726C377.849 65.7199 376.779 66.9761 375.373 67.8497C373.974 68.7232 372.312 69.1559 370.387 69.1559C368.462 69.1559 366.809 68.7232 365.419 67.858C364.028 67.0011 362.967 65.7448 362.219 64.1142C361.478 62.4836 361.1 60.5118 361.1 58.199C361.1 55.8861 361.47 54.0059 362.219 52.3586C362.959 50.7114 364.028 49.4551 365.419 48.5816C366.809 47.708 368.462 47.2754 370.387 47.2754C373.324 47.2754 375.611 48.2238 377.248 50.1373" fill="#202020"/>
<path d="M397.321 47.7915L396.778 51.6684H388.987V68.6403H384.109V47.7915H397.321Z" fill="#202020"/>
<path d="M405.958 52.6166C405.275 53.773 404.93 55.6282 404.93 58.199C404.93 60.7697 405.275 62.6333 405.975 63.7981C406.666 64.9628 407.71 65.5452 409.101 65.5452C410.491 65.5452 411.585 64.9711 412.268 63.8147C412.951 62.6666 413.296 60.7947 413.296 58.2073C413.296 55.6199 412.951 53.7563 412.26 52.6082C411.569 51.4685 410.516 50.8944 409.109 50.8944C407.702 50.8944 406.658 51.4685 405.966 52.6249M415.962 50.1456C417.599 52.0508 418.413 54.738 418.413 58.2073C418.413 60.4702 418.043 62.4336 417.294 64.0726C416.554 65.7199 415.484 66.9761 414.078 67.8497C412.679 68.7232 411.018 69.1559 409.093 69.1559C407.168 69.1559 405.514 68.7232 404.124 67.858C402.734 67.0011 401.672 65.7448 400.924 64.1142C400.183 62.4836 399.805 60.5118 399.805 58.199C399.805 55.8861 400.175 54.0059 400.924 52.3586C401.664 50.7114 402.734 49.4551 404.124 48.5816C405.514 47.708 407.168 47.2754 409.093 47.2754C412.029 47.2754 414.316 48.2238 415.953 50.1373" fill="#202020"/>
<path d="M185.565 84.2061L180.481 93.6488L186.132 105.055H180.81L176.376 95.9949H174.229V105.055H169.35V84.2061H174.229V92.3925H176.491L180.777 84.2061H185.565Z" fill="#202020"/>
<path d="M193.988 96.9937H198.332L196.16 87.784L193.988 96.9937ZM200.232 105.055L199.163 100.571H193.157L192.113 105.055H187.053L193.273 84.1982H199.196L205.415 105.055H200.24H200.232Z" fill="#202020"/>
<path d="M224.303 84.2061V105.055H219.424V87.9915H213.296V105.055H208.417V84.2061H224.303Z" fill="#202020"/>
<path d="M245.551 105.055H240.764V97.26C240.764 94.3897 240.994 91.6526 241.446 89.0486L235.523 105.055H229.666V84.1982H234.454V92.1434C234.454 93.8073 234.396 95.1967 234.273 96.2949C234.158 97.4014 233.977 98.6826 233.738 100.147L239.777 84.1982H245.551V105.055Z" fill="#202020"/>
<path d="M264.974 84.2061L264.506 87.9915H259.413V105.055H254.535V87.9915H249.213V84.2061H264.974Z" fill="#202020"/>
<path d="M273.044 96.9937H277.388L275.216 87.784L273.044 96.9937ZM279.288 105.055L278.219 100.571H272.213L271.169 105.055H266.109L272.329 84.1982H278.252L284.471 105.055H279.296H279.288Z" fill="#202020"/>
<path d="M303.12 84.2061V105.063H298.242V87.9415H293.956L293.183 95.0132C292.903 97.4009 292.549 99.2894 292.13 100.67C291.702 102.052 291.068 103.141 290.238 103.923C289.407 104.705 288.247 105.255 286.758 105.579L285.598 102.118C286.314 101.835 286.848 101.444 287.202 100.945C287.556 100.446 287.827 99.7636 288.008 98.9151C288.189 98.0665 288.387 96.6854 288.601 94.7802L289.851 84.2144H303.12V84.2061Z" fill="#202020"/>
<path d="M313.057 96.9937H317.401L315.229 87.784L313.057 96.9937ZM319.301 105.055L318.232 100.571H312.218L311.182 105.055H306.123L312.342 84.1982H318.265L324.484 105.055H319.309H319.301Z" fill="#202020"/>
</g>
<defs>
<filter id="filter0_d_4826_1665" x="0.625" y="0.943848" width="421.788" height="149.175" filterUnits="userSpaceOnUse" color-interpolation-filters="sRGB">
<feFlood flood-opacity="0" result="BackgroundImageFix"/>
<feColorMatrix in="SourceAlpha" type="matrix" values="0 0 0 0 0 0 0 0 0 0 0 0 0 0 0 0 0 0 127 0" result="hardAlpha"/>
<feOffset dy="4"/>
<feGaussianBlur stdDeviation="2"/>
<feComposite in2="hardAlpha" operator="out"/>
<feColorMatrix type="matrix" values="0 0 0 0 0 0 0 0 0 0 0 0 0 0 0 0 0 0 0.25 0"/>
<feBlend mode="normal" in2="BackgroundImageFix" result="effect1_dropShadow_4826_1665"/>
<feBlend mode="normal" in="SourceGraphic" in2="effect1_dropShadow_4826_1665" result="shape"/>
</filter>
<clipPath id="clip0_4826_1665">
<rect width="413.788" height="141.175" fill="white" transform="translate(4.625 0.943848)"/>
</clipPath>
</defs>
</svg>
