<svg width="372" height="172" viewBox="0 0 372 172" fill="none" xmlns="http://www.w3.org/2000/svg">
<g clip-path="url(#clip0_4826_2134)" filter="url(#filter0_d_4826_2134)">
<path d="M5.25098 163.062H83.6166V84.875L5.25098 163.062Z" fill="black"/>
<path d="M79.145 83.5161H12.4395L45.8101 116.851L79.145 83.5161Z" fill="black"/>
<path d="M36.8329 125.828L4.07031 93.7095V158.591L36.8329 125.828Z" fill="black"/>
<path d="M41.8403 37.1978L4.64259 0H4.07031V79.546H41.8403V37.1978Z" fill="black"/>
<path d="M64.4813 0H23.2061L43.8437 20.6376L64.4813 0Z" fill="black"/>
<path d="M83.0444 0L45.8467 37.1978V79.546H83.6167V0H83.0444Z" fill="black"/>
<path d="M167.168 44.8877H141.988V79.546H167.168V44.8877Z" fill="black"/>
<path d="M87.5869 79.5457H128.862V34.3719L87.5869 0.0712891V79.5457Z" fill="black"/>
<path d="M93.3096 0L130.758 31.5466H167.133V0H93.3096Z" fill="black"/>
<path d="M115.342 135.521L167.133 83.5161H87.5869V107.766L115.342 135.521Z" fill="black"/>
<path d="M106.114 163.062H167.133V103.188L106.114 163.062Z" fill="black"/>
<path d="M87.5869 113.382V163.062L112.481 138.311L87.5869 113.382Z" fill="black"/>
<path d="M193.063 15.9879C192.742 16.8821 192.42 17.5974 192.098 18.1697C191.776 18.7419 191.418 19.2069 191.096 19.5288C190.739 19.8507 190.381 20.1011 189.952 20.2442C189.558 20.3872 189.093 20.4588 188.628 20.4588H187.019V18.5273H188.235C188.736 18.5273 189.165 18.42 189.558 18.1697C189.952 17.9193 190.309 17.4543 190.631 16.739L191.025 15.7375L185.23 0.429199H187.341L189.594 6.58113L192.062 13.3769H192.169L194.852 6.295L197.069 0.429199H199.108L193.063 15.9879Z" fill="black"/>
<path d="M210.84 20.1729V13.8779H203.221V20.1729H201.362V6.04492H203.221V12.1253H210.84V6.04492H212.771V20.1729H210.84Z" fill="black"/>
<path d="M218.172 17.24C218.315 17.0254 218.53 16.7035 218.816 16.3101C219.102 15.9166 219.352 15.5232 219.674 15.094C219.96 14.6648 220.247 14.2356 220.533 13.8779C220.819 13.4845 220.998 13.1626 221.176 12.948L225.898 6.08069H227.65V20.2087H225.79V9.04936H225.683C225.54 9.26396 225.325 9.58586 225.039 9.9793C224.789 10.3727 224.503 10.8019 224.217 11.2311C223.931 11.6604 223.644 12.0896 223.358 12.483C223.072 12.8764 222.858 13.1983 222.714 13.4129C222.571 13.5918 222.393 13.8421 222.142 14.1998C221.892 14.5575 221.606 14.9509 221.32 15.4159C221.033 15.8451 220.711 16.3101 220.39 16.8108C220.068 17.3115 219.746 17.7765 219.424 18.2057C219.102 18.6349 218.852 19.0641 218.601 19.4218C218.351 19.7795 218.172 20.0656 218.065 20.2087H216.276V6.04492H218.136V17.24H218.172Z" fill="black"/>
<path d="M242.064 16.0597C242.064 16.5604 241.957 17.0969 241.778 17.5977C241.599 18.0984 241.313 18.5276 240.956 18.9211C240.598 19.3145 240.133 19.6364 239.596 19.851C239.06 20.0656 238.416 20.2087 237.701 20.2087H230.977V6.04492H237.558C238.309 6.04492 238.953 6.15222 239.489 6.36683C240.026 6.58143 240.455 6.86756 240.813 7.18947C241.17 7.54714 241.421 7.94058 241.599 8.40555C241.778 8.87052 241.85 9.33549 241.85 9.83623C241.85 10.3727 241.707 10.9092 241.421 11.4457C241.134 11.9823 240.634 12.4115 239.918 12.7334C240.312 12.9122 240.669 13.1268 240.92 13.3772C241.17 13.6275 241.421 13.9137 241.564 14.1998C241.742 14.5217 241.85 14.8079 241.921 15.1298C242.029 15.4517 242.064 15.7736 242.064 16.0597ZM239.918 9.83623C239.918 9.44279 239.847 9.12089 239.704 8.87052C239.561 8.62015 239.346 8.36978 239.131 8.22671C238.881 8.04788 238.631 7.94058 238.309 7.86904C237.987 7.79751 237.665 7.76174 237.307 7.76174H232.908V11.9107H237.45C238.13 11.9107 238.738 11.7319 239.203 11.41C239.668 11.0523 239.918 10.5516 239.918 9.83623ZM240.204 16.0597C240.204 15.702 240.133 15.3801 239.99 15.0582C239.847 14.7721 239.632 14.5217 239.418 14.3071C239.167 14.0925 238.917 13.9494 238.595 13.8064C238.273 13.6991 237.951 13.6275 237.593 13.6275H232.908V18.4919H237.415C238.309 18.4919 238.988 18.2773 239.489 17.8481C239.954 17.4904 240.204 16.8466 240.204 16.0597Z" fill="black"/>
<path d="M247.036 13.8417V14.9504C247.036 15.63 247.143 16.2023 247.358 16.6673C247.573 17.1322 247.859 17.5257 248.216 17.8118C248.574 18.0979 249.003 18.3125 249.468 18.4556C249.933 18.5987 250.434 18.6702 250.935 18.6702C251.543 18.6702 252.186 18.5629 252.83 18.3125C253.474 18.0979 254.082 17.7045 254.619 17.2038L255.799 18.4914C255.119 19.1709 254.368 19.6359 253.546 19.9221C252.687 20.2082 251.829 20.3513 250.899 20.3513C250.112 20.3513 249.361 20.244 248.646 20.0294C247.93 19.8148 247.358 19.4929 246.821 19.0636C246.321 18.6344 245.891 18.0979 245.605 17.4541C245.319 16.8103 245.14 16.0592 245.14 15.2008V11.338C245.14 10.5153 245.283 9.76421 245.57 9.08464C245.856 8.40506 246.249 7.83279 246.714 7.36782C247.215 6.90285 247.787 6.54517 248.502 6.29481C249.182 6.04444 249.933 5.90137 250.756 5.90137C251.578 5.90137 252.33 6.00867 253.009 6.25904C253.689 6.50941 254.261 6.86708 254.762 7.33205C255.262 7.79702 255.62 8.3693 255.906 9.0131C256.157 9.65691 256.3 10.3723 256.3 11.1949V13.8774H247.036V13.8417ZM254.44 11.4095C254.44 10.7299 254.333 10.1576 254.154 9.65691C253.939 9.19194 253.689 8.7985 253.331 8.4766C252.973 8.19046 252.58 7.94009 252.151 7.79702C251.722 7.65395 251.257 7.58242 250.792 7.58242C250.327 7.58242 249.862 7.65395 249.397 7.79702C248.932 7.94009 248.538 8.19046 248.216 8.4766C247.894 8.76273 247.608 9.15617 247.394 9.62114C247.179 10.0861 247.072 10.6584 247.072 11.3022V12.1964H254.44V11.4095Z" fill="black"/>
<path d="M261.021 6.08081L261.272 7.7261C261.88 7.33266 262.416 7.01076 262.917 6.79615C263.418 6.54579 263.847 6.36695 264.24 6.22388C264.634 6.08081 264.991 6.00928 265.278 5.93775C265.599 5.90198 265.886 5.86621 266.136 5.86621C267.495 5.86621 268.604 6.25965 269.462 7.08229C270.321 7.86917 270.75 9.12101 270.75 10.8378V15.3803C270.75 16.9898 270.321 18.2059 269.427 19.0643C268.532 19.9227 267.352 20.3519 265.778 20.3519C265.242 20.3519 264.598 20.2803 263.883 20.173C263.167 20.0657 262.273 19.7438 261.236 19.2431V25.8958H259.376V6.08081H261.021ZM261.307 17.4547C262.273 17.8839 263.096 18.2058 263.775 18.3847C264.455 18.5635 265.099 18.6351 265.707 18.6351C266.708 18.6351 267.495 18.3847 268.067 17.8482C268.64 17.3117 268.926 16.4533 268.926 15.2014V11.0882C268.926 9.83636 268.675 8.97795 268.139 8.47721C267.638 7.97647 266.923 7.7261 266.029 7.7261C265.743 7.7261 265.385 7.76187 265.027 7.86917C264.634 7.97647 264.24 8.08377 263.811 8.2626C263.382 8.44144 262.953 8.65604 262.523 8.87064C262.094 9.12101 261.665 9.37138 261.272 9.62175V17.4547H261.307Z" fill="black"/>
<path d="M279.548 5.86572C280.335 5.86572 281.122 5.97302 281.945 6.18763C282.767 6.40223 283.483 6.79567 284.091 7.43947L282.946 8.87016C282.338 8.36942 281.766 8.01175 281.229 7.86868C280.657 7.72561 280.156 7.65408 279.691 7.65408C279.262 7.65408 278.797 7.72561 278.368 7.86868C277.903 8.01175 277.51 8.22635 277.152 8.51249C276.794 8.79862 276.508 9.19206 276.293 9.6928C276.079 10.1935 275.972 10.7658 275.972 11.4454V14.8433C275.972 15.5228 276.079 16.1309 276.293 16.5958C276.508 17.0608 276.794 17.4543 277.152 17.7762C277.51 18.0623 277.903 18.2769 278.368 18.42C278.833 18.563 279.262 18.6346 279.727 18.6346C280.156 18.6346 280.693 18.563 281.337 18.3842C281.98 18.2054 282.517 17.9192 282.946 17.5258L284.126 18.8849C283.483 19.4572 282.803 19.8149 282.016 20.0652C281.229 20.2799 280.478 20.4229 279.691 20.4229C278.833 20.4229 278.082 20.3156 277.402 20.0652C276.723 19.8149 276.115 19.4572 275.65 19.028C275.185 18.563 274.791 18.0265 274.541 17.4185C274.291 16.8104 274.147 16.1309 274.147 15.3798V11.0519C274.147 10.2651 274.291 9.54973 274.577 8.90592C274.863 8.26212 275.256 7.72561 275.757 7.26064C276.258 6.79567 276.83 6.47376 277.51 6.22339C278.082 5.97302 278.797 5.86572 279.548 5.86572Z" fill="black"/>
<path d="M288.669 17.24C288.812 17.0254 289.027 16.7035 289.313 16.3101C289.599 15.9166 289.849 15.5232 290.171 15.094C290.457 14.6648 290.743 14.2356 291.029 13.8779C291.316 13.4845 291.494 13.1626 291.673 12.948L296.395 6.08069H298.147V20.2087H296.287V9.04936H296.18C296.037 9.26396 295.822 9.58586 295.536 9.9793C295.286 10.3727 295 10.8019 294.713 11.2311C294.427 11.6604 294.141 12.0896 293.855 12.483C293.569 12.8764 293.354 13.1983 293.211 13.4129C293.068 13.5918 292.889 13.8421 292.639 14.1998C292.389 14.5575 292.102 14.9509 291.816 15.4159C291.53 15.8451 291.208 16.3101 290.886 16.8108C290.565 17.3115 290.243 17.7765 289.921 18.2057C289.599 18.6349 289.348 19.0641 289.098 19.4218C288.848 19.7795 288.669 20.0656 288.562 20.2087H286.773V6.04492H288.633V17.24H288.669Z" fill="black"/>
<path d="M307.053 7.76138V20.1725H305.086V7.76138H300.508V6.00879H311.631V7.76138H307.053Z" fill="black"/>
<path d="M315.78 13.8417V14.9504C315.78 15.63 315.888 16.2023 316.102 16.6673C316.317 17.1322 316.603 17.5257 316.961 17.8118C317.318 18.0979 317.748 18.3125 318.213 18.4556C318.678 18.5987 319.178 18.6702 319.679 18.6702C320.287 18.6702 320.931 18.5629 321.575 18.3125C322.218 18.0979 322.827 17.7045 323.363 17.2038L324.543 18.4914C323.864 19.1709 323.113 19.6359 322.29 19.9221C321.432 20.2082 320.573 20.3513 319.643 20.3513C318.856 20.3513 318.105 20.244 317.39 20.0294C316.675 19.8148 316.102 19.4929 315.566 19.0636C315.065 18.6344 314.636 18.0979 314.35 17.4541C314.064 16.8103 313.885 16.0592 313.885 15.2008V11.338C313.885 10.5153 314.028 9.76421 314.314 9.08464C314.6 8.40506 314.994 7.83279 315.459 7.36782C315.959 6.90285 316.532 6.54517 317.247 6.29481C317.926 6.04444 318.678 5.90137 319.5 5.90137C320.323 5.90137 321.074 6.00867 321.754 6.25904C322.433 6.50941 323.005 6.86708 323.506 7.33205C324.007 7.79702 324.365 8.3693 324.651 9.0131C324.901 9.65691 325.044 10.3723 325.044 11.1949V13.8774H315.78V13.8417ZM323.184 11.4095C323.184 10.7299 323.077 10.1576 322.898 9.65691C322.683 9.19194 322.433 8.7985 322.075 8.4766C321.718 8.19046 321.324 7.94009 320.895 7.79702C320.466 7.65395 320.001 7.58242 319.536 7.58242C319.071 7.58242 318.606 7.65395 318.141 7.79702C317.676 7.94009 317.283 8.19046 316.961 8.4766C316.603 8.76273 316.353 9.15617 316.138 9.62114C315.923 10.0861 315.816 10.6584 315.816 11.3022V12.1964H323.22V11.4095H323.184Z" fill="black"/>
<path d="M333.628 7.76138V20.1725H331.696V7.76138H327.118V6.00879H338.242V7.76138H333.628Z" fill="black"/>
<path d="M198.643 49.2518V31.3325H188.449V49.2518H186.446V29.4727H200.717V49.2161H198.643V49.2518Z" fill="black"/>
<path d="M205.833 35.1238L206.083 36.7691C206.691 36.3756 207.228 36.0537 207.728 35.8391C208.229 35.5888 208.658 35.4099 209.052 35.2669C209.445 35.1238 209.803 35.0522 210.089 34.9807C210.411 34.9449 210.697 34.9092 210.947 34.9092C212.307 34.9092 213.415 35.3026 214.274 36.1253C215.132 36.9121 215.561 38.164 215.561 39.8808V44.4232C215.561 46.0327 215.132 47.2488 214.238 48.1072C213.344 48.9656 212.164 49.3948 210.59 49.3948C210.053 49.3948 209.409 49.3233 208.694 49.216C207.979 49.1087 207.085 48.7868 206.047 48.2861V54.9387H204.188V35.1238H205.833ZM206.083 46.4977C207.049 46.9269 207.872 47.2488 208.551 47.4277C209.231 47.6065 209.874 47.678 210.482 47.678C211.484 47.678 212.271 47.4277 212.843 46.8912C213.415 46.3546 213.702 45.4962 213.702 44.2444V40.1312C213.702 38.8793 213.451 38.0209 212.915 37.5202C212.414 37.0194 211.699 36.7691 210.804 36.7691C210.518 36.7691 210.161 36.8048 209.803 36.9121C209.409 37.0194 209.016 37.1267 208.587 37.3056C208.158 37.4844 207.728 37.699 207.299 37.9136C206.87 38.164 206.441 38.4144 206.047 38.6647V46.4977H206.083Z" fill="black"/>
<path d="M228.008 47.6775C226.756 48.3929 225.755 48.8578 224.968 49.0725C224.181 49.2871 223.501 49.3586 222.965 49.3586C221.641 49.3586 220.533 49.0009 219.71 48.2856C218.887 47.5702 218.494 46.5688 218.494 45.2454C218.494 44.4943 218.673 43.8505 218.995 43.314C219.317 42.7774 219.746 42.3482 220.246 42.0263C220.747 41.7044 221.284 41.4541 221.856 41.311C222.428 41.1679 222.965 41.0964 223.466 41.0964H228.079V39.8445C228.079 38.7358 227.793 37.9489 227.185 37.4124C226.577 36.9116 225.683 36.6255 224.503 36.6255C223.895 36.6255 223.251 36.697 222.536 36.8759C221.82 37.0547 221.105 37.4124 220.39 37.9489L219.46 36.5182C220.318 35.8744 221.176 35.4452 222.071 35.2306C222.929 35.016 223.787 34.9087 224.682 34.9087C226.577 34.9087 227.936 35.3379 228.759 36.1605C229.582 37.0189 229.975 38.1993 229.975 39.773V49.2155H228.33L228.079 47.7133L228.008 47.6775ZM228.044 42.7059H223.859C223.501 42.7059 223.144 42.7417 222.75 42.7774C222.357 42.8132 221.963 42.9563 221.641 43.1351C221.284 43.314 220.998 43.5643 220.783 43.922C220.568 44.2439 220.425 44.7089 220.425 45.2811C220.425 46.1396 220.711 46.7476 221.248 47.141C221.784 47.5345 222.464 47.7133 223.287 47.7133C223.68 47.7133 224.074 47.6418 224.503 47.5345C224.932 47.4272 225.361 47.2841 225.755 47.1053C226.184 46.9264 226.577 46.7476 226.971 46.533C227.364 46.3184 227.722 46.1395 228.044 45.9249V42.7059Z" fill="black"/>
<path d="M244.246 45.1027C244.246 45.6034 244.139 46.1399 243.96 46.6407C243.781 47.1414 243.495 47.5706 243.137 47.964C242.78 48.3575 242.315 48.6794 241.778 48.894C241.242 49.1086 240.598 49.2516 239.882 49.2516H233.158V35.0879H239.775C240.526 35.0879 241.17 35.1952 241.707 35.4098C242.243 35.6244 242.672 35.9105 243.03 36.2324C243.388 36.5901 243.638 36.9835 243.817 37.4485C243.996 37.9135 244.067 38.3785 244.067 38.8792C244.067 39.4157 243.924 39.9522 243.638 40.4887C243.352 41.0252 242.851 41.4544 242.136 41.7763C242.529 41.9552 242.887 42.1698 243.137 42.4201C243.388 42.6705 243.638 42.9566 243.781 43.2428C243.96 43.5647 244.067 43.8508 244.139 44.1727C244.21 44.4946 244.246 44.8165 244.246 45.1027ZM242.064 38.915C242.064 38.5215 241.993 38.1996 241.85 37.9493C241.707 37.6989 241.492 37.4485 241.277 37.3055C241.027 37.1266 240.777 37.0193 240.455 36.9478C240.133 36.8762 239.811 36.8405 239.453 36.8405H235.054V40.9895H239.596C240.276 40.9895 240.884 40.8106 241.349 40.4887C241.85 40.0953 242.064 39.5945 242.064 38.915ZM242.35 45.1027C242.35 44.745 242.279 44.4231 242.136 44.1012C241.993 43.8151 241.778 43.5647 241.563 43.3501C241.313 43.1355 241.063 42.9924 240.741 42.8493C240.419 42.742 240.097 42.6705 239.739 42.6705H235.054V47.5706H239.561C240.455 47.5706 241.134 47.356 241.635 46.9268C242.1 46.5334 242.35 45.9253 242.35 45.1027Z" fill="black"/>
<path d="M249.361 46.2825C249.504 46.0679 249.719 45.746 250.005 45.3526C250.291 44.9591 250.541 44.5657 250.863 44.1365C251.149 43.7073 251.435 43.2781 251.721 42.9204C252.008 42.527 252.186 42.2051 252.365 41.9904L257.087 35.1232H258.839V49.2512H256.943V38.0918H256.836C256.693 38.3064 256.479 38.6283 256.192 39.0218C255.942 39.4152 255.656 39.8444 255.37 40.2736C255.084 40.7028 254.797 41.132 254.511 41.5255C254.225 41.9189 254.011 42.2408 253.868 42.4554C253.724 42.6343 253.546 42.8846 253.295 43.2423C253.045 43.6 252.759 43.9934 252.473 44.4584C252.186 44.8876 251.865 45.3526 251.543 45.8533C251.221 46.354 250.899 46.819 250.577 47.2482C250.255 47.6774 250.005 48.1066 249.754 48.4643C249.504 48.822 249.325 49.1081 249.218 49.2512H247.429V35.0874H249.289V46.2825H249.361Z" fill="black"/>
<path d="M267.746 36.8043V49.2155H265.778V36.8043H261.2V35.0518H272.324V36.8043H267.746Z" fill="black"/>
<path d="M276.473 42.885V43.9938C276.473 44.6733 276.58 45.2456 276.795 45.7106C277.009 46.1756 277.295 46.569 277.653 46.8551C278.011 47.1413 278.44 47.3559 278.905 47.4989C279.37 47.642 279.871 47.7135 280.371 47.7135C280.979 47.7135 281.623 47.6062 282.267 47.3559C282.911 47.1413 283.519 46.7478 284.055 46.2471L285.236 47.5347C284.556 48.2143 283.805 48.6793 282.982 48.9654C282.124 49.2515 281.266 49.3946 280.336 49.3946C279.549 49.3946 278.798 49.2873 278.082 49.0727C277.367 48.8581 276.795 48.5362 276.258 48.107C275.757 47.6778 275.328 47.1413 275.042 46.4975C274.756 45.8537 274.577 45.1025 274.577 44.2441V40.4171C274.577 39.5944 274.72 38.8433 275.006 38.1637C275.292 37.4842 275.686 36.9119 276.151 36.4469C276.652 35.9819 277.224 35.6243 277.939 35.3739C278.619 35.1235 279.37 34.9805 280.193 34.9805C281.015 34.9805 281.766 35.0878 282.446 35.3381C283.125 35.5885 283.698 35.9462 284.198 36.4112C284.699 36.8761 285.057 37.4484 285.343 38.0922C285.593 38.736 285.736 39.4514 285.736 40.274V42.9565H276.473V42.885ZM283.877 40.4528C283.877 39.7733 283.769 39.201 283.59 38.7002C283.376 38.2353 283.125 37.8418 282.768 37.5199C282.41 37.2338 282.017 36.9834 281.588 36.8404C281.158 36.6973 280.693 36.6258 280.228 36.6258C279.763 36.6258 279.298 36.6973 278.833 36.8404C278.368 36.9834 277.975 37.2338 277.653 37.5199C277.331 37.8061 277.045 38.1995 276.83 38.6645C276.616 39.1294 276.509 39.7017 276.509 40.3455V41.2397H283.912V40.4528H283.877Z" fill="black"/>
<path d="M292.425 36.8046V41.3828C292.425 42.7062 292.318 43.8149 292.139 44.7449C291.96 45.6748 291.674 46.4259 291.28 47.0697C290.923 47.7135 290.493 48.2143 289.993 48.6077C289.492 49.0012 288.955 49.3588 288.347 49.6807L287.561 48.1785C288.061 47.9281 288.491 47.6062 288.848 47.3201C289.206 46.9982 289.528 46.6048 289.778 46.0683C290.028 45.5675 290.243 44.8879 290.35 44.1011C290.458 43.3142 290.529 42.3127 290.529 41.0609V35.1235H300.008V49.2158H298.148V36.7688H292.425V36.8046Z" fill="black"/>
<path d="M305.516 40.9895H309.772C310.559 40.9895 311.274 41.0968 311.846 41.3114C312.419 41.526 312.919 41.8121 313.313 42.2055C313.706 42.5632 313.992 43.0282 314.171 43.4932C314.35 43.9939 314.457 44.5304 314.457 45.0669C314.457 46.3545 314.028 47.3918 313.205 48.1071C312.383 48.8582 311.202 49.2159 309.665 49.2159H303.691V35.0879H305.551V40.9895H305.516ZM312.597 45.0669C312.597 44.4231 312.383 43.8508 311.918 43.3501C311.453 42.8493 310.738 42.6347 309.7 42.6347H305.551V47.5348H309.7C310.63 47.5348 311.346 47.3202 311.846 46.9268C312.347 46.5334 312.597 45.8895 312.597 45.0669Z" fill="black"/>
<path d="M322.362 34.9092C323.149 34.9092 323.936 35.0165 324.758 35.2311C325.581 35.4457 326.296 35.8391 326.904 36.4829L325.76 37.9136C325.152 37.4129 324.579 37.0552 324.043 36.9121C323.471 36.7691 322.97 36.6975 322.505 36.6975C322.076 36.6975 321.611 36.7691 321.181 36.9121C320.716 37.0552 320.323 37.2698 319.965 37.5559C319.608 37.8421 319.322 38.2355 319.107 38.7363C318.892 39.237 318.785 39.8093 318.785 40.4888V43.8867C318.785 44.5663 318.892 45.1743 319.107 45.6393C319.322 46.1043 319.608 46.4977 319.965 46.8196C320.323 47.1057 320.716 47.3204 321.181 47.4634C321.646 47.6065 322.076 47.678 322.541 47.678C322.97 47.678 323.506 47.6065 324.15 47.4277C324.794 47.2488 325.33 46.9627 325.76 46.5692L326.94 47.9284C326.296 48.5007 325.617 48.8583 324.83 49.1087C324.043 49.3233 323.292 49.4664 322.505 49.4664C321.646 49.4664 320.895 49.3591 320.216 49.1087C319.536 48.8583 318.928 48.5007 318.463 48.0715C317.998 47.6065 317.605 47.07 317.354 46.4619C317.104 45.8539 316.961 45.1743 316.961 44.4232V40.2027C316.961 39.4158 317.104 38.7005 317.39 38.0567C317.676 37.4129 318.07 36.8764 318.57 36.4114C319.071 35.9464 319.643 35.6245 320.323 35.3742C320.895 35.0165 321.611 34.9092 322.362 34.9092Z" fill="black"/>
<path d="M334.987 36.8043V49.2155H333.02V36.8043H328.441V35.0518H339.565V36.8043H334.987Z" fill="black"/>
<path d="M352.906 45.1027C352.906 45.6034 352.799 46.1399 352.62 46.6407C352.441 47.1414 352.155 47.5706 351.797 47.964C351.44 48.3575 350.975 48.6794 350.438 48.894C349.902 49.1086 349.258 49.2516 348.543 49.2516H341.818V35.0879H348.4C349.151 35.0879 349.794 35.1952 350.331 35.4098C350.867 35.6244 351.297 35.9105 351.654 36.2324C352.012 36.5901 352.262 36.9835 352.441 37.4485C352.62 37.9135 352.692 38.3785 352.692 38.8792C352.692 39.4157 352.548 39.9522 352.262 40.4887C351.976 41.0252 351.475 41.4544 350.76 41.7763C351.154 41.9552 351.511 42.1698 351.762 42.4201C352.012 42.6705 352.262 42.9566 352.405 43.2428C352.584 43.5647 352.692 43.8508 352.763 44.1727C352.87 44.4946 352.906 44.8165 352.906 45.1027ZM350.724 38.915C350.724 38.5215 350.653 38.1996 350.51 37.9493C350.367 37.6989 350.152 37.4485 349.937 37.3055C349.687 37.1266 349.437 37.0193 349.115 36.9478C348.793 36.8762 348.471 36.8405 348.113 36.8405H343.714V40.9895H348.256C348.936 40.9895 349.544 40.8106 350.009 40.4887C350.474 40.0953 350.724 39.5945 350.724 38.915ZM351.011 45.1027C351.011 44.745 350.939 44.4231 350.796 44.1012C350.653 43.8151 350.438 43.5647 350.224 43.3501C349.973 43.1355 349.723 42.9924 349.401 42.8493C349.079 42.742 348.757 42.6705 348.4 42.6705H343.714V47.5706H348.221C349.115 47.5706 349.794 47.356 350.295 46.9268C350.76 46.5334 351.011 45.9253 351.011 45.1027Z" fill="black"/>
<path d="M365.139 47.6775C363.887 48.3929 362.885 48.8578 362.099 49.0725C361.312 49.2871 360.632 49.3586 360.096 49.3586C358.772 49.3586 357.663 49.0009 356.841 48.2856C356.018 47.5702 355.625 46.5688 355.625 45.2454C355.625 44.4943 355.804 43.8505 356.125 43.314C356.447 42.7774 356.877 42.3482 357.377 42.0263C357.878 41.7044 358.415 41.4541 358.987 41.311C359.559 41.1679 360.096 41.0964 360.596 41.0964H365.21V39.8445C365.21 38.7358 364.924 37.9489 364.316 37.4124C363.708 36.9116 362.814 36.6255 361.634 36.6255C361.026 36.6255 360.382 36.697 359.666 36.8759C358.951 37.0547 358.236 37.4124 357.52 37.9489L356.59 36.5182C357.449 35.8744 358.307 35.4452 359.201 35.2306C360.06 35.016 360.918 34.9087 361.812 34.9087C363.708 34.9087 365.067 35.3379 365.89 36.1605C366.713 37.0189 367.106 38.1993 367.106 39.773V49.2155H365.496L365.246 47.7133L365.139 47.6775ZM365.21 42.7059H361.026C360.668 42.7059 360.31 42.7417 359.917 42.7774C359.523 42.8132 359.13 42.9563 358.808 43.1351C358.45 43.314 358.164 43.5643 357.95 43.922C357.735 44.2439 357.592 44.7089 357.592 45.2811C357.592 46.1396 357.878 46.7476 358.415 47.141C358.951 47.5345 359.631 47.7133 360.453 47.7133C360.847 47.7133 361.24 47.6418 361.669 47.5345C362.099 47.4272 362.528 47.2841 362.921 47.1053C363.35 46.9264 363.744 46.7476 364.137 46.533C364.531 46.3184 364.888 46.1395 365.21 45.9249V42.7059Z" fill="black"/>
<path d="M195.46 72.7142L202.185 58.5146H204.044V78.2581H202.041V63.2717H201.97L196.176 75.2179H194.602L188.736 63.4505H188.629L188.522 78.2581H186.519V58.5146H188.486L195.353 72.7142H195.46Z" fill="black"/>
<path d="M219.066 73.2866C219.066 74.0735 218.923 74.8246 218.637 75.4684C218.351 76.1122 217.957 76.6487 217.421 77.0779C216.92 77.5071 216.312 77.8648 215.597 78.0794C214.881 78.294 214.13 78.4371 213.308 78.4371C212.485 78.4371 211.734 78.3298 211.019 78.0794C210.303 77.8648 209.731 77.5071 209.194 77.0779C208.694 76.613 208.3 76.0765 208.014 75.4684C207.728 74.8246 207.585 74.1093 207.585 73.3224V69.1376C207.585 68.3508 207.728 67.6354 208.05 66.9916C208.372 66.3478 208.765 65.8113 209.266 65.3821C209.767 64.9529 210.375 64.5952 211.09 64.3806C211.805 64.1303 212.521 64.0229 213.308 64.0229C214.13 64.0229 214.881 64.1303 215.597 64.3806C216.312 64.631 216.884 64.9529 217.385 65.3821C217.886 65.8113 218.279 66.3478 218.565 66.9916C218.852 67.6354 218.995 68.3508 218.995 69.1376V73.2866H219.066ZM217.206 69.4953C217.206 68.8157 217.099 68.2435 216.849 67.7427C216.634 67.2778 216.312 66.8843 215.954 66.5624C215.597 66.2405 215.168 66.0259 214.703 65.9186C214.238 65.7755 213.808 65.704 213.379 65.704C212.914 65.704 212.449 65.7755 211.984 65.9186C211.519 66.0617 211.09 66.2763 210.732 66.5624C210.375 66.8843 210.053 67.242 209.838 67.7427C209.624 68.2077 209.481 68.8157 209.481 69.4953V72.8574C209.481 73.537 209.588 74.145 209.803 74.61C210.017 75.1107 210.303 75.5042 210.661 75.7903C211.019 76.1122 211.412 76.3268 211.913 76.4341C212.378 76.5772 212.878 76.6487 213.379 76.6487C213.844 76.6487 214.309 76.5772 214.774 76.4341C215.239 76.2911 215.633 76.0764 215.99 75.7903C216.348 75.5042 216.634 75.1107 216.884 74.61C217.099 74.1093 217.206 73.537 217.206 72.8574V69.4953Z" fill="black"/>
<path d="M227.83 63.9517C228.616 63.9517 229.403 64.059 230.226 64.2736C231.049 64.4882 231.764 64.8816 232.372 65.5254L231.227 66.9561C230.619 66.4554 230.047 66.0977 229.511 65.9546C228.938 65.8115 228.438 65.74 227.973 65.74C227.543 65.74 227.078 65.8115 226.649 65.9546C226.184 66.0977 225.791 66.3123 225.433 66.5984C225.075 66.8846 224.789 67.278 224.575 67.7787C224.36 68.2795 224.253 68.8517 224.253 69.5313V72.9292C224.253 73.6088 224.36 74.2168 224.575 74.6818C224.789 75.1468 225.075 75.5402 225.433 75.8621C225.791 76.1482 226.184 76.3628 226.649 76.5059C227.114 76.649 227.543 76.7205 228.008 76.7205C228.438 76.7205 228.974 76.649 229.618 76.4701C230.262 76.2913 230.798 76.0052 231.227 75.6117L232.408 76.9709C231.764 77.5431 231.084 77.9008 230.297 78.1512C229.511 78.3658 228.759 78.5089 227.973 78.5089C227.114 78.5089 226.363 78.4016 225.684 78.1512C225.004 77.9008 224.396 77.5431 223.931 77.1139C223.466 76.649 223.073 76.1125 222.822 75.5044C222.572 74.8964 222.429 74.2168 222.429 73.4657V69.2452C222.429 68.4583 222.572 67.743 222.858 67.0992C223.144 66.4554 223.537 65.9188 224.038 65.4539C224.539 64.9889 225.111 64.667 225.791 64.4166C226.363 64.059 227.078 63.9517 227.83 63.9517Z" fill="black"/>
<path d="M235.197 78.2943V64.1305H237.057V70.2824H240.133C240.383 70.2824 240.669 70.2467 240.92 70.2109C241.17 70.1751 241.42 70.0678 241.671 69.9248C241.921 69.7817 242.136 69.5671 242.315 69.3167C242.529 69.0664 242.708 68.7087 242.851 68.2437L244.353 64.0947H246.285L244.818 68.1722C244.568 68.8517 244.318 69.424 244.031 69.9248C243.745 70.3897 243.316 70.7116 242.78 70.8547C243.459 70.9978 243.924 71.3554 244.21 71.8562C244.496 72.3569 244.747 72.965 244.997 73.6803L246.535 78.2943H244.568L243.209 74.1095C243.066 73.6445 242.887 73.2869 242.708 73.0007C242.529 72.7146 242.315 72.5 242.1 72.3569C241.885 72.1781 241.599 72.1065 241.349 72.035C241.063 71.9992 240.777 71.9635 240.455 71.9635H237.128V78.2943H235.197Z" fill="black"/>
<path d="M260.269 74.145C260.269 74.6458 260.162 75.1823 259.983 75.683C259.804 76.1838 259.518 76.613 259.161 77.0064C258.803 77.3998 258.338 77.7217 257.802 77.9363C257.265 78.1509 256.621 78.294 255.906 78.294H249.182V64.166H255.763C256.514 64.166 257.158 64.2733 257.694 64.4879C258.231 64.7025 258.66 64.9887 259.018 65.3106C259.375 65.6682 259.626 66.0617 259.804 66.5266C259.983 66.9916 260.055 67.4566 260.055 67.9573C260.055 68.4938 259.912 69.0303 259.626 69.5668C259.339 70.1034 258.839 70.5326 258.123 70.8545C258.517 71.0333 258.875 71.2479 259.125 71.4983C259.375 71.7486 259.626 72.0348 259.769 72.3209C259.948 72.6428 260.055 72.929 260.126 73.2509C260.234 73.5728 260.269 73.8589 260.269 74.145ZM258.088 67.9573C258.088 67.5639 258.016 67.242 257.873 66.9916C257.73 66.7412 257.515 66.4909 257.301 66.3478C257.05 66.169 256.8 66.0617 256.478 65.9901C256.156 65.9186 255.834 65.8828 255.477 65.8828H251.077V70.0318H255.62C256.299 70.0318 256.907 69.853 257.372 69.5311C257.837 69.1376 258.088 68.6369 258.088 67.9573ZM258.374 74.145C258.374 73.7874 258.302 73.4655 258.159 73.1436C258.016 72.8574 257.802 72.607 257.587 72.3924C257.337 72.1778 257.086 72.0348 256.764 71.8917C256.442 71.7844 256.12 71.7129 255.763 71.7129H251.077V76.5772H255.584C256.478 76.5772 257.158 76.3626 257.658 75.9334C258.123 75.5757 258.374 74.9677 258.374 74.145Z" fill="black"/>
<path d="M265.277 70.0321H269.534C270.32 70.0321 271.036 70.1394 271.608 70.354C272.18 70.5686 272.681 70.8547 273.074 71.2481C273.468 71.6058 273.754 72.0708 273.933 72.5358C274.112 73.0365 274.219 73.573 274.219 74.1095C274.219 75.3971 273.79 76.4344 272.967 77.1497C272.145 77.9008 270.964 78.2585 269.426 78.2585H263.453V64.0947H265.313V70.0321H265.277ZM272.323 74.1095C272.323 73.4657 272.109 72.8934 271.644 72.3927C271.179 71.8919 270.463 71.6773 269.426 71.6773H265.277V76.5774H269.426C270.356 76.5774 271.072 76.3628 271.572 75.9694C272.073 75.576 272.323 74.9321 272.323 74.1095ZM275.685 78.2943V64.1663H277.474V78.2943H275.685Z" fill="black"/>
</g>
<defs>
<filter id="filter0_d_4826_2134" x="0.0703125" y="0" width="371" height="171.062" filterUnits="userSpaceOnUse" color-interpolation-filters="sRGB">
<feFlood flood-opacity="0" result="BackgroundImageFix"/>
<feColorMatrix in="SourceAlpha" type="matrix" values="0 0 0 0 0 0 0 0 0 0 0 0 0 0 0 0 0 0 127 0" result="hardAlpha"/>
<feOffset dy="4"/>
<feGaussianBlur stdDeviation="2"/>
<feComposite in2="hardAlpha" operator="out"/>
<feColorMatrix type="matrix" values="0 0 0 0 0 0 0 0 0 0 0 0 0 0 0 0 0 0 0.25 0"/>
<feBlend mode="normal" in2="BackgroundImageFix" result="effect1_dropShadow_4826_2134"/>
<feBlend mode="normal" in="SourceGraphic" in2="effect1_dropShadow_4826_2134" result="shape"/>
</filter>
<clipPath id="clip0_4826_2134">
<rect width="363" height="163.062" fill="white" transform="translate(4.07031)"/>
</clipPath>
</defs>
</svg>
