<svg width="507" height="149" viewBox="0 0 507 149" fill="none" xmlns="http://www.w3.org/2000/svg">
<g clip-path="url(#clip0_4826_1770)" filter="url(#filter0_d_4826_1770)">
<path d="M159.213 52.5444H156.602V36.5884H159.213L164.58 43.8411L169.947 36.5884H172.558V52.5444H169.947V40.3598L165.305 46.4521H163.71L159.068 40.3598L159.213 52.5444Z" fill="#202020"/>
<path d="M179.086 52.5444H176.765V36.5884H179.376V48.3378L188.514 36.5884H190.835V52.5444H188.224V40.795L179.086 52.5444Z" fill="#202020"/>
<path d="M197.508 52.5444H194.897V36.5884H197.508V42.9708H206.211V36.5884H208.822V52.5444H206.211V45.1466H197.508V52.5444Z" fill="#202020"/>
<path d="M215.205 52.5444H213.029V36.5884H215.64V48.3378L224.778 36.5884H227.099V52.5444H224.488V40.795L215.205 52.5444Z" fill="#202020"/>
<path d="M239.139 52.8346C236.673 52.8346 234.497 52.1094 232.901 50.5137C231.161 48.9181 230.435 46.8874 230.435 44.5665C230.435 42.1005 231.306 40.2148 232.901 38.6192C234.642 37.0236 236.673 36.2983 239.139 36.2983C240.879 36.2983 242.33 36.7335 243.635 37.3137V39.7797C242.33 38.9093 240.879 38.4742 239.139 38.4742C237.398 38.4742 235.947 39.0544 234.787 40.2148C233.627 41.3753 233.046 42.6808 233.046 44.4214C233.046 46.1621 233.627 47.6126 234.787 48.628C235.947 49.7885 237.398 50.3687 239.284 50.3687C241.169 50.3687 242.765 49.9335 244.07 48.9181V51.3841C242.475 52.3995 240.879 52.8346 239.139 52.8346Z" fill="#202020"/>
<path d="M246.101 38.9093V36.5884H259.736V38.9093H254.224V52.6895H251.613V38.9093H246.101Z" fill="#202020"/>
<path d="M274.677 52.5444H262.492V36.5884H274.387V38.9093H265.103V42.9708H272.646V45.2917H265.103V50.2236H274.677V52.5444Z" fill="#202020"/>
<path d="M280.044 52.5444H277.578V36.5884H284.831C286.572 36.5884 288.022 37.0235 288.893 37.8939C289.908 38.7642 290.488 39.9246 290.488 41.2301C290.488 42.5356 289.908 43.6961 288.893 44.7115C287.877 45.5818 286.572 46.017 284.831 46.017H280.189V52.5444H280.044ZM280.044 38.9093V43.6961H284.396C285.411 43.6961 286.137 43.406 286.717 43.1159C287.297 42.6807 287.587 42.1005 287.587 41.3752C287.587 40.6499 287.297 40.0697 286.717 39.6345C286.137 39.1994 285.411 39.0543 284.396 39.0543L280.044 38.9093Z" fill="#202020"/>
<path d="M301.367 52.8346C298.901 52.8346 296.725 52.1094 295.13 50.5137C293.389 48.9181 292.664 46.8874 292.664 44.5665C292.664 42.1005 293.534 40.2148 295.13 38.6192C296.87 37.0236 298.901 36.2983 301.367 36.2983C303.108 36.2983 304.558 36.7335 305.864 37.3137V39.7797C304.558 38.9093 303.108 38.4742 301.367 38.4742C299.626 38.4742 298.176 39.0544 297.015 40.2148C295.855 41.3753 295.275 42.6808 295.275 44.4214C295.275 46.1621 295.855 47.6126 297.015 48.628C298.176 49.7885 299.626 50.3687 301.512 50.3687C303.398 50.3687 304.993 49.9335 306.299 48.9181V51.3841C304.848 52.3995 303.253 52.8346 301.367 52.8346Z" fill="#202020"/>
<path d="M308.33 38.9093V36.5884H321.965V38.9093H316.453V52.6895H313.842V38.9093H308.33Z" fill="#202020"/>
<path d="M332.844 52.5444H324.721V36.5884H332.264C333.859 36.5884 334.875 37.0235 335.89 37.6038C336.761 38.329 337.196 39.3444 337.196 40.5049C337.196 41.2301 336.906 41.9554 336.615 42.5356C336.18 43.1159 335.745 43.551 335.02 43.6961C336.035 43.8411 336.906 44.4214 337.486 45.1466C338.066 45.8719 338.501 46.8873 338.501 48.0477C338.501 49.3532 337.921 50.5137 336.906 51.384C336.035 52.1093 334.73 52.5444 332.844 52.5444ZM327.332 38.9093V42.9708H331.829C332.699 42.9708 333.424 42.8257 333.859 42.3906C334.295 41.9554 334.585 41.5203 334.585 40.795C334.585 40.0697 334.295 39.6345 333.859 39.1994C333.424 38.7642 332.699 38.6192 331.829 38.6192H327.332V38.9093ZM327.332 45.1466V50.2236H332.409C333.424 50.2236 334.295 49.9334 334.73 49.4983C335.31 49.0631 335.6 48.4829 335.6 47.6126C335.6 46.8873 335.31 46.3071 334.73 45.7269C334.15 45.2917 333.424 45.1466 332.409 45.1466H327.332Z" fill="#202020"/>
<path d="M355.618 50.5137C354.022 52.1094 351.991 52.8346 349.525 52.8346C347.059 52.8346 345.029 52.1094 343.433 50.5137C341.837 48.9181 341.112 46.8874 341.112 44.5665C341.112 42.2456 341.837 40.2148 343.433 38.7643C345.029 37.1687 347.059 36.2983 349.525 36.2983C351.991 36.2983 354.022 37.1687 355.618 38.7643C357.213 40.3599 358.084 42.3907 358.084 44.5665C358.084 46.7423 357.213 48.9181 355.618 50.5137ZM345.464 48.7731C346.624 49.9335 347.93 50.5137 349.525 50.5137C351.121 50.5137 352.571 49.9335 353.587 48.7731C354.747 47.6126 355.327 46.1621 355.327 44.5665C355.327 42.8258 354.747 41.3753 353.587 40.3599C352.426 39.1994 351.121 38.6192 349.525 38.6192C347.93 38.6192 346.479 39.1994 345.464 40.3599C344.303 41.5203 343.723 42.8258 343.723 44.5665C343.723 46.3071 344.303 47.6126 345.464 48.7731Z" fill="#202020"/>
<path d="M370.413 52.5444H367.802V36.5884H370.413V42.9708H379.117V36.5884H381.728V52.5444H379.117V45.1466H370.413V52.5444Z" fill="#202020"/>
<path d="M387.095 52.5445H384.339L391.592 36.4434H394.057L401.31 52.5445H398.554L396.668 48.628H388.835L387.095 52.5445ZM392.897 39.6346L389.851 46.3071H395.943L392.897 39.6346Z" fill="#202020"/>
<path d="M406.387 52.8346C405.371 52.8346 404.501 52.6895 404.066 52.3994V50.0785C404.646 50.3687 405.226 50.5137 405.952 50.5137C406.677 50.5137 407.112 50.3687 407.692 49.9335C408.128 49.6434 408.563 48.9181 409.143 47.7577L402.615 36.4434H405.662L410.594 45.1467L414.655 36.4434H417.411L411.319 49.0632C410.013 51.6742 408.418 52.8346 406.387 52.8346Z" fill="#202020"/>
<path d="M422.488 52.5444H419.877V36.5884H422.488V43.1159L429.306 36.5884H432.642L424.954 43.8411L433.948 52.5444H430.466L422.633 44.8565V52.5444H422.488Z" fill="#202020"/>
<path d="M438.589 52.5449H436.413V36.5889H439.024V48.3383L448.163 36.5889H450.484V52.5449H447.873V40.7955L438.589 52.5449Z" fill="#202020"/>
<path d="M158.923 80.2495H156.747V64.2935H159.358V76.0429L168.497 64.2935H170.817V80.2495H168.206V68.5001L158.923 80.2495Z" fill="#202020"/>
<path d="M189.239 80.2495H181.116V64.2935H188.659C190.255 64.2935 191.27 64.7286 192.286 65.3088C193.156 66.0341 193.591 67.0495 193.591 68.2099C193.591 68.9352 193.301 69.6605 193.011 70.2407C192.721 70.8209 192.141 71.2561 191.415 71.4012C192.431 71.5462 193.301 72.1264 193.881 72.8517C194.461 73.577 194.897 74.5924 194.897 75.7528C194.897 77.0583 194.316 78.2187 193.301 79.0891C192.286 79.8144 190.98 80.2495 189.239 80.2495ZM183.727 66.4693V70.5308H188.224C189.094 70.5308 189.82 70.3858 190.255 69.9506C190.69 69.5154 190.98 69.0803 190.98 68.355C190.98 67.6297 190.69 67.1946 190.255 66.7594C189.82 66.3242 189.094 66.1792 188.224 66.1792H183.727V66.4693ZM183.727 72.8517V77.9286H188.804C189.82 77.9286 190.69 77.6385 191.125 77.2034C191.705 76.7682 191.995 76.188 191.995 75.3176C191.995 74.5924 191.705 74.0121 191.125 73.4319C190.545 72.9968 189.82 72.8517 188.804 72.8517H183.727Z" fill="#202020"/>
<path d="M204.47 80.2495H198.088V64.2935H200.699V69.8056H204.47C206.356 69.8056 207.952 70.2407 209.112 71.2561C210.272 72.2715 210.853 73.4319 210.853 75.0275C210.853 76.6231 210.272 77.7836 209.112 78.799C207.806 79.8144 206.356 80.2495 204.47 80.2495ZM200.699 72.1264V77.9286H204.325C205.486 77.9286 206.356 77.6385 207.081 77.2034C207.806 76.7682 208.097 76.0429 208.097 75.0275C208.097 74.0121 207.806 73.2869 207.081 72.8517C206.356 72.4165 205.486 72.1264 204.325 72.1264H200.699ZM215.494 80.2495H212.883V64.2935H215.494V80.2495Z" fill="#202020"/>
<path d="M227.534 80.5402C225.068 80.5402 222.893 79.8149 221.297 78.2193C219.556 76.6237 218.831 74.5929 218.831 72.272C218.831 69.8061 219.701 67.9204 221.297 66.3248C223.038 64.7292 225.068 64.0039 227.534 64.0039C229.275 64.0039 230.726 64.4391 232.031 65.0193V67.4852C230.726 66.6149 229.275 66.1797 227.534 66.1797C225.794 66.1797 224.343 66.76 223.183 67.9204C222.022 69.0808 221.442 70.3863 221.442 72.127C221.442 73.8677 222.022 75.3182 223.183 76.3336C224.343 77.494 225.794 78.0743 227.679 78.0743C229.565 78.0743 231.161 77.6391 232.466 76.6237V79.0896C231.016 80.105 229.42 80.5402 227.534 80.5402Z" fill="#202020"/>
<path d="M255.965 80.2495H235.657V64.2935H238.268V78.0737H244.505V64.2935H247.116V78.0737H253.354V64.2935H255.965V80.2495Z" fill="#202020"/>
<path d="M272.066 80.2495H259.881V64.2935H271.776V66.6143H262.492V70.5308H270.035V72.8517H262.492V77.9286H272.066V80.2495Z" fill="#202020"/>
<path d="M277.578 80.2495H274.967V64.2935H286.717V66.6143H277.578V80.2495Z" fill="#202020"/>
<path d="M302.818 78.2193C301.222 79.8149 299.191 80.5402 296.725 80.5402C294.259 80.5402 292.229 79.8149 290.633 78.2193C289.037 76.6237 288.312 74.5929 288.312 72.272C288.312 69.9512 289.037 67.9204 290.633 66.4698C292.229 64.8742 294.259 64.0039 296.725 64.0039C299.191 64.0039 301.222 64.8742 302.818 66.4698C304.413 68.0655 305.283 70.0962 305.283 72.272C305.283 74.4479 304.413 76.6237 302.818 78.2193ZM292.519 76.4786C293.679 77.6391 294.985 78.2193 296.58 78.2193C298.176 78.2193 299.626 77.6391 300.642 76.4786C301.802 75.3182 302.382 73.8677 302.382 72.272C302.382 70.5314 301.802 69.0808 300.642 68.0654C299.481 66.905 298.176 66.3248 296.58 66.3248C294.985 66.3248 293.534 66.905 292.519 68.0654C291.358 69.2259 290.778 70.5314 290.778 72.272C290.923 74.0127 291.358 75.3182 292.519 76.4786Z" fill="#202020"/>
<path d="M328.928 78.2193C327.332 79.8149 325.301 80.5402 322.835 80.5402C320.37 80.5402 318.339 79.8149 316.743 78.2193C315.148 76.6237 314.422 74.5929 314.422 72.272C314.422 69.9512 315.148 67.9204 316.743 66.4698C318.339 64.8742 320.37 64.0039 322.835 64.0039C325.301 64.0039 327.332 64.8742 328.928 66.4698C330.523 68.0655 331.394 70.0962 331.394 72.272C331.394 74.4479 330.523 76.6237 328.928 78.2193ZM318.629 76.4786C319.789 77.6391 321.095 78.2193 322.69 78.2193C324.286 78.2193 325.737 77.6391 326.752 76.4786C327.912 75.3182 328.493 73.8677 328.493 72.272C328.493 70.5314 327.912 69.0808 326.752 68.0654C325.591 66.905 324.286 66.3248 322.69 66.3248C321.095 66.3248 319.644 66.905 318.629 68.0654C317.468 69.2259 316.888 70.5314 316.888 72.272C317.033 74.0127 317.613 75.3182 318.629 76.4786Z" fill="#202020"/>
<path d="M341.693 80.2495H334.73V64.2935H346.479V66.6143H337.341V69.9506H341.838C343.723 69.9506 345.174 70.3858 346.334 71.4012C347.35 72.2715 348.075 73.577 348.075 75.1726C348.075 76.7682 347.495 77.9286 346.334 78.944C345.174 79.8144 343.578 80.2495 341.693 80.2495ZM337.196 72.2715V77.9286H341.403C342.563 77.9286 343.433 77.6385 344.159 77.2034C344.739 76.6231 345.174 76.0429 345.174 75.1726C345.174 74.3023 344.884 73.577 344.159 72.9968C343.433 72.4165 342.563 72.2715 341.403 72.2715H337.196Z" fill="#202020"/>
<path d="M353.442 80.2495H350.831V64.2935H357.939C359.679 64.2935 361.13 64.7286 362 65.5989C363.015 66.4693 363.596 67.6297 363.596 68.9352C363.596 70.2407 363.015 71.4012 362 72.4165C360.985 73.2869 359.679 73.722 357.939 73.722H353.297V80.2495H353.442ZM353.442 66.4693V71.2561H357.793C358.809 71.2561 359.534 70.966 360.114 70.6759C360.695 70.3858 360.985 69.6605 360.985 68.9352C360.985 68.2099 360.695 67.6297 360.114 67.1946C359.534 66.7594 358.809 66.6143 357.793 66.6143L353.442 66.4693Z" fill="#202020"/>
<path d="M366.062 80.25H363.306L370.558 64.1489H373.024L380.277 80.25H377.666L375.78 76.3336H367.947L366.062 80.25ZM371.864 67.1951L368.818 73.8676H374.91L371.864 67.1951Z" fill="#202020"/>
<path d="M388.255 80.5397C385.934 80.5397 384.048 80.1046 382.453 79.2342V76.7683C383.178 77.2035 384.049 77.6386 385.064 77.7837C386.079 78.0738 386.95 78.2189 387.965 78.2189C389.27 78.2189 390.431 77.9287 391.301 77.4936C392.172 76.9134 392.462 76.3331 392.462 75.4628C392.462 74.7375 392.027 74.1573 391.301 73.5771C390.576 73.1419 389.561 72.8518 388.255 72.8518H386.369V70.5309H388.69C389.706 70.5309 390.576 70.2408 391.011 69.9507C391.591 69.5155 391.881 69.0804 391.881 68.3551C391.881 67.6298 391.591 67.1947 390.866 66.7595C390.286 66.3243 389.27 66.1793 388.255 66.1793C386.514 66.1793 384.774 66.6144 383.178 67.3397V65.0188C384.774 64.1485 386.514 63.8584 388.4 63.8584C390.286 63.8584 391.736 64.2936 392.752 65.0188C393.912 65.7441 394.492 66.9046 394.492 68.2101C394.492 69.0804 394.202 69.8057 393.622 70.3859C393.042 70.9661 392.462 71.4013 391.881 71.5463C392.752 71.8364 393.477 72.2716 394.202 72.9969C394.928 73.7221 395.218 74.5925 395.218 75.6079C395.218 77.0584 394.638 78.2189 393.332 79.2342C391.881 80.1046 390.286 80.5397 388.255 80.5397Z" fill="#202020"/>
<path d="M412.189 78.2193C410.593 79.8149 408.563 80.5402 406.097 80.5402C403.631 80.5402 401.6 79.8149 400.004 78.2193C398.409 76.6237 397.684 74.5929 397.684 72.272C397.684 69.9512 398.409 67.9204 400.004 66.4698C401.6 64.8742 403.631 64.0039 406.097 64.0039C408.563 64.0039 410.593 64.8742 412.189 66.4698C413.785 68.0655 414.655 70.0962 414.655 72.272C414.655 74.4479 413.785 76.6237 412.189 78.2193ZM401.89 76.4786C403.051 77.6391 404.356 78.2193 405.952 78.2193C407.547 78.2193 408.998 77.6391 410.013 76.4786C411.174 75.3182 411.754 73.8677 411.754 72.272C411.754 70.5314 411.174 69.0808 410.013 68.0654C408.853 67.0501 407.547 66.3248 405.952 66.3248C404.356 66.3248 402.906 66.905 401.89 68.0654C400.73 69.2259 400.15 70.5314 400.15 72.272C400.295 74.0127 400.875 75.3182 401.89 76.4786Z" fill="#202020"/>
<path d="M426.115 80.2495H417.992V64.2935H425.535C427.13 64.2935 428.146 64.7286 429.161 65.3088C430.031 66.0341 430.466 67.0495 430.466 68.2099C430.466 68.9352 430.176 69.6605 429.886 70.2407C429.451 70.8209 429.016 71.2561 428.291 71.4012C429.306 71.5462 430.176 72.1264 430.757 72.8517C431.337 73.577 431.772 74.5924 431.772 75.7528C431.772 77.0583 431.192 78.2187 430.176 79.0891C429.161 79.8144 427.71 80.2495 426.115 80.2495ZM420.458 66.4693V70.5308H424.954C425.825 70.5308 426.55 70.3858 426.985 69.9506C427.42 69.5154 427.71 69.0803 427.71 68.355C427.71 67.6297 427.42 67.1946 426.985 66.7594C426.55 66.3242 425.825 66.1792 424.954 66.1792H420.458V66.4693ZM420.458 72.8517V77.9286H425.535C426.55 77.9286 427.42 77.6385 427.855 77.2034C428.436 76.7682 428.726 76.188 428.726 75.3176C428.726 74.5924 428.436 74.0121 427.855 73.4319C427.275 72.9968 426.55 72.8517 425.535 72.8517H420.458Z" fill="#202020"/>
<path d="M435.978 80.25H433.222L440.475 64.1489H442.941L450.194 80.25H447.438L445.552 76.3336H437.719L435.978 80.25ZM441.781 67.1951L438.735 73.8676H444.827L441.781 67.1951Z" fill="#202020"/>
<path d="M455.561 80.25H452.95V64.294H455.561V70.5314H464.264V64.1489H466.875V80.105H464.264V72.7072H455.561V80.25Z" fill="#202020"/>
<path d="M473.112 80.2495H470.937V64.2935H473.548V76.0429L482.686 64.2935H485.007V80.2495H482.396V68.5001L473.112 80.2495Z" fill="#202020"/>
<path d="M490.809 80.2495H487.618L492.985 73.2868C491.825 72.9967 490.954 72.5616 490.229 71.6912C489.504 70.966 489.214 69.9506 489.214 68.9352C489.214 67.6297 489.649 66.4692 490.664 65.5989C491.68 64.7286 492.985 64.4385 494.726 64.4385H502.269V80.3945H499.658V73.4319H495.741L490.809 80.2495ZM494.871 71.2561H499.803V66.4693H494.871C494 66.4693 493.13 66.7594 492.695 67.0495C492.115 67.4846 491.97 68.0649 491.97 68.7901C491.97 69.5154 492.26 70.0956 492.695 70.5308C493.275 70.966 494 71.2561 494.871 71.2561Z" fill="#202020"/>
<path d="M159.213 107.955H156.602V91.999H163.855C165.595 91.999 167.046 92.4342 167.916 93.3045C168.932 94.1749 169.512 95.3353 169.512 96.6408C169.512 97.9463 168.932 99.1067 167.916 100.122C166.901 100.992 165.595 101.428 163.855 101.428H159.213V107.955ZM159.213 94.1749V98.9617H163.565C164.58 98.9617 165.305 98.6716 165.886 98.3814C166.466 97.9463 166.756 97.3661 166.756 96.6408C166.756 95.9155 166.466 95.3353 165.886 94.9001C165.305 94.465 164.58 94.3199 163.565 94.3199L159.213 94.1749Z" fill="#202020"/>
<path d="M186.338 105.78C184.743 107.375 182.712 108.101 180.246 108.101C177.78 108.101 175.749 107.375 174.154 105.78C172.558 104.184 171.833 102.153 171.833 99.8326C171.833 97.5117 172.558 95.4809 174.154 94.0304C175.749 92.4348 177.78 91.5645 180.246 91.5645C182.712 91.5645 184.743 92.4348 186.338 94.0304C187.934 95.626 188.804 97.6568 188.804 99.8326C188.804 102.153 187.934 104.184 186.338 105.78ZM176.185 104.039C177.345 105.2 178.65 105.78 180.246 105.78C181.842 105.78 183.292 105.2 184.308 104.039C185.468 102.879 186.048 101.428 186.048 99.8326C186.048 98.237 185.468 96.6414 184.308 95.626C183.147 94.4656 181.842 93.8853 180.246 93.8853C178.65 93.8853 177.2 94.4656 176.185 95.626C175.024 96.7864 174.444 98.0919 174.444 99.8326C174.444 101.573 175.024 103.024 176.185 104.039Z" fill="#202020"/>
<path d="M200.409 108.246C197.943 108.246 195.767 107.52 194.171 105.925C192.43 104.329 191.705 102.299 191.705 99.9776C191.705 97.5117 192.576 95.626 194.171 94.0304C195.912 92.4347 197.943 91.7095 200.409 91.7095C202.149 91.7095 203.6 92.1446 204.905 92.7249V95.1908C203.6 94.3205 202.149 93.8853 200.409 93.8853C198.668 93.8853 197.217 94.4655 196.057 95.626C194.896 96.7864 194.316 98.0919 194.316 99.8326C194.316 101.573 194.896 103.024 196.057 104.039C197.217 105.2 198.668 105.78 200.554 105.78C202.439 105.78 204.035 105.345 205.34 104.329V106.795C203.89 107.811 202.294 108.246 200.409 108.246Z" fill="#202020"/>
<path d="M216.22 108.246C213.754 108.246 211.578 107.52 209.983 105.925C208.242 104.329 207.517 102.299 207.517 99.9776C207.517 97.5117 208.387 95.626 209.983 94.0304C211.723 92.4347 213.754 91.7095 216.22 91.7095C217.961 91.7095 219.411 92.1446 220.717 92.7249V95.1908C219.411 94.3205 217.961 93.8853 216.22 93.8853C214.479 93.8853 213.029 94.4655 211.868 95.626C210.708 96.7864 210.128 98.0919 210.128 99.8326C210.128 101.573 210.708 103.024 211.868 104.039C213.029 105.2 214.479 105.78 216.365 105.78C218.251 105.78 219.846 105.345 221.152 104.329V106.795C219.556 107.811 217.961 108.246 216.22 108.246Z" fill="#202020"/>
<path d="M226.373 107.955H224.198V91.999H226.809V103.748L235.947 91.999H238.268V107.955H235.657V96.2056L226.373 107.955Z" fill="#202020"/>
<path d="M244.506 107.955H242.33V91.9993H244.941V103.749L254.079 91.9993H256.4V107.955H253.789V96.2058L244.506 107.955ZM249.292 90.8388C248.132 90.8388 246.972 90.4036 246.246 89.8234C245.521 89.0982 245.086 88.2278 245.086 87.0674H247.262C247.262 87.6476 247.407 88.0828 247.842 88.3729C248.277 88.808 248.712 88.9531 249.292 88.9531C249.873 88.9531 250.453 88.808 250.743 88.3729C251.178 87.9377 251.323 87.5025 251.323 87.0674H253.499C253.499 88.2278 253.064 89.0982 252.339 89.8234C251.613 90.5487 250.598 90.8388 249.292 90.8388Z" fill="#202020"/>
<path d="M268.44 108.246C265.974 108.246 263.798 107.52 262.202 105.925C260.462 104.329 259.736 102.299 259.736 99.9776C259.736 97.5117 260.607 95.626 262.202 94.0304C263.943 92.4347 265.974 91.7095 268.44 91.7095C270.18 91.7095 271.631 92.1446 272.936 92.7249V95.1908C271.631 94.3205 270.18 93.8853 268.44 93.8853C266.699 93.8853 265.249 94.4655 264.088 95.626C262.928 96.7864 262.347 98.0919 262.347 99.8326C262.347 101.573 262.928 103.024 264.088 104.039C265.249 105.2 266.699 105.78 268.585 105.78C270.471 105.78 272.066 105.345 273.372 104.329V106.795C271.921 107.811 270.325 108.246 268.44 108.246Z" fill="#202020"/>
<path d="M279.173 107.955H276.562V91.999H279.173V98.5265L285.991 91.999H289.327L281.639 99.2518L290.633 107.955H287.006L279.173 100.267V107.955Z" fill="#202020"/>
<path d="M305.284 105.78C303.688 107.375 301.657 108.101 299.191 108.101C296.725 108.101 294.695 107.375 293.099 105.78C291.503 104.184 290.778 102.153 290.778 99.8326C290.778 97.5117 291.503 95.4809 293.099 94.0304C294.695 92.4348 296.725 91.5645 299.191 91.5645C301.657 91.5645 303.688 92.4348 305.284 94.0304C306.879 95.626 307.75 97.6568 307.75 99.8326C307.605 102.153 306.879 104.184 305.284 105.78ZM294.985 104.039C296.145 105.2 297.451 105.78 299.046 105.78C300.642 105.78 302.092 105.2 303.108 104.039C304.268 102.879 304.849 101.428 304.849 99.8326C304.849 98.237 304.268 96.6414 303.108 95.626C301.947 94.4656 300.642 93.8853 299.046 93.8853C297.451 93.8853 296 94.4656 294.985 95.626C293.824 96.7864 293.244 98.0919 293.244 99.8326C293.389 101.573 293.824 103.024 294.985 104.039Z" fill="#202020"/>
<path d="M313.262 107.955H310.941V91.9993H313.552V103.749L322.69 91.9993H325.011V107.955H322.4V96.2058L313.262 107.955ZM317.904 90.8388C316.743 90.8388 315.583 90.4036 314.857 89.8234C314.132 89.0982 313.697 88.2278 313.697 87.0674H315.873C315.873 87.6476 316.018 88.0828 316.453 88.3729C316.888 88.808 317.323 88.9531 317.904 88.9531C318.484 88.9531 319.064 88.808 319.354 88.3729C319.789 87.9377 319.934 87.5025 319.934 87.0674H322.11C322.11 88.2278 321.675 89.0982 320.95 89.8234C320.079 90.5487 319.209 90.8388 317.904 90.8388Z" fill="#202020"/>
<path d="M345.464 108.39H342.853V106.65C340.242 106.505 338.211 105.924 336.761 104.619C335.455 103.314 334.73 101.718 334.73 99.8322C334.73 98.9618 334.875 98.0915 335.31 97.3662C335.6 96.4959 336.181 95.7706 336.761 95.1904C337.341 94.4651 338.356 94.03 339.372 93.5948C340.387 93.1596 341.693 93.0146 342.998 92.8695V91.2739H345.609V92.8695C346.915 92.8695 348.075 93.1596 349.235 93.4498C350.251 93.8849 351.121 94.3201 351.846 95.0454C352.572 95.7706 353.007 96.3509 353.297 97.2212C353.587 98.0915 353.877 98.9618 353.877 99.6871C353.877 100.412 353.732 101.428 353.297 102.153C352.862 102.878 352.427 103.749 351.846 104.329C351.121 105.054 350.251 105.489 349.235 105.924C348.22 106.36 346.915 106.505 345.609 106.505L345.464 108.39ZM342.853 104.474V95.0454C341.112 95.0454 339.662 95.4805 338.792 96.3509C337.921 97.2212 337.486 98.3816 337.486 99.6871C337.486 100.993 337.921 102.153 338.792 103.023C339.662 103.894 341.112 104.329 342.853 104.474ZM345.464 95.0454V104.474C347.35 104.474 348.655 104.039 349.526 103.168C350.396 102.298 350.831 101.138 350.831 99.8322C350.831 98.5267 350.396 97.3662 349.526 96.4959C348.655 95.4805 347.205 95.0454 345.464 95.0454Z" fill="#202020"/>
<path d="M368.818 107.955H356.633V91.999H368.528V94.3199H359.244V98.3814H366.787V100.702H359.244V105.779H368.818V107.955Z" fill="#202020"/>
<path d="M373.459 111.291H370.994V105.634H372.589C373.459 104.329 374.185 102.878 374.475 101.137C374.91 99.3968 375.055 97.076 375.055 94.1749V91.999H386.079V105.779H388.4V111.436H385.934V107.955H373.314L373.459 111.291ZM375.345 105.489H383.468V94.0298H377.521C377.521 96.6408 377.376 98.9617 376.941 100.702C376.796 102.733 376.216 104.329 375.345 105.489Z" fill="#202020"/>
<path d="M403.341 107.955H391.156V91.999H403.051V94.3199H393.767V98.3814H401.31V100.702H393.767V105.779H403.341V107.955Z" fill="#202020"/>
<path d="M408.853 107.955H406.242V91.999H413.495C415.235 91.999 416.686 92.4342 417.556 93.3045C418.572 94.1749 419.152 95.3353 419.152 96.6408C419.152 97.9463 418.572 99.1067 417.556 100.122C416.541 100.992 415.235 101.428 413.495 101.428H408.853V107.955ZM408.853 94.1749V98.9617H413.205C414.22 98.9617 414.945 98.6716 415.525 98.3814C416.106 97.9463 416.396 97.3661 416.396 96.6408C416.396 95.9155 416.106 95.3353 415.525 94.9001C414.945 94.465 414.22 94.3199 413.205 94.3199L408.853 94.1749Z" fill="#202020"/>
<path d="M421.473 107.955H418.717L425.97 91.854H428.436L435.688 107.955H432.932L431.046 104.039H423.214L421.473 107.955ZM427.275 94.9002L424.229 101.573H430.321L427.275 94.9002Z" fill="#202020"/>
<path d="M454.255 111.291H451.789V107.81H438.444V91.854H441.055V105.634H449.178V91.854H451.789V105.634H454.11V111.291H454.255Z" fill="#202020"/>
<path d="M459.187 107.955H457.011V91.999H459.622V103.748L468.761 91.999H471.081V107.955H468.47V96.2056L459.187 107.955Z" fill="#202020"/>
<path d="M477.319 107.955H475.143V91.999H477.754V103.748L486.893 91.999H489.214V107.955H486.603V96.2056L477.319 107.955Z" fill="#202020"/>
<path d="M102.787 104.764C102.352 104.764 102.061 105.054 102.061 105.489C102.061 105.925 102.352 106.215 102.787 106.215C103.222 106.215 103.512 105.925 103.512 105.489C103.512 105.199 103.222 104.764 102.787 104.764Z" fill="#202020"/>
<path d="M105.252 111.872C105.252 112.307 105.542 112.598 105.977 112.598C106.413 112.598 106.703 112.307 106.703 111.872C106.703 111.437 106.413 111.147 105.977 111.147C105.542 111.147 105.252 111.437 105.252 111.872Z" fill="#202020"/>
<path d="M102.787 111.147C102.352 111.147 102.061 111.437 102.061 111.872C102.061 112.307 102.352 112.598 102.787 112.598C103.222 112.598 103.512 112.307 103.512 111.872C103.512 111.437 103.222 111.147 102.787 111.147Z" fill="#202020"/>
<path d="M108.443 111.872C108.443 112.307 108.734 112.598 109.169 112.598C109.604 112.598 109.894 112.307 109.894 111.872C109.894 111.437 109.604 111.147 109.169 111.147C108.734 111.147 108.443 111.437 108.443 111.872Z" fill="#202020"/>
<path d="M101.771 97.6567L101.916 99.5425L100.321 99.3974V101.428L101.916 101.138L101.771 103.024H103.802L103.657 101.138L105.253 101.428V99.3974L103.657 99.5425L103.802 97.6567H101.771Z" fill="#202020"/>
<path d="M104.092 104.184V110.712H110.329C109.894 107.375 107.283 104.764 104.092 104.184Z" fill="#202020"/>
<path d="M102.787 107.955C102.352 107.955 102.061 108.245 102.061 108.68C102.061 109.116 102.352 109.406 102.787 109.406C103.222 109.406 103.512 109.116 103.512 108.68C103.512 108.245 103.222 107.955 102.787 107.955Z" fill="#202020"/>
<path d="M105.398 116.224C105.253 116.224 104.672 117.819 105.253 118.98C105.543 119.56 106.123 119.85 106.703 119.705C107.283 119.56 107.429 118.98 107.429 118.69C107.283 117.384 106.268 116.224 105.398 116.224Z" fill="#202020"/>
<path d="M100.176 116.224C99.3053 116.224 98.2899 117.384 98.2899 118.69C98.2899 119.125 98.435 119.56 99.0152 119.705C99.5954 119.85 100.176 119.56 100.466 118.98C100.756 117.819 100.321 116.224 100.176 116.224Z" fill="#202020"/>
<path d="M102.786 115.353C102.206 115.353 100.465 118.689 101.771 120.285C102.061 120.575 102.351 120.72 102.786 120.72C103.221 120.72 103.657 120.575 103.802 120.285C104.962 118.689 103.366 115.353 102.786 115.353Z" fill="#202020"/>
<path d="M95.0988 111.872C95.0988 111.146 95.2438 110.566 95.2438 110.566H101.481V109.986V105.344V104.039C98.435 104.619 95.9691 106.94 95.2438 109.986C95.0988 110.276 94.5185 110.421 94.0834 110.276C91.7625 109.986 87.1207 109.116 87.1207 108.1C87.1207 106.65 88.1361 106.069 89.0065 106.069C90.3119 106.069 91.7625 106.795 92.9229 105.054C88.7163 105.199 91.9076 99.1067 88.4262 97.9463C88.5713 99.5419 88.4262 102.298 87.846 103.748C87.846 103.748 86.5405 102.443 85.235 101.863C85.3801 103.023 85.09 105.344 84.6548 106.505C84.6548 106.505 83.2042 105.054 81.6086 104.619C83.0592 106.65 83.0592 109.696 82.624 111.436C82.479 112.017 82.9141 112.597 83.9295 112.597C85.6702 112.452 91.4724 112.742 93.9383 113.757C94.6636 114.047 95.3889 114.483 95.679 115.063C95.9691 115.788 96.5493 116.949 97.4196 117.529C97.8548 116.223 99.3054 114.773 100.321 114.918C100.611 114.918 100.901 115.498 101.046 115.933C101.191 115.498 101.916 114.192 102.642 114.192C103.367 114.192 104.092 115.208 104.382 116.078C104.527 115.498 104.817 114.918 105.108 114.918C106.123 114.918 107.428 115.788 107.864 117.384C108.299 116.949 110.039 114.628 110.184 113.032H95.0988C95.0988 113.177 95.0988 112.597 95.0988 111.872Z" fill="#202020"/>
<path d="M98.8701 111.872C98.8701 112.307 99.1602 112.598 99.5954 112.598C100.031 112.598 100.321 112.307 100.321 111.872C100.321 111.437 100.031 111.147 99.5954 111.147C99.1602 111.147 98.8701 111.437 98.8701 111.872Z" fill="#202020"/>
<path d="M95.8237 111.872C95.8237 112.307 96.1138 112.598 96.549 112.598C96.9842 112.598 97.2743 112.307 97.2743 111.872C97.2743 111.437 96.9842 111.147 96.549 111.147C96.1138 111.147 95.8237 111.437 95.8237 111.872Z" fill="#202020"/>
<path d="M35.771 115.063C35.4809 115.354 34.9007 116.949 35.1908 117.965C35.3358 118.4 35.4809 118.545 35.916 118.545C36.3512 118.545 36.4963 118.255 36.6413 117.82C36.7864 116.804 36.0611 115.209 35.771 115.063Z" fill="#202020"/>
<path d="M41.138 119.56C40.8479 119.995 40.4128 120.141 40.2677 120.286C40.4128 120.431 40.8479 120.721 41.2831 120.721C41.5732 120.721 41.8633 120.576 42.0084 120.431C42.4435 119.56 42.0084 118.835 41.8633 118.545C41.7183 118.835 41.5732 119.27 41.138 119.56Z" fill="#202020"/>
<path d="M39.1071 117.529C39.6873 116.949 39.8323 116.514 39.6873 116.223C39.5422 115.788 38.2367 114.483 36.7862 112.887C36.7862 113.177 36.6411 113.467 36.6411 113.758C37.6565 115.208 38.0917 116.659 37.8016 117.964C37.9466 118.109 37.9466 118.109 38.0917 118.109C38.3818 118.399 38.8169 117.964 39.1071 117.529Z" fill="#202020"/>
<path d="M41.1379 117.674C41.1379 117.384 41.1379 117.239 40.9929 117.094H40.8478C40.7028 117.094 40.5577 117.384 40.4127 117.529C40.2676 117.674 40.1225 117.965 39.8324 118.255C39.5423 118.545 39.3973 118.69 39.1072 118.98C38.8171 119.125 38.672 119.415 38.672 119.56C38.672 119.56 38.672 119.56 38.672 119.705C38.8171 119.85 38.8171 119.85 38.9621 119.85C39.1072 119.85 39.5423 119.705 40.2676 118.98C40.9929 118.255 41.1379 117.965 41.1379 117.674Z" fill="#202020"/>
<path d="M31.5642 109.986C31.5642 109.986 31.4191 110.131 31.274 110.421C31.5642 110.421 31.9993 110.421 32.2894 110.566C32.2894 110.276 32.2894 109.841 32.2894 109.551C31.9993 109.551 31.7092 109.841 31.5642 109.986Z" fill="#202020"/>
<path d="M35.4809 110.421C35.4809 110.421 38.5271 113.032 39.5424 114.048C39.8325 114.338 40.1227 114.338 40.4128 114.193C40.5578 114.048 40.8479 114.048 41.138 113.903C44.1842 112.887 49.1161 112.742 50.8567 112.742C52.0172 112.742 52.3073 112.162 52.1622 111.582C51.8721 109.841 51.7271 106.795 53.1776 104.764C51.582 105.345 50.1315 106.65 50.1315 106.65C49.5512 105.635 49.4062 103.169 49.5512 102.008C48.1007 102.443 46.9403 103.894 46.9403 103.894C46.36 102.443 46.215 99.6874 46.36 98.0918C42.8787 99.2522 46.0699 105.49 41.8633 105.2C43.0238 106.94 44.4743 106.215 45.7798 106.215C46.6501 106.215 47.8106 106.795 47.6655 108.246C47.5205 109.261 41.8633 110.421 39.5424 110.421C37.9468 110.421 36.7864 109.986 36.0611 108.826C35.626 108.246 35.3358 108.101 34.9007 108.101C34.3205 108.246 33.7402 108.681 33.7402 110.131C33.7402 111.002 34.1754 113.032 35.1908 113.032C35.771 113.178 35.771 111.437 35.4809 110.421Z" fill="#202020"/>
<path d="M29.6784 109.551C29.8235 109.551 29.9685 109.551 30.1136 109.551C29.6784 110.131 29.6784 110.566 29.8235 110.711C30.1136 111.001 30.2587 110.421 30.9839 109.696C31.7092 108.97 32.1444 108.68 31.9993 108.39C31.8543 108.245 31.4191 108.245 30.8389 108.68C30.8389 108.535 30.9839 108.39 30.8389 108.245C30.5488 107.52 29.5334 106.65 28.8081 106.65C28.6631 106.65 28.6631 106.65 28.518 106.65C28.8081 106.214 28.6631 105.924 28.518 105.634C28.3729 105.489 28.2279 105.634 27.9378 105.924C27.9378 105.779 27.9378 105.489 27.7927 105.199C26.9224 103.748 21.9905 99.1067 20.8301 98.6715C20.1048 98.3814 19.9597 98.8166 19.9597 98.8166C19.9597 98.8166 19.5246 99.1067 19.8147 99.6869C20.2499 100.847 25.0367 105.634 26.3422 106.504C26.6323 106.65 26.9224 106.795 27.0674 106.65C26.7773 106.94 26.6323 106.94 26.9224 107.23C27.0674 107.375 27.3576 107.52 27.7927 107.23C27.7927 107.375 27.7927 107.375 27.7927 107.52C28.0828 108.1 28.9532 109.261 29.6784 109.551Z" fill="#202020"/>
<path d="M33.16 113.032C33.16 112.597 32.2897 111.727 31.1292 111.727C29.5336 111.727 28.8083 112.742 28.8083 113.322C28.8083 114.338 29.8237 114.483 30.1138 114.483C31.1292 114.483 33.0149 113.322 33.16 113.032Z" fill="#202020"/>
<path d="M31.7095 115.498C31.2744 116.078 31.1293 116.658 31.2744 117.094C31.4194 117.674 31.9996 117.964 32.5799 117.964C33.1601 117.964 33.7403 117.674 34.0304 117.239C34.6106 116.223 34.6106 114.047 34.4656 113.902C33.8854 113.902 32.4348 114.483 31.7095 115.498Z" fill="#202020"/>
<path d="M17.494 92.8695C17.0588 92.4344 16.0435 93.1596 15.4632 92.7245C15.7534 91.2739 16.7687 92.7245 17.6391 91.8542C18.0742 91.419 17.7841 90.8388 17.6391 90.6937C17.2039 91.1289 16.6237 90.9838 16.4786 90.6937C17.494 88.0827 15.4632 85.3267 13.4325 85.6168C13.8676 86.197 14.0127 88.0827 13.7226 88.5179C14.4479 89.0981 14.0127 90.4036 13.1424 89.9684C12.5621 89.6783 11.5468 88.2278 12.7072 87.3574C12.7072 86.9223 11.9819 86.9223 11.4017 87.7926C11.8369 86.197 8.7907 86.6322 8.21048 87.0673C7.92037 87.7926 7.48521 90.8388 9.08081 90.2585C8.21048 90.9838 8.35554 91.7091 8.64565 91.7091C9.66103 90.5487 10.9665 91.419 11.2566 91.9992C11.6918 92.8695 10.3863 93.4498 9.80609 92.7245C9.37092 92.8695 7.48521 92.8695 7.05004 92.4344C6.75993 94.4651 9.66103 96.641 12.127 95.4805C12.4171 95.4805 12.5621 96.2058 12.127 96.641C12.272 96.9311 12.9973 97.0761 13.2874 96.641C14.3028 95.6256 12.8522 94.6102 14.1577 94.3201C14.4479 94.9003 13.8676 95.9157 14.3028 96.3509C15.0281 97.0761 15.8984 95.6256 16.9138 95.6256C16.9138 94.4651 18.2193 93.5948 17.494 92.8695ZM9.95114 89.5333C9.95114 89.5333 9.51598 89.2432 10.0962 88.5179C10.6764 87.9377 10.9665 88.3728 10.9665 88.3728C10.9665 88.3728 11.5468 89.5333 11.6918 90.1135C11.1116 90.1135 9.95114 89.5333 9.95114 89.5333ZM14.5929 93.1596C14.3028 93.1596 13.5775 93.8849 13.2874 93.4498L11.6918 91.8542L12.5621 90.9838L13.4325 90.1135L15.0281 91.7091C15.1731 92.1443 14.5929 92.8695 14.5929 93.1596Z" fill="#202020"/>
<path d="M17.9292 95.7705C17.7842 95.7705 17.6391 95.7705 17.4941 95.9156C17.349 96.0606 17.349 96.3507 17.349 96.6408C17.349 96.9309 17.6391 97.2211 17.9292 97.5112C18.0743 97.9463 18.5094 98.0914 18.7996 98.0914C18.9446 98.0914 19.0897 98.0914 19.2347 97.9463C19.5248 97.6562 19.3798 96.7859 18.9446 96.3507C18.6545 96.0606 18.2193 95.7705 17.9292 95.7705Z" fill="#202020"/>
<path d="M13.2876 90.9844L12.8524 91.4195L12.4172 91.8547C12.4172 91.8547 13.2876 93.0152 14.0128 92.58C14.448 91.8547 13.2876 90.9844 13.2876 90.9844Z" fill="#202020"/>
<path d="M97.9996 86.6322C97.9996 86.9223 96.8392 87.5025 95.9688 85.9069C95.0985 85.7618 94.2282 85.4717 93.6479 85.1816C94.6633 87.2124 95.5337 88.953 96.9842 89.8234C99.16 91.1289 102.496 90.8388 103.512 89.3882C101.626 88.3728 99.4502 85.7618 98.2897 83.2959C97.9996 83.8761 97.5644 84.8915 97.2743 85.6168C97.4194 85.9069 97.7095 86.3421 97.9996 86.6322Z" fill="#202020"/>
<path d="M118.162 54.8648C120.483 53.8494 123.819 51.5285 125.415 50.078C125.56 50.3681 126.14 51.6736 124.4 53.1241C123.094 54.1395 120.483 55.445 118.597 56.1703C117.727 57.4758 115.986 58.9263 113.666 60.522C118.307 59.7967 123.819 57.911 126.575 55.3C131.652 50.223 129.041 44.1307 128.316 42.6802C124.98 46.8868 118.597 51.2384 112.65 53.5593C114.681 53.8494 116.712 54.2846 118.162 54.8648Z" fill="#202020"/>
<path d="M114.391 45.5818C117.437 43.1159 120.628 38.184 121.208 36.4434C121.934 36.8785 122.224 38.3291 121.353 39.9247C119.758 42.6807 116.857 45.1467 114.391 47.1775C114.246 48.9181 113.52 51.0939 112.65 52.6895C116.277 50.2236 120.483 46.5972 122.369 44.1313C124.835 40.9401 125.85 37.7489 125.415 34.5577C125.56 30.9313 122.949 27.3049 121.934 26.4346C121.208 30.3511 117.292 37.0236 113.811 40.795C114.101 42.1005 114.391 43.9862 114.391 45.5818Z" fill="#202020"/>
<path d="M112.07 68.501C112.795 69.3713 113.521 70.3867 114.101 71.257C116.857 71.8372 120.193 71.6922 120.193 71.6922C120.193 71.6922 120.048 73.1427 118.162 73.2878C117.292 73.2878 114.681 72.8526 113.666 72.5625C113.231 72.7076 111.2 73.2878 109.169 73.5779C112.07 74.5933 116.277 75.6087 118.888 75.6087C119.178 75.6087 119.323 75.6087 119.613 75.6087C123.82 75.1735 125.995 71.257 126.141 69.0812C124.835 69.3713 122.659 69.5164 120.483 69.5164C118.453 69.5164 114.826 69.3713 112.07 68.501Z" fill="#202020"/>
<path d="M129.622 57.4761C125.85 59.5068 119.178 61.5376 113.811 61.5376C115.116 62.4079 116.422 63.2783 117.292 64.1486C119.468 64.0036 122.514 63.2783 124.255 62.6981C124.255 62.9882 124.255 64.4387 122.224 65.0189C120.774 65.4541 118.743 65.4541 117.147 65.4541C115.842 66.3244 113.956 67.0497 112.36 67.6299C113.811 67.775 115.697 67.92 117.292 67.92C120.048 67.92 122.659 67.6299 124.255 67.0497C125.705 66.6145 130.492 64.5838 129.622 57.4761Z" fill="#202020"/>
<path d="M109.314 77.4939C110.91 78.2192 112.65 78.7994 114.101 78.9444C114.101 78.9444 113.811 80.395 111.635 80.1049C110.329 79.9598 108.879 78.9444 108.589 78.7994C107.573 78.9444 105.543 78.9444 104.817 78.7994C107.283 80.54 111.055 82.5708 114.246 82.8609C114.391 82.8609 114.536 82.8609 114.681 82.8609C118.017 82.8609 120.628 79.5246 121.354 77.929C118.017 77.929 112.215 76.4785 108.734 74.5928C108.879 75.173 109.169 76.3334 109.314 77.4939Z" fill="#202020"/>
<path d="M103.512 81.9909C104.382 83.0063 105.833 83.5865 105.833 83.5865C105.833 83.5865 105.397 84.3118 104.527 84.3118C104.237 84.3118 103.947 84.1667 103.657 84.0216C103.077 83.7315 102.206 82.7162 102.206 82.7162C101.046 82.5711 100.03 82.426 99.015 82.1359C100.756 84.3118 103.657 87.0678 106.848 87.7931C107.283 87.9381 107.718 87.9381 108.299 87.9381C111.055 87.9381 113.375 85.9074 113.956 84.6019C110.764 84.1667 106.123 81.7008 103.802 79.3799C103.802 80.2502 103.657 81.2656 103.512 81.9909Z" fill="#202020"/>
<path d="M82.7687 117.529C84.3643 117.529 85.3797 116.948 86.1049 115.353C83.9291 116.368 81.6082 115.788 77.2566 114.482C77.2566 114.482 75.661 115.208 74.6456 115.353C77.2566 116.078 81.028 117.384 81.6082 118.834C81.8983 119.995 81.1731 120.285 81.1731 120.285C79.7225 118.544 77.9819 117.529 74.2104 116.368C74.2104 117.093 74.0654 117.529 74.0654 117.529C74.0654 117.529 73.3401 117.674 71.5994 117.384C73.05 118.544 76.5313 121.59 76.9665 124.781C77.2566 126.957 75.661 127.102 75.661 127.102C75.5159 123.766 74.0654 121.735 70.8742 118.399C70.8742 118.399 70.2939 119.124 69.7137 119.559C69.7137 119.559 68.5533 119.414 67.6829 118.689C68.1181 123.041 68.2632 133.485 67.9731 135.08C67.828 136.241 67.1027 136.821 67.1027 136.821C67.1027 136.821 66.3774 136.386 66.2324 135.08C65.9423 133.34 66.2324 122.896 66.5225 118.689C65.5071 119.269 64.4917 119.559 64.4917 119.559C63.7665 119.124 63.3313 118.399 63.3313 118.399C60.2851 121.735 58.8346 123.911 58.5445 127.102C58.5445 127.102 57.0939 126.957 57.239 124.781C57.6741 121.59 61.1555 118.544 62.606 117.384C61.0104 117.674 60.1401 117.529 60.1401 117.529C60.1401 117.529 59.995 117.093 59.995 116.368C56.2236 117.529 54.628 118.544 53.0324 120.285C53.0324 120.285 52.3071 120.14 52.5972 118.834C53.1774 117.384 56.9489 116.223 59.5599 115.353C58.6895 115.208 56.9489 114.482 56.9489 114.482C52.7423 115.788 50.2763 116.368 48.1005 115.353C48.6807 116.948 49.8412 117.529 51.4368 117.529C49.406 118.254 47.5203 120.285 46.9401 122.315C48.3906 127.682 53.0324 129.278 53.0324 129.278C51.8719 126.667 52.3071 121.59 59.2697 118.109C55.0632 122.315 53.3225 126.232 54.4829 129.858C55.4983 133.195 58.9796 134.5 61.4456 134.645C59.7049 129.133 60.4302 124.056 64.2016 120.14C62.606 124.491 60.2851 137.981 66.8126 140.157C73.3401 137.981 71.0192 124.491 69.4236 120.14C73.195 124.201 73.9203 129.133 72.1797 134.645C74.7906 134.645 78.1269 133.195 79.1423 129.858C80.3027 126.232 78.7071 122.315 74.3555 118.109C81.3181 121.59 81.7533 126.812 80.5929 129.278C80.5929 129.278 85.2346 127.682 86.6852 122.315C86.6852 120.285 84.6544 118.399 82.7687 117.529Z" fill="#202020"/>
<path d="M37.8015 89.8234C39.2521 88.953 40.1224 87.2124 41.1378 85.1816C40.5576 85.4717 39.6872 85.7618 38.8169 85.9069C37.9466 87.5025 36.7861 86.9223 36.7861 86.6322C37.0763 86.3421 37.3664 85.9069 37.5114 85.6168C37.2213 84.8915 36.7861 83.8761 36.496 83.2959C35.3356 85.9069 33.0147 88.3728 31.274 89.3882C32.2894 90.8388 35.6257 91.1289 37.8015 89.8234Z" fill="#202020"/>
<path d="M20.9755 60.5224C18.5095 58.9268 16.9139 57.4762 16.0436 56.1708C14.0128 55.4455 11.4018 54.14 10.2414 53.1246C8.50073 51.674 9.08095 50.3686 9.226 50.0784C10.6766 51.674 14.0128 53.8499 16.4788 54.8653C17.9293 54.285 19.9601 53.8499 21.9909 53.5598C16.0436 51.3839 9.66117 46.8872 6.3249 42.8257C5.59963 44.1312 2.84358 50.3685 8.06556 55.4455C10.6766 57.9114 16.3337 59.7971 20.9755 60.5224Z" fill="#202020"/>
<path d="M21.9907 52.5445C21.1203 50.9489 20.3951 48.9181 20.25 47.0324C17.7841 45.1467 15.028 42.6808 13.2874 39.7797C12.417 38.1841 12.7071 36.7335 13.4324 36.2984C14.0126 38.039 17.2038 42.9709 20.25 45.4368C20.25 43.8412 20.5401 41.9555 20.9753 40.65C17.4939 36.8786 13.4324 30.206 12.8522 26.2896C11.8368 27.1599 9.22581 30.7863 9.37086 34.4126C8.9357 37.6039 9.95108 40.7951 12.417 43.9863C14.1577 46.4522 18.3643 50.2236 21.9907 52.5445Z" fill="#202020"/>
<path d="M20.5403 71.257C20.9754 70.3867 21.8458 69.3713 22.571 68.501C19.815 69.2263 16.1886 69.3713 14.3029 69.3713C11.982 69.3713 9.80619 69.2263 8.64575 68.9361C8.79081 71.257 10.9666 75.1735 15.1732 75.4636C15.4633 75.4636 15.6084 75.4636 15.8985 75.4636C18.5095 75.4636 22.7161 74.4482 25.6172 73.4329C23.5864 73.1427 21.5557 72.7076 21.1205 72.4175C19.9601 72.9977 17.3491 73.4329 16.4787 73.2878C14.593 73.1427 14.448 71.6922 14.448 71.6922C14.448 71.6922 17.7842 71.8372 20.5403 71.257Z" fill="#202020"/>
<path d="M10.3865 67.1952C11.9821 67.7754 14.4481 68.0656 17.3492 68.0656C19.0898 68.0656 20.8305 67.9205 22.2811 67.7754C20.6854 67.1952 18.7997 66.4699 17.4942 65.5996C15.8986 65.5996 13.7228 65.4546 12.4173 65.1644C10.3865 64.5842 10.3865 63.1337 10.3865 62.8436C12.1272 63.5688 15.1734 64.2941 17.3492 64.2941C18.2195 63.5688 19.38 62.5535 20.8305 61.6831C15.6085 61.6831 8.79093 59.6524 5.0195 57.6216C4.14917 64.5842 8.93598 66.615 10.3865 67.1952Z" fill="#202020"/>
<path d="M20.1052 82.7159C20.2502 82.7159 20.3953 82.7159 20.5403 82.7159C23.7315 82.4258 27.503 80.395 29.9689 78.6544C29.2436 78.7994 27.0678 78.7994 26.1975 78.6544C25.9074 78.9445 24.3118 79.8148 23.1513 79.9599C20.8304 80.25 20.6854 78.7994 20.6854 78.7994C22.1359 78.6544 23.8766 78.0742 25.4722 77.3489C25.6172 76.1885 25.9074 75.028 26.1975 74.3027C22.5711 76.3335 16.7689 77.7841 13.4326 77.7841C14.1579 79.3797 16.7689 82.7159 20.1052 82.7159Z" fill="#202020"/>
<path d="M26.3425 87.9381C26.7776 87.9381 27.3578 87.9381 27.793 87.7931C30.8392 87.0678 33.8853 84.3118 35.626 82.1359C34.6106 82.426 33.5952 82.7162 32.4348 82.7162C32.4348 82.7162 31.7095 83.5865 30.9842 84.0216C30.6941 84.1667 30.404 84.3118 30.1139 84.3118C29.2436 84.3118 28.8084 83.5865 28.8084 83.5865C28.8084 83.5865 30.2589 82.8612 31.1293 81.9909C30.9842 81.2656 30.8392 80.2502 30.8392 79.3799C28.3732 81.8458 23.8765 84.1667 20.6853 84.6019C21.2655 85.9074 23.4414 87.9381 26.3425 87.9381Z" fill="#202020"/>
<path d="M66.0873 8.59249C66.0873 9.31776 66.6675 9.75293 67.2477 9.75293C67.8279 9.75293 68.4082 9.17271 68.4082 8.59249C68.4082 7.86721 67.8279 7.43204 67.2477 7.43204C66.6675 7.28699 66.0873 7.86721 66.0873 8.59249Z" fill="#202020"/>
<path d="M66.5225 5.98171H68.1181L67.973 3.95094L69.7137 4.24105V2.64545L67.973 2.7905L68.1181 0.904785H66.5225L66.6675 2.7905L64.9269 2.64545V4.24105L66.6675 3.95094L66.5225 5.98171Z" fill="#202020"/>
<path d="M60.8658 25.1291C61.0108 25.1291 61.3009 25.2742 61.446 25.2742H73.0504C73.3405 25.2742 73.4856 25.2742 73.6306 25.1291C74.0658 24.9841 74.2109 24.694 74.3559 24.2588H60.1405C60.2856 24.839 60.5757 24.9841 60.8658 25.1291Z" fill="#202020"/>
<path d="M73.6305 23.3885C73.7755 23.3885 73.7755 23.2434 73.7755 23.2434V22.3731C73.7755 22.228 73.6305 22.228 73.6305 22.228H61.0107C60.8656 22.228 60.8656 22.3731 60.8656 22.3731V23.2434C60.8656 23.3885 61.0107 23.3885 61.0107 23.3885H73.6305Z" fill="#202020"/>
<path d="M74.9359 21.2122C75.226 20.777 76.8216 17.7309 76.8216 14.5397C76.8216 11.6386 73.1952 10.043 71.1644 10.043C70.8743 14.1045 69.2787 20.4869 67.248 20.4869C65.3622 20.4869 63.6216 14.1045 63.3315 10.043C61.1556 10.043 57.6743 11.6386 57.6743 14.5397C57.6743 17.7309 59.2699 20.9221 59.56 21.2122H74.9359Z" fill="#202020"/>
<path d="M67.2481 18.4565C68.2635 18.4565 69.4239 15.4103 69.8591 12.3642C69.8591 11.7839 68.8437 10.9136 67.2481 10.7686C65.6525 10.7686 64.6371 11.6389 64.6371 12.3642C65.0723 15.1202 66.3777 18.4565 67.2481 18.4565Z" fill="#202020"/>
<path d="M85.6699 66.0344C85.6699 65.5992 85.3798 65.3091 84.9446 65.3091H49.6962C49.2611 65.3091 48.9709 65.5992 48.9709 66.0344V90.2586V90.4036V90.5487C48.9709 90.5487 48.9709 91.8542 49.5512 93.3047C50.2764 95.0454 53.3226 97.9465 57.094 99.9773C62.4611 102.733 65.6523 104.909 67.2479 106.215C68.8435 104.909 72.0347 102.733 77.4018 99.9773C81.3182 97.9465 84.2193 95.0454 84.9446 93.3047C85.6699 91.7091 85.5248 90.5487 85.5248 90.5487L85.6699 66.0344ZM73.7754 74.8827V75.0278C74.2105 76.7684 74.6457 78.6542 74.7908 80.3948C76.2413 81.5553 77.5468 82.7157 78.7073 83.8761C80.8831 81.4102 82.0435 79.0893 82.0435 77.2036C81.0281 77.2036 80.1578 76.3333 80.1578 75.3179C80.1578 74.8827 80.3029 74.5926 80.4479 74.3025C79.4325 73.8673 78.2721 73.7223 77.2567 73.7223C76.3864 73.7223 75.516 73.8673 74.5007 74.0124H74.3556L74.0655 74.1574L74.2105 74.0124C74.3556 73.7223 74.3556 73.5772 74.5007 73.2871C77.4018 72.7069 79.7226 72.997 81.1732 73.8673C81.4633 73.7223 81.7534 73.5772 82.0435 73.5772C83.0589 73.5772 83.9292 74.4476 83.9292 75.4629C83.9292 76.1882 83.4941 76.7684 82.9138 77.0585C82.9138 79.0893 81.7534 81.7003 79.2875 84.6014C79.4325 84.7465 79.5776 84.8915 79.7226 85.0366C79.8677 85.1816 79.8677 85.1816 80.0127 85.3267V85.4717C79.8677 85.6168 79.7226 85.7619 79.5776 85.9069H79.4325C79.4325 85.9069 79.4325 85.9069 79.2875 85.9069C79.1424 85.7619 79.1424 85.7619 79.1424 85.6168C78.9974 85.4717 78.9974 85.3267 78.8523 85.1816C78.5622 85.4717 78.2721 85.7619 77.982 86.052L77.6919 86.4871C77.2567 86.7772 76.8215 86.9223 76.5314 86.7772H76.3864L76.5314 86.6322C77.2567 86.052 77.8369 85.3267 78.4171 84.8915C77.5468 83.8761 76.3864 82.8607 75.2259 81.8454C75.371 82.8607 75.371 83.8761 75.371 84.8915C75.371 85.7619 75.371 86.7772 75.2259 87.7926C75.0809 87.9377 74.7908 88.0827 74.6457 88.2278L74.5007 88.3728V88.2278C74.6457 87.0674 74.6457 85.9069 74.6457 84.8915C74.6457 84.6014 74.6457 84.1662 74.6457 83.8761V83.586C74.6457 82.8608 74.5007 80.83 74.3556 79.5245C74.2105 78.364 73.9204 77.2036 73.6303 76.0432V75.8981C73.7754 75.753 73.9204 75.608 74.0655 75.4629L73.7754 74.8827ZM61.8809 72.2717C63.3314 68.7904 65.3622 66.9047 67.3929 66.9047C69.4237 66.9047 71.4545 68.7904 72.905 72.2717V72.4168H72.76C72.6149 72.4168 72.4699 72.5618 72.1798 72.7069H72.0347V72.5618C70.7292 69.5157 68.9886 67.775 67.2479 67.775C65.5072 67.775 63.7666 69.5157 62.4611 72.5618V72.7069H62.316C62.171 72.4168 61.8809 72.4168 61.8809 72.2717ZM61.3006 73.1421C61.7358 73.4322 63.0413 74.1574 64.4918 73.7223C65.7973 73.2871 67.2479 73.2871 67.2479 73.2871C67.2479 73.2871 68.8435 73.2871 70.0039 73.7223C71.4545 74.1574 72.76 73.4322 73.1952 73.1421C73.3402 73.1421 73.3402 73.1421 73.3402 73.2871C73.1952 73.8673 72.76 75.3179 70.5842 75.8981C68.5534 76.3333 67.538 78.6542 67.2479 79.6695C67.2479 79.8146 67.1028 79.8146 66.9578 79.6695C66.6677 78.6542 65.6523 76.3333 63.6215 75.8981C61.4457 75.4629 61.0105 73.8673 60.8655 73.2871C61.1556 73.1421 61.3006 73.1421 61.3006 73.1421ZM64.782 78.9443C65.0721 78.9443 65.5072 78.7992 65.7973 78.6541C65.9424 78.9443 66.0875 79.3794 66.2325 79.6695C65.7973 79.9596 65.3622 80.1047 64.782 80.1047C63.1863 80.1047 62.0259 78.7992 62.0259 77.3487C62.0259 76.9135 62.171 76.6234 62.316 76.3333C62.6061 76.4783 62.8962 76.6234 63.3314 76.7684C63.1863 76.9135 63.1864 77.2036 63.1864 77.3487C63.0413 78.219 63.9116 78.9443 64.782 78.9443ZM64.0567 77.2036C64.0567 77.0585 64.0567 77.0585 64.0567 76.9135C64.4918 77.0585 64.927 77.4937 65.2171 77.7838C65.0721 77.9289 64.927 77.9289 64.782 77.9289C64.3468 77.9289 64.0567 77.6388 64.0567 77.2036ZM64.782 80.975C65.3622 80.975 66.0875 80.83 66.6677 80.3948C66.8127 80.5399 67.1028 81.1201 67.2479 81.1201C67.538 81.1201 67.6831 80.5399 67.8281 80.3948C68.4083 80.6849 69.1336 80.975 69.7138 80.975C70.7292 80.975 71.5995 80.5399 72.3248 79.9596C72.3248 79.9596 72.3248 79.9596 72.3248 80.1047C72.6149 81.2651 72.76 82.7157 72.6149 83.2959C72.6149 83.8761 72.3248 84.4564 72.1798 85.0366C71.8897 85.7619 71.7446 86.3421 71.7446 86.3421C71.7446 86.3421 71.7446 86.4871 71.5995 86.7772C71.4545 87.3575 71.0193 88.3728 70.4391 89.3882C69.2787 88.663 68.1182 88.3728 66.6677 88.3728C65.3622 88.3728 64.2017 88.663 63.1864 89.2432C62.7512 88.2278 62.316 87.3575 62.171 86.9223C62.0259 86.6322 62.0259 86.4871 62.0259 86.4871C62.0259 86.4871 61.7358 85.9069 61.4457 85.0366C61.3006 84.6014 61.1556 84.0212 61.1556 83.441C61.1556 83.0058 61.0105 81.5553 61.4457 80.2498C61.4457 80.1047 61.5907 79.9597 61.5907 79.8146C62.6061 80.3948 63.7666 80.975 64.782 80.975ZM69.8589 78.9443C70.8743 78.9443 71.5995 78.219 71.5995 77.2036C71.5995 76.9135 71.5996 76.7684 71.4545 76.6234C71.7446 76.4783 72.1798 76.3333 72.4699 76.1882C72.6149 76.4783 72.76 76.9135 72.76 77.2036C72.76 78.7992 71.4545 79.9596 70.0039 79.9596C69.4237 79.9596 68.9886 79.8146 68.5534 79.5245C68.6984 79.2344 68.8435 78.9443 68.9886 78.5091C69.1336 78.7992 69.5688 78.9443 69.8589 78.9443ZM69.4237 77.7838C69.7138 77.3487 70.149 77.0585 70.5842 76.9135C70.5842 77.0585 70.5842 77.0585 70.5842 77.2036C70.5842 77.6388 70.2941 77.9289 69.8589 77.9289C69.7138 77.9289 69.5688 77.9289 69.4237 77.7838ZM52.5973 73.7223C53.0325 73.7223 53.3226 73.8673 53.6127 74.0124C54.6281 73.4322 55.7885 73.1421 57.3841 73.1421C58.2545 73.1421 59.1248 73.2871 60.1402 73.4322H60.2852C60.2852 73.5772 60.4303 73.8673 60.5754 74.1574L60.7204 74.3025L60.4303 74.1574C60.2852 74.1574 60.2852 74.1574 60.1402 74.1574C59.2699 74.0124 58.3995 73.8673 57.5292 73.8673C56.5138 73.8673 55.2083 74.0124 54.338 74.5926C54.483 74.8827 54.6281 75.1728 54.6281 75.608C54.6281 76.6234 53.7578 77.4937 52.7424 77.4937C52.7424 79.2344 53.9028 81.5553 56.0786 84.1662C57.2391 83.0058 58.5446 81.7003 59.9951 80.6849C60.1402 78.9443 60.5754 77.0585 61.0105 75.3179V75.1728L61.1556 75.3179C61.3006 75.4629 61.4457 75.608 61.5907 75.753C61.5907 75.753 61.5907 75.753 61.7358 75.8981V76.0432C61.4457 77.2036 61.1556 78.219 61.0105 79.3794V79.5245C60.8655 80.3948 60.7204 81.5553 60.7204 82.7157C60.7204 83.586 60.5754 84.3113 60.5754 84.8915C60.5754 85.7619 60.5754 86.6322 60.7204 87.7926V87.9377H60.5754C60.2852 87.7926 60.1402 87.7926 59.9951 87.7926H59.8501V87.6476C59.8501 86.9223 59.705 85.9069 59.705 84.8915C59.705 83.8761 59.705 82.8607 59.8501 81.8454C58.6896 82.8607 57.5292 83.8761 56.6589 84.8915C57.3841 85.7619 58.3995 86.6322 59.56 87.6476L59.705 87.7926H59.56C59.2699 87.9377 58.8347 87.9377 58.5446 87.7926C57.6743 86.9223 56.949 86.3421 56.2237 85.6168C56.0787 85.7619 55.9336 85.9069 55.9336 86.052L55.7885 86.197C55.6435 86.197 55.4984 86.3421 55.2083 86.4871L55.0633 86.3421C55.0633 86.3421 54.9182 86.3421 54.9182 86.197H54.7732V86.052C55.0633 85.6168 55.3534 85.3267 55.6435 85.0366C53.1775 82.2805 52.0171 79.6695 52.0171 77.6388C51.4369 77.3487 51.0017 76.7684 51.0017 76.0432C50.7116 74.5926 51.5819 73.7223 52.5973 73.7223ZM73.1952 96.2058C72.1798 99.1069 70.7292 101.138 69.1336 102.008C68.9886 102.878 68.2633 103.604 67.3929 103.604C66.5226 103.604 65.7973 102.878 65.6523 102.008C64.0567 101.138 62.6061 99.252 61.5907 96.3509V96.2058L62.4611 95.9157V96.0608C63.3314 98.5267 64.4918 100.267 65.7973 101.138C66.0875 100.412 66.6677 99.8322 67.538 99.8322C68.4083 99.8322 68.9886 100.412 69.2787 100.993C70.5842 100.122 71.7446 98.3816 72.6149 96.0608V95.9157H72.76C72.76 96.0608 72.905 96.0608 73.1952 96.2058ZM65.7973 96.0608C65.7973 95.4805 65.9424 93.8849 66.2325 93.3047C66.5226 93.1597 66.9578 93.0146 67.3929 93.0146C67.8281 93.0146 68.2633 93.1597 68.6984 93.4498C68.8435 94.03 69.1336 95.4805 69.1336 96.0608C69.1336 96.641 67.6831 97.0762 67.538 97.2212C67.1028 97.0762 65.7973 96.786 65.7973 96.0608ZM84.3644 90.2586C84.2193 90.4036 84.0743 90.5487 83.9292 90.5487C83.7842 90.5487 83.6391 90.6937 83.349 90.6937H83.204C82.9138 90.6937 82.6237 90.6937 82.4787 90.5487C82.3336 90.5487 82.3336 90.4036 82.1886 90.4036C81.7534 90.4036 80.738 90.6937 80.4479 90.8388C80.593 90.8388 81.8985 90.9838 82.7688 91.7091C83.204 91.9992 84.0743 92.1443 84.3644 92.1443C84.3644 92.2893 82.9138 93.3047 80.1578 92.7245L79.4325 92.5794C78.127 92.2893 76.9666 92.1443 75.6611 92.1443C75.8061 92.1443 75.9512 92.2893 75.9512 92.2893C76.2413 92.4344 76.6765 92.5794 76.9666 92.7245C76.9666 92.7245 77.1116 92.7245 77.1116 92.8696H77.2567C77.4018 92.8696 77.5468 92.8696 77.5468 93.0146C77.6919 93.0146 77.8369 93.1597 77.982 93.1597C78.127 93.3047 78.4171 93.4498 78.4171 93.5948C78.4171 93.7399 78.5622 93.7399 78.5622 93.8849C78.5622 94.175 78.5622 94.3201 78.4171 94.6102C77.982 95.1904 77.4018 95.1904 76.8215 94.6102L76.6765 94.4652C76.5314 94.3201 76.3864 94.175 76.2413 93.8849V93.7399C76.2413 93.7399 76.2413 93.7399 76.0963 93.7399C75.8061 93.5948 75.6611 93.3047 75.371 93.3047C74.9358 93.1597 74.3556 93.0146 73.9204 92.8696C73.7754 92.8696 73.6303 92.8696 73.4853 92.8696C73.9204 93.1597 74.3556 93.4498 74.5007 93.7399C74.5007 93.7399 74.5007 93.7399 74.5007 93.8849C74.7908 94.3201 74.7908 94.7553 74.9358 95.1904C75.371 96.0608 75.516 96.2058 75.9512 96.4959C75.516 96.641 73.3402 96.641 72.3248 95.0454C72.3248 95.0454 72.1798 94.9003 72.1798 94.7553C71.8897 94.175 71.7446 93.5948 71.5995 93.1597C71.4545 92.7245 71.7446 92.2893 71.4545 92.1443C71.1644 91.9992 71.0193 92.1443 71.0193 92.1443C70.8743 92.2893 70.8743 92.2893 70.8743 92.2893V92.4344C70.8743 92.5794 70.7292 92.5794 70.7292 92.5794V92.7245C70.7292 92.7245 70.7292 92.8696 70.5842 92.8696C70.5842 92.8696 70.5842 92.8696 70.4391 92.8696C70.2941 92.8696 70.2941 92.8696 70.149 92.8696C70.149 92.8696 70.149 92.8696 70.0039 92.8696C70.0039 92.8696 69.8589 92.8696 69.8589 93.0146C69.7138 93.0146 69.5688 93.1597 69.4237 93.1597C69.2787 93.1597 69.1336 93.0146 69.1336 92.8696C69.1336 92.7245 69.1336 92.7245 69.1336 92.5794C68.9886 92.5794 68.9886 92.5794 68.8435 92.5794C68.6984 92.5794 68.6984 92.5794 68.5534 92.4344C68.5534 92.2893 68.5534 92.1443 68.5534 92.1443C68.5534 91.9992 68.5534 91.9992 68.5534 91.9992C68.4083 92.1443 68.4083 92.1443 68.2633 92.1443C68.1182 92.1443 68.1182 92.1443 67.9732 92.1443C67.8281 92.1443 67.8281 91.9992 67.8281 91.8542V91.7091C67.8281 91.7091 67.8281 91.7091 67.8281 91.5641C67.8281 91.5641 67.8281 91.5641 67.6831 91.5641H67.538C67.393 91.5641 67.1028 91.419 66.9578 91.419C66.9578 91.419 66.9578 91.419 66.8127 91.419C66.6677 91.419 66.3776 91.5641 66.2325 91.5641H66.0875H65.9424C65.9424 91.5641 65.9424 91.5641 65.9424 91.419C65.9424 91.419 65.9424 91.419 65.9424 91.2739L66.0875 91.1289C66.0875 91.1289 66.0875 91.1289 66.0875 90.9838C65.9424 90.9838 65.9424 90.9838 65.7973 90.9838V91.1289C65.7973 91.1289 65.7973 91.1289 65.6523 91.1289V91.2739V91.419C65.6523 91.5641 65.6523 91.7091 65.5072 91.7091C65.3622 91.8542 65.3622 91.8542 65.2171 91.7091C65.2171 91.7091 65.0721 91.7091 65.0721 91.5641C65.0721 91.5641 64.927 91.5641 64.927 91.419C64.927 91.419 64.927 91.5641 65.0721 91.5641C65.0721 91.7091 65.0721 91.7091 65.0721 91.8542C64.927 91.9992 64.927 91.9992 64.782 91.9992H64.6369H64.4918C64.4918 92.1443 64.6369 92.1443 64.4918 92.2893C64.4918 92.4344 64.3468 92.4344 64.2017 92.4344C64.0567 92.4344 64.0567 92.4344 63.9116 92.4344C63.9116 92.4344 63.9116 92.4344 63.7666 92.4344H63.6215L63.4765 92.2893C63.4765 92.2893 63.3314 92.2893 63.1864 92.2893C63.1864 92.2893 63.0413 92.2893 63.0413 92.1443L62.8962 91.9992V91.8542C62.6061 91.5641 62.171 92.5794 62.171 92.5794C60.8655 95.3355 57.6743 95.9157 57.6743 95.7707C57.6743 95.7707 58.3995 95.4805 58.6896 94.4652C58.8347 93.8849 58.8347 93.7399 59.1248 93.1597C59.1248 93.0146 59.2699 93.0146 59.2699 92.8696C59.4149 92.5794 59.8501 92.4344 60.1402 92.1443C59.9951 92.1443 59.8501 92.1443 59.705 92.1443C59.2699 92.2893 58.8347 92.2893 58.2545 92.5794C57.9644 92.7245 57.8193 92.8696 57.5292 93.0146C57.5292 93.0146 57.5292 93.0146 57.3841 93.0146V93.1597C57.3841 93.3047 57.2391 93.4498 57.094 93.7399L56.949 93.8849C56.3688 94.4652 55.9336 94.4652 55.3534 93.8849L55.2083 93.7399C55.0633 93.5948 55.0633 93.3047 55.2083 93.1597C55.2083 93.0146 55.3534 92.8696 55.4984 92.7245C55.6435 92.5794 55.7885 92.5794 55.9336 92.4344C56.0786 92.2893 56.2237 92.2893 56.3688 92.2893C56.5138 92.2893 56.5138 92.2893 56.6589 92.1443C56.6589 92.1443 56.8039 92.1443 56.949 92.1443C56.949 92.1443 56.949 91.9992 57.094 91.9992C57.2391 91.9992 57.3841 91.8542 57.5292 91.8542C57.6743 91.8542 57.8193 91.7091 57.9644 91.7091C57.9644 91.7091 58.1094 91.7091 58.2545 91.5641C57.094 91.5641 55.9336 91.7091 54.6281 91.9992C54.483 91.9992 54.1929 92.1443 53.9028 92.1443C52.4523 92.4344 49.6962 91.7091 49.6962 91.5641C49.6962 91.419 50.4215 91.419 51.1468 90.9838C51.727 90.6937 52.0171 90.4036 52.4523 90.2586C53.1775 90.8388 54.0479 90.8388 54.1929 90.8388C53.9028 90.6937 52.5973 90.5487 52.1622 90.4036C52.1622 90.4036 52.0171 90.5487 51.8721 90.5487C51.5819 90.6937 51.2918 90.6937 51.0017 90.6937C50.8567 90.6937 50.5666 90.6937 50.4215 90.5487C50.2764 90.5487 50.1314 90.4036 49.9863 90.2586C49.8413 90.1135 49.8413 89.9684 49.8413 89.5333C49.9863 88.9531 50.5666 88.663 51.2918 88.808C51.727 88.9531 52.0171 89.0981 52.1622 89.2432L52.3072 89.3882C52.7424 89.3882 53.3226 89.6783 53.9028 89.8234C54.483 90.1135 54.9182 90.2586 55.2083 90.2586C55.0633 90.2586 54.9182 90.1135 54.7732 90.1135C54.6281 90.1135 54.483 89.9685 54.483 89.9685C54.338 89.8234 54.1929 89.8234 54.0479 89.6783C53.1775 89.2432 52.3072 88.808 51.727 88.2278C51.2918 87.6476 51.1468 87.3575 51.0017 86.7772C50.8567 85.4717 50.2764 84.8915 50.2764 84.7465C50.4215 84.6014 52.4523 85.6168 53.1775 86.3421C53.6127 86.9223 53.7578 87.3575 53.9028 87.7926V87.9377C54.0479 88.3728 54.483 88.808 55.2083 89.2432C55.3534 89.2432 55.3534 89.3882 55.4984 89.3882C55.3534 89.0981 55.2083 88.9531 55.0633 88.663V88.5179L54.9182 88.3728C54.9182 88.3728 54.7732 88.2278 54.7732 88.0827C54.6281 87.9377 54.6281 87.7926 54.483 87.6476C54.338 87.2124 54.338 86.7772 54.483 86.6322C54.6281 86.4871 54.7732 86.3421 55.0633 86.197C55.6435 86.052 56.0787 86.3421 56.2237 87.2124C56.2237 87.3575 56.2237 87.5025 56.2237 87.6476C56.2237 87.7926 56.2237 87.9377 56.2237 88.0827V88.2278C56.2237 88.2278 56.2237 88.2278 56.2237 88.3728C56.5138 89.2432 57.2391 89.9685 58.1094 90.5487C57.094 89.6783 56.5138 87.6476 56.6589 87.6476C56.8039 87.5025 57.6743 88.0827 58.5446 88.5179C58.9798 88.663 59.4149 88.9531 59.8501 89.2432C60.1402 89.3882 60.4303 89.6783 60.5754 89.8234C60.8655 89.9685 61.0105 90.2586 61.1556 90.4036C61.3006 90.5487 61.4457 90.6937 61.5907 90.8388C61.7358 90.9838 61.7358 90.9838 61.8809 91.1289C62.171 91.2739 62.6061 91.1289 62.6061 91.1289C62.7512 91.1289 62.8962 91.1289 63.0413 90.9838C63.0413 90.9838 63.0413 90.9838 63.1864 90.8388C63.3314 90.6937 63.4765 90.6937 63.6215 90.6937V90.5487C63.6215 90.2586 63.7666 90.1135 64.0567 89.9685C64.0567 89.9685 64.2017 89.9685 64.2017 89.8234H64.3468H64.4918H64.6369C64.6369 89.6783 64.782 89.6783 64.927 89.5333C65.2171 89.3882 65.6523 89.3882 65.9424 89.6783C66.0875 89.8234 66.0875 89.9685 66.2325 90.1135V90.2586C66.2325 90.4036 66.2325 90.4036 66.2325 90.5487C66.2325 90.6937 66.2325 90.6937 66.2325 90.8388C66.3776 90.8388 66.6677 90.8388 66.8127 90.8388C66.9578 90.8388 66.9578 90.8388 67.1028 90.8388C67.2479 90.8388 67.393 90.8388 67.538 90.9838C67.6831 90.9838 67.8281 90.8388 67.9732 90.8388C68.1182 90.8388 68.1182 90.8388 68.2633 90.8388H68.4083C68.4083 90.6937 68.4083 90.5487 68.4083 90.4036C68.4083 90.2586 68.4083 90.1135 68.5534 89.9685C68.5534 89.9685 68.5534 89.8234 68.6984 89.8234L68.8435 89.6783C69.1336 89.5333 69.4237 89.5333 69.7138 89.6783C69.8589 89.6783 69.8589 89.8234 70.0039 89.9685C70.149 89.9685 70.149 89.9685 70.2941 89.9685H70.4391H70.5842C70.8743 90.1135 71.0193 90.2586 71.0193 90.5487C71.0193 90.5487 71.0193 90.5487 71.1644 90.5487H71.3094C71.3094 90.5487 72.0347 90.5487 72.1798 90.6937H72.905C73.0501 90.5487 73.0501 90.5487 73.1952 90.4036C73.3402 90.2586 73.6303 89.9685 73.7754 89.8234C74.0655 89.6783 74.2105 89.3882 74.5007 89.2432C74.9358 88.9531 75.516 88.808 75.9512 88.663C77.4018 88.0827 77.5468 87.2124 77.6919 87.2124C77.8369 87.3575 77.4018 89.6783 76.3864 90.5487C77.1116 89.9685 77.8369 89.2432 78.2721 88.3728C78.2721 88.3728 78.2721 88.3728 78.2721 88.2278V88.0827C78.2721 87.9377 78.2721 87.7926 78.2721 87.6476C78.2721 87.5025 78.2721 87.3575 78.2721 87.2124C78.5622 86.4871 78.8523 86.052 79.4325 86.197C79.7226 86.3421 79.8677 86.4871 80.0127 86.6322C80.1578 86.9223 80.1578 87.2124 80.0127 87.6476C80.0127 87.7926 79.8677 87.9377 79.7226 88.0827C79.5776 88.2278 79.5776 88.2278 79.4325 88.3728L79.2875 88.5179V88.663C79.1424 88.9531 78.9974 89.0981 78.7073 89.3882C78.8523 89.2432 78.8523 89.2432 78.9974 89.0981C79.7226 88.5179 80.1578 88.0827 80.3029 87.6476C80.4479 87.2124 80.593 86.7772 81.0281 86.197C81.7534 85.4717 81.8985 85.1816 82.6237 84.7465C82.7688 84.6014 83.7842 84.4564 83.9292 84.4564C84.0743 84.6014 83.204 84.8915 82.9138 86.3421C82.7688 86.7772 82.6237 87.5025 82.1886 88.0827C81.6083 88.808 81.0281 88.9531 80.3029 89.3882L80.1578 89.5333C80.0127 89.6783 79.8677 89.6783 79.5776 89.8234C79.2875 89.9685 79.1424 90.1135 78.9974 90.1135C79.4325 89.9685 79.8677 89.8234 80.4479 89.6783C80.8831 89.3882 81.4633 89.2432 82.0435 89.2432C82.0435 89.2432 82.0435 89.0981 82.1886 89.0981C82.3336 88.9531 82.6237 88.808 83.0589 88.663C83.7842 88.3728 84.3644 88.663 84.5095 89.3882C84.6545 89.8234 84.5095 90.1135 84.3644 90.2586Z" fill="#202020"/>
<path d="M109.749 61.103C111.925 60.0876 115.551 57.6217 117.002 55.881C114.971 55.1557 110.91 54.7206 108.589 54.7206C113.375 51.3843 113.521 44.4217 112.215 39.3447C111.055 43.4063 108.153 46.7425 106.268 48.7733C106.413 50.8041 105.833 54.2854 104.672 56.3162C106.268 56.8964 108.153 57.7667 109.459 58.7821C108.589 59.9426 106.703 61.5382 105.542 62.5535C106.558 63.5689 108.153 65.4546 109.024 66.6151C107.863 67.4854 105.542 68.3557 104.237 68.7909C104.817 70.0964 105.688 72.2722 105.978 73.8678C104.527 74.158 102.641 74.303 100.611 74.303C100.756 75.7536 100.466 78.0744 100.175 79.525C98.2897 79.3799 96.1139 78.6547 95.0985 78.0744C94.5183 80.1052 93.2128 82.136 93.2128 82.281C91.4721 80.2503 89.7315 79.525 88.1359 79.525V78.2195C89.7315 78.2195 91.4721 78.7997 92.7776 80.1052C93.3578 79.0898 93.9381 77.2041 94.2282 76.0437C95.3886 76.6239 97.2743 77.3492 98.8699 77.6393C99.015 76.1887 99.1601 74.303 99.015 72.8525C100.611 72.9975 102.351 72.9975 104.237 72.7074C103.947 71.4019 102.786 69.2261 102.061 68.0656C103.657 67.6305 105.688 66.7601 106.703 66.1799C105.833 65.0195 104.382 63.4239 103.367 62.4085C104.527 61.5382 106.413 60.0876 107.138 59.2173C105.833 58.3469 104.092 57.4766 102.641 56.8964C104.672 54.1403 105.107 48.4832 104.672 45.8722C102.931 51.8195 97.7095 56.1711 94.5183 58.2019C94.3732 58.3469 94.2282 58.492 94.0831 58.492C93.9381 58.6371 93.3578 59.3623 93.648 60.2327C93.648 60.5228 93.793 60.6678 93.793 60.9579C94.0831 62.1184 94.0831 63.859 92.3425 65.4546C90.8919 66.7601 89.1513 66.9052 88.1359 66.7601V63.5689C88.1359 63.1338 87.8458 62.8437 87.4106 62.8437H85.2348L84.2194 61.8283C84.2194 61.8283 85.2348 61.8283 86.3952 61.8283C87.5556 61.6832 88.8611 61.103 88.8611 61.103C88.8611 61.103 87.5556 61.103 86.9754 60.9579C86.2501 61.103 84.6545 60.3777 83.349 58.9272C82.9139 58.3469 82.4787 57.7667 82.1886 57.1865C81.0282 56.1711 79.7227 54.8656 78.8523 52.9799C78.2721 51.6744 77.982 49.7887 77.8369 48.6283C77.4018 48.9184 76.9666 49.4986 76.3864 50.2239C75.371 51.5294 74.9358 53.4151 74.9358 53.4151L74.5007 54.8656L73.7754 53.5601C73.7754 53.5601 72.76 51.8195 72.615 49.6436C72.615 48.6283 72.615 47.7579 72.76 47.0326C72.4699 47.1777 72.0347 47.4678 71.5996 47.7579C69.8589 49.0634 68.8435 50.3689 68.8435 50.3689C67.9732 51.5294 67.393 52.5447 67.2479 52.9799C67.1029 52.3997 66.5227 51.5294 65.6523 50.3689C65.6523 50.3689 64.782 48.9184 62.8963 47.7579C62.4611 47.4678 62.0259 47.1777 61.7358 47.0326C61.8809 47.7579 61.8809 48.7733 61.8809 49.6436C61.7358 51.8195 60.7204 53.4151 60.7204 53.5601L59.9952 54.7206L59.56 53.27C59.56 53.27 58.9798 51.3843 58.1095 50.0788C57.5292 49.3535 57.0941 48.7733 56.6589 48.4832C56.5138 49.6436 56.2237 51.6744 55.6435 52.8349C54.7732 54.7206 53.6127 56.1711 52.3073 57.0415C52.0171 57.6217 51.582 58.2019 51.1468 58.7821C49.8413 60.2327 48.2457 60.9579 47.5204 61.103C46.9402 61.248 45.6347 61.248 45.6347 61.248C45.6347 61.248 46.9402 61.8283 48.1006 61.9733C49.2611 62.1184 50.2765 61.9733 50.2765 61.9733L49.2611 62.9887H47.0853C46.6501 62.9887 46.36 63.2788 46.36 63.714V66.9052C45.3446 67.0503 43.4589 66.9052 42.1534 65.5997C40.5578 64.0041 40.4127 62.2634 40.7028 61.103C40.8479 60.9579 40.8479 60.6678 40.8479 60.3777C41.138 59.5074 40.5578 58.7821 40.4127 58.6371C40.2677 58.492 40.1226 58.3469 39.9776 58.3469C36.7864 56.3162 31.7094 51.9645 29.8237 46.0173C29.3885 48.6283 29.9688 54.1403 31.8545 57.0415C30.4039 57.6217 28.5182 58.492 27.3578 59.3623C28.083 60.2327 29.9688 61.8283 31.1292 62.5535C30.1138 63.4239 28.5182 65.1645 27.7929 66.325C28.8083 66.9052 30.8391 67.7755 32.4347 68.2107C31.7094 69.3711 30.549 71.547 30.2589 72.8525C31.9995 73.1426 33.8852 73.1426 35.4809 72.9975C35.3358 74.4481 35.4809 76.4788 35.6259 77.7843C37.2215 77.4942 39.1072 76.914 40.2677 76.1887C40.5578 77.2041 41.138 79.2349 41.7182 80.2503C43.0237 78.9448 44.7644 78.3646 46.36 78.3646V79.67C44.7644 79.67 43.0237 80.3953 41.2831 82.4261C41.2831 82.281 39.9776 80.2503 39.3973 78.2195C38.382 78.6547 36.2061 79.525 34.3204 79.67C34.0303 78.2195 33.8852 75.8986 33.8852 74.4481C31.8545 74.4481 29.9688 74.303 28.5182 74.0129C28.8083 72.4173 29.6786 70.2415 30.2589 68.936C28.9534 68.5008 26.6325 67.4854 25.4721 66.7601C26.1973 65.5997 27.938 63.714 28.9534 62.6986C27.7929 61.8283 25.9072 60.0876 25.0369 58.9272C26.3424 57.9118 28.2281 57.0414 29.8237 56.4612C28.6633 54.2854 28.083 50.8041 28.2281 48.9184C26.1973 46.8876 23.2962 43.5513 22.2808 39.4898C20.8303 44.5667 21.1204 51.6744 25.9072 54.8656C23.5863 54.8656 19.5248 55.4458 17.494 56.0261C18.9446 57.7667 22.5709 60.0876 24.7468 61.248C23.0061 61.8283 19.96 63.5689 18.6545 64.7294C20.2501 65.7448 23.8764 66.9052 25.6171 67.3404C24.6017 68.2107 22.5709 70.5316 21.8457 71.692C23.2962 72.1272 26.1973 72.5624 28.083 72.5624C27.5028 73.8678 26.7775 76.0437 26.6325 77.3492C27.5028 77.4942 30.549 77.3492 32.1446 76.914C31.9995 78.2195 31.9995 80.3953 32.2896 81.4107C33.7402 81.2657 35.916 80.5404 36.9314 80.2503C37.2215 81.4107 38.2369 83.7316 38.6721 84.3118C39.3973 84.1668 40.1226 84.0217 40.8479 83.7316C42.8787 83.0063 45.0545 83.8766 45.9248 85.7624C47.3754 89.0986 46.7952 93.0151 44.0391 92.2898C40.8479 92.8701 43.0237 96.9316 41.138 98.2371C43.6039 99.9778 44.3292 95.9162 47.5204 96.6415C47.2303 98.092 47.2303 100.848 47.5204 102.009C48.5358 101.283 49.9864 100.703 50.8567 100.558C50.5666 101.428 50.4215 103.459 50.7116 104.765C51.2919 104.329 55.4985 103.169 55.4985 103.169C55.4985 103.169 53.9029 106.36 54.9182 109.551C55.4985 109.987 59.2699 108.101 59.2699 107.085C59.4149 108.391 57.8193 111.292 55.3534 111.872C57.9644 114.483 60.2853 114.338 60.5754 114.338C61.0106 114.338 61.3007 114.338 61.5908 114.048C61.4457 114.773 61.3007 115.789 61.4457 116.369C61.5908 116.369 61.7358 116.369 61.8809 116.369C62.6062 116.369 63.1864 116.224 63.6215 116.079C63.7666 116.804 64.0567 117.529 64.4919 118.11C64.6369 118.255 64.6369 118.255 64.782 118.4C65.3622 118.4 66.8128 117.674 67.1029 117.239C67.393 117.674 68.8435 118.4 69.4238 118.4C69.5688 118.255 69.7139 118.255 69.7139 118.11C70.2941 117.529 70.5842 116.659 70.5842 116.079C71.1644 116.369 71.7446 116.369 72.3249 116.369C72.4699 116.369 72.615 116.369 72.76 116.369C72.9051 115.789 72.9051 114.773 72.615 114.048C72.9051 114.193 73.3402 114.338 73.6304 114.338C73.9205 114.338 76.2413 114.483 78.8523 111.872C76.3864 111.292 74.7908 108.391 74.9358 107.085C74.9358 108.246 78.7073 109.987 79.2875 109.551C80.3029 106.36 78.7073 103.169 78.7073 103.169C78.7073 103.169 82.7688 104.184 83.4941 104.765C83.7842 103.459 83.6392 101.428 83.349 100.558C84.2194 100.558 85.6699 101.283 86.6853 102.009C86.9754 100.848 86.9754 98.2371 86.6853 96.6415C89.7315 95.9162 90.4567 99.9778 93.0677 98.2371C91.3271 96.9316 93.5029 92.8701 90.1666 92.2898C87.4106 93.1602 86.8304 89.0986 88.2809 85.7624C89.1513 83.8766 91.4721 83.0063 93.3578 83.7316C94.0831 84.0217 94.8084 84.1668 95.5337 84.3118C95.8238 83.7316 96.9842 81.4107 97.2743 80.2503C98.2897 80.6854 100.466 81.2657 101.916 81.4107C102.061 80.3953 102.206 78.2195 102.061 76.914C103.512 77.2041 106.703 77.3492 107.573 77.3492C107.428 75.8986 106.703 73.7228 106.123 72.5624C108.008 72.4173 110.91 72.1272 112.36 71.692C111.635 70.3865 109.604 68.0656 108.589 67.3404C110.329 66.9052 113.956 65.7448 115.551 64.7294C114.536 63.4239 111.49 61.6832 109.749 61.103ZM86.2501 93.7404C86.1051 94.0305 85.96 94.1756 85.815 94.4657C85.815 94.6107 85.6699 94.6107 85.6699 94.7558C85.5249 94.9008 85.3798 95.0459 85.2348 95.336C85.0897 95.4811 85.0897 95.4811 84.9447 95.6261C84.7996 95.9162 84.5095 96.0613 84.3644 96.3514C84.2194 96.4964 84.0743 96.6415 83.9293 96.7865C83.7842 96.9316 83.6392 97.0767 83.4941 97.2217C83.349 97.3668 83.204 97.5118 82.9139 97.8019C82.7688 97.947 82.7688 97.947 82.6238 98.092C82.1886 98.5272 81.6084 98.9624 81.0282 99.2525C80.3029 99.8327 79.5776 100.268 78.7073 100.703C78.4172 100.848 78.1271 100.993 77.8369 101.138C71.3095 104.474 68.1183 107.085 67.1029 107.811H66.9578C65.9424 106.94 62.7512 104.474 56.2237 101.138C55.9336 100.993 55.6435 100.848 55.3534 100.703C54.4831 100.268 53.7578 99.8327 53.0325 99.2525C52.4523 98.8173 52.0171 98.3822 51.4369 98.092C51.2919 97.947 51.1468 97.947 51.1468 97.8019C51.0018 97.6569 50.7116 97.5118 50.5666 97.2217C50.4215 97.0767 50.2765 96.9316 50.1314 96.7865C49.9864 96.6415 49.8413 96.4964 49.6963 96.3514C49.4061 96.0613 49.2611 95.9162 49.116 95.6261C48.971 95.4811 48.971 95.4811 48.8259 95.336C48.6809 95.1909 48.5358 95.0459 48.3908 94.7558C48.3908 94.6107 48.2457 94.6107 48.2457 94.4657C48.1007 94.1756 47.9556 94.0305 47.8105 93.7404C46.9402 91.8547 47.0853 90.2591 47.0853 90.2591V64.8744C47.0853 64.4393 47.3754 64.1491 47.8105 64.1491H49.9864H67.2479H83.9293H86.1051C86.5403 64.1491 86.8304 64.4393 86.8304 64.8744V90.2591C86.9754 90.2591 87.1205 91.8547 86.2501 93.7404Z" fill="#202020"/>
<path d="M85.3797 24.1138C85.9599 24.1138 86.2501 23.6786 86.2501 23.0984C86.2501 22.5182 85.8149 22.083 85.3797 22.083C84.7995 22.083 84.5094 22.5182 84.5094 23.0984C84.5094 23.6786 84.9446 24.1138 85.3797 24.1138Z" fill="#202020"/>
<path d="M85.3799 29.4802C85.9601 29.4802 86.5404 27.0142 86.5404 25.8538C86.5404 25.1285 85.9601 24.6934 85.3799 24.6934C84.7997 24.6934 84.2195 25.1285 84.2195 25.8538C84.2195 27.0142 84.7997 29.4802 85.3799 29.4802Z" fill="#202020"/>
<path d="M84.7996 20.6319H86.105L85.8149 19.0362L87.4105 19.1813V17.8758L85.8149 18.1659L86.105 16.5703H84.7996L84.9446 18.1659L83.349 17.8758V19.1813L84.9446 19.0362L84.7996 20.6319Z" fill="#202020"/>
<path d="M79.7226 32.382C80.1578 32.5271 80.5929 32.5271 81.0281 32.6721H81.1732H81.3182C81.4633 32.6721 81.4633 32.6721 81.4633 32.6721H81.7534C81.8984 32.6721 82.0435 32.6721 82.1885 32.6721C82.3336 32.6721 82.3336 32.6721 82.4787 32.6721C82.6237 32.6721 82.7688 32.6721 82.9138 32.6721C84.0743 32.6721 85.2347 32.382 86.3951 32.0919C87.5556 31.8018 88.716 31.5117 90.0215 31.5117H90.1666H90.3116H90.4567H90.6017H90.7468H90.8919C91.182 30.2062 91.6171 28.7556 91.6171 27.8853C91.6171 26.1446 90.6017 24.2589 87.2655 23.6787C87.2655 25.8545 86.2501 30.9315 85.0896 30.9315H84.9446C83.7842 30.9315 82.7688 25.8545 82.7688 23.6787C79.4325 24.2589 78.4171 26.1446 78.4171 27.8853C78.4171 28.9007 78.8523 30.7864 79.2874 32.0919C79.7226 32.237 79.7226 32.237 79.7226 32.382Z" fill="#202020"/>
<path d="M97.1294 23.2435C97.1294 23.2435 96.259 20.9226 97.7096 20.1973C99.3052 19.6171 97.1294 19.9072 98.2898 16.716C99.5953 12.9446 102.496 13.8149 102.496 13.8149C100.466 12.2193 98.87 12.3643 97.7096 13.2347C96.9843 13.8149 95.9689 14.9753 95.2437 17.2962C94.6634 20.1973 95.6788 22.9534 97.1294 23.2435Z" fill="#202020"/>
<path d="M104.672 17.5861C104.817 22.3729 112.795 24.4037 112.795 24.4037C112.795 24.4037 108.153 21.0674 109.024 18.6014C109.024 18.6014 112.07 19.9069 115.551 19.3267C108.153 17.7311 110.619 15.4102 108.734 13.5245C106.848 11.4937 103.947 11.3487 103.222 11.2036C101.336 11.0586 101.191 11.0586 99.015 11.6388C104.092 11.7839 104.672 14.3948 104.672 17.5861Z" fill="#202020"/>
<path d="M103.657 26.5793C104.672 22.8078 102.786 21.0672 102.786 21.0672C102.206 20.3419 99.1601 20.4869 97.9996 21.2122C97.9996 21.2122 100.901 21.2122 100.466 25.4188C100.03 29.6254 94.2282 30.4957 92.6326 30.6408L92.4875 31.221C95.2436 31.221 102.496 30.3507 103.657 26.5793Z" fill="#202020"/>
<path d="M73.3401 26.4346H70.439C71.8895 30.4961 76.0961 31.8016 78.8522 32.2368L78.7071 31.8016C75.806 30.6412 74.3555 29.4807 73.3401 26.4346Z" fill="#202020"/>
<path d="M49.2611 24.1138C49.8413 24.1138 50.1314 23.6786 50.1314 23.0984C50.1314 22.5182 49.6963 22.083 49.2611 22.083C48.6809 22.083 48.3908 22.5182 48.3908 23.0984C48.2457 23.6786 48.6809 24.1138 49.2611 24.1138Z" fill="#202020"/>
<path d="M49.2614 29.4802C49.8416 29.4802 50.4218 27.0142 50.4218 25.8538C50.4218 25.1285 49.8416 24.6934 49.2614 24.6934C48.6812 24.6934 48.101 25.1285 48.101 25.8538C48.101 27.0142 48.5361 29.4802 49.2614 29.4802Z" fill="#202020"/>
<path d="M48.536 20.6319H49.8415L49.6964 19.0362L51.292 19.1813V17.8758L49.6964 18.1659L49.8415 16.5703H48.536L48.8261 18.1659L47.2305 17.8758V19.1813L48.8261 19.0362L48.536 20.6319Z" fill="#202020"/>
<path d="M43.4589 31.5112H43.6039H43.749H44.0391C44.1841 31.5112 44.1841 31.5112 44.1841 31.5112H44.3292C45.6347 31.6562 46.9402 31.8013 47.9556 32.0914C48.971 32.3815 50.2765 32.6716 51.4369 32.6716C51.582 32.6716 51.727 32.6716 51.8721 32.6716C52.0171 32.6716 52.0171 32.6716 52.1622 32.6716C52.3072 32.6716 52.4523 32.6716 52.5973 32.6716H52.8874H53.0325H53.1776H53.3226C53.7578 32.6716 54.1929 32.5266 54.6281 32.3815C54.6281 32.2364 54.6281 32.2364 54.7732 32.2364C55.2083 30.9309 55.6435 29.0452 55.6435 28.0298C55.6435 26.2892 54.7732 24.4035 51.2918 23.8232C51.2918 25.854 50.2765 31.076 49.116 31.076H48.971C47.8105 31.076 46.7951 25.9991 46.7951 23.8232C43.4589 24.4035 42.4435 26.2892 42.4435 28.0298C42.4435 28.9002 42.7336 30.3507 43.1688 31.6562C43.3138 31.5112 43.3138 31.5112 43.4589 31.5112Z" fill="#202020"/>
<path d="M31.9996 13.8147C31.9996 13.8147 34.9007 12.9444 36.2062 16.7158C37.3667 19.9071 35.1908 19.6169 36.7865 20.1972C38.3821 20.7774 37.3667 23.2433 37.3667 23.2433C38.9623 22.9532 39.9777 20.1972 39.1073 17.151C38.3821 14.8301 37.3667 13.6697 36.6414 13.0895C35.481 12.3642 34.0304 12.2191 31.9996 13.8147Z" fill="#202020"/>
<path d="M25.4722 18.6014C26.3425 21.0674 21.7008 24.4036 21.7008 24.4036C21.7008 24.4036 29.8239 22.3729 29.8239 17.586C29.9689 14.3948 30.4041 11.7838 35.336 11.6388C33.1601 11.2036 33.0151 11.2036 31.1294 11.2036C30.4041 11.2036 27.503 11.4937 25.6173 13.5245C23.8766 15.4102 26.1975 17.7311 18.7997 19.3267C22.4261 19.9069 25.4722 18.6014 25.4722 18.6014Z" fill="#202020"/>
<path d="M34.1755 25.4191C33.7404 21.2125 36.6415 21.2125 36.6415 21.2125C35.6261 20.4873 32.5799 20.4873 31.8546 21.0675C31.8546 21.0675 29.9689 22.6631 30.9843 26.5796C31.9997 30.351 39.3975 31.2213 42.1536 31.2213L42.0085 30.6411C40.4129 30.4961 34.6107 29.6257 34.1755 25.4191Z" fill="#202020"/>
<path d="M64.202 26.4346H61.3009C60.2855 29.4807 58.835 30.6412 55.9339 31.8016L55.7888 32.2368C58.6899 31.8016 62.7515 30.4961 64.202 26.4346Z" fill="#202020"/>
<path d="M71.0196 44.2764C70.1492 45.5819 69.424 47.0324 68.8438 48.483C69.2789 47.9027 70.0042 47.3225 70.7295 46.7423C72.035 45.872 73.1954 45.2918 73.1954 45.2918L74.3558 44.8566L74.0657 46.017C74.0657 46.017 73.6306 47.9028 73.7756 49.4984C73.7756 50.2236 74.0657 50.9489 74.2108 51.3841C74.5009 50.6588 74.9361 49.9335 75.3712 49.2082C76.8218 47.3225 77.9822 46.5973 77.9822 46.5973L78.8526 46.1621V47.1775C78.8526 47.1775 79.1427 50.5137 79.8679 52.2544C81.1734 55.1555 83.6394 56.7511 85.0899 57.4764C84.9449 57.3313 84.6548 57.0412 84.3646 56.7511C83.6394 56.0258 82.9141 54.7203 82.4789 51.9643C82.1888 49.6434 83.0592 47.3225 83.3493 46.5973C83.4943 47.1775 83.7844 47.7577 84.0745 47.9028C84.0745 47.9028 84.0745 47.3225 84.2196 46.7423C84.5097 45.1467 86.2504 42.6808 88.5713 41.2302C89.0064 40.9401 89.4416 40.65 89.7317 40.5049C90.1669 40.3599 90.457 40.0698 90.7471 39.7797C90.3119 39.7797 89.7317 39.9247 89.2965 39.9247H89.1515C88.8614 39.9247 88.4262 39.9247 87.846 39.9247C86.6855 39.9247 85.38 39.7797 84.3646 38.9093C83.3493 38.039 82.9141 37.1687 82.769 36.5885C82.3339 36.5885 81.7537 36.5885 81.0284 36.5885C80.1581 36.5885 79.4328 36.2983 78.9976 36.2983C77.8372 37.0236 76.6767 37.3137 75.2262 37.4588C75.0811 37.4588 74.791 37.4588 74.646 37.4588C75.0811 37.8939 75.6613 38.1841 76.0965 38.4742C76.0965 38.4742 76.0965 38.4742 76.2416 38.4742L75.9515 38.6192C76.0965 38.4742 74.0657 39.6346 71.0196 44.2764Z" fill="#202020"/>
<path d="M90.0218 36.1528C89.4415 36.1528 89.0064 36.1528 88.4261 36.1528C88.4261 36.4429 88.4261 36.7331 88.4261 37.0232C88.5712 37.4583 88.7163 37.7484 89.0064 38.0386C89.4415 37.7484 89.8767 37.0232 90.0218 36.1528Z" fill="#202020"/>
<path d="M91.182 32.817C91.037 32.817 91.037 32.817 91.182 32.817H91.037C91.037 32.817 91.037 32.817 90.8919 32.817C90.7468 32.817 90.7468 32.817 90.6018 32.817C89.4413 32.817 88.2809 33.1071 87.1205 33.3972C85.96 33.6873 84.6545 33.9774 83.4941 33.9774C83.204 33.9774 83.0589 33.9774 82.7688 33.9774C82.6238 33.9774 82.4787 33.9774 82.3336 33.9774C82.1886 33.9774 82.1886 33.9774 82.0435 33.9774C81.8985 33.9774 81.8985 33.9774 81.7534 33.9774C81.7534 33.9774 81.7534 33.9774 81.6084 33.9774C81.6084 33.9774 81.6084 33.9774 81.4633 33.9774C78.8523 33.6873 77.1117 32.817 76.2413 32.3818C76.3864 32.6719 76.6765 32.9621 77.1117 33.3972C77.2567 33.5423 77.4018 33.6873 77.5468 33.8324C77.8369 34.1225 78.2721 34.4126 78.7073 34.7027C79.2875 34.9928 81.7534 36.0082 84.9446 35.573C88.571 34.9928 89.2963 35.1379 90.1666 35.1379H90.4567C91.7622 35.2829 93.6479 36.0082 94.3732 36.4434C94.6633 35.7181 95.0985 34.9928 95.2436 34.2676C95.0985 34.1225 94.8084 33.8324 94.2282 33.5423C94.0831 33.3972 93.9381 33.3972 93.6479 33.2522C93.3578 33.1071 92.9227 32.9621 92.3424 32.9621C91.7622 32.817 91.4721 32.817 91.182 32.817Z" fill="#202020"/>
<path d="M101.336 44.7114C101.191 44.7114 99.8851 45.4366 97.1291 43.696C94.3731 41.9553 92.3423 41.2301 91.1818 40.9399C90.8917 41.085 90.7467 41.2301 90.4566 41.3751C90.1665 41.5202 89.7313 41.8103 89.2961 42.1004C89.1511 42.2454 89.006 42.2454 88.861 42.3905C88.861 42.3905 89.006 42.3905 89.1511 42.3905C91.7621 42.6806 93.7928 44.1312 93.9379 44.7114H94.0829C94.3731 43.841 93.9379 43.1158 93.9379 43.1158C93.9379 43.1158 95.0983 43.841 97.4192 45.1465C99.8851 46.7421 100.901 45.2916 101.336 44.7114Z" fill="#202020"/>
<path d="M87.5557 37.6038C87.4107 37.4587 87.2656 37.1686 87.1206 37.0236C86.9755 36.7335 86.9755 36.5884 86.9755 36.4434C86.3953 36.4434 85.67 36.5884 84.7997 36.7335C84.6546 36.7335 84.3645 36.7335 84.2195 36.7335C84.6546 37.6038 85.3799 38.4741 86.8305 38.7642C86.9755 38.7642 86.9755 38.7642 87.1206 38.7642C87.2656 38.7642 87.2656 38.7642 87.4107 38.7642C87.9909 38.9093 88.7162 38.9093 89.1514 38.9093C90.1667 38.9093 91.3272 38.7642 92.4876 38.4741C92.7777 38.184 92.9228 37.7489 93.2129 37.4587C93.2129 37.4587 93.0678 37.3137 92.9228 37.3137C92.6327 37.1686 91.9074 36.7335 91.4722 36.5884C91.3272 37.0236 91.0371 37.4587 90.747 37.7489C90.3118 38.039 89.7316 38.184 89.1514 38.184C88.5711 38.184 87.9909 38.039 87.7008 37.7489C87.5557 37.7489 87.5557 37.6038 87.5557 37.6038Z" fill="#202020"/>
<path d="M95.2436 35.4277C94.3733 37.7486 92.9227 39.4893 91.9073 40.3596C98.4348 38.6189 99.5953 41.9552 99.5953 42.1003C99.5953 42.2453 99.5953 42.2453 99.7403 42.1003C99.8854 41.9552 102.061 39.6343 100.466 37.4585C99.1601 35.7178 96.259 35.4277 95.2436 35.4277ZM95.2436 37.1684C95.5337 36.8783 95.6788 36.2981 95.6788 36.2981C96.1139 36.2981 96.9843 36.4431 96.9843 37.0233C96.4041 36.8783 95.6788 36.8783 95.2436 37.1684Z" fill="#202020"/>
<path d="M46.215 37.0232C46.215 36.7331 46.215 36.4429 46.215 36.1528C45.6348 36.1528 45.0546 36.1528 44.6194 36.1528C44.7644 37.0232 45.1996 37.7484 45.6348 38.0386C45.9249 37.7484 46.0699 37.4583 46.215 37.0232Z" fill="#202020"/>
<path d="M53.6128 33.8324C53.4677 33.8324 53.4677 33.8324 53.6128 33.8324C53.4677 33.8324 53.4677 33.8324 53.4677 33.8324C53.4677 33.8324 53.4677 33.8324 53.3227 33.8324C53.1776 33.8324 53.1776 33.8324 53.0326 33.8324C52.8875 33.8324 52.8875 33.8324 52.7424 33.8324C52.5974 33.8324 52.4523 33.8324 52.3073 33.8324C52.0172 33.8324 51.8721 33.8324 51.582 33.8324C50.2765 33.8324 49.1161 33.5423 47.9556 33.2522C46.6501 33.1071 45.4897 32.817 44.3292 32.817C44.1842 32.817 44.1842 32.817 44.0391 32.817C44.0391 32.817 44.0391 32.817 43.8941 32.817C43.604 32.817 43.3139 32.817 43.1688 32.817C42.5886 32.817 42.1534 32.9621 41.8633 33.1071C41.7183 33.2522 41.4281 33.2522 41.2831 33.3973C40.8479 33.6874 40.5578 33.8324 40.2677 34.1225C40.4128 34.8478 40.8479 35.7181 41.138 36.2984C41.8633 35.8632 43.749 34.9929 45.0545 34.9929H45.3446C46.215 34.9929 46.9402 34.8478 50.5666 35.428C53.7578 35.8632 56.0787 34.8478 56.804 34.5577C57.2391 34.2676 57.6743 33.9775 57.9644 33.6874C58.1095 33.5423 58.2545 33.3973 58.3996 33.2522C58.6897 32.817 58.9798 32.5269 59.2699 32.2368C57.9644 32.672 56.2238 33.5423 53.6128 33.8324Z" fill="#202020"/>
<path d="M33.3049 44.7113C33.7401 45.1465 34.7555 46.7421 37.0764 45.4366C39.3972 44.1311 40.5577 43.4058 40.5577 43.4058C40.5577 43.4058 40.1225 44.1311 40.4126 45.0014C40.4126 45.0014 40.4126 45.0014 40.5577 45.0014C40.8478 44.4212 42.8786 42.8256 45.3445 42.6805C45.4896 42.6805 45.4896 42.6805 45.6346 42.6805C45.4896 42.5355 45.3445 42.5355 45.1994 42.3904C44.7643 42.1003 44.3291 41.8102 44.039 41.6651C43.7489 41.5201 43.6038 41.375 43.3137 41.23C42.1533 41.375 40.1225 42.2454 37.3665 43.986C34.7555 45.4366 33.45 44.7113 33.3049 44.7113Z" fill="#202020"/>
<path d="M43.1688 36.5884C42.8787 36.7335 42.0083 37.1686 41.7182 37.3137C41.5732 37.3137 41.5732 37.4587 41.4281 37.4587C41.7182 37.8939 41.8633 38.184 42.1534 38.4741C43.3138 38.7642 44.4743 38.9093 45.4896 38.9093C46.0699 38.9093 46.6501 38.9093 47.2303 38.7642C47.3754 38.7642 47.3754 38.7642 47.5204 38.7642C47.6655 38.7642 47.6655 38.7642 47.8105 38.7642C49.2611 38.4741 50.1314 37.4587 50.4215 36.7335C50.2765 36.7335 49.9864 36.7335 49.8413 36.7335C48.971 36.5884 48.2457 36.4434 47.6655 36.4434C47.6655 36.5884 47.5204 36.8785 47.5204 37.0236C47.3754 37.3137 47.2303 37.4587 47.0852 37.6038L46.9402 37.7489C46.505 38.039 46.0699 38.184 45.4896 38.184C44.9094 38.184 44.3292 38.039 43.894 37.7489C43.4589 37.4587 43.3138 37.0236 43.1688 36.5884Z" fill="#202020"/>
<path d="M34.0304 37.4585C32.4348 39.6343 34.6107 41.9552 34.7557 42.1003C34.9008 42.2453 34.9008 42.1003 34.9008 42.1003C34.9008 41.9552 36.0612 38.6189 42.5887 40.3596C41.5733 39.4893 40.1227 37.7486 39.2524 35.4277C38.3821 35.4277 35.3359 35.7178 34.0304 37.4585ZM39.3975 37.1684C38.9623 36.8783 38.237 36.8783 37.6568 37.0233C37.6568 36.4431 38.5271 36.2981 38.9623 36.2981C38.9623 36.2981 39.1074 36.8783 39.3975 37.1684Z" fill="#202020"/>
<path d="M59.8504 37.4588C59.7053 37.4588 59.4152 37.4588 59.2702 37.4588C57.8196 37.4588 56.6592 37.0236 55.4987 36.2983C55.0636 36.4434 54.1932 36.5885 53.468 36.5885C52.7427 36.5885 52.0174 36.5885 51.7273 36.5885C51.5822 37.1687 51.1471 38.1841 50.1317 38.9093C49.1163 39.7797 47.8108 39.9247 46.6504 39.9247C46.0701 39.9247 45.635 39.9247 45.3449 39.9247H45.1998C44.9097 39.9247 44.3295 39.7797 43.7493 39.7797C44.1844 40.0698 44.4745 40.2148 44.7647 40.5049C45.0548 40.65 45.4899 40.9401 45.9251 41.2302C48.246 42.8258 49.9866 45.1467 50.2767 46.7423C50.4218 47.3225 50.4218 47.9028 50.4218 47.9028C50.7119 47.7577 51.002 47.1775 51.1471 46.5973C51.4372 47.3225 52.4526 49.6434 52.0174 51.9643C51.5822 54.7203 50.857 56.0258 50.1317 56.7511C49.8416 57.0412 49.5515 57.3313 49.4064 57.4764C50.857 56.7511 53.3229 55.1555 54.6284 52.2544C55.3537 50.6588 55.6438 47.3225 55.6438 47.3225V46.3071L56.5141 46.7423C56.5141 46.7423 57.8196 47.4676 59.1251 49.3533C59.5603 50.0786 59.9954 50.8039 60.2856 51.5291C60.4306 50.9489 60.5757 50.3687 60.7207 49.6434C60.8658 47.9027 60.4306 46.1621 60.4306 46.1621L60.1405 45.0016L61.3009 45.4368C61.3009 45.4368 62.4614 45.872 63.7669 46.8874C64.6372 47.4676 65.2174 48.0478 65.6526 48.628C65.0724 47.1775 64.4922 45.7269 63.4768 44.4214C60.4306 39.7797 58.5449 38.7643 58.5449 38.7643L58.2548 38.6192C58.2548 38.6192 58.2548 38.6192 58.3998 38.6192C58.835 38.1841 59.4152 37.7489 59.8504 37.4588Z" fill="#202020"/>
</g>
<defs>
<filter id="filter0_d_4826_1770" x="0.874268" y="0.904785" width="505.539" height="147.253" filterUnits="userSpaceOnUse" color-interpolation-filters="sRGB">
<feFlood flood-opacity="0" result="BackgroundImageFix"/>
<feColorMatrix in="SourceAlpha" type="matrix" values="0 0 0 0 0 0 0 0 0 0 0 0 0 0 0 0 0 0 127 0" result="hardAlpha"/>
<feOffset dy="4"/>
<feGaussianBlur stdDeviation="2"/>
<feComposite in2="hardAlpha" operator="out"/>
<feColorMatrix type="matrix" values="0 0 0 0 0 0 0 0 0 0 0 0 0 0 0 0 0 0 0.25 0"/>
<feBlend mode="normal" in2="BackgroundImageFix" result="effect1_dropShadow_4826_1770"/>
<feBlend mode="normal" in="SourceGraphic" in2="effect1_dropShadow_4826_1770" result="shape"/>
</filter>
<clipPath id="clip0_4826_1770">
<rect width="497.539" height="139.253" fill="white" transform="translate(4.87427 0.904785)"/>
</clipPath>
</defs>
</svg>
