<svg width="483" height="95" viewBox="0 0 483 95" fill="none" xmlns="http://www.w3.org/2000/svg">
<g clip-path="url(#clip0_4826_2023)" filter="url(#filter0_d_4826_2023)">
<path d="M468.562 16.3672H16.4377V75.1218H468.562V16.3672Z" fill="white"/>
<mask id="mask0_4826_2023" style="mask-type:luminance" maskUnits="userSpaceOnUse" x="4" y="0" width="475" height="87">
<path d="M11.9082 0.848633H471.342C475.357 0.848633 478.625 4.11707 478.625 8.13183V78.9307C478.625 82.9455 475.357 86.2139 471.342 86.2139H11.9082C7.89343 86.2139 4.625 82.9455 4.625 78.9307V8.13183C4.625 4.11707 7.89343 0.848633 11.9082 0.848633Z" fill="white"/>
</mask>
<g mask="url(#mask0_4826_2023)">
<path d="M215.504 30.5732C210.485 30.5732 209.121 33.6615 209.121 38.1138V48.9485C209.121 53.4523 210.485 56.592 215.504 56.592C220.522 56.592 221.937 53.4523 221.937 48.9485V38.1138C221.937 33.713 220.573 30.5732 215.504 30.5732Z" fill="#202020"/>
</g>
<mask id="mask1_4826_2023" style="mask-type:luminance" maskUnits="userSpaceOnUse" x="4" y="0" width="475" height="87">
<path d="M11.9082 0.848633H471.342C475.357 0.848633 478.625 4.11707 478.625 8.13183V78.9307C478.625 82.9455 475.357 86.2139 471.342 86.2139H11.9082C7.89343 86.2139 4.625 82.9455 4.625 78.9307V8.13183C4.625 4.11707 7.89343 0.848633 11.9082 0.848633Z" fill="white"/>
</mask>
<g mask="url(#mask1_4826_2023)">
<path d="M249.474 31.2422H243.812V41.871H250.143C253.695 41.871 254.853 39.8894 254.853 37.7791V35.3599C254.853 33.3525 253.798 31.2422 249.474 31.2422Z" fill="#202020"/>
</g>
<mask id="mask2_4826_2023" style="mask-type:luminance" maskUnits="userSpaceOnUse" x="4" y="0" width="475" height="87">
<path d="M11.9082 0.848633H471.342C475.357 0.848633 478.625 4.11707 478.625 8.13183V78.9307C478.625 82.9455 475.357 86.2139 471.342 86.2139H11.9082C7.89343 86.2139 4.625 82.9455 4.625 78.9307V8.13183C4.625 4.11707 7.89343 0.848633 11.9082 0.848633Z" fill="white"/>
</mask>
<g mask="url(#mask2_4826_2023)">
<path d="M181.455 35.1802V51.8826C186.525 51.8826 188.378 48.6914 188.378 44.1877V42.7722C188.352 38.3714 186.576 35.1802 181.455 35.1802Z" fill="#202020"/>
</g>
<mask id="mask3_4826_2023" style="mask-type:luminance" maskUnits="userSpaceOnUse" x="4" y="0" width="475" height="87">
<path d="M11.9082 0.848633H471.342C475.357 0.848633 478.625 4.11707 478.625 8.13183V78.9307C478.625 82.9455 475.357 86.2139 471.342 86.2139H11.9082C7.89343 86.2139 4.625 82.9455 4.625 78.9307V8.13183C4.625 4.11707 7.89343 0.848633 11.9082 0.848633Z" fill="white"/>
</mask>
<g mask="url(#mask3_4826_2023)">
<path d="M107.619 48.2792H116.421C115.108 43.827 113.641 39.5291 112.02 35.2827C110.45 39.5291 108.983 43.827 107.619 48.2792Z" fill="#202020"/>
</g>
<mask id="mask4_4826_2023" style="mask-type:luminance" maskUnits="userSpaceOnUse" x="4" y="0" width="475" height="87">
<path d="M11.9082 0.848633H471.342C475.357 0.848633 478.625 4.11707 478.625 8.13183V78.9307C478.625 82.9455 475.357 86.2139 471.342 86.2139H11.9082C7.89343 86.2139 4.625 82.9455 4.625 78.9307V8.13183C4.625 4.11707 7.89343 0.848633 11.9082 0.848633Z" fill="white"/>
</mask>
<g mask="url(#mask4_4826_2023)">
<path d="M316.902 48.2792H325.703C324.391 43.827 322.924 39.5291 321.303 35.2827C319.733 39.5291 318.266 43.827 316.902 48.2792Z" fill="#202020"/>
</g>
<mask id="mask5_4826_2023" style="mask-type:luminance" maskUnits="userSpaceOnUse" x="4" y="0" width="475" height="87">
<path d="M11.9082 0.848633H471.342C475.357 0.848633 478.625 4.11707 478.625 8.13183V78.9307C478.625 82.9455 475.357 86.2139 471.342 86.2139H11.9082C7.89343 86.2139 4.625 82.9455 4.625 78.9307V8.13183C4.625 4.11707 7.89343 0.848633 11.9082 0.848633Z" fill="white"/>
</mask>
<g mask="url(#mask5_4826_2023)">
<path d="M167.352 42.7722V44.1877C167.352 48.6914 169.23 51.8826 174.275 51.8826V35.1802C169.179 35.1802 167.352 38.3714 167.352 42.7722Z" fill="#202020"/>
</g>
<mask id="mask6_4826_2023" style="mask-type:luminance" maskUnits="userSpaceOnUse" x="4" y="0" width="475" height="87">
<path d="M11.9082 0.848633H471.342C475.357 0.848633 478.625 4.11707 478.625 8.13183V78.9307C478.625 82.9455 475.357 86.2139 471.342 86.2139H11.9082C7.89343 86.2139 4.625 82.9455 4.625 78.9307V8.13183C4.625 4.11707 7.89343 0.848633 11.9082 0.848633Z" fill="white"/>
</mask>
<g mask="url(#mask6_4826_2023)">
<path d="M4.625 86.2139H478.625V0.848633H4.625V86.2139ZM56.5082 59.526C56.5082 61.5077 54.8353 63.0775 52.9052 63.0775C50.9235 63.0775 49.3022 61.5077 49.3022 59.526V31.3454H35.688V59.526C35.688 61.5077 34.0666 63.0775 32.085 63.0775C30.0519 63.0775 28.482 61.5077 28.482 59.526V27.8968C28.482 26.0181 30.0004 24.4483 31.8791 24.4483H53.0081C54.9897 24.4483 56.5082 26.0181 56.5082 27.8968V59.526ZM92.9242 59.4745C92.9242 61.5077 91.5087 63.0775 89.3726 63.0775C87.1851 63.0775 85.7696 61.5077 85.7696 59.4745V31.3454H73.3393V39.9411C73.3393 45.1912 72.6702 53.6583 70.0966 58.8054C68.7326 61.5849 67.1627 63.1033 65.0267 63.1033C63.148 63.1033 61.4751 61.5334 61.4751 59.6032C61.4751 57.287 63.7914 56.1032 64.8723 52.5259C65.8245 49.4376 66.0818 45.7059 66.0818 39.9669V27.9226C66.0818 26.0953 67.6517 24.5255 69.5819 24.5255H89.4756C91.4572 24.5255 92.9242 26.0953 92.9242 27.9226V59.4745ZM123.009 63.1033C121.491 63.1033 119.972 62.254 119.561 60.2723C119.149 58.3936 118.66 56.4892 118.145 54.7134H105.895C105.432 56.4892 104.943 58.3679 104.531 60.2723C104.068 62.2025 102.601 63.1033 101.134 63.1033C99.1522 63.1033 97.0933 61.4305 97.6853 58.7025C100.207 47.7648 103.502 37.5992 107.491 27.691C108.752 24.5512 110.527 23.9078 112.097 23.9078C113.719 23.9078 115.597 24.5255 116.858 27.691C120.899 37.5992 124.142 47.7648 126.612 58.7025C127.204 61.4305 125.12 63.1033 123.009 63.1033ZM154.664 31.3969H146.66V59.526C146.66 61.4562 145.039 63.0775 143.109 63.0775C141.127 63.0775 139.506 61.4562 139.506 59.526V31.3969H131.502C129.572 31.3969 128.002 29.8785 128.002 27.9483C128.002 26.0181 129.572 24.4483 131.502 24.4483H154.664C156.594 24.4483 158.113 26.0181 158.113 27.9483C158.113 29.8785 156.594 31.3969 154.664 31.3969ZM195.532 44.1875C195.532 51.3678 191.698 58.3936 181.455 58.3936V59.5003C181.455 61.4304 179.885 63.1033 177.852 63.1033C175.922 63.1033 174.3 61.4304 174.3 59.5003V58.3936C164.083 58.3936 160.223 51.3678 160.223 44.1875V42.7721C160.223 35.6433 164.109 28.6947 174.3 28.6947V27.588C174.3 25.6064 175.922 23.985 177.852 23.985C179.885 23.985 181.455 25.6064 181.455 27.588V28.6947C191.723 28.6947 195.532 35.669 195.532 42.7721V44.1875ZM229.169 48.9486C229.169 56.1289 225.72 63.1547 215.503 63.1547C205.286 63.1547 201.889 56.1289 201.889 48.9486V38.1139C201.889 30.9337 205.286 23.985 215.503 23.985C225.72 23.985 229.169 30.9594 229.169 38.1139V48.9486ZM262.033 37.908C262.033 44.1875 257.838 48.4854 250.401 48.4854H243.787V59.4745C243.787 61.4562 242.165 63.0775 240.184 63.0775C238.151 63.0775 236.581 61.4562 236.581 59.4745V28.0513C236.581 26.1211 238.151 24.4483 240.184 24.4483H250.092C259.151 24.4483 262.033 30.0586 262.033 35.2315V37.908ZM302.155 59.7576C302.155 61.5849 300.688 63.1033 298.758 63.1033C296.931 63.1033 295.464 61.5849 295.464 59.7576V39.8639L288.387 54.6877C287.64 56.1032 286.457 56.8238 285.093 56.8238C283.832 56.8238 282.57 56.1546 281.85 54.6877L274.773 39.9154V59.7576C274.773 61.5849 273.306 63.1033 271.427 63.1033C269.6 63.1033 268.133 61.5849 268.133 59.7576V27.3307C268.133 25.349 269.651 23.985 271.53 23.985C273.306 23.985 274.309 24.5512 275.03 26.1211L285.195 46.7096L295.413 25.9152C296.133 24.2938 297.343 23.985 298.758 23.985C300.688 23.985 302.155 25.5034 302.155 27.3307V59.7576ZM332.292 63.1033C330.773 63.1033 329.255 62.254 328.843 60.2723C328.431 58.3936 327.968 56.4892 327.428 54.7134H315.178C314.714 56.4892 314.225 58.3679 313.814 60.2723C313.35 62.2025 311.883 63.1033 310.416 63.1033C308.435 63.1033 306.376 61.4305 306.968 58.7025C309.49 47.7648 312.784 37.5992 316.773 27.691C318.034 24.5512 319.81 23.9078 321.38 23.9078C323.001 23.9078 324.88 24.5255 326.141 27.691C330.182 37.5992 333.424 47.7648 335.895 58.7025C336.487 61.4305 334.402 63.1033 332.292 63.1033ZM384.741 59.526C384.741 61.4562 383.12 63.0775 381.138 63.0775C379.208 63.0775 377.587 61.4562 377.587 59.526V47.1214H363.972V59.526C363.972 61.4562 362.351 63.0775 360.369 63.0775C358.388 63.0775 356.818 61.4562 356.818 59.526V27.6395C356.818 25.6064 358.388 24.0365 360.369 24.0365C362.351 24.0365 363.972 25.6064 363.972 27.6395V40.6875H377.587V27.6395C377.587 25.6064 379.208 24.0365 381.138 24.0365C383.12 24.0365 384.741 25.6064 384.741 27.6395V59.526ZM416.242 31.3969H408.238V59.526C408.238 61.4562 406.616 63.0775 404.686 63.0775C402.705 63.0775 401.083 61.4562 401.083 59.526V31.3969H393.08C391.149 31.3969 389.579 29.8785 389.579 27.9483C389.579 26.0181 391.149 24.4483 393.08 24.4483H416.293C418.223 24.4483 419.742 26.0181 419.742 27.9483C419.716 29.8785 418.198 31.3969 416.242 31.3969ZM453.404 59.4745C453.404 61.4047 451.783 63.0775 449.801 63.0775C447.871 63.0775 446.198 61.4047 446.198 59.4745V40.25L431.683 56.4892V59.4745C431.683 61.4047 430.062 63.0775 428.08 63.0775C426.098 63.0775 424.529 61.4047 424.529 59.4745V27.588C424.529 25.6064 426.098 23.985 428.08 23.985C430.062 23.985 431.683 25.6064 431.683 27.588V46.7611L446.198 30.5734V27.588C446.198 25.6064 447.871 23.985 449.801 23.985C451.783 23.985 453.404 25.6064 453.404 27.588V59.4745Z" fill="#202020"/>
</g>
</g>
<defs>
<filter id="filter0_d_4826_2023" x="0.625" y="0.848633" width="482" height="93.3652" filterUnits="userSpaceOnUse" color-interpolation-filters="sRGB">
<feFlood flood-opacity="0" result="BackgroundImageFix"/>
<feColorMatrix in="SourceAlpha" type="matrix" values="0 0 0 0 0 0 0 0 0 0 0 0 0 0 0 0 0 0 127 0" result="hardAlpha"/>
<feOffset dy="4"/>
<feGaussianBlur stdDeviation="2"/>
<feComposite in2="hardAlpha" operator="out"/>
<feColorMatrix type="matrix" values="0 0 0 0 0 0 0 0 0 0 0 0 0 0 0 0 0 0 0.25 0"/>
<feBlend mode="normal" in2="BackgroundImageFix" result="effect1_dropShadow_4826_2023"/>
<feBlend mode="normal" in="SourceGraphic" in2="effect1_dropShadow_4826_2023" result="shape"/>
</filter>
<clipPath id="clip0_4826_2023">
<rect width="474" height="85.3653" fill="white" transform="translate(4.625 0.848633)"/>
</clipPath>
</defs>
</svg>
