<svg width="550" height="94" viewBox="0 0 550 94" fill="none" xmlns="http://www.w3.org/2000/svg">
<g clip-path="url(#clip0_4826_1606)" filter="url(#filter0_d_4826_1606)">
<path d="M246.522 26.6603L257.8 18.2607H220.044V68.5758H257.8V60.1762H230.832V47.3297H253.877V38.9302H230.832V26.6603H246.522Z" fill="#202020"/>
<path d="M191.523 37.8596H178.448V26.6603H199.369L210.646 18.2607H167.661V68.5758H190.134C202.72 68.5758 209.993 62.8113 209.993 52.7647C209.993 43.1299 203.455 37.8596 191.523 37.8596ZM189.726 60.1762H178.448V46.2592H189.726C196.59 46.2592 199.778 48.5649 199.778 53.2588C199.778 57.9528 196.345 60.1762 189.726 60.1762Z" fill="#202020"/>
<path d="M288.364 18.2607H267.852V68.5758H278.639V54.3292H288.446C301.521 54.3292 309.694 47.4121 309.694 36.2951C309.694 25.178 301.521 18.2607 288.364 18.2607ZM288.119 45.9298H278.558V26.6603H288.119C295.066 26.6603 298.825 30.1189 298.825 36.2951C298.825 42.4712 295.066 45.9298 288.119 45.9298Z" fill="#202020"/>
<path d="M149.191 57.705C146.331 59.2697 143.144 60.0933 139.875 60.0933C130.15 60.0933 123.122 53.0937 123.122 43.459C123.122 33.8242 130.15 26.8246 139.875 26.8246C143.389 26.7423 146.821 27.8951 149.682 29.9539L157.445 24.1894L156.955 23.6953C152.46 19.6603 146.413 17.6016 139.548 17.6016C132.111 17.6016 125.328 20.1543 120.425 24.7659C115.521 29.5421 112.743 36.2123 112.907 43.1296C112.825 50.1292 115.521 56.882 120.425 61.8224C125.574 66.6814 132.438 69.3985 139.466 69.2341C147.23 69.2341 154.013 66.5165 158.589 61.5756L151.643 56.3877L149.191 57.705Z" fill="#202020"/>
<path d="M439.386 18.3431V68.6578H450.174V48.0708H473.138V68.6578H483.925V18.3431H473.138V39.0126H450.174V18.3431H439.386ZM420.835 68.6578H432.195L411.111 18.3431H400.16L378.667 68.6578H389.536L393.867 58.529H416.75L420.835 68.6578ZM397.136 50.1296L405.472 29.9542L413.317 50.1296H397.136ZM508.115 48.3179H514.816L531.323 68.5758H545.215L523.152 42.5535L542.437 18.2607H530.099L514.081 39.836H508.115V18.2607H497.328V68.5758H508.115V48.3179ZM343.036 37.942V26.7426H371.23V18.3431H332.249V68.6578H354.723C367.308 68.6578 374.581 62.8938 374.581 52.8471C374.581 43.2123 368.043 37.942 356.112 37.942H343.036ZM343.036 60.2586V46.3415H354.314C361.178 46.3415 364.366 48.6473 364.366 53.3412C364.366 58.0353 361.015 60.3406 354.314 60.3406H343.036V60.2586Z" fill="#202020"/>
<path d="M79.1553 17.9326C81.1165 20.4855 82.7511 23.2853 84.1403 26.2498L46.3848 54.3305L30.5308 44.2841V32.2613L46.3031 42.2254L79.1553 17.9326Z" fill="#202020"/>
<path d="M14.4316 43.458C14.4316 42.8815 14.4316 42.3874 14.5133 41.811L4.95184 41.3169C4.95184 41.9757 4.87012 42.7168 4.87012 43.3756C4.87012 54.9045 9.52828 65.3626 17.0467 72.9387L23.8296 66.1037C18.0274 60.3392 14.4316 52.3516 14.4316 43.458Z" fill="#202020"/>
<path d="M46.3034 11.3433C46.8754 11.3433 47.3658 11.3433 47.9378 11.4256L48.4281 1.79084C47.7744 1.79084 47.0389 1.7085 46.3851 1.7085C34.944 1.7085 24.5653 6.40236 17.0469 13.9784L23.8298 20.8133C29.5503 14.9666 37.5591 11.3433 46.3034 11.3433Z" fill="#202020"/>
<path d="M46.3032 75.5746C45.7312 75.5746 45.2408 75.5746 44.6688 75.4922L44.1785 85.1272C44.8322 85.1272 45.5677 85.2091 46.2215 85.2091C57.6624 85.2091 68.0412 80.5156 75.5595 72.9395L68.7765 66.1045C63.0561 72.0334 55.1292 75.5746 46.3032 75.5746Z" fill="#202020"/>
<path d="M64.2821 16.9433L72.3724 10.9318C65.2627 5.16745 56.1916 1.62646 46.3032 1.62646V11.2612C53.0044 11.3436 59.2156 13.4023 64.2821 16.9433Z" fill="#202020"/>
<path d="M87.818 43.458C87.818 40.9053 87.5727 38.4348 87.1641 35.9644L78.2565 42.6346C78.2565 42.8816 78.2565 43.211 78.2565 43.458C78.2565 52.9281 74.1701 61.4103 67.7144 67.2567L74.1701 74.4211C82.5057 66.845 87.818 55.7282 87.818 43.458Z" fill="#202020"/>
<path d="M46.3037 75.5762C36.9056 75.5762 28.4883 71.4588 22.686 64.9531L15.5762 71.4588C23.1763 79.9404 34.1271 85.2107 46.3037 85.2107V75.5762Z" fill="#202020"/>
<path d="M24.9737 19.6595L18.5177 12.4951C10.1003 20.1535 4.87012 31.1882 4.87012 43.4582H14.4316C14.4316 34.0704 18.5177 25.5062 24.9737 19.6595Z" fill="#202020"/>
</g>
<defs>
<filter id="filter0_d_4826_1606" x="0.625" y="0.885254" width="549" height="97.2915" filterUnits="userSpaceOnUse" color-interpolation-filters="sRGB">
<feFlood flood-opacity="0" result="BackgroundImageFix"/>
<feColorMatrix in="SourceAlpha" type="matrix" values="0 0 0 0 0 0 0 0 0 0 0 0 0 0 0 0 0 0 127 0" result="hardAlpha"/>
<feOffset dy="4"/>
<feGaussianBlur stdDeviation="2"/>
<feComposite in2="hardAlpha" operator="out"/>
<feColorMatrix type="matrix" values="0 0 0 0 0 0 0 0 0 0 0 0 0 0 0 0 0 0 0.25 0"/>
<feBlend mode="normal" in2="BackgroundImageFix" result="effect1_dropShadow_4826_1606"/>
<feBlend mode="normal" in="SourceGraphic" in2="effect1_dropShadow_4826_1606" result="shape"/>
</filter>
<clipPath id="clip0_4826_1606">
<rect width="541" height="89.2913" fill="white" transform="translate(4.625 0.885254)"/>
</clipPath>
</defs>
</svg>
