<svg width="687" height="156" viewBox="0 0 687 156" fill="none" xmlns="http://www.w3.org/2000/svg">
<g clip-path="url(#clip0_4826_2131)" filter="url(#filter0_d_4826_2131)">
<path fill-rule="evenodd" clip-rule="evenodd" d="M35.1699 0.363727C34.9855 0.43854 34.7879 0.575617 34.7307 0.668465C34.6736 0.761314 34.7114 1.07201 34.8148 1.35903C34.975 1.80382 34.9533 2.03437 34.6685 2.91989C34.3541 3.89714 32.8574 7.26573 32.7374 7.26573C32.7073 7.26573 32.0667 7.05009 31.3143 6.78659C30.4169 6.47228 29.7216 6.32393 29.2934 6.35529C28.6618 6.40156 28.6372 6.42399 28.5324 7.04492C28.4002 7.82753 27.8332 9.23188 26.8936 11.1037C26.3484 12.1897 26.183 12.6958 26.1684 13.3221C26.154 13.9413 26.2413 14.2766 26.5376 14.7382C27.0648 15.5598 27.3061 16.146 27.3061 16.6051C27.3061 16.9062 27.2249 16.9898 26.9326 16.9898C26.7274 16.9898 26.2179 16.7424 25.8005 16.4401C24.8122 15.724 24.7184 15.6841 24.2836 15.7937C23.7271 15.9339 23.0061 17.4354 22.6923 19.1071C22.3687 20.8322 22.3118 23.6642 22.5909 24.1647C22.8474 24.6247 23.7567 25.0761 24.7073 25.2153C25.1249 25.2767 26.3196 25.7334 27.3623 26.2306C30.0635 27.5183 30.6731 27.7677 31.9884 28.1232C33.3724 28.4974 34.3399 28.5251 34.9501 28.2082C35.1945 28.0814 35.7841 27.538 36.2607 27.0008C37.0914 26.0643 37.1548 26.0256 37.8 26.0626C38.17 26.0837 38.8695 26.2036 39.3543 26.329C40.4999 26.6251 41.1679 26.6174 41.4796 26.3044C41.9505 25.8315 43.1516 26.1094 45.9693 27.3431C47.2069 27.8847 48.673 28.4471 49.4582 28.6813C50.2943 28.9307 50.6147 29.2772 50.4817 29.7884C50.4384 29.9545 49.9209 30.4777 49.3316 30.9507C48.7423 31.4239 48.0786 32.0899 47.8567 32.4306C47.4552 33.0467 47.453 33.0683 47.453 36.3172C47.453 39.568 47.5803 40.8983 48.3346 45.5344C48.468 46.3539 48.6138 47.7655 48.6589 48.6712L48.7405 50.3181L47.5687 52.749C45.9531 56.1007 45.546 57.3507 45.5207 59.036C45.5023 60.2802 45.5348 60.4316 45.9504 61.0339C46.5054 61.8385 47.5479 62.3741 49.2366 62.7224C50.7752 63.0397 51.7141 63.4359 52.0419 63.9061C52.1809 64.105 52.293 64.5169 52.2913 64.8214C52.2896 65.1256 52.0769 65.9745 51.8184 66.7078C51.2373 68.3568 50.8884 70.2944 50.8901 71.8648C50.8912 72.976 51.2099 76.0085 51.4484 77.1762L51.5525 77.6854L28.3016 77.7251L5.05088 77.7648L5.01152 112.779L4.97217 147.793H62.1336H119.295L119.256 112.779L119.216 77.7648L98.4838 77.725C81.0519 77.6916 77.7514 77.6511 77.7514 77.4705C77.7514 77.3522 77.3017 76.4739 76.7522 75.5184C75.8943 74.0269 75.2339 73.0231 73.0383 69.8729C72.8388 69.5866 72.4999 69.1322 72.2851 68.863C71.9465 68.4385 71.8823 68.1641 71.8014 66.7957C71.7472 65.8835 71.5688 64.7733 71.3783 64.1642C70.8272 62.4012 70.32 61.582 68.9663 60.2683C68.1646 59.4903 68.0683 59.329 68.0683 58.7634C68.0683 58.1541 68.109 58.1029 69.1192 57.4389C69.6972 57.0592 70.2885 56.5366 70.4333 56.2778C70.5989 55.9819 70.7842 54.9859 70.9334 53.5917C71.1913 51.1812 71.1054 49.9853 70.5587 48.369C70.4 47.9009 70.3062 47.4598 70.35 47.3887C70.3936 47.3177 71.2882 47.2596 72.3377 47.2596C74.1915 47.2596 74.2782 47.2441 75.3685 46.7195C75.9859 46.4225 76.6867 46.0414 76.926 45.873C77.1652 45.7042 77.9619 45.1759 78.6962 44.6985C79.4307 44.2211 80.8011 43.0964 81.7417 42.1989C82.6824 41.3016 83.7207 40.3318 84.0495 40.044L84.6473 39.5208L85.5332 39.851C86.0205 40.0326 86.911 40.3699 87.5124 40.6007C92.0013 42.3226 102.351 45.594 109.377 47.5116C113.228 48.5628 117.732 49.66 119.216 49.9088C120.173 50.0692 121.077 50.0702 121.235 49.9111C121.441 49.7046 120.508 49.1252 118.904 48.463C116.554 47.4929 115.738 47.1101 116.015 47.1084C116.144 47.1075 117.233 47.3527 118.436 47.6531C119.638 47.9536 120.991 48.1995 121.442 48.2C121.893 48.2003 122.262 48.169 122.262 48.1305C122.262 48.0916 122.104 47.8912 121.91 47.685C121.717 47.4788 121.243 47.1993 120.856 47.064C120.47 46.9287 119.661 46.6299 119.06 46.3999C118.459 46.17 117.51 45.8163 116.952 45.614C115.306 45.0177 113.58 44.3812 111.251 43.5123C108.381 42.4413 105.817 41.494 103.13 40.512C99.4962 39.1835 99.8457 39.3867 99.8824 38.6228C99.8999 38.2569 99.9819 37.8897 100.064 37.8068C100.161 37.7103 102.821 38.5128 107.451 40.0346C111.431 41.3426 115.039 42.5461 115.468 42.709C115.898 42.8718 117.154 43.2918 118.26 43.6424C119.727 44.1071 120.538 44.2797 121.257 44.2797C121.8 44.2797 122.282 44.2173 122.329 44.1411C122.376 44.0647 122.032 43.6674 121.564 43.258C120.943 42.7138 120.283 42.3457 119.107 41.8868C118.222 41.5421 117.2 41.1277 116.836 40.9661C116.472 40.8047 116.133 40.6725 116.082 40.6725C116.031 40.6725 115.521 40.4883 114.948 40.2632C112.657 39.3634 109.209 38.0232 105.317 36.5198C104.286 36.1217 103.221 35.6933 102.95 35.568C102.68 35.4424 102.413 35.3399 102.358 35.3399C102.259 35.3399 100.11 34.5123 96.024 32.9011C94.8644 32.4439 93.1512 31.779 92.2167 31.4236C91.2822 31.0681 90.2631 30.6469 89.952 30.4871C89.641 30.3277 89 29.8305 88.5276 29.3823C87.2275 28.1496 86.6409 27.8033 85.6944 27.7098C84.674 27.609 83.9905 27.7716 82.3322 28.5095L81.0564 29.0769L79.5937 28.7703C78.2979 28.4986 76.5135 27.8757 71.5823 25.9747C70.8093 25.6767 69.8748 25.3388 69.5057 25.2238C69.1366 25.1088 68.7325 24.9297 68.6078 24.8256C68.2553 24.5318 68.3355 24.2043 68.7601 24.2043C69.1315 24.2043 69.63 23.8442 69.63 23.576C69.63 23.1628 69.2274 22.5102 68.6852 22.0438C68.0971 21.5383 68.0683 21.4709 68.0683 20.594C68.0683 20.0883 68.1386 19.6309 68.2245 19.5776C68.3104 19.5242 68.3807 19.1137 68.3807 18.6653V17.8497L69.7351 17.4981C70.4803 17.3046 71.3411 17.023 71.6484 16.8721C72.1634 16.6192 72.206 16.5454 72.1935 15.9293C72.1839 15.4621 72.0724 15.1458 71.8232 14.8795C71.4337 14.4631 70.3562 14.1666 69.2321 14.1666C68.8497 14.1666 68.5369 14.106 68.5369 14.0319C68.5369 13.9577 68.2586 13.5796 67.9183 13.1914C67.3064 12.4932 66.6985 12.2105 65.4914 12.0628C65.2337 12.0313 64.4958 11.7567 63.8515 11.4527C62.4 10.7676 60.545 10.4025 58.5161 10.4025C56.02 10.4025 54.1801 10.9623 52.8063 12.1398C52.0933 12.7509 51.4957 13.7535 51.2741 14.7098C50.9574 16.0782 51.276 16.9839 52.3336 17.7218C53.0626 18.2303 53.126 18.639 52.4548 18.504C51.6492 18.3424 46.8879 15.8966 43.3143 13.8091L41.9087 12.9879L41.7239 12.049C41.5965 11.4011 41.421 11.0081 41.1575 10.7805C40.9476 10.599 40.1521 10.2943 39.3901 10.1033C38.6279 9.91208 37.8461 9.65267 37.6528 9.52657C37.4245 9.37774 37.3014 9.14138 37.3014 8.85201C37.3014 8.39733 38.031 6.47261 38.526 5.62097C38.6772 5.36109 38.9652 4.70409 39.1661 4.16096C39.436 3.43118 39.648 3.1128 39.9781 2.94138C40.2239 2.8137 40.425 2.66911 40.425 2.62001C40.425 2.57077 40.3119 2.33833 40.1738 2.10353C39.8744 1.59476 38.6693 0.739512 37.8268 0.437755C37.1528 0.196537 35.684 0.155602 35.1699 0.363727ZM20.0787 2.69326C19.0106 3.24925 18.2101 4.07188 17.6976 5.13964C16.9828 6.62945 17.047 8.42635 17.8663 9.86675C18.3578 10.7308 19.3581 11.6106 20.3867 12.0835C21.108 12.4152 21.4156 12.4654 22.4357 12.4184C23.3861 12.3744 23.8268 12.2659 24.5523 11.8967C25.6783 11.3238 26.7419 10.1441 27.0979 9.07299C27.4419 8.03879 27.4402 6.60246 27.0941 5.58442C26.7606 4.6037 25.7181 3.38742 24.6878 2.77654C24.0472 2.39667 23.7497 2.33049 22.4646 2.28077C21.0659 2.22681 20.9292 2.2505 20.0787 2.69326ZM15.7206 12.4204C14.6191 12.8668 13.6697 13.7346 13.0787 14.8349C12.6009 15.7245 12.553 15.9345 12.5503 17.1466C12.5479 18.2928 12.6088 18.6052 12.9847 19.3742C13.5374 20.5042 14.7064 21.5731 15.8736 22.0157C16.581 22.2838 16.9892 22.3378 17.8574 22.2785C18.4604 22.2375 19.2755 22.0605 19.6753 21.8841C20.5927 21.479 21.8027 20.2779 22.3084 19.2704C22.631 18.6278 22.6976 18.2732 22.6922 17.2314C22.6866 16.1728 22.6152 15.8291 22.2485 15.0914C21.7004 13.989 20.7894 13.0366 19.8426 12.5763C19.2983 12.3117 18.7714 12.2085 17.7815 12.1724C16.7557 12.1351 16.2847 12.1917 15.7206 12.4204ZM43.3451 15.515C43.5339 15.7212 43.7486 15.9983 43.8223 16.1308C43.896 16.2632 44.5147 16.5844 45.1972 16.8449C46.4306 17.3155 47.0707 17.5589 50.6547 18.9205C51.6854 19.3122 52.7396 19.7188 52.9973 19.8239C53.2549 19.9292 53.8874 20.1753 54.4029 20.3708C54.9182 20.5662 55.9022 20.9482 56.5893 21.2197C57.2765 21.4914 58.1198 21.8082 58.4634 21.924C58.8071 22.0398 60.2126 22.569 61.5871 23.1C62.9613 23.6309 64.9995 24.4103 66.1162 24.8318C70.7936 26.5979 72.6501 27.3313 72.7846 27.4663C72.9386 27.6209 72.7911 28.439 72.6094 28.439C72.4277 28.439 69.4057 27.4287 66.819 26.5032C64.0376 25.508 61.0234 24.3518 53.8563 21.5307C52.2672 20.9053 50.6155 20.2683 50.1861 20.1154C49.7565 19.9625 48.5309 19.5142 47.4622 19.1193C46.097 18.6148 45.282 18.4013 44.7212 18.4013C44.2824 18.4013 43.8392 18.4859 43.7362 18.5893C43.6333 18.6925 43.085 18.8252 42.5175 18.8841C41.8951 18.949 41.3222 19.1103 41.0727 19.2916C40.4281 19.7592 39.8094 21.2113 39.5706 22.8178C39.4542 23.5998 39.3 24.2981 39.2281 24.3695C39.0456 24.5504 36.6624 24.1925 36.5779 23.9715C36.54 23.872 36.7996 23.1602 37.1547 22.3899C37.5098 21.6195 37.9728 20.4598 38.1833 19.8129C38.394 19.1659 38.8749 18.1778 39.2525 17.6172C40.9075 15.1582 40.8784 15.1911 41.488 15.097C42.3586 14.9624 42.9643 15.0987 43.3451 15.515ZM51.2793 21.7256C52.1055 21.9316 55.3643 23.0531 55.9883 23.346C56.2589 23.473 56.54 23.5763 56.6129 23.5757C56.6858 23.5751 57.5889 23.8882 58.6196 24.2715C59.6504 24.6548 62.5319 25.7101 65.0229 26.6165C67.5138 27.5229 69.8899 28.4149 70.3029 28.5983C70.9955 28.9064 71.0501 28.9709 71.0057 29.4293C70.9741 29.7562 70.863 29.9446 70.6813 29.9789C69.9872 30.1111 61.7558 27.3302 55.6522 24.902C54.7651 24.5489 51.4441 23.2929 50.2655 22.8642C49.6796 22.6514 49.4277 22.1393 49.6702 21.6544C49.8135 21.3678 49.8541 21.3698 51.2793 21.7256ZM47.1509 22.6415C47.5207 22.8401 47.5501 23.5247 47.2098 24.0125C47.0307 24.2695 46.8095 24.3611 46.3701 24.3611C46.0418 24.3611 45.7 24.2726 45.6105 24.1642C45.521 24.056 45.3986 23.7709 45.3387 23.5306C45.1892 22.9328 45.611 22.4791 46.3162 22.4791C46.6091 22.4791 46.9848 22.5522 47.1509 22.6415ZM53.5439 26.9762C54.9679 27.6104 55.7982 28.0646 56.0164 28.329C56.1652 28.5088 56.1417 28.6319 55.9027 28.9285C55.6363 29.2588 55.449 29.3079 54.2697 29.3565C52.7486 29.4192 51.5084 29.1006 51.1232 28.5483C50.9879 28.3544 50.8889 27.8681 50.8889 27.3977C50.8889 26.6488 50.9235 26.5714 51.3184 26.4372C51.811 26.27 52.134 26.3484 53.5439 26.9762ZM76.6581 30.8201C77.3023 31.1213 78.2311 31.5321 78.7221 31.7335L79.6148 32.0996L80.8796 31.6024C82.2209 31.0752 83.1994 30.982 84.4221 31.2654C85.4219 31.4972 86.6812 32.1256 87.1641 32.634C87.62 33.1138 87.938 33.9366 87.7688 34.1985C87.7137 34.2838 87.4146 34.4005 87.1042 34.4576C86.794 34.5149 86.4142 34.7016 86.2601 34.8725C86.0642 35.0901 85.7654 35.1878 85.2626 35.1988C84.8681 35.2074 84.3693 35.263 84.1546 35.3226C83.6797 35.4545 82.1243 37.5673 82.1243 38.0806C82.1243 38.2752 82.2528 38.6026 82.4101 38.8084C82.9254 39.4829 82.9217 39.6844 82.3858 40.1569C82.1093 40.4007 81.6386 40.9485 81.34 41.3743C79.9662 43.3323 79.5055 43.8092 78.988 43.8092C78.6818 43.8092 78.4582 43.6848 78.2835 43.4171C77.9189 42.8583 77.5956 42.9133 77.593 43.5348C77.589 44.4711 77.443 44.7502 76.957 44.7502C76.5605 44.7502 76.4876 44.6688 76.2975 44.0136C75.9234 42.7255 75.3294 42.7209 74.9479 44.0034C74.6425 45.0304 74.1967 45.8151 73.8572 45.9233C73.6882 45.9771 73.26 45.9428 72.9055 45.847C72.551 45.7511 71.4978 45.6103 70.565 45.5343C69.5355 45.4502 68.6654 45.292 68.3514 45.1317C68.0669 44.9865 67.4064 44.4707 66.8837 43.9856C65.5828 42.778 63.4934 41.4567 62.8847 41.4567C62.5398 41.4567 62.2617 41.609 61.8968 41.9975C61.6174 42.295 61.3456 42.495 61.2926 42.4419C61.2398 42.3888 61.1965 42.1455 61.1965 41.9009C61.1965 41.6567 61.1168 41.4567 61.0193 41.4567C60.9217 41.4567 60.6792 41.2802 60.48 41.0646C60.281 40.8489 59.9715 40.6725 59.792 40.6725C59.6128 40.6725 59.2653 40.8214 59.0201 41.0036C58.7747 41.1856 58.2607 41.37 57.878 41.4135C57.0172 41.5108 55.581 41.1133 55.1781 40.6661C54.8948 40.3517 54.8937 40.3092 55.1507 39.5829C55.2976 39.1669 55.418 38.5417 55.418 38.1934C55.418 37.6441 55.3315 37.4856 54.7652 36.9989C54.4061 36.6902 53.9318 36.4269 53.7109 36.4136C53.3585 36.3924 52.9605 36.3588 52.3524 36.2983C52.1778 36.2811 51.7285 35.3785 51.8439 35.2771C51.8769 35.2481 52.3237 34.8839 52.8366 34.4678C53.7043 33.764 53.8267 33.7129 54.5923 33.735C55.8536 33.7714 56.8954 34.109 60.2595 35.572C62.3002 36.4594 64.1248 37.0716 65.0868 37.1916L65.96 37.3004L66.5682 38.4814C67.0499 39.4162 67.294 39.7174 67.7395 39.9268C68.0493 40.0723 68.4217 40.2793 68.5675 40.3866C68.7901 40.5507 68.9268 40.5067 69.4265 40.1098C69.9485 39.6953 70.0964 39.6519 70.6452 39.7518C71.4473 39.8976 74.4305 39.4539 74.9004 39.1188C75.0932 38.9813 75.2338 38.7371 75.2127 38.5761C75.1838 38.355 74.7548 38.136 73.4564 37.6797C71.5198 36.9987 69.8143 36.1604 69.5678 35.7681C69.1164 35.0494 70.2667 34.9769 73.6908 35.5087C77.0235 36.0261 77.2292 36.0387 77.6664 35.7509C78.1599 35.4263 79.268 33.9279 79.3975 33.4104C79.4775 33.0898 79.4283 32.9974 79.1312 32.9112C78.9306 32.8532 77.6771 32.4286 76.3457 31.9677C75.0143 31.5068 73.7318 31.0876 73.4954 31.036C73.2191 30.9758 73.066 30.841 73.066 30.658C73.066 30.5014 73.1187 30.3189 73.1832 30.2523C73.2476 30.1859 73.7922 30.1631 74.3936 30.202C75.2126 30.2551 75.7805 30.4102 76.6581 30.8201ZM62.524 31.1616C62.9536 31.2767 64.1692 31.7476 65.2258 32.2081C67.0098 32.9858 67.1431 33.0737 67.0999 33.4428C67.0725 33.6751 66.8862 33.9338 66.6504 34.066C66.2869 34.27 66.1035 34.2508 64.7682 33.8705C63.1409 33.4067 61.2875 32.6868 60.662 32.275C60.3928 32.0979 60.2595 31.869 60.2595 31.584C60.2595 31.3495 60.3063 31.1105 60.3637 31.0531C60.5355 30.8801 61.6915 30.9382 62.524 31.1616ZM60.3375 50.5246C62.533 51.4764 65.1089 53.6107 65.7357 54.9969C66.0612 55.717 66.1204 56.589 65.8857 57.2086C65.8021 57.4298 65.5032 57.7561 65.2219 57.9335C64.7766 58.2145 64.5087 58.2495 63.1488 58.2053C61.8874 58.1643 61.4519 58.0846 60.8841 57.7908C58.9928 56.8114 57.9065 54.8628 57.5653 51.8375C57.409 50.4518 57.4155 50.1996 57.6108 50.0753C57.9605 49.8531 59.2962 50.073 60.3375 50.5246ZM64.8825 65.7024C66.1159 66.3573 68.0761 67.7179 69.0503 68.5955C69.5475 69.0432 70.0828 69.6662 70.2399 69.9798C70.4285 70.3563 70.5526 71.0428 70.6048 71.9982C70.6604 73.0163 70.7667 73.5752 70.9633 73.8802C71.117 74.1192 71.8176 74.9495 72.5204 75.726C74.1773 77.5567 75.3291 79.2339 76.3977 81.3721C77.4452 83.4682 78.1221 85.377 78.4679 87.2105C78.6691 88.2775 78.7066 89.0798 78.6346 90.7824C78.5501 92.7803 78.413 94.3932 77.6755 102.048C77.4458 104.433 77.2856 105.133 76.9689 105.133C76.8882 105.133 76.7121 104.919 76.5774 104.658C76.2915 104.103 75.5282 100.478 75.1746 97.9971C74.8034 95.3913 74.3993 93.9309 73.8287 93.1331C73.5541 92.7491 73.2174 92.3989 73.0806 92.3553C72.9437 92.3115 72.5857 91.9587 72.2851 91.5716C71.9845 91.1841 71.5071 90.6067 71.2241 90.288C70.6491 89.6402 69.4924 87.7117 67.758 84.5087C66.9707 83.0547 66.1922 81.9308 65.5277 81.2887C65.1641 80.9376 64.0585 80.1133 63.0706 79.4571C62.0829 78.801 60.9032 77.9501 60.4492 77.5662C59.4998 76.7637 58.6942 75.6322 57.7992 73.8438C56.7506 71.749 56.5358 70.6933 56.9009 69.4318C57.2146 68.3486 58.0639 67.3916 59.2831 66.748C60.6724 66.0146 62.7208 65.3502 63.7112 65.3118C63.9347 65.3032 64.4618 65.479 64.8825 65.7024ZM67.5377 76.399C67.8157 76.9851 68.1596 77.9168 68.3025 78.4697C68.461 79.0845 68.7027 79.5999 68.9246 79.7961C69.2516 80.0856 69.2937 80.2805 69.3511 81.7642C69.4005 83.0365 69.496 83.5957 69.7712 84.2231C69.9672 84.67 70.2175 85.07 70.3276 85.1126C70.4378 85.155 70.5748 85.4418 70.6325 85.7499C70.7114 86.1735 70.8322 86.3341 71.1278 86.4085C71.3428 86.4629 71.5633 86.4625 71.6176 86.4079C71.6718 86.3533 71.5631 86.1006 71.376 85.8465C71.189 85.5921 71.0357 85.2381 71.0357 85.0592C71.0357 84.8805 70.9357 84.6959 70.8136 84.6487C70.6913 84.6016 70.4673 84.2686 70.3156 83.9087C70.102 83.4018 70.0356 82.7769 70.0211 81.1368L70.0023 79.0195L69.2409 77.3727C68.8223 76.467 68.3739 75.6377 68.2442 75.5298C68.1146 75.4221 67.7889 75.3339 67.5205 75.3339H67.0324L67.5377 76.399ZM52.9413 81.4113C53.204 81.9935 53.486 82.964 53.5677 83.5679C53.8055 85.3205 53.7648 88.901 53.4922 90.2335C53.0904 92.1972 52.9192 93.6025 52.9192 94.9365C52.9192 95.7323 52.7148 97.2909 52.3726 99.1059C52.072 100.7 51.826 102.252 51.826 102.554C51.826 103.215 51.4576 104.156 51.0824 104.454C50.9331 104.573 50.1431 105.141 49.3271 105.716C46.7625 107.523 44.6127 109.238 43.1777 110.62C40.7619 112.948 37.6681 117.11 36.1988 120.009C36.0087 120.384 35.1759 121.439 34.3481 122.354C33.0641 123.773 32.6212 124.145 31.3305 124.888C30.4985 125.366 29.6041 125.952 29.3428 126.19C28.9524 126.546 28.8679 126.744 28.8679 127.305C28.8679 128.176 29.2552 128.76 31.1189 130.698C31.9071 131.517 32.7837 132.596 33.0668 133.095C33.3501 133.594 33.7521 134.205 33.9602 134.453C34.1682 134.701 34.4365 135.14 34.5566 135.428C34.6767 135.716 34.9154 136.114 35.0871 136.312C35.2586 136.511 35.622 136.948 35.8948 137.284C36.6141 138.17 37.8872 139.091 38.7851 139.374C39.3345 139.548 40.2834 139.629 41.9868 139.647C43.3181 139.661 44.4954 139.665 44.6028 139.655C44.8998 139.629 44.8347 138.834 44.492 138.305C44.3245 138.046 43.6534 137.27 43.0013 136.579C41.3747 134.858 40.7083 133.676 40.1859 131.585C39.852 130.248 39.7767 129.641 39.8339 128.746C39.8788 128.043 40.0058 127.465 40.1657 127.236C40.3083 127.031 40.425 126.753 40.425 126.616C40.425 126.149 41.6807 124.429 42.9726 123.125C45.5822 120.493 53.3626 114.317 54.447 114.017C54.5945 113.976 55.0414 113.898 55.44 113.844C56.0633 113.759 56.4027 113.544 57.8608 112.313C59.7665 110.703 59.9849 110.477 60.984 109.084C62.4448 107.048 63.6678 103.769 64.4717 99.7319C64.7302 98.4325 65.0331 96.6287 65.1446 95.7228C65.3213 94.287 65.3868 94.0703 65.6549 94.0309C65.9125 93.9932 66.0224 94.1789 66.329 95.171C66.5304 95.8228 66.968 96.9018 67.3012 97.5688C67.9315 98.83 68.0815 99.0978 69.0375 100.67C70.0779 102.382 70.8721 104.234 71.1196 105.525C71.2518 106.215 71.4633 107.239 71.5896 107.799C71.8879 109.124 71.8797 110.59 71.5611 112.81C71.3435 114.327 71.3329 114.802 71.4935 115.868C71.598 116.563 71.8983 117.767 72.1608 118.543C72.6269 119.92 73.7906 122.381 74.646 123.797C74.8805 124.185 75.2194 124.879 75.3991 125.339C75.8539 126.501 76.2372 129.261 76.1543 130.776C76.092 131.919 76.0118 132.176 75.2544 133.654C74.7076 134.721 74.3985 135.532 74.3514 136.023C74.198 137.627 75.1873 139.483 76.4714 139.999C76.802 140.132 77.6159 140.317 78.2801 140.41C79.2194 140.541 79.9798 140.526 81.7039 140.344C86.9276 139.791 87.4056 139.762 89.3084 139.869C90.3822 139.93 92.1331 139.977 93.1993 139.973C94.6092 139.967 95.1731 139.91 95.2663 139.762C95.3369 139.651 95.3955 139.237 95.3971 138.844C95.3989 138.265 95.3167 138.049 94.9666 137.712C94.5175 137.28 93.6558 137.022 91.2512 136.602C89.9124 136.368 88.5013 135.782 87.7524 135.149C87.0561 134.56 85.6804 132.637 85.0241 131.333C84.7003 130.691 84.2738 129.95 84.0761 129.687C83.7144 129.205 83.313 128.353 83.0376 127.483C82.9557 127.224 82.7307 126.024 82.5375 124.817C82.2098 122.768 82.1992 122.484 82.3802 120.582C82.4869 119.461 82.5785 116.994 82.5836 115.102C82.591 112.323 82.5296 111.267 82.264 109.613C82.083 108.486 81.7395 106.964 81.5003 106.231C80.5556 103.334 80.5375 103.24 80.5974 101.52C80.6725 99.3625 80.4553 90.6697 80.2468 87.4864C80.138 85.8239 79.9259 84.2603 79.6197 82.862C79.3651 81.7001 79.1569 80.6597 79.1569 80.5505C79.1569 80.3904 82.7876 80.3593 97.6249 80.3913L116.093 80.4311L116.132 112.574C116.164 138.184 116.132 144.741 115.976 144.841C115.869 144.909 91.5908 144.967 62.0257 144.968C25.8817 144.969 8.23893 144.918 8.17317 144.811C8.06666 144.638 7.95953 80.8695 8.0651 80.5488C8.11649 80.3932 12.7017 80.3526 30.2968 80.3526H52.4637L52.9413 81.4113ZM99.7871 83.6943C99.4943 83.7973 99.1095 84.0785 98.9318 84.3193C98.6376 84.7177 98.6081 84.9784 98.6047 87.2209C98.6027 88.576 98.6515 89.8645 98.7131 90.0843C98.7792 90.3194 99.0772 90.6259 99.4372 90.8292C100.029 91.1634 100.198 91.1745 104.651 91.1745C109.183 91.1745 109.261 91.1691 109.781 90.8169C110.072 90.6203 110.397 90.2849 110.505 90.0719C110.636 89.8128 110.701 88.8857 110.702 87.2684C110.705 84.926 110.693 84.8364 110.311 84.3341C110.073 84.02 109.689 83.7524 109.335 83.6536C108.497 83.42 100.47 83.4541 99.7871 83.6943ZM14.0801 84.109C13.8063 84.2767 13.5077 84.5539 13.4163 84.7254C13.1857 85.1584 13.1974 89.9454 13.4304 90.459C13.5294 90.6776 13.903 90.9985 14.2606 91.1722C14.8649 91.466 15.2191 91.4883 19.3022 91.4883C21.7174 91.4883 23.8565 91.426 24.0553 91.3499C24.2541 91.2737 24.6102 91.0171 24.8463 90.7795L25.2759 90.3476V87.5573V84.7671L24.6935 84.285L24.1113 83.8032L19.3445 83.8038C14.9 83.8042 14.5441 83.825 14.0801 84.109ZM108.99 84.3536C109.241 84.484 109.518 84.7264 109.607 84.8925C109.696 85.0592 109.768 86.2023 109.768 87.4491C109.768 89.5214 109.741 89.7324 109.44 90.0567C109.26 90.2508 108.939 90.4759 108.727 90.5567C108.515 90.6378 106.635 90.7041 104.549 90.7041C100.868 90.7041 100.74 90.6936 100.231 90.3494C99.9432 90.1543 99.6587 89.8191 99.5993 89.6044C99.4646 89.1185 99.4618 85.7615 99.5954 85.1725C99.6502 84.9321 99.9033 84.6045 100.163 84.4389C100.59 84.1657 100.974 84.1388 104.583 84.1282C107.818 84.1188 108.616 84.1598 108.99 84.3536ZM23.047 84.3671C23.3028 84.4185 23.7158 84.6234 23.9646 84.8225L24.4169 85.1842L24.4675 87.3806C24.5242 89.8389 24.3866 90.3594 23.5928 90.6895C23.2745 90.8219 21.953 90.8624 19.0425 90.8292L14.9406 90.7824L14.5639 90.3423C14.2049 89.923 14.1872 89.8002 14.1872 87.7227C14.1872 86.437 14.2596 85.3836 14.3637 85.1544C14.5297 84.7884 14.952 84.538 15.6709 84.379C16.1545 84.2722 22.523 84.2618 23.047 84.3671ZM99.8532 93.8785C98.7988 94.2624 98.679 94.6396 98.679 97.5734C98.679 99.8991 98.7024 100.102 99.0176 100.504C99.6515 101.313 100.015 101.369 104.648 101.368C107.086 101.368 109.156 101.298 109.487 101.206C109.805 101.117 110.209 100.861 110.385 100.637C110.679 100.262 110.705 100.011 110.705 97.5403C110.705 95.3085 110.661 94.7896 110.45 94.4865C109.934 93.746 109.479 93.6831 104.736 93.6964C101.992 93.704 100.143 93.773 99.8532 93.8785ZM15.0064 93.9812C14.6019 94.052 14.1588 94.2735 13.8741 94.5473L13.4064 94.9973V97.7618V100.526L13.8358 100.938C14.072 101.164 14.4632 101.424 14.705 101.516C15.3312 101.754 23.2578 101.739 24.0565 101.498C24.3937 101.397 24.8412 101.109 25.0508 100.859C25.4228 100.415 25.432 100.339 25.432 97.6877V94.9712L24.8799 94.4845C24.5763 94.2169 24.3129 93.9939 24.2943 93.9894C24.2759 93.985 22.3279 93.9549 19.9658 93.9232C17.6036 93.8912 15.3718 93.9173 15.0064 93.9812ZM108.69 94.3131C108.999 94.3993 109.386 94.6181 109.549 94.7993C109.813 95.0924 109.846 95.3907 109.846 97.5265C109.846 99.6624 109.813 99.9607 109.549 100.254C109.386 100.435 108.999 100.654 108.69 100.74C107.95 100.946 101.577 100.943 100.833 100.735C100.515 100.647 100.111 100.391 99.9355 100.166C99.6471 99.798 99.6162 99.5376 99.6162 97.4898V95.2213L100.091 94.7763C100.352 94.5314 100.756 94.302 100.989 94.2664C101.899 94.1271 108.159 94.1651 108.69 94.3131ZM23.9762 94.8769L24.4169 95.2074L24.4607 97.6216C24.4893 99.2002 24.4434 100.151 24.3279 100.369C23.9997 100.987 23.2694 101.078 19.0801 101.026C15.1654 100.977 15.1471 100.976 14.7462 100.597C14.3476 100.221 14.3434 100.191 14.3434 97.8429C14.3434 96.181 14.402 95.3947 14.5386 95.2207C14.6461 95.084 14.9447 94.8599 15.2024 94.7224C15.6011 94.5097 16.2567 94.478 19.6033 94.5096C23.3274 94.5447 23.5592 94.564 23.9762 94.8769ZM100.319 103.768C99.6446 104.04 99.3971 104.22 99.0991 104.659C98.8806 104.98 98.8352 105.447 98.8352 107.379C98.8352 109.235 98.8886 109.826 99.0964 110.265C99.5397 111.204 99.818 111.25 105.007 111.25C108.831 111.25 109.706 111.209 110.085 111.012C110.89 110.594 111.017 110.114 111.017 107.486C111.017 104.831 110.896 104.391 110.038 103.92C109.594 103.677 109.008 103.64 105.16 103.611C102.05 103.589 100.652 103.634 100.319 103.768ZM14.7206 104.101C14.4557 104.217 14.0867 104.506 13.9007 104.744C13.5863 105.145 13.5625 105.35 13.5625 107.656C13.5625 109.131 13.6325 110.291 13.7348 110.517C13.8296 110.726 14.1729 111.047 14.4979 111.23C15.0623 111.549 15.2894 111.564 19.573 111.564C23.3948 111.564 24.1366 111.526 24.5938 111.308C25.5412 110.856 25.5882 110.686 25.5882 107.707C25.5882 105.288 25.558 104.98 25.2864 104.633C25.1204 104.422 24.7082 104.165 24.3703 104.063C23.9612 103.94 22.3278 103.881 19.4791 103.885C16.2539 103.889 15.0839 103.943 14.7206 104.101ZM109.109 104.361C109.966 104.661 110.08 105.028 110.08 107.491C110.08 108.707 110.008 109.838 109.919 110.004C109.831 110.17 109.553 110.412 109.302 110.543C108.93 110.736 108.11 110.779 104.858 110.779H100.87L100.36 110.322L99.8504 109.865L99.7994 107.749C99.7581 106.024 99.7959 105.542 100.005 105.137C100.445 104.282 100.851 104.205 104.942 104.198C107.184 104.194 108.816 104.258 109.109 104.361ZM23.994 104.713C24.277 104.866 24.5757 105.169 24.6578 105.386C24.74 105.603 24.8073 106.72 24.8073 107.867C24.8073 109.731 24.7732 109.996 24.4879 110.361C24.3121 110.585 23.9081 110.841 23.5898 110.93C22.8535 111.135 16.4687 111.144 15.762 110.94C15.4696 110.856 15.0661 110.632 14.8651 110.442C14.5147 110.112 14.4996 110.004 14.4996 107.84C14.4996 106.599 14.5714 105.448 14.6594 105.283C14.8597 104.907 15.3556 104.633 16.0614 104.507C16.362 104.454 18.1541 104.416 20.0439 104.422C23.021 104.433 23.5485 104.472 23.994 104.713ZM75.9697 113.878C75.9827 116.676 76.0243 117.14 76.4019 118.684C76.6316 119.624 76.7851 120.428 76.7433 120.47C76.5658 120.649 75.6283 119.39 75.0739 118.229C74.3736 116.763 74.158 115.766 74.1628 114.012C74.1652 113.108 74.2501 112.559 74.4562 112.113C74.813 111.341 75.3324 110.779 75.6881 110.78C75.9308 110.781 75.9565 111.066 75.9697 113.878ZM99.7578 114.124C98.7495 114.657 98.6233 115.148 98.7499 118.042C98.806 119.319 98.8861 120.448 98.9281 120.551C98.9704 120.654 99.195 120.88 99.4275 121.052C99.8254 121.347 100.135 121.369 104.648 121.412C108.748 121.451 109.515 121.422 109.917 121.213C110.738 120.786 110.861 120.32 110.858 117.649C110.857 116.061 110.791 115.117 110.663 114.857C110.556 114.642 110.156 114.306 109.773 114.112C109.101 113.772 108.926 113.759 104.761 113.759C100.548 113.759 100.43 113.768 99.7578 114.124ZM14.4053 114.392C14.0526 114.567 13.6837 114.888 13.5853 115.105C13.344 115.637 13.345 120.197 13.5866 120.729C13.6856 120.947 14.0592 121.268 14.4168 121.442C15.0212 121.736 15.3751 121.758 19.4735 121.758C24.201 121.758 24.663 121.693 25.1773 120.956C25.3885 120.653 25.432 120.135 25.432 117.916C25.432 115.697 25.3885 115.178 25.1773 114.876C24.6627 114.138 24.2017 114.073 19.4632 114.073C15.338 114.073 15.0039 114.094 14.4053 114.392ZM109.146 114.624C109.397 114.754 109.675 114.996 109.763 115.162C109.972 115.555 109.972 119.806 109.763 120.198C109.675 120.365 109.397 120.607 109.146 120.737C108.774 120.93 107.953 120.974 104.702 120.974H100.714L100.204 120.517L99.6942 120.059L99.6406 117.867C99.6049 116.409 99.6476 115.562 99.7675 115.336C99.8671 115.15 100.172 114.86 100.446 114.693C100.903 114.413 101.257 114.388 104.817 114.387C107.967 114.387 108.775 114.431 109.146 114.624ZM23.1084 114.641C23.4194 114.693 23.8762 114.897 24.1236 115.095L24.5731 115.454L24.6268 117.749C24.7099 121.295 24.7195 121.288 19.6194 121.287C17.7054 121.286 15.8791 121.213 15.5608 121.125C15.2427 121.036 14.8387 120.78 14.6628 120.555C14.3745 120.187 14.3434 119.927 14.3434 117.879V115.61L14.818 115.165C15.079 114.92 15.483 114.691 15.7161 114.655C16.4023 114.55 22.4919 114.538 23.1084 114.641ZM100.553 124.059C99.6089 124.421 99.2442 124.686 99.0502 125.152C98.9021 125.508 98.8352 126.358 98.8352 127.885C98.8352 130.422 98.9982 130.987 99.847 131.392C100.283 131.6 101.103 131.639 104.997 131.639C108.894 131.639 109.702 131.6 110.1 131.393C110.853 131.002 111.017 130.374 111.017 127.875C111.017 125.342 110.859 124.759 110.053 124.317C109.59 124.063 109.054 124.029 105.16 124.001C102.755 123.984 100.682 124.01 100.553 124.059ZM14.6828 124.507C14.3971 124.631 14.0304 124.893 13.8682 125.089C13.6044 125.406 13.5724 125.73 13.5677 128.128L13.5625 130.812L13.992 131.244C14.2282 131.482 14.5842 131.738 14.7831 131.814C14.9819 131.89 17.1452 131.953 19.5905 131.953C24.3598 131.953 24.8184 131.889 25.3334 131.15C25.5447 130.847 25.5882 130.329 25.5882 128.11C25.5882 125.12 25.5285 124.914 24.5435 124.5C24.0957 124.313 23.1383 124.269 19.5953 124.274C16.1193 124.279 15.094 124.327 14.6828 124.507ZM109.109 124.75C109.966 125.05 110.08 125.417 110.08 127.88C110.08 129.096 110.008 130.227 109.919 130.393C109.831 130.559 109.553 130.801 109.302 130.932C108.93 131.125 108.108 131.168 104.84 131.168H100.834L100.303 130.635L99.7724 130.102V127.903C99.7724 125.777 99.7857 125.687 100.168 125.231C100.386 124.971 100.72 124.728 100.91 124.691C101.1 124.654 102.915 124.614 104.942 124.603C107.224 124.589 108.811 124.645 109.109 124.75ZM24.0712 125.111C24.6578 125.396 24.8073 126.035 24.8073 128.257V130.379L24.3517 130.891L23.896 131.404H19.6767H15.4574L14.9784 130.943L14.4996 130.483V128.227C14.4996 126.987 14.5714 125.837 14.6594 125.672C14.8444 125.325 15.3312 125.036 15.947 124.907C16.5864 124.773 23.7459 124.953 24.0712 125.111ZM100.46 134.256C100.28 134.292 99.8934 134.521 99.601 134.766L99.0694 135.211L99.0199 137.83C98.9719 140.353 98.9834 140.469 99.3321 140.982C99.5313 141.275 99.898 141.587 100.147 141.674C100.413 141.768 102.463 141.833 105.121 141.833C108.915 141.833 109.726 141.794 110.162 141.586C111.017 141.179 111.173 140.623 111.173 137.999C111.173 135.31 111.046 134.916 110.031 134.453C109.436 134.182 108.991 134.157 105.082 134.173C102.72 134.183 100.64 134.22 100.46 134.256ZM14.7264 134.683C13.8177 135.08 13.7187 135.429 13.7187 138.236C13.7187 142.245 13.5694 142.149 19.7737 142.144C23.685 142.141 24.1675 142.112 24.7556 141.843C25.1136 141.68 25.4828 141.404 25.5755 141.23C25.6774 141.039 25.7444 139.864 25.7444 138.271C25.7444 136.083 25.7006 135.567 25.4896 135.265C24.9728 134.524 24.522 134.462 19.6975 134.468C16.3159 134.473 15.0845 134.526 14.7264 134.683ZM109.859 135.294C110.221 135.716 110.236 135.828 110.236 138.057C110.236 140.361 110.233 140.382 109.821 140.796C109.593 141.025 109.258 141.25 109.077 141.296C108.895 141.341 106.968 141.357 104.793 141.332L100.84 141.285L100.384 140.772L99.9285 140.26V138.088C99.9285 136.107 99.9578 135.879 100.262 135.49C100.446 135.255 100.745 135.001 100.926 134.926C101.108 134.85 103.107 134.803 105.369 134.821L109.483 134.854L109.859 135.294ZM23.5477 135.033C23.8214 135.087 24.2517 135.34 24.5044 135.594L24.9635 136.055V138.15C24.9635 139.302 24.8963 140.422 24.8143 140.639C24.7322 140.856 24.4719 141.16 24.2356 141.316C23.8582 141.564 23.3812 141.602 20.2852 141.63C18.3486 141.647 16.4499 141.601 16.0659 141.527C15.6177 141.441 15.2402 141.244 15.0117 140.977C14.6759 140.585 14.6558 140.43 14.6558 138.245C14.6558 136.011 14.6689 135.916 15.0258 135.579C15.2293 135.387 15.5983 135.169 15.8457 135.095C16.37 134.937 22.8137 134.885 23.5477 135.033Z" fill="#202020"/>
<path d="M156.851 13.4388H163.631C166.622 13.4388 168.871 13.8864 170.377 14.7816C171.883 15.6768 172.637 17.1997 172.637 19.3504C172.637 20.2784 172.457 21.1135 172.097 21.8559C171.747 22.5873 171.235 23.1934 170.557 23.6737C169.88 24.154 169.046 24.487 168.052 24.6726V24.8364C169.1 25.0001 170.027 25.3003 170.835 25.737C171.643 26.1736 172.276 26.7851 172.735 27.5711C173.194 28.3572 173.423 29.3561 173.423 30.5678C173.423 32.0416 173.08 33.2862 172.391 34.3015C171.714 35.3168 170.753 36.0866 169.509 36.6105C168.264 37.1237 166.79 37.3802 165.088 37.3802H156.851V13.4388ZM159.635 23.7064H164.219C166.304 23.7064 167.745 23.3626 168.543 22.6748C169.351 21.9869 169.755 20.9826 169.755 19.6616C169.755 18.2969 169.275 17.3144 168.314 16.714C167.365 16.1135 165.846 15.8134 163.761 15.8134H159.635V23.7064ZM159.635 26.0481V35.0056H164.612C166.742 35.0056 168.249 34.5908 169.132 33.7611C170.016 32.9205 170.459 31.7905 170.459 30.3714C170.459 29.4652 170.256 28.6901 169.854 28.046C169.461 27.4019 168.817 26.9106 167.92 26.5722C167.037 26.2229 165.852 26.0481 164.368 26.0481H159.635ZM184.641 37.7077C183.025 37.7077 181.601 37.3748 180.367 36.7088C179.134 36.0427 178.172 35.0276 177.485 33.6629C176.796 32.2983 176.453 30.5788 176.453 28.5045C176.453 26.332 176.813 24.5579 177.535 23.1824C178.265 21.7959 179.27 20.7697 180.547 20.1038C181.824 19.4377 183.276 19.1048 184.903 19.1048C185.798 19.1048 186.661 19.1976 187.491 19.3832C188.332 19.5579 189.019 19.7817 189.553 20.0546L188.736 22.3309C188.189 22.1124 187.556 21.916 186.835 21.7414C186.126 21.5666 185.46 21.4793 184.838 21.4793C183.593 21.4793 182.556 21.7468 181.727 22.2818C180.908 22.8166 180.29 23.6026 179.875 24.6398C179.471 25.6769 179.27 26.9543 179.27 28.4717C179.27 29.9237 179.467 31.1628 179.86 32.1891C180.264 33.2153 180.858 34.0013 181.645 34.5471C182.442 35.0821 183.434 35.3496 184.624 35.3496C185.575 35.3496 186.431 35.2513 187.195 35.0548C187.96 34.8474 188.654 34.6072 189.276 34.3343V36.7579C188.675 37.0636 188.004 37.2983 187.261 37.4621C186.53 37.6258 185.657 37.7077 184.641 37.7077ZM199.773 19.1048C201.302 19.1048 202.612 19.4433 203.703 20.1201C204.794 20.797 205.63 21.7468 206.209 22.9695C206.788 24.1813 207.076 25.6006 207.076 27.2272V28.914H194.68C194.712 31.0209 195.237 32.6258 196.253 33.7284C197.268 34.831 198.698 35.3824 200.542 35.3824C201.678 35.3824 202.683 35.2787 203.556 35.0713C204.429 34.8638 205.336 34.5581 206.274 34.1541V36.5451C205.368 36.9489 204.468 37.2437 203.573 37.4292C202.687 37.6148 201.639 37.7077 200.427 37.7077C198.703 37.7077 197.197 37.3584 195.909 36.6596C194.63 35.95 193.638 34.9129 192.928 33.5482C192.219 32.1836 191.864 30.5133 191.864 28.5372C191.864 26.6049 192.186 24.9347 192.83 23.5263C193.485 22.107 194.401 21.0154 195.581 20.2512C196.771 19.487 198.167 19.1048 199.773 19.1048ZM199.74 21.332C198.288 21.332 197.13 21.8069 196.268 22.7567C195.406 23.7064 194.893 25.0328 194.729 26.7359H204.228C204.217 25.6661 204.046 24.7272 203.72 23.9194C203.403 23.1005 202.916 22.4674 202.262 22.0197C201.607 21.5612 200.766 21.332 199.74 21.332ZM219.458 19.1048C221.695 19.1048 223.479 19.8744 224.812 21.4138C226.143 22.9531 226.811 25.2676 226.811 28.3572C226.811 30.3986 226.504 32.1127 225.893 33.4992C225.281 34.8857 224.419 35.9336 223.306 36.6432C222.202 37.3529 220.899 37.7077 219.391 37.7077C218.442 37.7077 217.607 37.5822 216.887 37.3311C216.165 37.08 215.549 36.7415 215.035 36.3158C214.523 35.89 214.097 35.426 213.758 34.9237H213.562C213.594 35.3496 213.633 35.8627 213.676 36.4632C213.73 37.0636 213.758 37.5876 213.758 38.0353V45.4043H211.023V19.4323H213.268L213.627 22.0852H213.758C214.108 21.5394 214.534 21.0426 215.035 20.595C215.538 20.1365 216.15 19.7763 216.87 19.5142C217.602 19.2413 218.464 19.1048 219.458 19.1048ZM218.983 21.3974C217.738 21.3974 216.733 21.6377 215.969 22.118C215.216 22.5983 214.664 23.3189 214.316 24.2796C213.966 25.2294 213.78 26.4247 213.758 27.8659V28.3898C213.758 29.9073 213.922 31.1901 214.249 32.2382C214.588 33.2862 215.139 34.0832 215.904 34.629C216.679 35.175 217.716 35.4479 219.015 35.4479C220.128 35.4479 221.057 35.1476 221.798 34.5471C222.541 33.9467 223.092 33.1116 223.453 32.0416C223.825 30.9608 224.01 29.7218 224.01 28.3244C224.01 26.2065 223.596 24.5252 222.766 23.2807C221.947 22.0251 220.685 21.3974 218.983 21.3974ZM246.363 28.3734C246.363 29.8474 246.172 31.1628 245.79 32.3201C245.408 33.4773 244.857 34.4544 244.137 35.2513C243.415 36.0483 242.542 36.6596 241.516 37.0855C240.501 37.5003 239.349 37.7077 238.061 37.7077C236.86 37.7077 235.758 37.5003 234.753 37.0855C233.759 36.6596 232.897 36.0483 232.165 35.2513C231.445 34.4544 230.883 33.4773 230.479 32.3201C230.086 31.1628 229.89 29.8474 229.89 28.3734C229.89 26.4085 230.222 24.7381 230.888 23.3626C231.554 21.9761 232.504 20.9225 233.738 20.202C234.982 19.4706 236.462 19.1048 238.176 19.1048C239.813 19.1048 241.244 19.4706 242.467 20.202C243.699 20.9335 244.655 21.9925 245.332 23.379C246.019 24.7545 246.363 26.4193 246.363 28.3734ZM232.705 28.3734C232.705 29.8146 232.897 31.0645 233.28 32.1235C233.662 33.1824 234.25 34.0013 235.047 34.5799C235.844 35.1586 236.871 35.4479 238.126 35.4479C239.371 35.4479 240.392 35.1586 241.188 34.5799C241.996 34.0013 242.592 33.1824 242.973 32.1235C243.355 31.0645 243.547 29.8146 243.547 28.3734C243.547 26.9434 243.355 25.7097 242.973 24.6726C242.592 23.6245 242.002 22.8166 241.205 22.249C240.408 21.6813 239.377 21.3974 238.109 21.3974C236.242 21.3974 234.872 22.0143 233.999 23.2479C233.137 24.4816 232.705 26.19 232.705 28.3734ZM257.581 37.7077C255.966 37.7077 254.541 37.3748 253.307 36.7088C252.073 36.0427 251.113 35.0276 250.425 33.6629C249.737 32.2983 249.394 30.5788 249.394 28.5045C249.394 26.332 249.754 24.5579 250.474 23.1824C251.206 21.7959 252.209 20.7697 253.488 20.1038C254.765 19.4377 256.217 19.1048 257.844 19.1048C258.739 19.1048 259.601 19.1976 260.431 19.3832C261.271 19.5579 261.958 19.7817 262.494 20.0546L261.675 22.3309C261.129 22.1124 260.496 21.916 259.776 21.7414C259.067 21.5666 258.4 21.4793 257.777 21.4793C256.533 21.4793 255.496 21.7468 254.666 22.2818C253.847 22.8166 253.231 23.6026 252.816 24.6398C252.412 25.6769 252.209 26.9543 252.209 28.4717C252.209 29.9237 252.406 31.1628 252.799 32.1891C253.203 33.2153 253.799 34.0013 254.584 34.5471C255.381 35.0821 256.375 35.3496 257.565 35.3496C258.514 35.3496 259.372 35.2513 260.136 35.0548C260.9 34.8474 261.593 34.6072 262.215 34.3343V36.7579C261.615 37.0636 260.944 37.2983 260.201 37.4621C259.469 37.6258 258.596 37.7077 257.581 37.7077ZM272.992 37.7077C271.376 37.7077 269.95 37.3748 268.717 36.7088C267.485 36.0427 266.523 35.0276 265.836 33.6629C265.147 32.2983 264.804 30.5788 264.804 28.5045C264.804 26.332 265.164 24.5579 265.884 23.1824C266.616 21.7959 267.621 20.7697 268.898 20.1038C270.175 19.4377 271.627 19.1048 273.254 19.1048C274.148 19.1048 275.011 19.1976 275.84 19.3832C276.681 19.5579 277.37 19.7817 277.904 20.0546L277.085 22.3309C276.54 22.1124 275.907 21.916 275.186 21.7414C274.477 21.5666 273.811 21.4793 273.189 21.4793C271.944 21.4793 270.907 21.7468 270.077 22.2818C269.259 22.8166 268.641 23.6026 268.226 24.6398C267.822 25.6769 267.621 26.9543 267.621 28.4717C267.621 29.9237 267.817 31.1628 268.211 32.1891C268.613 33.2153 269.209 34.0013 269.995 34.5471C270.791 35.0821 271.785 35.3496 272.975 35.3496C273.926 35.3496 274.782 35.2513 275.546 35.0548C276.311 34.8474 277.003 34.6072 277.625 34.3343V36.7579C277.026 37.0636 276.354 37.2983 275.611 37.4621C274.881 37.6258 274.008 37.7077 272.992 37.7077ZM283.8 19.4323V30.7152C283.8 30.9336 283.795 31.2175 283.785 31.5669C283.774 31.9052 283.757 32.271 283.735 32.6639C283.713 33.0461 283.692 33.4173 283.67 33.7775C283.658 34.1269 283.642 34.4162 283.62 34.6454L293.413 19.4323H296.753V37.3802H294.215V26.3756C294.215 26.0263 294.221 25.5788 294.232 25.0328C294.242 24.487 294.259 23.952 294.281 23.428C294.303 22.8931 294.318 22.4782 294.329 22.1835L284.569 37.3802H281.213V19.4323H283.8ZM304.451 19.4323V30.7152C304.451 30.9336 304.445 31.2175 304.434 31.5669C304.423 31.9052 304.408 32.271 304.385 32.6639C304.363 33.0461 304.341 33.4173 304.32 33.7775C304.309 34.1269 304.292 34.4162 304.27 34.6454L314.064 19.4323H317.404V37.3802H314.866V26.3756C314.866 26.0263 314.87 25.5788 314.883 25.0328C314.894 24.487 314.909 23.952 314.931 23.428C314.952 22.8931 314.969 22.4782 314.98 22.1835L305.221 37.3802H301.863V19.4323H304.451ZM316.061 12.0469C315.963 13.1495 315.685 14.072 315.226 14.8144C314.779 15.5567 314.118 16.1189 313.245 16.5011C312.37 16.8723 311.253 17.0579 309.888 17.0579C308.479 17.0579 307.344 16.8777 306.482 16.5175C305.629 16.1463 304.996 15.5895 304.581 14.8471C304.177 14.1048 303.937 13.1713 303.861 12.0469H306.416C306.536 13.2478 306.858 14.0665 307.381 14.5032C307.906 14.9399 308.758 15.1583 309.937 15.1583C310.985 15.1583 311.809 14.929 312.409 14.4705C313.01 14.012 313.37 13.2041 313.49 12.0469H316.061ZM329.703 37.7077C328.087 37.7077 326.663 37.3748 325.429 36.7088C324.195 36.0427 323.234 35.0276 322.547 33.6629C321.859 32.2983 321.514 30.5788 321.514 28.5045C321.514 26.332 321.875 24.5579 322.596 23.1824C323.327 21.7959 324.331 20.7697 325.609 20.1038C326.886 19.4377 328.338 19.1048 329.964 19.1048C330.861 19.1048 331.723 19.1976 332.553 19.3832C333.393 19.5579 334.08 19.7817 334.616 20.0546L333.797 22.3309C333.251 22.1124 332.618 21.916 331.898 21.7414C331.187 21.5666 330.522 21.4793 329.899 21.4793C328.655 21.4793 327.618 21.7468 326.788 22.2818C325.969 22.8166 325.352 23.6026 324.937 24.6398C324.534 25.6769 324.332 26.9543 324.332 28.4717C324.332 29.9237 324.528 31.1628 324.921 32.1891C325.325 33.2153 325.92 34.0013 326.706 34.5471C327.503 35.0821 328.497 35.3496 329.686 35.3496C330.636 35.3496 331.494 35.2513 332.257 35.0548C333.022 34.8474 333.715 34.6072 334.337 34.3343V36.7579C333.737 37.0636 333.065 37.2983 332.324 37.4621C331.591 37.6258 330.718 37.7077 329.703 37.7077ZM348.388 19.4323H351.385L343.639 28.0951L352.007 37.3802H348.814L340.659 28.2753V37.3802H337.924V19.4323H340.659V28.1442L348.388 19.4323ZM357.167 19.4323V30.7152C357.167 30.9336 357.16 31.2175 357.15 31.5669C357.139 31.9052 357.123 32.271 357.1 32.6639C357.078 33.0461 357.057 33.4173 357.035 33.7775C357.024 34.1269 357.009 34.4162 356.986 34.6454L366.779 19.4323H370.12V37.3802H367.581V26.3756C367.581 26.0263 367.587 25.5788 367.598 25.0328C367.609 24.487 367.625 23.952 367.646 23.428C367.668 22.8931 367.685 22.4782 367.696 22.1835L357.936 37.3802H354.578V19.4323H357.167ZM377.816 19.4323V30.7152C377.816 30.9336 377.812 31.2175 377.801 31.5669C377.79 31.9052 377.773 32.271 377.751 32.6639C377.73 33.0461 377.708 33.4173 377.686 33.7775C377.675 34.1269 377.658 34.4162 377.637 34.6454L387.429 19.4323H390.77V37.3802H388.232V26.3756C388.232 26.0263 388.237 25.5788 388.248 25.0328C388.259 24.487 388.276 23.952 388.297 23.428C388.319 22.8931 388.336 22.4782 388.347 22.1835L378.587 37.3802H375.23V19.4323H377.816ZM389.427 12.0469C389.328 13.1495 389.051 14.072 388.592 14.8144C388.144 15.5567 387.483 16.1189 386.61 16.5011C385.737 16.8723 384.618 17.0579 383.254 17.0579C381.846 17.0579 380.709 16.8777 379.847 16.5175C378.996 16.1463 378.363 15.5895 377.948 14.8471C377.544 14.1048 377.304 13.1713 377.227 12.0469H379.782C379.901 13.2478 380.223 14.0665 380.748 14.5032C381.271 14.9399 382.124 15.1583 383.302 15.1583C384.35 15.1583 385.175 14.929 385.776 14.4705C386.376 14.012 386.736 13.2041 386.856 12.0469H389.427ZM414.811 19.4323V21.7414H406.656V37.3802H403.921V19.4323H414.811ZM433.202 28.3734C433.202 29.8474 433.01 31.1628 432.629 32.3201C432.247 33.4773 431.696 34.4544 430.974 35.2513C430.255 36.0483 429.38 36.6596 428.354 37.0855C427.338 37.5003 426.187 37.7077 424.899 37.7077C423.698 37.7077 422.595 37.5003 421.591 37.0855C420.597 36.6596 419.735 36.0483 419.004 35.2513C418.283 34.4544 417.721 33.4773 417.317 32.3201C416.924 31.1628 416.727 29.8474 416.727 28.3734C416.727 26.4085 417.06 24.7381 417.727 23.3626C418.393 21.9761 419.342 20.9225 420.575 20.202C421.82 19.4706 423.3 19.1048 425.013 19.1048C426.651 19.1048 428.081 19.4706 429.304 20.202C430.538 20.9335 431.493 21.9925 432.169 23.379C432.858 24.7545 433.202 26.4193 433.202 28.3734ZM419.544 28.3734C419.544 29.8146 419.735 31.0645 420.117 32.1235C420.499 33.1824 421.089 34.0013 421.886 34.5799C422.684 35.1586 423.708 35.4479 424.965 35.4479C426.21 35.4479 427.23 35.1586 428.027 34.5799C428.835 34.0013 429.43 33.1824 429.812 32.1235C430.194 31.0645 430.385 29.8146 430.385 28.3734C430.385 26.9434 430.194 25.7097 429.812 24.6726C429.43 23.6245 428.84 22.8166 428.043 22.249C427.247 21.6813 426.215 21.3974 424.948 21.3974C423.081 21.3974 421.712 22.0143 420.838 23.2479C419.975 24.4816 419.544 26.19 419.544 28.3734ZM444.42 37.7077C442.804 37.7077 441.38 37.3748 440.146 36.7088C438.912 36.0427 437.951 35.0276 437.264 33.6629C436.575 32.2983 436.231 30.5788 436.231 28.5045C436.231 26.332 436.592 24.5579 437.313 23.1824C438.044 21.7959 439.049 20.7697 440.326 20.1038C441.603 19.4377 443.055 19.1048 444.682 19.1048C445.576 19.1048 446.44 19.1976 447.27 19.3832C448.11 19.5579 448.798 19.7817 449.333 20.0546L448.514 22.3309C447.968 22.1124 447.335 21.916 446.613 21.7414C445.904 21.5666 445.239 21.4793 444.617 21.4793C443.372 21.4793 442.335 21.7468 441.505 22.2818C440.686 22.8166 440.069 23.6026 439.654 24.6398C439.25 25.6769 439.049 26.9543 439.049 28.4717C439.049 29.9237 439.245 31.1628 439.638 32.1891C440.042 33.2153 440.637 34.0013 441.423 34.5471C442.22 35.0821 443.213 35.3496 444.403 35.3496C445.353 35.3496 446.209 35.2513 446.974 35.0548C447.739 34.8474 448.432 34.6072 449.055 34.3343V36.7579C448.454 37.0636 447.782 37.2983 447.039 37.4621C446.308 37.6258 445.435 37.7077 444.42 37.7077ZM449.808 19.4323H452.723L456.686 29.8474C456.915 30.4587 457.129 31.0483 457.324 31.6159C457.52 32.1727 457.695 32.7077 457.848 33.2207C458.002 33.7338 458.121 34.2306 458.209 34.7109H458.324C458.477 34.1651 458.695 33.4499 458.978 32.5657C459.262 31.6706 459.568 30.759 459.895 29.831L463.645 19.4323H466.577L458.765 40.0166C458.35 41.1193 457.865 42.0801 457.308 42.8988C456.762 43.7176 456.096 44.3453 455.31 44.782C454.523 45.2297 453.574 45.4534 452.462 45.4534C451.948 45.4534 451.494 45.4207 451.101 45.3552C450.709 45.3006 450.37 45.2351 450.087 45.1586V42.9807C450.327 43.0353 450.616 43.0844 450.954 43.128C451.304 43.1717 451.664 43.1935 452.034 43.1935C452.712 43.1935 453.296 43.0625 453.787 42.8005C454.29 42.5494 454.72 42.1782 455.081 41.687C455.441 41.1957 455.752 40.6117 456.014 39.9348L456.997 37.413L449.808 19.4323ZM481.922 19.4323V35.0713H484.492V43.5865H481.856V37.3802H469.148V43.5865H466.545V35.0713H467.953C468.98 33.6519 469.831 32.0963 470.508 30.404C471.184 28.712 471.698 26.9379 472.046 25.082C472.396 23.2152 472.582 21.332 472.603 19.4323H481.922ZM479.284 21.5939H475.028C474.928 23.1878 474.695 24.8091 474.323 26.4575C473.963 28.1061 473.483 29.678 472.882 31.1738C472.281 32.6585 471.583 33.9577 470.786 35.0713H479.284V21.5939ZM494.106 19.1376C496.245 19.1376 497.834 19.6179 498.871 20.5786C499.908 21.5394 500.426 23.0732 500.426 25.1802V37.3802H498.445L497.922 34.7273H497.79C497.289 35.3824 496.764 35.9336 496.217 36.3813C495.673 36.818 495.039 37.1509 494.318 37.3802C493.609 37.5986 492.736 37.7077 491.699 37.7077C490.606 37.7077 489.636 37.5167 488.784 37.1345C487.944 36.7525 487.276 36.1739 486.786 35.3986C486.306 34.6236 486.064 33.6411 486.064 32.451C486.064 30.6607 486.775 29.285 488.194 28.3244C489.614 27.3637 491.775 26.8397 494.679 26.7523L497.773 26.6213V25.5241C497.773 23.9738 497.44 22.8877 496.775 22.2654C496.109 21.6431 495.169 21.332 493.959 21.332C493.019 21.332 492.125 21.4683 491.273 21.7414C490.42 22.0143 489.614 22.3363 488.849 22.7075L488.013 20.6442C488.821 20.2294 489.75 19.8744 490.798 19.5797C491.846 19.285 492.948 19.1376 494.106 19.1376ZM497.741 28.5372L495.007 28.6519C492.769 28.7392 491.191 29.105 490.273 29.7491C489.357 30.3932 488.899 31.3048 488.899 32.4839C488.899 33.51 489.21 34.2688 489.832 34.7601C490.454 35.2513 491.278 35.4969 492.304 35.4969C493.899 35.4969 495.204 35.0548 496.217 34.1705C497.233 33.2862 497.741 31.9599 497.741 30.1912V28.5372ZM513.79 19.1048C516.028 19.1048 517.813 19.8744 519.144 21.4138C520.477 22.9531 521.143 25.2676 521.143 28.3572C521.143 30.3986 520.838 32.1127 520.226 33.4992C519.615 34.8857 518.753 35.9336 517.638 36.6432C516.536 37.3529 515.231 37.7077 513.725 37.7077C512.774 37.7077 511.94 37.5822 511.219 37.3311C510.499 37.08 509.881 36.7415 509.369 36.3158C508.855 35.89 508.429 35.426 508.092 34.9237H507.895C507.928 35.3496 507.966 35.8627 508.01 36.4632C508.064 37.0636 508.092 37.5876 508.092 38.0353V45.4043H505.357V19.4323H507.6L507.96 22.0852H508.092C508.44 21.5394 508.866 21.0426 509.369 20.595C509.87 20.1365 510.482 19.7763 511.203 19.5142C511.934 19.2413 512.796 19.1048 513.79 19.1048ZM513.315 21.3974C512.07 21.3974 511.067 21.6377 510.302 22.118C509.548 22.5983 508.997 23.3189 508.647 24.2796C508.299 25.2294 508.113 26.4247 508.092 27.8659V28.3898C508.092 29.9073 508.254 31.1901 508.582 32.2382C508.921 33.2862 509.473 34.0832 510.237 34.629C511.011 35.175 512.048 35.4479 513.349 35.4479C514.462 35.4479 515.389 35.1476 516.132 34.5471C516.875 33.9467 517.426 33.1116 517.785 32.0416C518.157 30.9608 518.342 29.7218 518.342 28.3244C518.342 26.2065 517.927 24.5252 517.098 23.2807C516.279 22.0251 515.019 21.3974 513.315 21.3974ZM532.41 37.7077C530.794 37.7077 529.37 37.3748 528.136 36.7088C526.902 36.0427 525.941 35.0276 525.254 33.6629C524.567 32.2983 524.221 30.5788 524.221 28.5045C524.221 26.332 524.582 24.5579 525.303 23.1824C526.034 21.7959 527.039 20.7697 528.316 20.1038C529.593 19.4377 531.045 19.1048 532.672 19.1048C533.566 19.1048 534.43 19.1976 535.26 19.3832C536.1 19.5579 536.788 19.7817 537.323 20.0546L536.504 22.3309C535.958 22.1124 535.325 21.916 534.604 21.7414C533.895 21.5666 533.229 21.4793 532.607 21.4793C531.362 21.4793 530.325 21.7468 529.495 22.2818C528.676 22.8166 528.059 23.6026 527.644 24.6398C527.24 25.6769 527.039 26.9543 527.039 28.4717C527.039 29.9237 527.235 31.1628 527.628 32.1891C528.033 33.2153 528.627 34.0013 529.413 34.5471C530.21 35.0821 531.204 35.3496 532.393 35.3496C533.343 35.3496 534.201 35.2513 534.964 35.0548C535.729 34.8474 536.422 34.6072 537.045 34.3343V36.7579C536.444 37.0636 535.772 37.2983 535.031 37.4621C534.299 37.6258 533.426 37.7077 532.41 37.7077ZM552.863 21.7414H546.952V37.3802H544.267V21.7414H538.436V19.4323H552.863V21.7414ZM570.01 23.9356C570.01 25.0602 569.683 25.939 569.027 26.5722C568.372 27.1945 567.527 27.6148 566.49 27.833V27.9642C567.614 28.1169 568.579 28.521 569.388 29.1759C570.206 29.82 570.617 30.808 570.617 32.1399C570.617 33.1662 570.37 34.0722 569.878 34.8583C569.387 35.6443 568.618 36.2612 567.57 36.7088C566.522 37.1563 565.157 37.3802 563.476 37.3802H555.747V19.4323H563.411C564.699 19.4323 565.833 19.5797 566.816 19.8744C567.81 20.1583 568.59 20.6278 569.158 21.2827C569.727 21.9378 570.01 22.8222 570.01 23.9356ZM567.782 32.1399C567.782 31.081 567.378 30.3167 566.572 29.8474C565.775 29.3779 564.612 29.1432 563.083 29.1432H558.482V35.1694H563.149C564.655 35.1694 565.801 34.9401 566.587 34.4816C567.384 34.0123 567.782 33.2317 567.782 32.1399ZM567.242 24.2468C567.242 23.3952 566.931 22.7621 566.309 22.3473C565.686 21.9214 564.666 21.7086 563.247 21.7086H558.482V26.867H562.772C564.245 26.867 565.36 26.6541 566.112 26.2283C566.866 25.8024 567.242 25.1421 567.242 24.2468ZM581.245 19.1048C582.773 19.1048 584.082 19.4433 585.175 20.1201C586.266 20.797 587.102 21.7468 587.68 22.9695C588.259 24.1813 588.548 25.6006 588.548 27.2272V28.914H576.152C576.185 31.0209 576.708 32.6258 577.723 33.7284C578.739 34.831 580.169 35.3824 582.014 35.3824C583.149 35.3824 584.153 35.2787 585.028 35.0713C585.901 34.8638 586.807 34.5581 587.746 34.1541V36.5451C586.839 36.9489 585.938 37.2437 585.043 37.4292C584.16 37.6148 583.112 37.7077 581.9 37.7077C580.175 37.7077 578.667 37.3584 577.38 36.6596C576.102 35.95 575.109 34.9129 574.4 33.5482C573.689 32.1836 573.335 30.5133 573.335 28.5372C573.335 26.6049 573.657 24.9347 574.301 23.5263C574.956 22.107 575.873 21.0154 577.053 20.2512C578.242 19.487 579.64 19.1048 581.245 19.1048ZM581.212 21.332C579.76 21.332 578.602 21.8069 577.74 22.7567C576.878 23.7064 576.364 25.0328 576.2 26.7359H585.698C585.687 25.6661 585.519 24.7272 585.191 23.9194C584.875 23.1005 584.389 22.4674 583.734 22.0197C583.079 21.5612 582.239 21.332 581.212 21.332ZM595.231 19.4323V26.9653H605.235V19.4323H607.955V37.3802H605.235V29.2742H595.231V37.3802H592.495V19.4323H595.231ZM615.783 19.4323V26.9653H625.787V19.4323H628.507V37.3802H625.787V29.2742H615.783V37.3802H613.047V19.4323H615.783ZM633.6 37.3802V19.4323H636.335V26.8341H641.246C642.776 26.8341 644.031 27.0252 645.014 27.4074C646.006 27.7894 646.745 28.3572 647.225 29.1104C647.705 29.8636 647.944 30.7971 647.944 31.9107C647.944 33.0242 647.705 33.9903 647.225 34.8092C646.756 35.6279 646.013 36.2612 644.997 36.7088C643.992 37.1563 642.683 37.3802 641.067 37.3802H633.6ZM636.335 35.1694H640.805C642.158 35.1694 643.24 34.9293 644.047 34.449C644.855 33.9685 645.259 33.1662 645.259 32.0416C645.259 30.939 644.883 30.1748 644.129 29.7491C643.376 29.3124 642.296 29.094 640.887 29.094H636.335V35.1694ZM650.909 37.3802V19.4323H653.627V37.3802H650.909ZM661.292 19.4323V30.7152C661.292 30.9336 661.286 31.2175 661.275 31.5669C661.265 31.9052 661.248 32.271 661.226 32.6639C661.204 33.0461 661.183 33.4173 661.161 33.7775C661.15 34.1269 661.133 34.4162 661.111 34.6454L670.904 19.4323H674.246V37.3802H671.707V26.3756C671.707 26.0263 671.712 25.5788 671.723 25.0328C671.733 24.487 671.75 23.952 671.772 23.428C671.794 22.8931 671.811 22.4782 671.822 22.1835L662.062 37.3802H658.704V19.4323H661.292ZM672.902 12.0469C672.805 13.1495 672.526 14.072 672.068 14.8144C671.619 15.5567 670.959 16.1189 670.086 16.5011C669.212 16.8723 668.093 17.0579 666.729 17.0579C665.32 17.0579 664.186 16.8777 663.322 16.5175C662.47 16.1463 661.837 15.5895 661.422 14.8471C661.018 14.1048 660.778 13.1713 660.703 12.0469H663.257C663.378 13.2478 663.699 14.0665 664.223 14.5032C664.747 14.9399 665.599 15.1583 666.778 15.1583C667.826 15.1583 668.65 14.929 669.25 14.4705C669.851 14.012 670.212 13.2041 670.331 12.0469H672.902ZM159.029 65.8708V77.1537C159.029 77.3721 159.023 77.656 159.012 78.0054C159.001 78.3437 158.985 78.7095 158.963 79.1024C158.941 79.4846 158.92 79.8558 158.898 80.216C158.887 80.5654 158.87 80.8547 158.849 81.0839L168.642 65.8708H171.982V83.8187H169.444V72.8142C169.444 72.4648 169.45 72.0173 169.461 71.4713C169.471 70.9255 169.487 70.3905 169.509 69.8665C169.53 69.3316 169.547 68.9167 169.558 68.622L159.798 83.8187H156.441V65.8708H159.029ZM179.827 65.8708V73.4038H189.832V65.8708H192.55V83.8187H189.832V75.7127H179.827V83.8187H177.092V65.8708H179.827ZM204.833 84.1462C203.217 84.1462 201.793 83.8133 200.559 83.1473C199.325 82.4813 198.364 81.4661 197.677 80.1014C196.989 78.7368 196.646 77.0173 196.646 74.9431C196.646 72.7705 197.005 70.9964 197.726 69.6209C198.457 68.2344 199.461 67.2083 200.739 66.5423C202.017 65.8762 203.469 65.5433 205.094 65.5433C205.991 65.5433 206.853 65.6362 207.683 65.8218C208.523 65.9964 209.21 66.2202 209.746 66.4931L208.927 68.7694C208.381 68.5509 207.748 68.3545 207.028 68.1799C206.317 68.0051 205.652 67.9178 205.029 67.9178C203.785 67.9178 202.748 68.1853 201.918 68.7203C201.099 69.2551 200.483 70.0412 200.068 71.0783C199.664 72.1154 199.461 73.3928 199.461 74.9102C199.461 76.3622 199.658 77.6013 200.051 78.6276C200.455 79.6538 201.05 80.4398 201.836 80.9856C202.633 81.5206 203.627 81.7881 204.817 81.7881C205.766 81.7881 206.624 81.6898 207.387 81.4934C208.152 81.2859 208.845 81.0457 209.467 80.7728V83.1964C208.867 83.5021 208.195 83.7368 207.454 83.9006C206.721 84.0643 205.848 84.1462 204.833 84.1462ZM225.287 68.1799H219.376V83.8187H216.69V68.1799H210.861V65.8708H225.287V68.1799ZM230.758 65.8708V77.1537C230.758 77.3721 230.752 77.656 230.741 78.0054C230.73 78.3437 230.713 78.7095 230.691 79.1024C230.67 79.4846 230.648 79.8558 230.626 80.216C230.615 80.5654 230.598 80.8547 230.577 81.0839L240.369 65.8708H243.711V83.8187H241.173V72.8142C241.173 72.4648 241.177 72.0173 241.188 71.4713C241.199 70.9255 241.216 70.3905 241.238 69.8665C241.259 69.3316 241.276 68.9167 241.287 68.622L231.527 83.8187H228.17V65.8708H230.758ZM261.053 68.1799H255.141V83.8187H252.456V68.1799H246.626V65.8708H261.053V68.1799ZM261.102 65.8708H264.017L267.98 76.2859C268.211 76.8972 268.423 77.4868 268.619 78.0544C268.816 78.6112 268.991 79.1462 269.144 79.6592C269.296 80.1723 269.416 80.6691 269.503 81.1494H269.618C269.771 80.6036 269.989 79.8884 270.272 79.0043C270.557 78.1091 270.862 77.1975 271.19 76.2695L274.941 65.8708H277.871L270.06 86.4552C269.646 87.5578 269.159 88.5186 268.602 89.3373C268.057 90.1562 267.392 90.7838 266.605 91.2205C265.819 91.6682 264.869 91.8919 263.756 91.8919C263.243 91.8919 262.79 91.8592 262.396 91.7937C262.003 91.7391 261.664 91.6736 261.381 91.5971V89.4192C261.621 89.4738 261.91 89.5229 262.249 89.5665C262.598 89.6102 262.958 89.632 263.33 89.632C264.006 89.632 264.591 89.5011 265.082 89.239C265.584 88.9879 266.016 88.6167 266.376 88.1255C266.735 87.6342 267.047 87.0502 267.31 86.3733L268.291 83.8515L261.102 65.8708ZM292.3 68.1799H286.388V83.8187H283.702V68.1799H277.873V65.8708H292.3V68.1799ZM313.688 65.8708H316.685L308.939 74.5336L317.307 83.8187H314.113L305.957 74.7138V83.8187H303.224V65.8708H305.957V74.5827L313.688 65.8708ZM322.465 65.8708V77.1537C322.465 77.3721 322.46 77.656 322.449 78.0054C322.438 78.3437 322.421 78.7095 322.4 79.1024C322.378 79.4846 322.356 79.8558 322.335 80.216C322.324 80.5654 322.307 80.8547 322.285 81.0839L332.077 65.8708H335.418V83.8187H332.881V72.8142C332.881 72.4648 332.885 72.0173 332.896 71.4713C332.907 70.9255 332.924 70.3905 332.946 69.8665C332.968 69.3316 332.985 68.9167 332.995 68.622L323.236 83.8187H319.878V65.8708H322.465ZM343.263 65.8708V73.4038H353.269V65.8708H355.987V83.8187H353.269V75.7127H343.263V83.8187H340.529V65.8708H343.263ZM367.991 65.5433C369.519 65.5433 370.83 65.8818 371.922 66.5586C373.013 67.2355 373.849 68.1853 374.426 69.408C375.005 70.6198 375.295 72.0391 375.295 73.6657V75.3525H362.899C362.931 77.4594 363.456 79.0643 364.47 80.1669C365.485 81.2695 366.916 81.8209 368.761 81.8209C369.897 81.8209 370.9 81.7172 371.775 81.5098C372.648 81.3023 373.553 80.9966 374.493 80.5926V82.9836C373.586 83.3874 372.686 83.6822 371.79 83.8678C370.906 84.0534 369.858 84.1462 368.646 84.1462C366.922 84.1462 365.416 83.7969 364.126 83.0981C362.849 82.3885 361.855 81.3514 361.146 79.9867C360.436 78.6221 360.081 76.9518 360.081 74.9757C360.081 73.0434 360.403 71.3732 361.047 69.9648C361.704 68.5455 362.62 67.4539 363.8 66.6897C364.988 65.9255 366.386 65.5433 367.991 65.5433ZM367.959 67.7705C366.507 67.7705 365.349 68.2454 364.487 69.1952C363.625 70.1449 363.111 71.4713 362.948 73.1744H372.445C372.434 72.1046 372.265 71.1657 371.937 70.3579C371.621 69.539 371.135 68.9059 370.481 68.4582C369.826 67.9997 368.985 67.7705 367.959 67.7705ZM398.189 65.8708V83.8187H395.732V72.1264C395.732 71.6461 395.743 71.1602 395.765 70.669C395.797 70.1667 395.836 69.6645 395.879 69.1624H395.782L389.821 83.8187H387.513L381.699 69.1624H381.601C381.634 69.6645 381.655 70.1667 381.666 70.669C381.688 71.1602 381.699 71.6787 381.699 72.2247V83.8187H379.226V65.8708H382.878L388.675 80.5435L394.553 65.8708H398.189ZM409.882 65.5761C412.021 65.5761 413.61 66.0564 414.647 67.0171C415.684 67.9779 416.202 69.5118 416.202 71.6187V83.8187H414.221L413.698 81.1658H413.566C413.065 81.8209 412.54 82.3721 411.995 82.8198C411.449 83.2565 410.815 83.5894 410.094 83.8187C409.385 84.0371 408.512 84.1462 407.475 84.1462C406.382 84.1462 405.412 83.9552 404.56 83.573C403.72 83.191 403.053 82.6124 402.562 81.8372C402.082 81.0621 401.842 80.0796 401.842 78.8895C401.842 77.0992 402.551 75.7235 403.97 74.7629C405.39 73.8022 407.551 73.2782 410.455 73.1908L413.551 73.0598V71.9626C413.551 70.4124 413.216 69.3262 412.551 68.7039C411.885 68.0816 410.946 67.7705 409.735 67.7705C408.795 67.7705 407.901 67.9068 407.049 68.1799C406.198 68.4528 405.39 68.7748 404.625 69.146L403.789 67.0827C404.597 66.6679 405.526 66.3129 406.574 66.0182C407.622 65.7235 408.724 65.5761 409.882 65.5761ZM413.517 74.9757L410.783 75.0904C408.545 75.1777 406.967 75.5435 406.049 76.1876C405.133 76.8317 404.675 77.7433 404.675 78.9224C404.675 79.9485 404.986 80.7073 405.608 81.1986C406.23 81.6898 407.054 81.9355 408.08 81.9355C409.675 81.9355 410.98 81.4934 411.995 80.609C413.009 79.7247 413.517 78.3984 413.517 76.6297V74.9757ZM433.366 68.1799H427.454V83.8187H424.769V68.1799H418.938V65.8708H433.366V68.1799ZM451.723 74.8119C451.723 76.2859 451.533 77.6013 451.15 78.7586C450.768 79.9158 450.217 80.8929 449.496 81.6898C448.776 82.4868 447.903 83.0981 446.877 83.524C445.861 83.9388 444.709 84.1462 443.42 84.1462C442.22 84.1462 441.117 83.9388 440.114 83.524C439.12 83.0981 438.258 82.4868 437.525 81.6898C436.806 80.8929 436.242 79.9158 435.838 78.7586C435.446 77.6013 435.25 76.2859 435.25 74.8119C435.25 72.847 435.583 71.1766 436.248 69.8011C436.914 68.4146 437.864 67.361 439.098 66.6405C440.343 65.9091 441.821 65.5433 443.536 65.5433C445.172 65.5433 446.603 65.9091 447.825 66.6405C449.059 67.372 450.014 68.431 450.692 69.8175C451.379 71.193 451.723 72.8578 451.723 74.8119ZM438.066 74.8119C438.066 76.2531 438.258 77.5031 438.638 78.562C439.021 79.621 439.61 80.4398 440.408 81.0184C441.205 81.5971 442.231 81.8864 443.487 81.8864C444.731 81.8864 445.751 81.5971 446.548 81.0184C447.356 80.4398 447.951 79.621 448.333 78.562C448.715 77.5031 448.906 76.2531 448.906 74.8119C448.906 73.3819 448.715 72.1482 448.333 71.1111C447.951 70.063 447.363 69.2551 446.565 68.6875C445.768 68.1198 444.736 67.8359 443.469 67.8359C441.603 67.8359 440.233 68.4528 439.36 69.6864C438.497 70.9201 438.066 72.6286 438.066 74.8119ZM466.642 65.8708V68.1799H458.488V83.8187H455.752V65.8708H466.642ZM477.992 65.5433C480.229 65.5433 482.015 66.3129 483.346 67.8524C484.677 69.3916 485.345 71.7061 485.345 74.7957C485.345 76.8371 485.038 78.5512 484.427 79.9377C483.815 81.3242 482.953 82.3721 481.84 83.0817C480.736 83.7914 479.433 84.1462 477.925 84.1462C476.976 84.1462 476.141 84.0207 475.421 83.7696C474.699 83.5185 474.083 83.18 473.569 82.7543C473.057 82.3285 472.631 81.8646 472.292 81.3623H472.096C472.128 81.7881 472.167 82.3012 472.21 82.9017C472.264 83.5021 472.292 84.0261 472.292 84.4738V91.8428H469.557V65.8708H471.802L472.161 68.5237H472.292C472.642 67.9779 473.068 67.4812 473.569 67.0335C474.072 66.575 474.684 66.2148 475.404 65.9527C476.136 65.6798 476.998 65.5433 477.992 65.5433ZM477.517 67.8359C476.272 67.8359 475.267 68.0762 474.503 68.5565C473.751 69.0368 473.198 69.7574 472.85 70.7181C472.5 71.6679 472.314 72.8632 472.292 74.3044V74.8284C472.292 76.3458 472.456 77.6286 472.783 78.6767C473.122 79.7247 473.673 80.5217 474.438 81.0675C475.213 81.6135 476.25 81.8864 477.549 81.8864C478.662 81.8864 479.591 81.5861 480.332 80.9856C481.075 80.3852 481.626 79.5501 481.987 78.4801C482.359 77.3993 482.544 76.1604 482.544 74.7629C482.544 72.645 482.13 70.9637 481.3 69.7192C480.481 68.4636 479.219 67.8359 477.517 67.8359ZM496.137 65.5761C498.276 65.5761 499.864 66.0564 500.902 67.0171C501.939 67.9779 502.457 69.5118 502.457 71.6187V83.8187H500.476L499.951 81.1658H499.821C499.318 81.8209 498.795 82.3721 498.248 82.8198C497.703 83.2565 497.07 83.5894 496.349 83.8187C495.64 84.0371 494.765 84.1462 493.728 84.1462C492.637 84.1462 491.666 83.9552 490.814 83.573C489.973 83.191 489.307 82.6124 488.817 81.8372C488.335 81.0621 488.095 80.0796 488.095 78.8895C488.095 77.0992 488.806 75.7235 490.225 74.7629C491.643 73.8022 493.806 73.2782 496.71 73.1908L499.804 73.0598V71.9626C499.804 70.4124 499.471 69.3262 498.806 68.7039C498.14 68.0816 497.2 67.7705 495.988 67.7705C495.05 67.7705 494.156 67.9068 493.303 68.1799C492.451 68.4528 491.643 68.7748 490.88 69.146L490.044 67.0827C490.852 66.6679 491.781 66.3129 492.829 66.0182C493.877 65.7235 494.979 65.5761 496.137 65.5761ZM499.772 74.9757L497.036 75.0904C494.8 75.1777 493.222 75.5435 492.304 76.1876C491.388 76.8317 490.928 77.7433 490.928 78.9224C490.928 79.9485 491.239 80.7073 491.862 81.1986C492.484 81.6898 493.309 81.9355 494.335 81.9355C495.93 81.9355 497.233 81.4934 498.248 80.609C499.264 79.7247 499.772 78.3984 499.772 76.6297V74.9757ZM517.819 58.338V65.6089C519.598 65.7617 521.149 66.2256 522.469 67.0008C523.79 67.7651 524.816 68.8076 525.548 70.1286C526.279 71.4495 526.646 73.0216 526.646 74.8448C526.646 76.6351 526.289 78.1964 525.581 79.5282C524.882 80.8601 523.872 81.9136 522.551 82.6887C521.242 83.4639 519.663 83.9278 517.819 84.0808V91.8756H515.166V84.0808C513.386 83.9496 511.836 83.5021 510.514 82.7379C509.205 81.9627 508.185 80.9093 507.452 79.5773C506.722 78.2454 506.355 76.6679 506.355 74.8448C506.355 73.0216 506.705 71.4495 507.403 70.1286C508.113 68.7966 509.129 67.7486 510.449 66.9844C511.77 66.2092 513.37 65.7507 515.248 65.6089V58.338H517.819ZM515.248 67.8688C513.861 67.9887 512.72 68.3381 511.825 68.9167C510.929 69.4954 510.264 70.2814 509.827 71.2749C509.401 72.2683 509.188 73.4583 509.188 74.8448C509.188 76.2313 509.408 77.4267 509.844 78.4311C510.281 79.4245 510.946 80.2106 511.841 80.7892C512.737 81.3678 513.872 81.7226 515.248 81.8536V67.8688ZM517.819 67.9014V81.8536C519.194 81.7116 520.324 81.346 521.208 80.7564C522.104 80.1669 522.763 79.3755 523.19 78.382C523.627 77.3885 523.845 76.2094 523.845 74.8448C523.845 72.7705 523.348 71.1493 522.355 69.9811C521.361 68.8022 519.848 68.1089 517.819 67.9014ZM533.311 65.8708V77.1537C533.311 77.3721 533.305 77.656 533.294 78.0054C533.283 78.3437 533.268 78.7095 533.244 79.1024C533.223 79.4846 533.201 79.8558 533.179 80.216C533.169 80.5654 533.152 80.8547 533.13 81.0839L542.924 65.8708H546.264V83.8187H543.726V72.8142C543.726 72.4648 543.732 72.0173 543.743 71.4713C543.753 70.9255 543.769 70.3905 543.791 69.8665C543.812 69.3316 543.829 68.9167 543.84 68.622L534.08 83.8187H530.723V65.8708H533.311ZM553.961 65.8708V77.1537C553.961 77.3721 553.956 77.656 553.945 78.0054C553.934 78.3437 553.917 78.7095 553.896 79.1024C553.874 79.4846 553.852 79.8558 553.831 80.216C553.82 80.5654 553.803 80.8547 553.781 81.0839L563.573 65.8708H566.914V83.8187H564.377V72.8142C564.377 72.4648 564.381 72.0173 564.392 71.4713C564.403 70.9255 564.42 70.3905 564.442 69.8665C564.464 69.3316 564.48 68.9167 564.491 68.622L554.73 83.8187H551.374V65.8708H553.961ZM159.029 112.309V123.592C159.029 123.811 159.023 124.094 159.012 124.444C159.001 124.782 158.985 125.148 158.963 125.541C158.941 125.923 158.92 126.294 158.898 126.654C158.887 127.004 158.87 127.293 158.849 127.522L168.642 112.309H171.982V130.257H169.444V119.253C169.444 118.903 169.45 118.456 169.461 117.91C169.471 117.364 169.487 116.829 169.509 116.305C169.53 115.77 169.547 115.355 169.558 115.061L159.798 130.257H156.441V112.309H159.029ZM196.039 112.309V130.257H193.582V118.565C193.582 118.085 193.593 117.599 193.615 117.108C193.647 116.605 193.686 116.103 193.729 115.601H193.632L187.671 130.257H185.361L179.549 115.601H179.45C179.482 116.103 179.505 116.605 179.516 117.108C179.538 117.599 179.549 118.117 179.549 118.663V130.257H177.075V112.309H180.727L186.524 126.982L192.403 112.309H196.039ZM207.929 111.982C209.457 111.982 210.766 112.32 211.859 112.997C212.95 113.674 213.785 114.624 214.364 115.847C214.943 117.058 215.232 118.478 215.232 120.104V121.791H202.834C202.868 123.898 203.392 125.503 204.407 126.605C205.423 127.708 206.853 128.259 208.698 128.259C209.833 128.259 210.837 128.156 211.71 127.948C212.585 127.741 213.491 127.435 214.429 127.031V129.422C213.523 129.826 212.622 130.121 211.727 130.306C210.844 130.492 209.796 130.585 208.584 130.585C206.858 130.585 205.351 130.235 204.063 129.537C202.786 128.827 201.793 127.79 201.084 126.425C200.373 125.061 200.019 123.39 200.019 121.414C200.019 119.482 200.341 117.812 200.985 116.403C201.639 114.984 202.557 113.892 203.735 113.128C204.926 112.364 206.324 111.982 207.929 111.982ZM207.895 114.209C206.443 114.209 205.286 114.684 204.424 115.634C203.56 116.583 203.048 117.91 202.884 119.613H212.382C212.371 118.543 212.203 117.604 211.874 116.796C211.559 115.978 211.073 115.344 210.418 114.897C209.761 114.438 208.921 114.209 207.895 114.209ZM221.913 112.309V119.842H231.919V112.309H234.637V130.257H231.919V122.151H221.913V130.257H219.179V112.309H221.913ZM242.318 112.309V123.592C242.318 123.811 242.313 124.094 242.303 124.444C242.292 124.782 242.275 125.148 242.253 125.541C242.231 125.923 242.21 126.294 242.188 126.654C242.177 127.004 242.16 127.293 242.138 127.522L251.931 112.309H255.271V130.257H252.734V119.253C252.734 118.903 252.739 118.456 252.75 117.91C252.76 117.364 252.778 116.829 252.799 116.305C252.821 115.77 252.838 115.355 252.849 115.061L243.089 130.257H239.731V112.309H242.318ZM279.066 108.428C277.746 108.428 276.556 108.658 275.497 109.116C274.449 109.564 273.554 110.219 272.811 111.081C272.08 111.933 271.517 112.964 271.125 114.176C270.732 115.388 270.536 116.753 270.536 118.27C270.536 120.279 270.847 122.026 271.469 123.51C272.102 124.984 273.04 126.125 274.285 126.933C275.54 127.741 277.107 128.145 278.986 128.145C280.055 128.145 281.06 128.057 281.998 127.883C282.949 127.697 283.871 127.468 284.766 127.195V129.619C283.893 129.946 282.975 130.186 282.015 130.339C281.054 130.503 279.913 130.585 278.593 130.585C276.158 130.585 274.122 130.083 272.484 129.078C270.858 128.063 269.635 126.633 268.816 124.788C268.008 122.943 267.604 120.765 267.604 118.254C267.604 116.442 267.855 114.788 268.358 113.292C268.87 111.785 269.613 110.486 270.584 109.395C271.567 108.303 272.768 107.462 274.187 106.873C275.618 106.272 277.255 105.972 279.1 105.972C280.311 105.972 281.48 106.092 282.603 106.332C283.729 106.572 284.744 106.916 285.65 107.364L284.537 109.722C283.772 109.373 282.932 109.072 282.015 108.821C281.108 108.559 280.127 108.428 279.066 108.428ZM288.467 128.554C288.467 127.79 288.653 127.25 289.024 126.933C289.396 126.605 289.848 126.442 290.383 126.442C290.941 126.442 291.41 126.605 291.792 126.933C292.174 127.25 292.365 127.79 292.365 128.554C292.365 129.307 292.174 129.859 291.792 130.208C291.41 130.547 290.941 130.716 290.383 130.716C289.848 130.716 289.396 130.547 289.024 130.208C288.653 129.859 288.467 129.307 288.467 128.554ZM312.442 130.257L309.494 122.659H299.899L296.967 130.257H294.151L303.518 106.218H306.022L315.324 130.257H312.442ZM308.66 120.186L305.86 112.637C305.793 112.44 305.685 112.118 305.532 111.671C305.389 111.223 305.242 110.759 305.089 110.279C304.937 109.798 304.81 109.411 304.713 109.116C304.603 109.564 304.484 110.011 304.352 110.459C304.233 110.896 304.112 111.305 303.993 111.687C303.872 112.058 303.769 112.375 303.682 112.637L300.832 120.186H308.66ZM317.158 128.554C317.158 127.79 317.344 127.25 317.716 126.933C318.087 126.605 318.541 126.442 319.075 126.442C319.632 126.442 320.101 126.605 320.483 126.933C320.866 127.25 321.056 127.79 321.056 128.554C321.056 129.307 320.866 129.859 320.483 130.208C320.101 130.547 319.632 130.716 319.075 130.716C318.541 130.716 318.087 130.547 317.716 130.208C317.344 129.859 317.158 129.307 317.158 128.554ZM347.603 106.316V108.805H336.943V130.257H334.158V106.316H347.603ZM357.445 111.982C358.973 111.982 360.284 112.32 361.376 112.997C362.467 113.674 363.303 114.624 363.882 115.847C364.459 117.058 364.748 118.478 364.748 120.104V121.791H352.352C352.385 123.898 352.91 125.503 353.925 126.605C354.939 127.708 356.369 128.259 358.215 128.259C359.351 128.259 360.355 128.156 361.228 127.948C362.101 127.741 363.007 127.435 363.947 127.031V129.422C363.041 129.826 362.14 130.121 361.244 130.306C360.36 130.492 359.312 130.585 358.1 130.585C356.376 130.585 354.869 130.235 353.58 129.537C352.303 128.827 351.309 127.79 350.6 126.425C349.891 125.061 349.535 123.39 349.535 121.414C349.535 119.482 349.857 117.812 350.503 116.403C351.157 114.984 352.074 113.892 353.253 113.128C354.444 112.364 355.84 111.982 357.445 111.982ZM357.413 114.209C355.961 114.209 354.803 114.684 353.941 115.634C353.078 116.583 352.566 117.91 352.402 119.613H361.9C361.888 118.543 361.719 117.604 361.393 116.796C361.075 115.978 360.589 115.344 359.934 114.897C359.28 114.438 358.439 114.209 357.413 114.209ZM377.129 111.982C379.367 111.982 381.152 112.751 382.485 114.291C383.816 115.83 384.482 118.145 384.482 121.234C384.482 123.276 384.177 124.99 383.565 126.376C382.954 127.763 382.092 128.811 380.977 129.52C379.875 130.23 378.57 130.585 377.064 130.585C376.115 130.585 375.279 130.459 374.559 130.208C373.838 129.957 373.222 129.619 372.708 129.193C372.196 128.767 371.77 128.303 371.431 127.801H371.234C371.267 128.227 371.306 128.74 371.349 129.34C371.403 129.941 371.431 130.465 371.431 130.912V138.281H368.696V112.309H370.94L371.299 114.962H371.431C371.781 114.416 372.207 113.92 372.708 113.472C373.211 113.013 373.821 112.653 374.542 112.391C375.273 112.118 376.137 111.982 377.129 111.982ZM376.655 114.274C375.411 114.274 374.406 114.515 373.641 114.995C372.888 115.475 372.337 116.196 371.988 117.157C371.638 118.106 371.453 119.302 371.431 120.743V121.267C371.431 122.784 371.595 124.067 371.922 125.115C372.261 126.163 372.812 126.96 373.576 127.506C374.352 128.052 375.389 128.325 376.688 128.325C377.801 128.325 378.73 128.025 379.471 127.424C380.214 126.824 380.765 125.989 381.126 124.919C381.496 123.838 381.682 122.599 381.682 121.201C381.682 119.083 381.267 117.402 380.437 116.158C379.618 114.902 378.358 114.274 376.655 114.274ZM395.274 112.015C397.415 112.015 399.003 112.495 400.04 113.456C401.077 114.416 401.596 115.95 401.596 118.057V130.257H399.615L399.09 127.604H398.96C398.457 128.259 397.933 128.811 397.387 129.258C396.841 129.695 396.207 130.028 395.488 130.257C394.777 130.476 393.904 130.585 392.867 130.585C391.776 130.585 390.804 130.394 389.952 130.012C389.112 129.63 388.446 129.051 387.955 128.276C387.474 127.501 387.234 126.518 387.234 125.328C387.234 123.538 387.945 122.162 389.362 121.201C390.782 120.241 392.944 119.717 395.848 119.629L398.943 119.498V118.401C398.943 116.851 398.61 115.765 397.944 115.142C397.279 114.52 396.339 114.209 395.127 114.209C394.189 114.209 393.293 114.345 392.441 114.618C391.59 114.891 390.782 115.213 390.019 115.584L389.183 113.521C389.991 113.106 390.918 112.751 391.966 112.457C393.014 112.162 394.118 112.015 395.274 112.015ZM398.91 121.414L396.175 121.529C393.937 121.616 392.359 121.982 391.443 122.626C390.525 123.27 390.067 124.182 390.067 125.361C390.067 126.387 390.378 127.146 391 127.637C391.622 128.128 392.447 128.374 393.474 128.374C395.067 128.374 396.372 127.932 397.387 127.048C398.402 126.163 398.91 124.837 398.91 123.068V121.414ZM413.715 130.585C412.099 130.585 410.675 130.252 409.441 129.586C408.207 128.92 407.246 127.905 406.559 126.54C405.87 125.175 405.526 123.456 405.526 121.382C405.526 119.209 405.887 117.435 406.607 116.059C407.339 114.673 408.343 113.647 409.62 112.981C410.898 112.315 412.349 111.982 413.976 111.982C414.871 111.982 415.735 112.075 416.565 112.26C417.405 112.435 418.092 112.659 418.626 112.932L417.809 115.208C417.263 114.989 416.63 114.793 415.908 114.618C415.199 114.444 414.534 114.356 413.911 114.356C412.667 114.356 411.63 114.624 410.8 115.159C409.981 115.694 409.364 116.48 408.949 117.517C408.545 118.554 408.343 119.831 408.343 121.349C408.343 122.801 408.54 124.04 408.933 125.066C409.337 126.092 409.932 126.878 410.718 127.424C411.515 127.959 412.507 128.227 413.698 128.227C414.648 128.227 415.504 128.128 416.269 127.932C417.034 127.724 417.727 127.484 418.349 127.211V129.635C417.749 129.941 417.077 130.175 416.334 130.339C415.603 130.503 414.73 130.585 413.715 130.585ZM424.523 112.309V123.592C424.523 123.811 424.518 124.094 424.507 124.444C424.496 124.782 424.479 125.148 424.458 125.541C424.436 125.923 424.414 126.294 424.393 126.654C424.382 127.004 424.365 127.293 424.343 127.522L434.135 112.309H437.476V130.257H434.939V119.253C434.939 118.903 434.943 118.456 434.954 117.91C434.965 117.364 434.982 116.829 435.004 116.305C435.025 115.77 435.042 115.355 435.053 115.061L425.293 130.257H421.936V112.309H424.523ZM461.533 112.309V130.257H459.076V118.565C459.076 118.085 459.087 117.599 459.11 117.108C459.142 116.605 459.18 116.103 459.225 115.601H459.125L453.164 130.257H450.856L445.042 115.601H444.945C444.977 116.103 444.999 116.605 445.01 117.108C445.031 117.599 445.042 118.117 445.042 118.663V130.257H442.57V112.309H446.222L452.019 126.982L457.898 112.309H461.533ZM481.987 121.25C481.987 122.724 481.795 124.04 481.414 125.197C481.032 126.354 480.481 127.331 479.76 128.128C479.04 128.925 478.165 129.537 477.141 129.962C476.125 130.377 474.973 130.585 473.684 130.585C472.484 130.585 471.381 130.377 470.376 129.962C469.384 129.537 468.52 128.925 467.789 128.128C467.068 127.331 466.506 126.354 466.102 125.197C465.709 124.04 465.512 122.724 465.512 121.25C465.512 119.285 465.847 117.615 466.512 116.24C467.178 114.853 468.128 113.8 469.361 113.079C470.605 112.348 472.085 111.982 473.798 111.982C475.436 111.982 476.867 112.348 478.089 113.079C479.323 113.811 480.278 114.869 480.955 116.256C481.643 117.631 481.987 119.296 481.987 121.25ZM468.33 121.25C468.33 122.692 468.52 123.942 468.902 125.001C469.285 126.059 469.874 126.878 470.672 127.457C471.469 128.036 472.495 128.325 473.751 128.325C474.995 128.325 476.015 128.036 476.812 127.457C477.62 126.878 478.215 126.059 478.597 125.001C478.979 123.942 479.17 122.692 479.17 121.25C479.17 119.82 478.979 118.587 478.597 117.55C478.215 116.501 477.625 115.694 476.829 115.126C476.032 114.558 475 114.274 473.733 114.274C471.867 114.274 470.497 114.891 469.624 116.125C468.761 117.359 468.33 119.067 468.33 121.25ZM500.279 116.813C500.279 117.937 499.951 118.816 499.296 119.449C498.642 120.072 497.796 120.492 496.759 120.71V120.841C497.883 120.994 498.849 121.398 499.657 122.053C500.476 122.697 500.885 123.685 500.885 125.017C500.885 126.043 500.64 126.949 500.148 127.735C499.657 128.521 498.888 129.138 497.84 129.586C496.792 130.033 495.426 130.257 493.745 130.257H486.016V112.309H493.68C494.968 112.309 496.103 112.457 497.086 112.751C498.08 113.035 498.86 113.505 499.428 114.16C499.996 114.815 500.279 115.699 500.279 116.813ZM498.052 125.017C498.052 123.958 497.648 123.194 496.84 122.724C496.044 122.255 494.882 122.02 493.352 122.02H488.75V128.046H493.417C494.925 128.046 496.07 127.817 496.857 127.359C497.654 126.889 498.052 126.109 498.052 125.017ZM497.512 117.124C497.512 116.272 497.2 115.639 496.578 115.224C495.956 114.798 494.936 114.586 493.516 114.586H488.75V119.744H493.041C494.515 119.744 495.629 119.531 496.382 119.105C497.135 118.679 497.512 118.019 497.512 117.124ZM511.318 112.015C513.457 112.015 515.045 112.495 516.082 113.456C517.119 114.416 517.638 115.95 517.638 118.057V130.257H515.657L515.133 127.604H515.002C514.5 128.259 513.976 128.811 513.429 129.258C512.884 129.695 512.251 130.028 511.53 130.257C510.821 130.476 509.948 130.585 508.911 130.585C507.818 130.585 506.847 130.394 505.996 130.012C505.154 129.63 504.488 129.051 503.997 128.276C503.518 127.501 503.276 126.518 503.276 125.328C503.276 123.538 503.987 122.162 505.406 121.201C506.826 120.241 508.986 119.717 511.89 119.629L514.985 119.498V118.401C514.985 116.851 514.652 115.765 513.986 115.142C513.321 114.52 512.381 114.209 511.171 114.209C510.231 114.209 509.336 114.345 508.485 114.618C507.632 114.891 506.826 115.213 506.061 115.584L505.225 113.521C506.033 113.106 506.962 112.751 508.01 112.457C509.058 112.162 510.16 112.015 511.318 112.015ZM514.952 121.414L512.219 121.529C509.98 121.616 508.403 121.982 507.485 122.626C506.569 123.27 506.11 124.182 506.11 125.361C506.11 126.387 506.422 127.146 507.044 127.637C507.666 128.128 508.49 128.374 509.516 128.374C511.11 128.374 512.415 127.932 513.429 127.048C514.445 126.163 514.952 124.837 514.952 123.068V121.414Z" fill="#202020"/>
</g>
<defs>
<filter id="filter0_d_4826_2131" x="0.972168" y="0.229492" width="689.098" height="156.603" filterUnits="userSpaceOnUse" color-interpolation-filters="sRGB">
<feFlood flood-opacity="0" result="BackgroundImageFix"/>
<feColorMatrix in="SourceAlpha" type="matrix" values="0 0 0 0 0 0 0 0 0 0 0 0 0 0 0 0 0 0 127 0" result="hardAlpha"/>
<feOffset dy="4"/>
<feGaussianBlur stdDeviation="2"/>
<feComposite in2="hardAlpha" operator="out"/>
<feColorMatrix type="matrix" values="0 0 0 0 0 0 0 0 0 0 0 0 0 0 0 0 0 0 0.25 0"/>
<feBlend mode="normal" in2="BackgroundImageFix" result="effect1_dropShadow_4826_2131"/>
<feBlend mode="normal" in="SourceGraphic" in2="effect1_dropShadow_4826_2131" result="shape"/>
</filter>
<clipPath id="clip0_4826_2131">
<rect width="681.098" height="148.603" fill="white" transform="translate(4.97217 0.229492)"/>
</clipPath>
</defs>
</svg>
