<svg width="237" height="90" viewBox="0 0 237 90" fill="none" xmlns="http://www.w3.org/2000/svg">
<g clip-path="url(#clip0_4826_1599)" filter="url(#filter0_d_4826_1599)">
<mask id="mask0_4826_1599" style="mask-type:luminance" maskUnits="userSpaceOnUse" x="4" y="0" width="229" height="83">
<path d="M232.625 0.527832H4V82.5347H232.625V0.527832Z" fill="white"/>
</mask>
<g mask="url(#mask0_4826_1599)">
<path fill-rule="evenodd" clip-rule="evenodd" d="M19.5332 0.527832L15.6475 11.1716H69.4951L73.3808 0.527832H19.5332ZM13.7034 16.4911L9.81769 27.1323H63.6652L67.5508 16.4911H13.7034ZM7.88573 32.4543L4 43.0956H57.8474L61.7308 32.4543H7.88573Z" fill="#202020"/>
<path fill-rule="evenodd" clip-rule="evenodd" d="M118.476 47.1518V47.3764C120.937 48.2797 123.288 49.859 124.519 50.8734C128.324 54.0324 130.004 58.2055 130.004 63.62C130.004 72.5339 125.303 78.9627 117.58 80.9937C115.229 81.6699 112.768 81.8971 108.177 81.8971H84.7881V16.6958H105.494C109.747 16.6958 112.656 16.9204 115.229 17.5966C122.729 19.6276 127.653 24.8176 127.653 33.0503C127.653 37.4506 126.086 41.1747 123.513 43.6548C122.394 44.7827 120.827 46.1376 118.476 47.1518ZM97.7705 54.0324V71.179H106.725C109.409 71.179 111.872 70.9544 113.664 69.2615C115.454 67.5685 116.238 65.4264 116.238 62.6056C116.238 60.4635 115.677 58.4324 114.558 56.9665C112.656 54.5975 110.305 54.0324 106.277 54.0324H97.7705ZM97.6579 42.7517H104.933C107.171 42.7517 108.29 42.7517 109.409 42.4135C112.433 41.5102 114.335 38.8054 114.335 35.0816C114.335 30.6838 112.32 28.7638 109.409 27.863C108.177 27.5248 106.948 27.4112 104.485 27.4112H97.6579V42.7517ZM149.478 81.8971V27.6359H130.788V16.6958H182.72L179.028 27.6359H162.46V81.8971H149.478ZM186.748 81.8971V16.6958H228.832L225.14 27.6359H199.621V42.0755H210.029C218.423 42.0755 222.789 44.1066 225.811 46.7002C228.161 48.7313 232.189 53.2426 232.189 62.1565C232.189 70.9544 228.049 75.804 224.579 78.2865C220.551 81.1048 216.298 81.8971 207.679 81.8971H186.748ZM199.621 70.9544H209.358C213.051 70.9544 215.289 70.0513 216.856 68.0203C217.64 67.0059 218.759 65.1995 218.759 61.8161C218.759 58.4324 217.64 56.0634 215.402 54.3703C214.06 53.3562 212.267 52.7933 209.246 52.7933H199.621V70.9544Z" fill="#202020"/>
</g>
</g>
<defs>
<filter id="filter0_d_4826_1599" x="0" y="0.527832" width="236.625" height="90.0068" filterUnits="userSpaceOnUse" color-interpolation-filters="sRGB">
<feFlood flood-opacity="0" result="BackgroundImageFix"/>
<feColorMatrix in="SourceAlpha" type="matrix" values="0 0 0 0 0 0 0 0 0 0 0 0 0 0 0 0 0 0 127 0" result="hardAlpha"/>
<feOffset dy="4"/>
<feGaussianBlur stdDeviation="2"/>
<feComposite in2="hardAlpha" operator="out"/>
<feColorMatrix type="matrix" values="0 0 0 0 0 0 0 0 0 0 0 0 0 0 0 0 0 0 0.25 0"/>
<feBlend mode="normal" in2="BackgroundImageFix" result="effect1_dropShadow_4826_1599"/>
<feBlend mode="normal" in="SourceGraphic" in2="effect1_dropShadow_4826_1599" result="shape"/>
</filter>
<clipPath id="clip0_4826_1599">
<rect width="228.625" height="82.0068" fill="white" transform="translate(4 0.527832)"/>
</clipPath>
</defs>
</svg>
